<svg width="300" height="300" viewBox="0 0 300 300" fill="none" xmlns="http://www.w3.org/2000/svg">
<g clip-path="url(#clip0_916_705)">
<path d="M300 0.5H0.292969V299.5H300V0.5Z" fill="#FF9951"/>
<path d="M267.219 150C267.219 85.4961 214.805 33.2031 150.145 33.2031C85.4883 33.2031 33.0742 85.4961 33.0742 150C33.0742 214.504 85.4883 266.797 150.145 266.797C214.805 266.797 267.219 214.504 267.219 150Z" stroke="white" stroke-width="14.6169"/>
<path d="M143.707 0.5H156.293V29.1172H143.707V0.5Z" fill="white"/>
<path d="M143.707 270.883H156.293V299.5H143.707V270.883Z" fill="white"/>
<path d="M300 143.578V156.133H240V143.578H300Z" fill="white"/>
<path d="M60 143.867V156.133H0V143.867H60Z" fill="white"/>
<path d="M260.414 251.273L251.512 260.152L231.23 239.918L240.129 231.039L260.414 251.273Z" fill="white"/>
<path d="M68.7695 60.082L59.8711 68.9609L39.5898 48.7266L48.4883 39.8477L68.7695 60.082Z" fill="white"/>
<path d="M251.512 39.8477L260.414 48.7266L240.129 68.9609L231.23 60.082L251.512 39.8477Z" fill="white"/>
<path d="M59.8711 231.039L68.7695 239.918L48.4883 260.152L39.5859 251.273L59.8711 231.039Z" fill="white"/>
<path fill-rule="evenodd" clip-rule="evenodd" d="M180.586 18.5312V3.58594C238.824 15.5742 284.715 61.2773 296.844 119.34H281.859C270.215 69.3594 230.727 30.0391 180.586 18.5312Z" fill="white"/>
<path fill-rule="evenodd" clip-rule="evenodd" d="M180.586 281.469V296.414C238.824 284.426 284.715 238.723 296.844 180.66H281.859C270.215 230.641 230.727 269.961 180.586 281.469Z" fill="white"/>
<path fill-rule="evenodd" clip-rule="evenodd" d="M116.262 18.5312V3.58594C58.0195 15.5742 12.1289 61.2773 0 119.34H14.9883C26.6289 69.3594 66.1211 30.0391 116.262 18.5312Z" fill="white"/>
<path fill-rule="evenodd" clip-rule="evenodd" d="M116.262 281.469V296.414C58.0195 284.426 12.1289 238.723 0 180.66H14.9883C26.6289 230.641 66.1211 269.961 116.262 281.469Z" fill="white"/>
<path fill-rule="evenodd" clip-rule="evenodd" d="M171.301 230.805V245.773C209.453 237.918 239.52 207.977 247.465 169.941H232.453C225.023 199.895 201.355 223.465 171.301 230.805ZM249.531 149.426C249.531 149.57 249.531 149.711 249.531 149.855C249.531 149.996 249.531 150.137 249.531 150.281V149.426Z" fill="white"/>
<path fill-rule="evenodd" clip-rule="evenodd" d="M129.16 69.4844V54.5195C91.0039 62.3711 60.9414 92.3164 52.9922 130.352H68.0039C75.4336 100.395 99.1055 76.8281 129.16 69.4844ZM50.9258 150.543C50.9258 150.508 50.9258 150.473 50.9258 150.438C50.9258 150.402 50.9258 150.367 50.9258 150.336V150.543Z" fill="white"/>
<path d="M92.0352 92.8086C95.4961 93.0156 98.3242 93.1758 100.523 93.2773C102.832 93.3828 104.664 93.4375 106.027 93.4375C107.598 93.5391 108.805 93.5391 109.645 93.4375H113.73C115.301 93.4375 117.504 93.4883 120.332 93.5938C123.266 93.5938 127.094 93.6445 131.809 93.75C131.285 94.4805 130.867 95.3711 130.551 96.4141C130.238 97.4609 129.973 98.5078 129.766 99.5508C129.449 100.703 129.242 101.957 129.137 103.316C129.031 104.988 128.82 107.602 128.508 111.156C128.297 114.191 127.984 118.426 127.562 123.859C127.25 129.191 126.832 136.145 126.305 144.719C129.344 144.719 131.965 144.457 134.168 143.934C136.367 143.309 138.203 142.578 139.668 141.738C141.344 140.902 142.707 139.91 143.758 138.762C144.281 138.133 144.855 137.453 145.484 136.723C146.008 136.094 146.691 135.414 147.527 134.684C148.367 133.949 149.258 133.168 150.203 132.328C149.992 135.152 149.836 137.609 149.73 139.699C149.625 141.688 149.52 143.359 149.414 144.719C149.309 146.289 149.207 147.543 149.102 148.484C149.102 149.633 148.996 151.148 148.785 153.031C148.578 154.703 148.367 156.953 148.156 159.777C147.949 162.492 147.738 165.945 147.527 170.125C146.48 168.035 145.484 166.414 144.543 165.266C143.703 164.012 142.969 163.07 142.34 162.441C141.504 161.711 140.77 161.188 140.141 160.875C139.406 160.664 138.41 160.453 137.152 160.246C136 160.035 134.535 159.934 132.75 159.934C131.074 159.828 128.875 159.723 126.148 159.617C126.148 165.789 126.254 170.754 126.465 174.52C126.777 178.281 127.094 181.211 127.406 183.301C127.824 185.809 128.297 187.586 128.82 188.633C129.449 189.574 130.34 190.672 131.492 191.926C132.543 193.074 133.957 194.434 135.738 196.004C137.52 197.57 139.824 199.348 142.656 201.336C140.246 201.859 137.938 202.223 135.738 202.434C133.641 202.539 131.703 202.695 129.922 202.906C127.93 203.113 126.043 203.219 124.262 203.219C122.375 203.219 120.07 203.324 117.348 203.531C114.934 203.742 111.949 203.949 108.387 204.16C104.82 204.367 100.523 204.629 95.4961 204.941C97.2773 203.164 98.6914 201.547 99.7383 200.082C100.891 198.512 101.781 197.152 102.41 196.004C103.145 194.75 103.668 193.652 103.984 192.711C104.191 191.559 104.508 189.625 104.926 186.906C105.242 184.605 105.609 181.418 106.027 177.34C106.445 173.262 106.918 167.879 107.441 161.188L64.6836 161.656L65.4688 151.148C70.6055 143.832 74.6914 137.766 77.7305 132.957C80.875 128.043 83.2852 124.07 84.9609 121.039C86.8477 117.586 88.2109 114.871 89.0508 112.883C89.5742 111 90.0469 109.016 90.4648 106.922C90.8828 105.145 91.25 103.055 91.5664 100.648C91.8789 98.1406 92.0352 95.5273 92.0352 92.8086ZM109.328 146.289C109.539 143.465 109.695 140.902 109.801 138.602C110.012 136.199 110.168 134.109 110.273 132.328C110.375 130.344 110.43 128.461 110.43 126.684V120.883C110.43 119 110.43 116.805 110.43 114.293C110.535 111.68 110.637 108.754 110.742 105.512L87.6328 146.602L109.328 146.289ZM161.207 93.75C166.234 94.6914 170.637 95.3711 174.41 95.7891C178.184 96.207 181.379 96.5195 184 96.7305C187.039 96.9375 189.66 96.9922 191.859 96.8867C194.062 96.8867 196.84 96.7305 200.191 96.4141C203.02 96.207 206.586 95.9453 210.883 95.6328C215.285 95.2148 220.473 94.7422 226.445 94.2188C226.129 97.043 225.816 99.6055 225.5 101.906C225.293 104.102 225.082 105.98 224.871 107.551C224.664 109.434 224.504 111.105 224.402 112.57C224.297 114.137 224.141 115.914 223.93 117.902C223.719 119.68 223.512 121.875 223.301 124.488C223.195 127.102 223.09 130.133 222.984 133.586C219.004 126.996 215.387 121.926 212.141 118.371C208.891 114.711 206.059 111.992 203.648 110.215C200.926 108.23 198.461 107.027 196.262 106.609H189.816C187.93 106.609 185.887 106.66 183.684 106.766C181.484 106.871 179.492 107.078 177.711 107.395L178.34 144.406C180.438 141.793 182.742 139.859 185.258 138.602C187.773 137.348 190.234 136.461 192.645 135.938C195.371 135.414 198.148 135.203 200.977 135.309C208.312 135.938 213.973 137.191 217.957 139.074C222.043 140.957 224.977 143.727 226.758 147.387C227.598 149.27 228.277 152.145 228.801 156.012C229.43 159.777 229.641 163.852 229.43 168.246C229.223 172.637 228.539 176.977 227.387 181.262C226.234 185.445 224.402 188.84 221.887 191.457C219.371 193.965 216.906 196.055 214.496 197.73C212.086 199.297 209.676 200.605 207.266 201.648C204.855 202.59 202.34 203.27 199.719 203.688C197.102 204.105 194.324 204.422 191.387 204.629C186.672 204.941 182.164 204.422 177.867 203.062C173.57 201.703 169.801 199.871 166.551 197.57C163.301 195.273 160.68 192.816 158.691 190.199C156.699 187.484 155.598 185.023 155.391 182.828C155.18 181.156 155.074 179.484 155.074 177.812C155.074 176.348 155.125 174.832 155.23 173.262C155.441 171.695 155.809 170.336 156.332 169.184L197.047 172.008C193.066 173.262 190.078 174.621 188.086 176.086C186.098 177.445 184.68 178.754 183.844 180.008C182.793 181.469 182.375 182.934 182.586 184.398C183.32 188.16 184.629 191.246 186.516 193.652C188.402 195.953 190.551 196.891 192.961 196.473C194.219 196.266 195.633 195.43 197.203 193.965C198.883 192.395 200.453 190.461 201.922 188.16C203.492 185.863 204.855 183.301 206.008 180.477C207.266 177.551 208.051 174.621 208.367 171.695C208.68 168.766 208.891 165.684 208.996 162.441C209.203 159.199 209.102 156.219 208.68 153.504C208.262 150.785 207.527 148.535 206.48 146.758C205.434 144.875 203.914 143.934 201.922 143.934C200.242 144.145 198.359 144.824 196.262 145.973C194.48 147.02 192.332 148.59 189.816 150.68C187.406 152.77 184.68 155.801 181.641 159.777C179.547 159.254 177.766 158.73 176.297 158.207C174.934 157.578 173.781 157.059 172.84 156.641C171.684 156.219 170.793 155.75 170.164 155.227C169.539 154.809 168.699 154.285 167.652 153.66C166.812 153.137 165.766 152.508 164.508 151.777C163.25 150.941 161.73 149.949 159.949 148.797C160.367 144.719 160.629 141.27 160.734 138.445C160.84 135.625 160.945 133.324 161.047 131.547V126.371C160.945 124.906 160.891 122.762 160.891 119.941C160.891 117.535 160.891 114.242 160.891 110.059C160.891 105.773 160.996 100.336 161.207 93.75Z" fill="white"/>
</g>
<defs>
<clipPath id="clip0_916_705">
<rect width="300" height="300" fill="white"/>
</clipPath>
</defs>
</svg>
