<svg width="300" height="300" viewBox="0 0 300 300" fill="none" xmlns="http://www.w3.org/2000/svg">
<g clip-path="url(#clip0_916_688)">
<path d="M300 0.5H0.292969V299.5H300V0.5Z" fill="#FF9951"/>
<path d="M267.219 150C267.219 85.4961 214.805 33.2031 150.145 33.2031C85.4883 33.2031 33.0742 85.4961 33.0742 150C33.0742 214.504 85.4883 266.797 150.145 266.797C214.805 266.797 267.219 214.504 267.219 150Z" stroke="white" stroke-width="14.6169"/>
<path d="M143.707 0.5H156.293V29.1172H143.707V0.5Z" fill="white"/>
<path d="M143.707 270.883H156.293V299.5H143.707V270.883Z" fill="white"/>
<path d="M299.855 143.723V156.277H271.172V143.723H299.855Z" fill="white"/>
<path d="M28.8281 143.723V156.277H0.144531V143.723H28.8281Z" fill="white"/>
<path d="M260.414 251.273L251.512 260.152L231.23 239.918L240.129 231.039L260.414 251.273Z" fill="white"/>
<path d="M68.7695 60.082L59.8711 68.9609L39.5898 48.7266L48.4883 39.8477L68.7695 60.082Z" fill="white"/>
<path d="M251.512 39.8477L260.414 48.7266L240.129 68.9609L231.23 60.082L251.512 39.8477Z" fill="white"/>
<path d="M59.8711 231.039L68.7695 239.918L48.4883 260.152L39.5859 251.273L59.8711 231.039Z" fill="white"/>
<path fill-rule="evenodd" clip-rule="evenodd" d="M180.586 18.5312V3.58594C238.824 15.5742 284.715 61.2773 296.844 119.34H281.859C270.215 69.3594 230.727 30.0391 180.586 18.5312Z" fill="white"/>
<path fill-rule="evenodd" clip-rule="evenodd" d="M180.586 281.469V296.414C238.824 284.426 284.715 238.723 296.844 180.66H281.859C270.215 230.641 230.727 269.961 180.586 281.469Z" fill="white"/>
<path fill-rule="evenodd" clip-rule="evenodd" d="M116.262 18.5312V3.58594C58.0195 15.5742 12.1289 61.2773 0 119.34H14.9883C26.6289 69.3594 66.1211 30.0391 116.262 18.5312Z" fill="white"/>
<path fill-rule="evenodd" clip-rule="evenodd" d="M116.262 281.469V296.414C58.0195 284.426 12.1289 238.723 0 180.66H14.9883C26.6289 230.641 66.1211 269.961 116.262 281.469Z" fill="white"/>
<path d="M65.75 92.0045C67.5312 93.2584 69.3672 94.1998 71.2539 94.8248C73.1406 95.4537 74.8164 95.9225 76.2852 96.2389C78.0664 96.6568 79.793 96.8639 81.4727 96.8639C83.5664 96.8639 85.4531 96.6022 87.1289 96.0826C88.9141 95.5592 90.8516 95.0357 92.9492 94.5123C95.043 93.9889 97.4531 93.5709 100.18 93.2584C102.902 92.8404 106.309 92.7857 110.398 93.1022C114.484 93.4147 118.152 94.3561 121.402 95.9225C124.648 97.3873 127.375 99.2701 129.574 101.571C131.883 103.766 133.664 106.223 134.922 108.942C136.18 111.661 136.809 114.43 136.809 117.254C136.598 121.54 135.918 125.563 134.762 129.329C133.715 132.571 132.09 135.758 129.891 138.895C127.688 141.926 124.441 144.071 120.145 145.325C125.383 146.059 129.473 147.419 132.406 149.403C135.445 151.391 137.801 153.43 139.48 155.52C141.367 158.028 142.676 160.747 143.41 163.676C144.039 167.544 143.984 171.516 143.254 175.594C142.52 179.567 141.156 183.333 139.164 186.887C137.277 190.337 134.66 193.422 131.305 196.141C128.055 198.755 124.125 200.688 119.516 201.942C116.371 202.778 112.754 202.989 108.668 202.571C104.684 202.047 100.809 201.313 97.0352 200.376C93.2617 199.434 89.8555 198.493 86.8164 197.551C83.7773 196.61 81.6797 196.192 80.5273 196.297C79.5859 196.399 78.4844 196.766 77.2266 197.395C76.0742 197.919 74.7109 198.755 73.1406 199.903C71.6719 200.95 69.8906 202.465 67.7969 204.45C68.3203 199.747 68.6875 195.981 68.8945 193.161C69.2109 190.337 69.4727 188.09 69.6797 186.415C69.8906 184.536 69.9961 183.122 69.9961 182.18V178.731C69.9961 177.477 69.9414 175.856 69.8398 173.868C69.7344 171.883 69.6289 169.372 69.5234 166.34C74.8711 172.825 79.8984 177.684 84.6172 180.926C89.332 184.169 93.4727 186.52 97.0352 187.985C101.227 189.657 105.051 190.442 108.512 190.337C111.445 190.126 113.805 189.188 115.586 187.512C117.367 185.735 118.625 183.645 119.359 181.239C120.09 178.837 120.352 176.274 120.145 173.555C119.934 170.731 119.254 168.118 118.102 165.715C117.051 163.204 115.586 161.063 113.699 159.286C111.812 157.403 109.609 156.251 107.094 155.833C104.055 155.309 101.176 155.258 98.4492 155.676C96.0391 155.989 93.5234 156.723 90.9023 157.872C88.2852 158.919 86.082 160.747 84.3008 163.36C84.0898 161.583 83.9336 160.067 83.8281 158.813C83.8281 157.559 83.7773 156.512 83.6719 155.676C83.5664 154.735 83.5156 154.055 83.5156 153.637C83.5156 153.114 83.4648 152.333 83.3594 151.286C83.2539 150.45 83.1484 149.352 83.043 147.993C83.043 146.528 82.9375 144.7 82.7305 142.504C84.6172 143.024 86.3984 143.442 88.0742 143.758C89.75 143.965 91.2188 144.122 92.4766 144.227C93.9414 144.333 95.3047 144.333 96.5625 144.227C98.1367 144.122 100.02 143.547 102.223 142.504C104.527 141.352 106.676 139.837 108.668 137.954C110.66 136.071 112.23 133.825 113.383 131.212C114.641 128.598 115.062 125.723 114.641 122.587C113.699 116.208 111.551 111.661 108.195 108.942C104.949 106.118 101.594 104.809 98.1367 105.02C95.8281 105.333 93.1055 106.43 89.9609 108.313C87.2344 109.883 83.9883 112.286 80.2148 115.528C76.5469 118.665 72.3555 123.11 67.6367 128.86C67.8477 126.036 67.9531 123.528 67.9531 121.329C67.9531 119.032 67.9531 117.149 67.9531 115.684C67.9531 113.907 67.8984 112.34 67.7969 110.981L67.3242 106.274C67.1133 104.708 66.9023 102.719 66.6953 100.317C66.4844 97.9107 66.1719 95.1412 65.75 92.0045ZM194.027 91.8443C198.852 91.7428 203.723 92.8404 208.648 95.1412C213.574 97.4381 218.027 100.942 222.012 105.649C225.992 110.247 229.242 116.051 231.758 123.055C234.273 130.059 235.582 138.27 235.688 147.68C235.793 153.95 235.32 159.649 234.273 164.774C233.227 169.895 231.809 174.497 230.027 178.575C228.246 182.547 226.203 186.102 223.898 189.239C221.695 192.27 219.441 194.883 217.137 197.079C214.832 199.172 212.633 200.844 210.535 202.098C208.438 203.352 206.656 204.188 205.191 204.61C203.305 205.235 201.051 205.809 198.43 206.333C195.809 206.751 193.086 207.012 190.258 207.118C187.426 207.325 184.598 207.169 181.766 206.649C179.043 206.227 176.633 205.391 174.535 204.137C172.441 202.883 169.977 201.106 167.148 198.805C164.422 196.399 161.801 193.161 159.285 189.083C156.773 184.899 154.625 179.672 152.84 173.399C151.059 167.126 150.168 159.442 150.168 150.344C150.168 141.247 151.219 133.094 153.312 125.879C155.516 118.665 158.5 112.547 162.273 107.528C166.152 102.512 170.762 98.6959 176.109 96.0826C181.559 93.3639 187.531 91.9498 194.027 91.8443ZM171.863 150.188C171.758 156.356 172.125 161.743 172.965 166.34C173.801 170.942 174.797 174.809 175.949 177.946C177.102 181.083 178.258 183.594 179.41 185.473C180.668 187.251 181.609 188.508 182.238 189.239C182.867 190.18 184.02 190.805 185.695 191.122C187.375 191.434 189.156 191.59 191.043 191.59C192.93 191.485 194.762 191.227 196.543 190.805C198.324 190.286 199.688 189.606 200.633 188.77C201.156 188.247 201.891 186.938 202.832 184.848C203.879 182.755 204.875 180.04 205.82 176.692C206.867 173.348 207.809 169.477 208.648 165.087C209.488 160.59 210.063 155.782 210.379 150.657C210.691 144.907 210.691 139.629 210.379 134.817C210.063 129.903 209.59 125.618 208.965 121.958C208.336 118.297 207.602 115.266 206.762 112.86C205.922 110.458 205.031 108.837 204.09 108.001C202.727 106.747 201.051 105.856 199.059 105.333C197.172 104.809 195.234 104.602 193.242 104.708C191.355 104.809 189.523 105.176 187.742 105.805C186.062 106.43 184.754 107.266 183.812 108.313C181.926 110.403 180.246 112.598 178.781 114.899C177.312 117.2 176.109 119.973 175.164 123.212C174.223 126.454 173.434 130.27 172.805 134.661C172.281 138.95 171.969 144.122 171.863 150.188Z" fill="white"/>
</g>
<defs>
<clipPath id="clip0_916_688">
<rect width="300" height="300" fill="white"/>
</clipPath>
</defs>
</svg>
