<svg width="300" height="300" viewBox="0 0 300 300" fill="none" xmlns="http://www.w3.org/2000/svg">
<path d="M300 0.292969H0.292969V300H300V0.292969Z" fill="#E0DA1C"/>
<path d="M143.707 0.292969H156.293V60H143.707V0.292969Z" fill="white"/>
<path d="M143.707 236.195H156.293V300H143.707V236.195Z" fill="white"/>
<path d="M300 144V156.293H231.219V144H300Z" fill="white"/>
<path d="M62.0469 144V156.293H0V144H62.0469Z" fill="white"/>
<path d="M300 290.926V300H294.145L231.23 240.277L240.129 231.379L300 290.926Z" fill="white"/>
<path d="M0.144531 9.20703V0.132812H6L68.9141 59.8555L60.0156 68.7539L0.144531 9.20703Z" fill="white"/>
<path d="M300 290.926V300H294.145L231.23 240.277L240.129 231.379L300 290.926Z" fill="white"/>
<path d="M0.144531 9.20703V0.132812H6L68.9141 59.8555L60.0156 68.7539L0.144531 9.20703Z" fill="white"/>
<path d="M0.144531 290.926V300H6L68.9141 240.277L60.0156 231.379L0.144531 290.926Z" fill="white"/>
<path d="M300 9.20703V0.132812H294.145L231.23 59.8555L240.129 68.7539L300 9.20703Z" fill="white"/>
<path d="M92.6562 109.461C96.3242 108.309 99.3125 107.363 101.617 106.633C103.922 105.793 105.809 105.113 107.277 104.59C108.953 103.957 110.211 103.383 111.051 102.859L114.82 100.973C116.289 100.238 118.176 99.2969 120.48 98.1406C122.785 96.8867 125.773 95.3125 129.441 93.4258C128.602 97.4102 127.977 101.184 127.555 104.746C127.242 108.203 126.98 111.297 126.77 114.02C126.457 117.164 126.297 120.047 126.297 122.668C126.191 124.867 126.035 127.801 125.824 131.469C125.723 135.137 125.562 139.121 125.355 143.418C125.145 147.715 124.934 152.117 124.727 156.621C124.516 161.129 124.359 165.371 124.254 169.355C124.254 173.234 124.305 176.586 124.41 179.418C124.621 182.246 124.988 184.184 125.512 185.234C126.035 186.492 126.719 187.695 127.555 188.848C128.289 189.898 129.129 191.102 130.07 192.465C131.117 193.723 132.375 194.98 133.844 196.238C131.434 196.762 129.18 197.234 127.082 197.652C124.988 197.965 123.152 198.227 121.582 198.438C119.695 198.754 118.02 199.016 116.551 199.223C114.98 199.328 112.832 199.59 110.105 200.012C107.801 200.324 104.867 200.742 101.301 201.266C97.7383 201.688 93.3359 202.16 88.0977 202.684C90.8242 201.004 92.9727 199.383 94.543 197.809C96.2187 196.238 97.4766 194.875 98.3164 193.723C99.2578 192.359 99.8359 191.051 100.043 189.793C100.148 188.953 100.309 186.699 100.516 183.031C100.832 179.258 101.094 174.859 101.301 169.828C101.617 164.691 101.879 159.242 102.09 153.477C102.402 147.609 102.613 142.16 102.719 137.129C102.82 132.098 102.875 127.801 102.875 124.238C102.875 120.676 102.719 118.527 102.402 117.793C101.984 117.059 101.355 116.223 100.516 115.277C99.7812 114.437 98.7891 113.547 97.5312 112.605C96.3789 111.66 94.7539 110.613 92.6562 109.461ZM142.777 153.762C144.777 153.137 146.406 152.621 147.664 152.219C148.922 151.762 149.949 151.391 150.75 151.105C151.664 150.762 152.352 150.449 152.809 150.164L154.867 149.133C155.668 148.734 156.695 148.219 157.953 147.59C159.211 146.902 160.84 146.047 162.84 145.02C162.383 147.191 162.039 149.246 161.812 151.191C161.641 153.078 161.496 154.766 161.383 156.25C161.211 157.965 161.125 159.539 161.125 160.965C161.066 162.168 160.98 163.766 160.867 165.77C160.812 167.77 160.727 169.941 160.609 172.285C160.496 174.629 160.383 177.031 160.27 179.488C160.152 181.945 160.066 184.262 160.012 186.434C160.012 188.547 160.039 190.379 160.098 191.922C160.211 193.465 160.41 194.523 160.695 195.094C160.98 195.781 161.355 196.438 161.812 197.066C162.211 197.637 162.668 198.297 163.184 199.039C163.754 199.723 164.441 200.41 165.242 201.098C163.926 201.383 162.699 201.641 161.555 201.867C160.41 202.039 159.41 202.184 158.555 202.297C157.523 202.469 156.609 202.609 155.809 202.727C154.953 202.781 153.781 202.926 152.293 203.152C151.035 203.324 149.434 203.555 147.492 203.84C145.547 204.07 143.148 204.324 140.289 204.613C141.773 203.695 142.945 202.812 143.805 201.953C144.719 201.098 145.406 200.352 145.863 199.723C146.375 198.98 146.691 198.266 146.805 197.582C146.863 197.125 146.949 195.895 147.062 193.895C147.234 191.836 147.379 189.434 147.492 186.691C147.664 183.891 147.805 180.918 147.922 177.773C148.09 174.57 148.207 171.598 148.262 168.855C148.32 166.109 148.348 163.766 148.348 161.824C148.348 159.879 148.262 158.707 148.09 158.309C147.863 157.91 147.52 157.449 147.062 156.938C146.664 156.48 146.121 155.992 145.434 155.48C144.805 154.965 143.918 154.395 142.777 153.762ZM192.25 146.477C194.195 146.648 196.195 147.16 198.254 148.02C200.313 148.875 202.227 150.133 204 151.793C205.77 153.391 207.285 155.422 208.543 157.879C209.859 160.336 210.688 163.223 211.031 166.539C211.602 172.258 211.23 177.203 209.914 181.375C208.656 185.547 206.801 189.207 204.344 192.352C201.941 195.492 199.109 198.297 195.852 200.754C192.652 203.152 189.336 205.441 185.906 207.613C184.191 205.957 182.848 204.613 181.875 203.582L180.332 202.039C179.934 201.523 179.418 200.953 178.789 200.324C178.273 199.754 177.645 199.066 176.902 198.266C176.16 197.465 175.332 196.551 174.418 195.523C176.187 196.496 177.789 197.125 179.219 197.41C180.703 197.695 181.961 197.809 182.992 197.75C184.191 197.695 185.277 197.496 186.25 197.152C188.82 195.895 191.137 194.32 193.195 192.434C194.969 190.777 196.566 188.719 197.996 186.262C199.484 183.746 200.285 180.773 200.398 177.344C198.566 179.973 196.566 181.859 194.395 183.004C192.281 184.148 190.309 184.918 188.48 185.32C186.305 185.777 184.133 185.863 181.961 185.574C180.875 185.406 179.703 184.832 178.445 183.859C177.188 182.891 175.988 181.66 174.844 180.176C173.703 178.629 172.672 176.914 171.758 175.027C170.902 173.141 170.301 171.172 169.957 169.113C169.613 166.996 169.586 164.883 169.871 162.766C170.215 160.594 171.043 158.508 172.359 156.508C174.301 153.594 176.133 151.391 177.848 149.906C179.563 148.418 181.219 147.418 182.82 146.902C184.422 146.332 185.992 146.074 187.535 146.133C189.078 146.188 190.652 146.305 192.25 146.477ZM183.164 163.797C182.703 165.398 182.477 166.996 182.477 168.598C182.477 170.199 182.676 171.656 183.078 172.973C183.535 174.285 184.164 175.43 184.965 176.402C185.762 177.316 186.762 177.887 187.965 178.117C189.164 178.402 190.336 178.23 191.48 177.602C192.68 176.914 193.766 175.973 194.738 174.773C195.766 173.57 196.625 172.172 197.312 170.57C198.055 168.914 198.539 167.227 198.77 165.512C198.941 164.312 198.941 163.023 198.77 161.652C198.652 160.223 198.367 158.91 197.91 157.707C197.512 156.449 196.969 155.395 196.281 154.535C195.652 153.68 194.91 153.164 194.051 152.992C192.91 152.82 191.766 152.992 190.621 153.508C189.535 153.965 188.508 154.707 187.535 155.734C186.563 156.707 185.676 157.91 184.879 159.336C184.133 160.711 183.563 162.195 183.164 163.797Z" fill="white"/>
<path d="M267.219 150.145C267.219 85.4883 214.805 33.0742 150.145 33.0742C85.4883 33.0742 33.0742 85.4883 33.0742 150.145C33.0742 214.805 85.4883 267.219 150.145 267.219C214.805 267.219 267.219 214.805 267.219 150.145Z" stroke="white" stroke-width="14.6342"/>
</svg>
