<svg width="52" height="38" viewBox="0 0 52 38" fill="none" xmlns="http://www.w3.org/2000/svg">
<path d="M25.9057 37.0377L8.16981 30.434L1 1H51L43.8302 31L25.9057 37.0377Z" fill="#60B9EB"/>
<path d="M25.9057 37.0377L8.16981 30.434L1 1H51L43.8302 31M25.9057 37.0377L43.8302 31M25.9057 37.0377V34.0189M43.8302 31L43.0755 29.6792M25.9057 34.0189L17.3208 31.8491M25.9057 34.0189L34.4906 31.8491M43.0755 29.6792L49.1132 4.20755H38.5472M43.0755 29.6792L34.4906 31.8491M17.3208 31.8491L9.11321 29.6792L2.88679 4.20755H38.5472M17.3208 31.8491L12.6981 4.20755M34.4906 31.8491L38.5472 4.20755" stroke="#60B9EB"/>
<path d="M43.75 31.2564L25.75 37V34.1282L34.3711 32.0641L42.9921 30L43.75 31.2564Z" fill="#51A6D8"/>
<path d="M9.1132 29.6792L2.88678 4.20752H12.75H38.75H49.1132L43.0755 29.6792L34.4906 31.849L25.9056 34.0188L17.3207 31.849L9.1132 29.6792Z" fill="#418DB8"/>
<path d="M17.3207 31.849L9.1132 29.6792L2.88678 4.20752H38.75M17.3207 31.849L25.9056 34.0188L34.4906 31.849M17.3207 31.849L12.75 4.20752M34.4906 31.849L43.0755 29.6792L49.1132 4.20752H38.75M34.4906 31.849L38.75 4.20752" stroke="#418DB8"/>
<path d="M25.9057 34.0188L17.3208 31.849L12.75 4.20752H38.75L34.4906 31.849L25.9057 34.0188Z" fill="#7CC5EF" stroke="#7CC5EF"/>
<path d="M24.06 11.68C24.5533 11.68 24.9333 11.7867 25.2 12C25.48 12.2133 25.62 12.5067 25.62 12.88C25.62 13.0667 25.5933 13.2467 25.54 13.42L25.02 15.28C24.9267 15.64 24.7867 15.8933 24.6 16.04C24.4267 16.1733 24.1733 16.24 23.84 16.24C23.52 16.24 23.2667 16.1733 23.08 16.04C22.9067 15.8933 22.7733 15.66 22.68 15.34L22.36 14.2C22.2933 13.96 22.2133 13.8 22.12 13.72C22.0267 13.64 21.8467 13.6 21.58 13.6H19.48L18.48 17.16H19.36C19.4533 17.16 19.58 17.0933 19.74 16.96L20.42 16.36C20.62 16.1867 20.7933 16.06 20.94 15.98C21.0867 15.9 21.2667 15.86 21.48 15.86C21.72 15.86 21.9133 15.9267 22.06 16.06C22.22 16.18 22.3 16.34 22.3 16.54C22.3 16.5933 22.2867 16.6733 22.26 16.78L21.44 19.56C21.36 19.8533 21.22 20.0733 21.02 20.22C20.8333 20.3533 20.6267 20.42 20.4 20.42C20.0267 20.42 19.7467 20.2267 19.56 19.84L19.22 19.14C19.1267 18.94 18.98 18.84 18.78 18.84H18L16.82 23.08H18.58C18.8333 23.08 19.0533 23.0333 19.24 22.94C19.44 22.8333 19.6533 22.6533 19.88 22.4L21.08 21.08C21.2933 20.8533 21.4933 20.6933 21.68 20.6C21.88 20.4933 22.12 20.44 22.4 20.44C22.6933 20.44 22.9333 20.5067 23.12 20.64C23.3067 20.7733 23.4 20.9733 23.4 21.24C23.4 21.3467 23.38 21.4733 23.34 21.62L22.76 23.64C22.6133 24.1467 22.4 24.5 22.12 24.7C21.84 24.9 21.4333 25 20.9 25H11.36C11.08 25 10.8667 24.9533 10.72 24.86C10.56 24.7667 10.48 24.64 10.48 24.48C10.48 24.4 10.5 24.3133 10.54 24.22C10.5933 24.0733 10.68 23.96 10.8 23.88C10.92 23.8 10.9933 23.7533 11.02 23.74C11.2333 23.6067 11.4067 23.4733 11.54 23.34C11.6733 23.1933 11.7867 22.96 11.88 22.64L14.34 14.02C14.3933 13.8467 14.42 13.6867 14.42 13.54C14.42 13.38 14.3933 13.2467 14.34 13.14C14.3 13.0333 14.2333 12.92 14.14 12.8C14.02 12.6267 13.96 12.4867 13.96 12.38C13.96 12.34 13.9733 12.2667 14 12.16C14.0533 11.9867 14.1733 11.8667 14.36 11.8C14.5467 11.72 14.82 11.68 15.18 11.68H24.06ZM41.538 11.68C41.8446 11.68 42.078 11.74 42.238 11.86C42.398 11.9667 42.478 12.1133 42.478 12.3C42.478 12.38 42.4713 12.44 42.458 12.48C42.418 12.6533 42.338 12.7867 42.218 12.88C42.098 12.96 41.9046 13.0533 41.638 13.16C41.278 13.32 40.9513 13.48 40.658 13.64C40.378 13.7867 40.0513 14.02 39.678 14.34L35.698 17.72L37.638 22.44C37.7713 22.76 37.918 23.0067 38.078 23.18C38.2513 23.3533 38.458 23.52 38.698 23.68C38.8713 23.8133 38.9913 23.92 39.058 24C39.1246 24.0667 39.158 24.1667 39.158 24.3C39.158 24.54 39.078 24.72 38.918 24.84C38.758 24.9467 38.4913 25 38.118 25H32.738C32.3913 25 32.1313 24.9467 31.958 24.84C31.798 24.72 31.718 24.5667 31.718 24.38C31.718 24.3 31.7246 24.24 31.738 24.2C31.7646 24.1067 31.8113 24.0267 31.878 23.96C31.9446 23.88 32.0113 23.8133 32.078 23.76C32.1846 23.6667 32.2646 23.58 32.318 23.5C32.3713 23.42 32.398 23.3067 32.398 23.16C32.398 22.9333 32.3246 22.64 32.178 22.28L31.478 20.58L29.658 22.28C29.2846 22.6133 29.098 22.9133 29.098 23.18C29.098 23.3 29.1246 23.4 29.178 23.48C29.2313 23.56 29.318 23.6667 29.438 23.8C29.558 23.92 29.6446 24.0333 29.698 24.14C29.7646 24.2467 29.778 24.36 29.738 24.48C29.6846 24.68 29.5713 24.82 29.398 24.9C29.238 24.9667 28.978 25 28.618 25H24.438C24.1313 25 23.898 24.9467 23.738 24.84C23.578 24.72 23.498 24.5667 23.498 24.38C23.498 24.3 23.5046 24.24 23.518 24.2C23.558 24.0267 23.638 23.9 23.758 23.82C23.878 23.7267 24.0713 23.6267 24.338 23.52C24.7113 23.36 25.038 23.2 25.318 23.04C25.6113 22.88 25.938 22.6467 26.298 22.34L30.658 18.6L28.858 14.24C28.7246 13.92 28.5713 13.6733 28.398 13.5C28.238 13.3267 28.038 13.16 27.798 13C27.6246 12.8667 27.5046 12.7667 27.438 12.7C27.3713 12.62 27.338 12.5133 27.338 12.38C27.338 12.14 27.418 11.9667 27.578 11.86C27.738 11.74 28.0046 11.68 28.378 11.68H33.758C34.1046 11.68 34.358 11.74 34.518 11.86C34.6913 11.9667 34.778 12.1133 34.778 12.3C34.778 12.38 34.7713 12.44 34.758 12.48C34.7313 12.5733 34.6846 12.66 34.618 12.74C34.5513 12.8067 34.4846 12.8667 34.418 12.92C34.3113 13.0133 34.2313 13.1 34.178 13.18C34.1246 13.26 34.098 13.3733 34.098 13.52C34.098 13.7333 34.1713 14.0267 34.318 14.4L34.878 15.74L36.318 14.4C36.7046 14.0533 36.898 13.7533 36.898 13.5C36.898 13.38 36.8646 13.28 36.798 13.2C36.7446 13.1067 36.658 13 36.538 12.88C36.5113 12.8533 36.458 12.8 36.378 12.72C36.3113 12.6267 36.2646 12.54 36.238 12.46C36.2113 12.3667 36.2113 12.28 36.238 12.2C36.2913 12 36.398 11.8667 36.558 11.8C36.7313 11.72 36.998 11.68 37.358 11.68H41.538Z" fill="#D6F0FF"/>
</svg>
