<svg width="300" height="300" viewBox="0 0 300 300" fill="none" xmlns="http://www.w3.org/2000/svg">
<rect width="300" height="300" fill="#F8F8F8"/>
<circle cx="150" cy="150" r="103.5" fill="#D9D9D9" stroke="black"/>
<circle cx="150" cy="151" r="78.5" fill="#9C9B9B" stroke="black"/>
<circle cx="148.5" cy="150.5" r="53.5" fill="white" stroke="black" stroke-width="2"/>
<circle cx="149" cy="151" r="3.5" fill="white" stroke="black" stroke-width="3"/>
<path d="M152.5 151C152.5 152.933 150.933 154.5 149 154.5C147.067 154.5 145.5 152.933 145.5 151C145.5 149.718 146.049 142.171 146.953 134.899C147.404 131.273 147.935 127.778 148.517 125.208C148.68 124.489 148.842 123.864 149 123.341C149.158 123.864 149.32 124.489 149.483 125.208C150.065 127.778 150.596 131.273 151.047 134.899C151.951 142.171 152.5 149.718 152.5 151ZM149.656 121.756C149.656 121.756 149.653 121.759 149.648 121.764C149.653 121.758 149.656 121.755 149.656 121.756ZM148.352 121.764C148.347 121.759 148.344 121.756 148.344 121.756C148.344 121.755 148.347 121.758 148.352 121.764Z" fill="black" stroke="black" stroke-width="3"/>
<path d="M169.509 146.752C169.933 146.789 170.303 146.833 170.619 146.883C170.183 147.16 169.63 147.468 168.966 147.801C167.01 148.782 164.334 149.859 161.529 150.866C158.733 151.87 155.851 152.788 153.506 153.453C152.332 153.786 151.304 154.052 150.496 154.233C149.635 154.427 149.156 154.492 149 154.492C147.068 154.492 145.502 152.927 145.5 150.996C145.502 149.065 147.068 147.5 149 147.5C149.642 147.5 151.122 147.394 152.966 147.262C153.306 147.237 153.659 147.212 154.021 147.186C156.399 147.017 159.292 146.823 162.094 146.714C164.91 146.604 167.573 146.584 169.509 146.752Z" fill="black" stroke="black" stroke-width="3"/>
<rect x="148" y="98" width="3" height="7" fill="black"/>
<rect x="148.5" y="45.5" width="2" height="59" stroke="black"/>
<rect x="201" y="149" width="3" height="7" transform="rotate(90 201 149)" fill="black"/>
<rect x="253.5" y="149.5" width="2" height="59" transform="rotate(90 253.5 149.5)" stroke="black"/>
<rect x="151" y="203" width="3" height="7" transform="rotate(180 151 203)" fill="black"/>
<rect x="150.5" y="252.5" width="2" height="56" transform="rotate(180 150.5 252.5)" stroke="black"/>
<rect x="96" y="152" width="3" height="7" transform="rotate(-90 96 152)" fill="black"/>
<rect x="46.5" y="151.5" width="2" height="56" transform="rotate(-90 46.5 151.5)" stroke="black"/>
<g filter="url(#filter0_d_260_247)">
<circle cx="62" cy="240" r="15" fill="#D9D9D9"/>
<circle cx="62" cy="240" r="14.5" stroke="black"/>
</g>
<g filter="url(#filter1_d_260_247)">
<circle cx="238" cy="240" r="15" fill="#D9D9D9"/>
<circle cx="238" cy="240" r="14.5" stroke="black"/>
</g>
<g filter="url(#filter2_d_260_247)">
<circle cx="62" cy="60" r="15" fill="#D9D9D9"/>
<circle cx="62" cy="60" r="14.5" stroke="black"/>
</g>
<g filter="url(#filter3_d_260_247)">
<circle cx="238" cy="60" r="15" fill="#D9D9D9"/>
<circle cx="238" cy="60" r="14.5" stroke="black"/>
</g>
<defs>
<filter id="filter0_d_260_247" x="42" y="224" width="40" height="40" filterUnits="userSpaceOnUse" color-interpolation-filters="sRGB">
<feFlood flood-opacity="0" result="BackgroundImageFix"/>
<feColorMatrix in="SourceAlpha" type="matrix" values="0 0 0 0 0 0 0 0 0 0 0 0 0 0 0 0 0 0 127 0" result="hardAlpha"/>
<feOffset dy="4"/>
<feGaussianBlur stdDeviation="2.5"/>
<feComposite in2="hardAlpha" operator="out"/>
<feColorMatrix type="matrix" values="0 0 0 0 0 0 0 0 0 0 0 0 0 0 0 0 0 0 0.25 0"/>
<feBlend mode="normal" in2="BackgroundImageFix" result="effect1_dropShadow_260_247"/>
<feBlend mode="normal" in="SourceGraphic" in2="effect1_dropShadow_260_247" result="shape"/>
</filter>
<filter id="filter1_d_260_247" x="218" y="224" width="40" height="40" filterUnits="userSpaceOnUse" color-interpolation-filters="sRGB">
<feFlood flood-opacity="0" result="BackgroundImageFix"/>
<feColorMatrix in="SourceAlpha" type="matrix" values="0 0 0 0 0 0 0 0 0 0 0 0 0 0 0 0 0 0 127 0" result="hardAlpha"/>
<feOffset dy="4"/>
<feGaussianBlur stdDeviation="2.5"/>
<feComposite in2="hardAlpha" operator="out"/>
<feColorMatrix type="matrix" values="0 0 0 0 0 0 0 0 0 0 0 0 0 0 0 0 0 0 0.25 0"/>
<feBlend mode="normal" in2="BackgroundImageFix" result="effect1_dropShadow_260_247"/>
<feBlend mode="normal" in="SourceGraphic" in2="effect1_dropShadow_260_247" result="shape"/>
</filter>
<filter id="filter2_d_260_247" x="42" y="44" width="40" height="40" filterUnits="userSpaceOnUse" color-interpolation-filters="sRGB">
<feFlood flood-opacity="0" result="BackgroundImageFix"/>
<feColorMatrix in="SourceAlpha" type="matrix" values="0 0 0 0 0 0 0 0 0 0 0 0 0 0 0 0 0 0 127 0" result="hardAlpha"/>
<feOffset dy="4"/>
<feGaussianBlur stdDeviation="2.5"/>
<feComposite in2="hardAlpha" operator="out"/>
<feColorMatrix type="matrix" values="0 0 0 0 0 0 0 0 0 0 0 0 0 0 0 0 0 0 0.25 0"/>
<feBlend mode="normal" in2="BackgroundImageFix" result="effect1_dropShadow_260_247"/>
<feBlend mode="normal" in="SourceGraphic" in2="effect1_dropShadow_260_247" result="shape"/>
</filter>
<filter id="filter3_d_260_247" x="218" y="44" width="40" height="40" filterUnits="userSpaceOnUse" color-interpolation-filters="sRGB">
<feFlood flood-opacity="0" result="BackgroundImageFix"/>
<feColorMatrix in="SourceAlpha" type="matrix" values="0 0 0 0 0 0 0 0 0 0 0 0 0 0 0 0 0 0 127 0" result="hardAlpha"/>
<feOffset dy="4"/>
<feGaussianBlur stdDeviation="2.5"/>
<feComposite in2="hardAlpha" operator="out"/>
<feColorMatrix type="matrix" values="0 0 0 0 0 0 0 0 0 0 0 0 0 0 0 0 0 0 0.25 0"/>
<feBlend mode="normal" in2="BackgroundImageFix" result="effect1_dropShadow_260_247"/>
<feBlend mode="normal" in="SourceGraphic" in2="effect1_dropShadow_260_247" result="shape"/>
</filter>
</defs>
</svg>
