<svg width="300" height="300" viewBox="0 0 300 300" fill="none" xmlns="http://www.w3.org/2000/svg">
<g clip-path="url(#clip0_912_200)">
<path d="M300 0H0V299.125H300V0Z" fill="#51ABFF"/>
<path fill-rule="evenodd" clip-rule="evenodd" d="M150 0H300V149.562C300 66.9609 232.844 0 150 0ZM0 149.562V0H150C67.1562 0 0 66.9609 0 149.562ZM150 299.125H300V149.562C300 232.164 232.844 299.125 150 299.125ZM150 299.125H0V149.562C0 232.164 67.1562 299.125 150 299.125Z" fill="white"/>
<path d="M267.188 149.563C267.188 85.0313 214.723 32.7148 150 32.7148C85.2774 32.7148 32.8125 85.0313 32.8125 149.563C32.8125 214.094 85.2774 266.406 150 266.406C214.723 266.406 267.188 214.094 267.188 149.563Z" stroke="white" stroke-width="14.627"/>
<path d="M250.641 27.75L262.375 40.4648L235.629 69.4375L223.895 56.7266L250.641 27.75Z" fill="white"/>
<path d="M64.2461 229.684L75.9805 242.398L49.2344 271.371L37.5 258.66L64.2461 229.684Z" fill="white"/>
<path d="M262.375 258.66L250.637 271.371L223.895 242.398L235.629 229.684L262.375 258.66Z" fill="white"/>
<path d="M75.9805 56.7266L64.2461 69.4375L37.5 40.4648L49.2344 27.75L75.9805 56.7266Z" fill="white"/>
<path d="M300 142.551V158.324H262.793V142.551H300Z" fill="white"/>
<path d="M37.5 142.551V158.324H0V142.551H37.5Z" fill="white"/>
<path d="M157.91 300H142.09V262.902H157.91V300Z" fill="white"/>
<path d="M157.91 38.2656H142.09V0.875H157.91V38.2656Z" fill="white"/>
<path d="M85.1289 108.665C88.8008 107.512 91.793 106.571 94.0977 105.84C96.4063 105.004 98.2969 104.325 99.7656 103.801C101.441 103.172 102.699 102.598 103.539 102.075L107.316 100.192C108.785 99.4615 110.676 98.5201 112.98 97.3678C115.289 96.1139 118.281 94.5436 121.953 92.6607C121.113 96.6373 120.484 100.399 120.062 103.958C119.75 107.411 119.484 110.493 119.277 113.215C118.961 116.352 118.805 119.227 118.805 121.844C118.699 124.04 118.543 126.969 118.332 130.629C118.227 134.29 118.07 138.266 117.859 142.555C117.648 146.844 117.441 151.235 117.23 155.735C117.02 160.231 116.863 164.465 116.758 168.442C116.758 172.313 116.813 175.661 116.914 178.485C117.125 181.309 117.492 183.243 118.016 184.29C118.543 185.544 119.223 186.747 120.062 187.895C120.797 188.942 121.637 190.145 122.582 191.505C123.629 192.762 124.887 194.016 126.355 195.27C123.945 195.794 121.687 196.266 119.59 196.684C117.492 196.997 115.656 197.258 114.082 197.469C112.195 197.782 110.516 198.044 109.047 198.251C107.473 198.356 105.324 198.618 102.598 199.036C100.289 199.352 97.3516 199.77 93.7852 200.294C90.2188 200.712 85.8125 201.18 80.5664 201.704C83.293 200.032 85.4453 198.411 87.0195 196.84C88.6953 195.27 89.957 193.911 90.793 192.762C91.7383 191.403 92.3164 190.094 92.5234 188.837C92.6289 188.001 92.7891 185.755 92.9961 182.09C93.3125 178.325 93.5742 173.934 93.7852 168.911C94.0977 163.786 94.3633 158.348 94.5703 152.594C94.8867 146.739 95.0937 141.297 95.1992 136.278C95.3047 131.258 95.3594 126.969 95.3594 123.411C95.3594 119.856 95.1992 117.712 94.8867 116.981C94.4648 116.247 93.8359 115.411 92.9961 114.469C92.2617 113.633 91.2656 112.743 90.0078 111.801C88.8555 110.86 87.2266 109.813 85.1289 108.665ZM179.859 91.0904C184.684 90.9889 189.562 92.0865 194.492 94.3873C199.422 96.6881 203.883 100.192 207.867 104.899C211.855 109.501 215.105 115.305 217.625 122.313C220.141 129.321 221.453 137.532 221.559 146.946C221.664 153.223 221.191 158.922 220.141 164.047C219.094 169.172 217.676 173.778 215.895 177.856C214.109 181.829 212.063 185.387 209.758 188.524C207.555 191.559 205.297 194.172 202.988 196.368C200.68 198.462 198.48 200.133 196.379 201.391C194.281 202.645 192.5 203.481 191.031 203.899C189.141 204.528 186.887 205.102 184.266 205.626C181.641 206.044 178.914 206.305 176.082 206.411C173.25 206.622 170.418 206.462 167.586 205.942C164.855 205.52 162.445 204.684 160.348 203.43C158.246 202.176 155.781 200.395 152.949 198.094C150.223 195.688 147.602 192.446 145.082 188.368C142.566 184.184 140.414 178.954 138.629 172.676C136.848 166.403 135.957 158.715 135.957 149.614C135.957 140.512 137.004 132.356 139.102 125.137C141.305 117.922 144.297 111.801 148.07 106.782C151.953 101.762 156.57 97.942 161.918 95.3287C167.375 92.61 173.355 91.1959 179.859 91.0904ZM157.672 149.458C157.566 155.629 157.934 161.016 158.773 165.618C159.613 170.219 160.609 174.09 161.762 177.227C162.918 180.368 164.07 182.876 165.223 184.758C166.484 186.536 167.426 187.794 168.055 188.524C168.687 189.465 169.84 190.094 171.52 190.407C173.195 190.719 174.98 190.88 176.867 190.88C178.758 190.774 180.594 190.512 182.375 190.094C184.16 189.571 185.523 188.891 186.469 188.055C186.992 187.532 187.727 186.223 188.672 184.133C189.719 182.04 190.715 179.321 191.66 175.973C192.711 172.626 193.652 168.755 194.492 164.364C195.332 159.864 195.91 155.055 196.223 149.926C196.539 144.176 196.539 138.891 196.223 134.083C195.91 129.165 195.437 124.876 194.809 121.215C194.176 117.555 193.441 114.52 192.605 112.118C191.766 109.712 190.875 108.09 189.93 107.251C188.566 105.997 186.887 105.11 184.895 104.587C183.004 104.063 181.066 103.852 179.07 103.958C177.184 104.063 175.348 104.426 173.562 105.055C171.887 105.684 170.574 106.52 169.629 107.567C167.742 109.657 166.062 111.856 164.594 114.157C163.125 116.458 161.918 119.227 160.977 122.469C160.031 125.715 159.246 129.532 158.613 133.926C158.09 138.212 157.777 143.391 157.672 149.458Z" fill="#00DFEF"/>
<path d="M85.1289 108.665C88.8008 107.512 91.793 106.571 94.0977 105.84C96.4063 105.004 98.2969 104.325 99.7656 103.801C101.441 103.172 102.699 102.598 103.539 102.075L107.316 100.192C108.785 99.4615 110.676 98.5201 112.98 97.3678C115.289 96.1139 118.281 94.5436 121.953 92.6607C121.113 96.6373 120.484 100.399 120.062 103.958C119.75 107.411 119.484 110.493 119.277 113.215C118.961 116.352 118.805 119.227 118.805 121.844C118.699 124.04 118.543 126.969 118.332 130.629C118.227 134.29 118.07 138.266 117.859 142.555C117.648 146.844 117.441 151.235 117.23 155.735C117.02 160.231 116.863 164.465 116.758 168.442C116.758 172.313 116.813 175.661 116.914 178.485C117.125 181.309 117.492 183.243 118.016 184.29C118.543 185.544 119.223 186.747 120.062 187.895C120.797 188.942 121.637 190.145 122.582 191.505C123.629 192.762 124.887 194.016 126.355 195.27C123.945 195.794 121.687 196.266 119.59 196.684C117.492 196.997 115.656 197.258 114.082 197.469C112.195 197.782 110.516 198.044 109.047 198.251C107.473 198.356 105.324 198.618 102.598 199.036C100.289 199.352 97.3516 199.77 93.7852 200.294C90.2188 200.712 85.8125 201.18 80.5664 201.704C83.293 200.032 85.4453 198.411 87.0195 196.84C88.6953 195.27 89.957 193.911 90.793 192.762C91.7383 191.403 92.3164 190.094 92.5234 188.837C92.6289 188.001 92.7891 185.755 92.9961 182.09C93.3125 178.325 93.5742 173.934 93.7852 168.911C94.0977 163.786 94.3633 158.348 94.5703 152.594C94.8867 146.739 95.0937 141.297 95.1992 136.278C95.3047 131.258 95.3594 126.969 95.3594 123.411C95.3594 119.856 95.1992 117.712 94.8867 116.981C94.4648 116.247 93.8359 115.411 92.9961 114.469C92.2617 113.633 91.2656 112.743 90.0078 111.801C88.8555 110.86 87.2266 109.813 85.1289 108.665ZM179.859 91.0904C184.684 90.9889 189.562 92.0865 194.492 94.3873C199.422 96.6881 203.883 100.192 207.867 104.899C211.855 109.501 215.105 115.305 217.625 122.313C220.141 129.321 221.453 137.532 221.559 146.946C221.664 153.223 221.191 158.922 220.141 164.047C219.094 169.172 217.676 173.778 215.895 177.856C214.109 181.829 212.063 185.387 209.758 188.524C207.555 191.559 205.297 194.172 202.988 196.368C200.68 198.462 198.48 200.133 196.379 201.391C194.281 202.645 192.5 203.481 191.031 203.899C189.141 204.528 186.887 205.102 184.266 205.626C181.641 206.044 178.914 206.305 176.082 206.411C173.25 206.622 170.418 206.462 167.586 205.942C164.855 205.52 162.445 204.684 160.348 203.43C158.246 202.176 155.781 200.395 152.949 198.094C150.223 195.688 147.602 192.446 145.082 188.368C142.566 184.184 140.414 178.954 138.629 172.676C136.848 166.403 135.957 158.715 135.957 149.614C135.957 140.512 137.004 132.356 139.102 125.137C141.305 117.922 144.297 111.801 148.07 106.782C151.953 101.762 156.57 97.942 161.918 95.3287C167.375 92.61 173.355 91.1959 179.859 91.0904ZM157.672 149.458C157.566 155.629 157.934 161.016 158.773 165.618C159.613 170.219 160.609 174.09 161.762 177.227C162.918 180.368 164.07 182.876 165.223 184.758C166.484 186.536 167.426 187.794 168.055 188.524C168.687 189.465 169.84 190.094 171.52 190.407C173.195 190.719 174.98 190.88 176.867 190.88C178.758 190.774 180.594 190.512 182.375 190.094C184.16 189.571 185.523 188.891 186.469 188.055C186.992 187.532 187.727 186.223 188.672 184.133C189.719 182.04 190.715 179.321 191.66 175.973C192.711 172.626 193.652 168.755 194.492 164.364C195.332 159.864 195.91 155.055 196.223 149.926C196.539 144.176 196.539 138.891 196.223 134.083C195.91 129.165 195.437 124.876 194.809 121.215C194.176 117.555 193.441 114.52 192.605 112.118C191.766 109.712 190.875 108.09 189.93 107.251C188.566 105.997 186.887 105.11 184.895 104.587C183.004 104.063 181.066 103.852 179.07 103.958C177.184 104.063 175.348 104.426 173.562 105.055C171.887 105.684 170.574 106.52 169.629 107.567C167.742 109.657 166.062 111.856 164.594 114.157C163.125 116.458 161.918 119.227 160.977 122.469C160.031 125.715 159.246 129.532 158.613 133.926C158.09 138.212 157.777 143.391 157.672 149.458Z" fill="white"/>
</g>
<defs>
<clipPath id="clip0_912_200">
<rect width="300" height="300" fill="white"/>
</clipPath>
</defs>
</svg>
