<svg width="99" height="99" viewBox="0 0 99 99" fill="none" xmlns="http://www.w3.org/2000/svg">
<rect x="49.3555" width="69.7992" height="69.7992" rx="10" transform="rotate(45 49.3555 0)" fill="#F84848"/>
<path d="M31.3672 26.832C34.1016 27.0599 36.4941 27.1966 38.5449 27.2422C40.6413 27.2878 42.4186 27.3105 43.877 27.3105C45.5632 27.3105 47.0215 27.265 48.252 27.1738C49.528 27.0371 51.1914 26.8548 53.2422 26.627C54.974 26.3991 57.207 26.1029 59.9414 25.7383C62.6758 25.3281 66.0026 24.804 69.9219 24.166C69.4206 24.9408 68.9876 25.7611 68.623 26.627C68.304 27.4473 68.0306 28.1992 67.8027 28.8828C67.5749 29.7031 67.3698 30.5007 67.1875 31.2754C67.0508 32.1413 66.8913 33.2122 66.709 34.4883C66.5267 35.582 66.2988 36.972 66.0254 38.6582C65.7975 40.2988 65.5013 42.2585 65.1367 44.5371C63.7695 40.9824 62.3796 38.248 60.9668 36.334C59.5996 34.4199 58.3236 33.0072 57.1387 32.0957C55.7715 31.0475 54.4727 30.4551 53.2422 30.3184C51.4648 30.3184 50.0065 30.6602 48.8672 31.3438C47.7279 32.0273 46.7936 32.916 46.0645 34.0098C45.3809 35.0579 44.8568 36.2201 44.4922 37.4961C44.1276 38.7266 43.877 39.9342 43.7402 41.1191C43.6035 42.2585 43.5124 43.2839 43.4668 44.1953C43.4212 45.0612 43.3757 45.6536 43.3301 45.9727C44.9251 45.8815 46.2695 45.7676 47.3633 45.6309C48.457 45.4941 49.3229 45.3574 49.9609 45.2207C50.7357 45.0384 51.3509 44.8561 51.8066 44.6738C52.4902 44.3092 53.1738 43.8763 53.8574 43.375C54.4499 42.9193 55.0651 42.3724 55.7031 41.7344C56.3867 41.0964 56.9792 40.3216 57.4805 39.4102C57.207 41.0508 56.9564 42.418 56.7285 43.5117C56.5462 44.6055 56.3867 45.4714 56.25 46.1094C56.0677 46.8841 55.9538 47.4766 55.9082 47.8867C55.8171 48.2969 55.7031 48.8665 55.5664 49.5957C55.4297 50.2337 55.2702 51.054 55.0879 52.0566C54.9056 53.0592 54.7005 54.3125 54.4727 55.8164C53.9258 54.8594 53.3561 54.0846 52.7637 53.4922C52.1712 52.8542 51.6243 52.3529 51.123 51.9883C50.5306 51.5781 49.9609 51.2591 49.4141 51.0312C48.8216 50.849 48.1836 50.6667 47.5 50.4844C46.9076 50.3477 46.2012 50.2109 45.3809 50.0742C44.6061 49.8919 43.763 49.7324 42.8516 49.5957C42.9427 52.0566 43.0794 54.1758 43.2617 55.9531C43.444 57.6849 43.6035 59.1432 43.7402 60.3281C43.9225 61.6953 44.1048 62.8346 44.2871 63.7461C44.515 64.6576 44.8796 65.6374 45.3809 66.6855C45.791 67.597 46.3607 68.6452 47.0898 69.8301C47.8646 70.9694 48.8444 72.1999 50.0293 73.5215C49.1178 73.2936 48.1608 73.1341 47.1582 73.043C46.1556 72.9518 45.2669 72.8835 44.4922 72.8379C43.5352 72.7923 42.6237 72.7923 41.7578 72.8379C40.8464 72.8835 39.8438 72.9746 38.75 73.1113C37.8385 73.2025 36.7904 73.3392 35.6055 73.5215C34.4206 73.7038 33.1673 73.9089 31.8457 74.1367C32.6204 73.362 33.2585 72.5872 33.7598 71.8125C34.2611 71.0378 34.6257 70.3542 34.8535 69.7617C35.127 69.0781 35.3092 68.4173 35.4004 67.7793C35.446 67.2324 35.4688 66.0475 35.4688 64.2246C35.4688 62.3561 35.446 60.1914 35.4004 57.7305C35.3548 55.224 35.2865 52.5807 35.1953 49.8008C35.1042 47.0208 35.013 44.4232 34.9219 42.0078C34.8307 39.5469 34.7168 37.4505 34.5801 35.7188C34.4889 33.987 34.375 32.9388 34.2383 32.5742C34.056 32.1185 33.8509 31.5944 33.623 31.002C33.2585 30.0449 32.5065 28.6549 31.3672 26.832Z" fill="white"/>
</svg>
