<svg width="300" height="300" viewBox="0 0 300 300" fill="none" xmlns="http://www.w3.org/2000/svg">
<g clip-path="url(#clip0_912_115)">
<path d="M300 0H0V300H300V0Z" fill="#51ABFF"/>
<path d="M267.188 150C267.188 85.2774 214.723 32.8125 150 32.8125C85.2774 32.8125 32.8125 85.2774 32.8125 150C32.8125 214.723 85.2774 267.188 150 267.188C214.723 267.188 267.188 214.723 267.188 150Z" stroke="white" stroke-width="14.6485"/>
<path d="M143.555 0H156.152V28.7109H143.555V0Z" fill="white"/>
<path d="M143.555 36.3281H156.152V65.0391H143.555V36.3281Z" fill="white"/>
<path d="M143.555 271.289H156.152V300H143.555V271.289Z" fill="white"/>
<path d="M143.555 236.426H156.152V265.137H143.555V236.426Z" fill="white"/>
<path d="M81.9062 109.273C85.5781 108.121 88.5703 107.176 90.875 106.441C93.1836 105.602 95.0742 104.922 96.543 104.398C98.2187 103.766 99.4766 103.191 100.316 102.668L104.094 100.777C105.562 100.043 107.453 99.0977 109.758 97.9453C112.066 96.6875 115.059 95.1133 118.727 93.2266C117.891 97.2109 117.262 100.988 116.84 104.555C116.523 108.016 116.262 111.109 116.055 113.84C115.738 116.984 115.582 119.871 115.582 122.492C115.477 124.695 115.32 127.633 115.109 131.305C115.004 134.977 114.848 138.965 114.637 143.266C114.426 147.566 114.219 151.973 114.008 156.48C113.797 160.992 113.641 165.242 113.535 169.227C113.535 173.109 113.59 176.465 113.691 179.297C113.902 182.133 114.27 184.07 114.793 185.121C115.32 186.379 116 187.586 116.84 188.738C117.574 189.789 118.414 190.996 119.359 192.359C120.406 193.617 121.664 194.879 123.133 196.137C120.723 196.66 118.465 197.133 116.367 197.551C114.27 197.867 112.434 198.129 110.859 198.34C108.973 198.652 107.293 198.914 105.824 199.125C104.25 199.23 102.102 199.492 99.375 199.914C97.0664 200.227 94.1289 200.648 90.5625 201.172C86.9961 201.59 82.5898 202.062 77.3438 202.586C80.0703 200.91 82.2227 199.281 83.7969 197.711C85.4727 196.137 86.7344 194.773 87.5703 193.617C88.5156 192.254 89.0937 190.941 89.3047 189.684C89.4062 188.844 89.5664 186.59 89.7734 182.918C90.0898 179.141 90.3516 174.734 90.5625 169.699C90.875 164.559 91.1406 159.105 91.3477 153.336C91.6641 147.461 91.8711 142.004 91.9766 136.969C92.082 131.934 92.1367 127.633 92.1367 124.066C92.1367 120.5 91.9766 118.348 91.6641 117.613C91.2422 116.879 90.6133 116.043 89.7734 115.098C89.0391 114.258 88.043 113.367 86.7852 112.422C85.6328 111.477 84.0039 110.43 81.9062 109.273ZM136.039 95.8984C138.031 97.3672 140.023 98.4688 142.016 99.2031C144.113 99.832 146.004 100.254 147.684 100.465C149.57 100.777 151.457 100.832 153.348 100.621C155.129 100.41 156.965 99.7812 158.855 98.7305C160.742 97.6836 162.945 96.582 165.465 95.4297C167.98 94.2734 170.918 93.2773 174.273 92.4375C177.738 91.4922 181.879 91.0234 186.707 91.0234C188.805 91.0234 191.008 91.4414 193.316 92.2812C195.727 93.1211 198.035 94.2227 200.238 95.5859C202.441 96.8437 204.434 98.2617 206.219 99.832C208.105 101.406 209.523 102.98 210.469 104.555C211.516 106.129 212.25 108.699 212.672 112.266C213.09 115.727 213.246 119.504 213.141 123.594C213.039 127.688 212.672 131.727 212.039 135.711C211.516 139.695 210.73 142.949 209.68 145.469C208.422 147.672 206.008 150.504 202.441 153.965C199.398 156.902 194.836 160.68 188.75 165.293C182.668 169.91 174.484 175.418 164.203 181.816C170.289 181.711 175.375 181.555 179.469 181.344C183.664 181.031 187.074 180.715 189.695 180.398C192.738 179.98 195.152 179.562 196.934 179.141C198.508 178.512 200.188 177.621 201.969 176.465C203.438 175.418 205.012 174.055 206.691 172.375C208.473 170.695 210.203 168.492 211.883 165.766C212.199 171.43 212.512 175.891 212.828 179.141C213.039 181.031 213.195 182.656 213.301 184.02C213.406 185.277 213.508 186.746 213.613 188.426C213.719 189.895 213.773 191.57 213.773 193.461C213.875 195.348 214.035 197.344 214.242 199.441C209 198.078 204.227 197.027 199.926 196.293C195.625 195.453 191.953 194.879 188.91 194.562C185.344 194.141 182.145 193.934 179.312 193.934C176.375 194.039 173.121 194.301 169.555 194.719C166.406 195.141 162.629 195.77 158.227 196.609C153.922 197.344 149.047 198.445 143.59 199.914C143.172 198.758 142.805 197.605 142.488 196.449C142.176 195.191 141.914 193.984 141.703 192.832C141.387 191.57 141.125 190.312 140.914 189.055C140.707 187.797 140.496 186.59 140.285 185.434C140.078 184.387 139.918 183.285 139.812 182.133C139.711 180.977 139.605 179.875 139.5 178.828C147.891 173.477 154.711 168.652 159.957 164.352C165.199 159.945 169.344 156.219 172.387 153.176C175.848 149.609 178.473 146.359 180.254 143.422C182.039 139.855 183.508 135.922 184.66 131.621C185.816 127.32 186.184 123.332 185.762 119.66C185.449 115.988 184.188 113 181.984 110.691C179.781 108.277 176.27 107.23 171.441 107.543C168.297 107.754 165.305 108.855 162.473 110.848C159.746 112.844 157.227 115.254 154.922 118.086C152.613 120.918 150.566 123.961 148.785 127.215C147 130.359 145.48 133.352 144.219 136.184C143.066 139.016 142.121 141.375 141.387 143.266C140.758 145.152 140.445 146.148 140.445 146.254C140.34 146.465 140.18 145.676 139.973 143.895C139.867 142.109 139.711 139.906 139.5 137.285C139.395 134.559 139.238 131.727 139.027 128.789C138.816 125.852 138.609 123.383 138.398 121.391C138.293 119.816 138.137 117.773 137.926 115.254C137.609 111.164 136.98 104.711 136.039 95.8984Z" fill="white"/>
</g>
<defs>
<clipPath id="clip0_912_115">
<rect width="300" height="300" fill="white"/>
</clipPath>
</defs>
</svg>
