<?xml version="1.0" encoding="UTF-8"?>
<svg xmlns="http://www.w3.org/2000/svg" xmlns:xlink="http://www.w3.org/1999/xlink" width="600px" height="600px" viewBox="0 0 600 600" version="1.1">
<defs>
<clipPath id="clip1">
  <path d="M 90 0 L 510 0 C 559.707031 0 600 40.292969 600 90 L 600 510 C 600 559.707031 559.707031 600 510 600 L 90 600 C 40.292969 600 0 559.707031 0 510 L 0 90 C 0 40.292969 40.292969 0 90 0 Z M 90 0 "/>
</clipPath>
<clipPath id="clip2">
  <path d="M 82 286 L 311 286 L 311 515 L 82 515 Z M 82 286 "/>
</clipPath>
<clipPath id="clip3">
  <path d="M 90 0 L 510 0 C 559.707031 0 600 40.292969 600 90 L 600 510 C 600 559.707031 559.707031 600 510 600 L 90 600 C 40.292969 600 0 559.707031 0 510 L 0 90 C 0 40.292969 40.292969 0 90 0 Z M 90 0 "/>
</clipPath>
<clipPath id="clip4">
  <path d="M 188 90 L 507 90 L 507 410 L 188 410 Z M 188 90 "/>
</clipPath>
<clipPath id="clip5">
  <path d="M 90 0 L 510 0 C 559.707031 0 600 40.292969 600 90 L 600 510 C 600 559.707031 559.707031 600 510 600 L 90 600 C 40.292969 600 0 559.707031 0 510 L 0 90 C 0 40.292969 40.292969 0 90 0 Z M 90 0 "/>
</clipPath>
<clipPath id="clip6">
  <path d="M 379 336 L 405 336 L 405 384 L 379 384 Z M 379 336 "/>
</clipPath>
<clipPath id="clip7">
  <path d="M 90 0 L 510 0 C 559.707031 0 600 40.292969 600 90 L 600 510 C 600 559.707031 559.707031 600 510 600 L 90 600 C 40.292969 600 0 559.707031 0 510 L 0 90 C 0 40.292969 40.292969 0 90 0 Z M 90 0 "/>
</clipPath>
<clipPath id="clip8">
  <path d="M 291 105 L 303 105 L 303 153 L 291 153 Z M 291 105 "/>
</clipPath>
<clipPath id="clip9">
  <path d="M 90 0 L 510 0 C 559.707031 0 600 40.292969 600 90 L 600 510 C 600 559.707031 559.707031 600 510 600 L 90 600 C 40.292969 600 0 559.707031 0 510 L 0 90 C 0 40.292969 40.292969 0 90 0 Z M 90 0 "/>
</clipPath>
<clipPath id="clip10">
  <path d="M 456 444 L 558 444 L 558 546 L 456 546 Z M 456 444 "/>
</clipPath>
<clipPath id="clip11">
  <path d="M 90 0 L 510 0 C 559.707031 0 600 40.292969 600 90 L 600 510 C 600 559.707031 559.707031 600 510 600 L 90 600 C 40.292969 600 0 559.707031 0 510 L 0 90 C 0 40.292969 40.292969 0 90 0 Z M 90 0 "/>
</clipPath>
<clipPath id="clip12">
  <path d="M 456 48 L 558 48 L 558 150 L 456 150 Z M 456 48 "/>
</clipPath>
<clipPath id="clip13">
  <path d="M 90 0 L 510 0 C 559.707031 0 600 40.292969 600 90 L 600 510 C 600 559.707031 559.707031 600 510 600 L 90 600 C 40.292969 600 0 559.707031 0 510 L 0 90 C 0 40.292969 40.292969 0 90 0 Z M 90 0 "/>
</clipPath>
<clipPath id="clip14">
  <path d="M 42 48 L 144 48 L 144 150 L 42 150 Z M 42 48 "/>
</clipPath>
<clipPath id="clip15">
  <path d="M 90 0 L 510 0 C 559.707031 0 600 40.292969 600 90 L 600 510 C 600 559.707031 559.707031 600 510 600 L 90 600 C 40.292969 600 0 559.707031 0 510 L 0 90 C 0 40.292969 40.292969 0 90 0 Z M 90 0 "/>
</clipPath>
</defs>
<g id="surface1">
<g clip-path="url(#clip1)" clip-rule="nonzero">
<rect x="0" y="0" width="600" height="600" style="fill:rgb(42.352942%,94.117647%,85.490197%);fill-opacity:1;stroke:none;"/>
</g>
<g clip-path="url(#clip2)" clip-rule="nonzero">
<g clip-path="url(#clip3)" clip-rule="nonzero">
<path style=" stroke:none;fill-rule:nonzero;fill:rgb(100%,100%,100%);fill-opacity:1;" d="M 298.617188 290.132812 L 307.105469 298.617188 C 311.789062 303.304688 311.789062 310.902344 307.105469 315.589844 L 111.941406 510.75 C 107.253906 515.4375 99.65625 515.4375 94.972656 510.75 L 86.484375 502.265625 C 81.800781 497.578125 81.800781 489.980469 86.484375 485.296875 L 281.648438 290.132812 C 286.335938 285.449219 293.933594 285.449219 298.617188 290.132812 Z M 298.617188 290.132812 "/>
</g>
</g>
<g clip-path="url(#clip4)" clip-rule="nonzero">
<g clip-path="url(#clip5)" clip-rule="nonzero">
<path style=" stroke:none;fill-rule:evenodd;fill:rgb(100%,100%,100%);fill-opacity:1;" d="M 294.378906 99.214844 C 282.660156 87.496094 263.667969 87.496094 251.949219 99.214844 L 196.796875 154.367188 C 185.082031 166.082031 185.082031 185.078125 196.796875 196.792969 L 383.472656 383.46875 L 400.441406 400.441406 C 412.160156 412.15625 431.152344 412.15625 442.871094 400.441406 L 498.023438 345.285156 C 509.738281 333.570312 509.738281 314.574219 498.023438 302.859375 Z M 309.757812 252.480469 L 301.800781 260.433594 L 341.578125 300.207031 L 349.53125 292.253906 L 357.488281 300.207031 L 381.351562 276.34375 L 373.394531 268.386719 L 381.351562 260.433594 L 349.53125 228.613281 L 357.488281 220.660156 L 389.304688 252.480469 L 397.261719 244.523438 L 349.53125 196.792969 L 325.667969 220.660156 L 365.441406 260.433594 L 341.578125 284.296875 L 317.710938 260.433594 L 325.667969 252.480469 L 309.757812 236.570312 L 301.800781 244.523438 Z M 309.757812 252.480469 "/>
</g>
</g>
<g clip-path="url(#clip6)" clip-rule="nonzero">
<g clip-path="url(#clip7)" clip-rule="nonzero">
<path style=" stroke:none;fill-rule:nonzero;fill:rgb(42.352942%,94.117647%,85.490197%);fill-opacity:1;" d="M 387.710938 370.75 L 383.46875 383.476562 L 379.492188 379.234375 L 381 379.234375 L 384 372 L 393 354 L 394.078125 351.65625 L 396.199219 345.292969 L 404.683594 336.808594 L 398.320312 347.414062 L 396 357 L 393 360 Z M 387.710938 370.75 "/>
</g>
</g>
<g clip-path="url(#clip8)" clip-rule="nonzero">
<g clip-path="url(#clip9)" clip-rule="nonzero">
<path style=" stroke:none;fill-rule:nonzero;fill:rgb(42.352942%,94.117647%,85.490197%);fill-opacity:1;" d="M 299.195312 115.390625 L 300 105 L 303 105 L 302.890625 108 L 303 111 L 300 120.988281 L 297 126 L 295.898438 129.878906 L 297 138 L 294.585938 147.371094 L 291.585938 152.566406 L 294.988281 140.675781 L 294.292969 129.878906 Z M 299.195312 115.390625 "/>
</g>
</g>
<g clip-path="url(#clip10)" clip-rule="nonzero">
<g clip-path="url(#clip11)" clip-rule="nonzero">
<path style=" stroke:none;fill-rule:nonzero;fill:rgb(100%,100%,100%);fill-opacity:1;" d="M 507 444 L 520.773438 481.226562 L 558 495 L 520.773438 508.773438 L 507 546 L 493.226562 508.773438 L 456 495 L 493.226562 481.226562 Z M 507 444 "/>
</g>
</g>
<g clip-path="url(#clip12)" clip-rule="nonzero">
<g clip-path="url(#clip13)" clip-rule="nonzero">
<path style=" stroke:none;fill-rule:nonzero;fill:rgb(100%,100%,100%);fill-opacity:1;" d="M 507 48 L 520.773438 85.226562 L 558 99 L 520.773438 112.773438 L 507 150 L 493.226562 112.773438 L 456 99 L 493.226562 85.226562 Z M 507 48 "/>
</g>
</g>
<g clip-path="url(#clip14)" clip-rule="nonzero">
<g clip-path="url(#clip15)" clip-rule="nonzero">
<path style=" stroke:none;fill-rule:nonzero;fill:rgb(100%,100%,100%);fill-opacity:1;" d="M 93 48 L 106.773438 85.226562 L 144 99 L 106.773438 112.773438 L 93 150 L 79.226562 112.773438 L 42 99 L 79.226562 85.226562 Z M 93 48 "/>
</g>
</g>
<path style="fill:none;stroke-width:3;stroke-linecap:butt;stroke-linejoin:miter;stroke:rgb(43.921569%,43.921569%,43.921569%);stroke-opacity:1;stroke-miterlimit:4;" d="M 15 1.5 L 85 1.5 C 92.455729 1.5 98.5 7.544271 98.5 15 L 98.5 85 C 98.5 92.455729 92.455729 98.5 85 98.5 L 15 98.5 C 7.544271 98.5 1.5 92.455729 1.5 85 L 1.5 15 C 1.5 7.544271 7.544271 1.5 15 1.5 Z M 15 1.5 " transform="matrix(6,0,0,6,0,0)"/>
</g>
</svg>
