<svg width="100" height="100" viewBox="0 0 100 100" fill="none" xmlns="http://www.w3.org/2000/svg">
<path d="M100 0H0V100H100V0Z" fill="#70D3F3"/>
<path d="M42.9737 56.8812C42.1144 56.1872 41.9805 54.9279 42.6746 54.0687L72.7047 16.8899C74.4399 14.7417 77.588 14.4068 79.7361 16.142L81.1103 17.2519C83.2585 18.9871 83.5933 22.1351 81.8582 24.2833L51.828 61.4621C51.1339 62.3214 49.8747 62.4553 49.0154 61.7613L42.9737 56.8812Z" fill="white"/>
<path d="M46.0044 67.6482C46.0044 70.0015 45.4161 75.2964 40.1212 80.0029C35.8972 80.0029 26.5898 73.6371 26.5898 69.4131C26.5898 65.1892 31.2964 60 37.1796 60C41.4036 60 46.0044 63.4242 46.0044 67.6482Z" fill="white"/>
<path d="M18.3229 78.6893C24.2749 76.1619 26.1842 69.6575 27.2805 66.5265C27.5001 65.8994 28.254 65.7418 28.7437 66.1908L41.1659 77.5777C41.5663 77.9448 41.6011 78.5695 41.2171 78.9538C34.2335 85.9441 23.1603 82.7652 18.1605 80.5327C17.3441 80.1682 17.4999 79.0388 18.3229 78.6893Z" fill="white"/>
</svg>
