<svg width="52" height="38" viewBox="0 0 52 38" fill="none" xmlns="http://www.w3.org/2000/svg">
<path d="M25.9057 37.0377L8.16981 30.434L1 1H51L43.8302 31L25.9057 37.0377Z" fill="#7AEACE"/>
<path d="M25.9057 37.0377L8.16981 30.434L1 1H51L43.8302 31M25.9057 37.0377L43.8302 31M25.9057 37.0377V34.0189M43.8302 31L43.0755 29.6792M25.9057 34.0189L17.3208 31.8491M25.9057 34.0189L34.4906 31.8491M43.0755 29.6792L49.1132 4.20755H38.5472M43.0755 29.6792L34.4906 31.8491M17.3208 31.8491L9.11321 29.6792L2.88679 4.20755H38.5472M17.3208 31.8491L12.6981 4.20755M34.4906 31.8491L38.5472 4.20755" stroke="#7AEACE"/>
<path d="M43.75 31.2564L25.75 37V34.1282L34.3711 32.0641L42.9921 30L43.75 31.2564Z" fill="#49C4A6"/>
<path d="M9.1132 29.6792L2.88678 4.20752H12.75H38.75H49.1132L43.0755 29.6792L34.4906 31.849L25.9056 34.0188L17.3207 31.849L9.1132 29.6792Z" fill="#41B89B"/>
<path d="M17.3207 31.849L9.1132 29.6792L2.88678 4.20752H38.75M17.3207 31.849L25.9056 34.0188L34.4906 31.849M17.3207 31.849L12.75 4.20752M34.4906 31.849L43.0755 29.6792L49.1132 4.20752H38.75M34.4906 31.849L38.75 4.20752" stroke="#41B89B"/>
<path d="M25.9057 34.0188L17.3208 31.849L12.75 4.20752H38.75L34.4906 31.849L25.9057 34.0188Z" fill="#86EED5" stroke="#86EED5"/>
<path d="M26.02 11.68C26.7533 11.68 27.12 11.98 27.12 12.58C27.12 12.7667 27.08 13 27 13.28L26.52 14.9C26.3733 15.3933 26.1933 15.74 25.98 15.94C25.7667 16.14 25.46 16.24 25.06 16.24C24.7267 16.24 24.4667 16.1533 24.28 15.98C24.1067 15.8067 23.94 15.5333 23.78 15.16L23.44 14.34C23.3333 14.0867 23.22 13.9133 23.1 13.82C22.98 13.7267 22.7933 13.68 22.54 13.68H22.08L19.54 22.62C19.5 22.7933 19.48 22.9467 19.48 23.08C19.48 23.24 19.5 23.3733 19.54 23.48C19.5933 23.5867 19.6667 23.7 19.76 23.82C19.88 24.0067 19.94 24.16 19.94 24.28C19.94 24.3067 19.9267 24.3733 19.9 24.48C19.8333 24.6533 19.7 24.78 19.5 24.86C19.3133 24.94 19.04 24.98 18.68 24.98H13.98C13.7 24.98 13.48 24.9333 13.32 24.84C13.1733 24.7467 13.1 24.6133 13.1 24.44C13.1 24.36 13.12 24.28 13.16 24.2C13.2133 24.08 13.2733 23.9933 13.34 23.94C13.42 23.8733 13.5333 23.7933 13.68 23.7C13.88 23.58 14.0467 23.4467 14.18 23.3C14.3133 23.1533 14.4267 22.9267 14.52 22.62L17.04 13.68H16.58C16.2867 13.68 16.0467 13.7267 15.86 13.82C15.6733 13.9133 15.4733 14.0867 15.26 14.34L14.6 15.16C14.2933 15.52 13.9933 15.7933 13.7 15.98C13.42 16.1533 13.1133 16.24 12.78 16.24C12.4733 16.24 12.2333 16.16 12.06 16C11.8867 15.84 11.8 15.62 11.8 15.34C11.8 15.2067 11.82 15.06 11.86 14.9L12.38 13.08C12.4867 12.7067 12.6067 12.4267 12.74 12.24C12.8733 12.04 13.06 11.9 13.3 11.82C13.5533 11.7267 13.9067 11.68 14.36 11.68H26.02ZM40.4558 15.74C40.2424 16.5133 39.8424 17.12 39.2558 17.56C38.6691 17.9867 37.9291 18.2533 37.0358 18.36C37.6758 18.4133 38.1558 18.6 38.4758 18.92C38.7958 19.24 38.9558 19.66 38.9558 20.18C38.9558 20.38 38.9224 20.6267 38.8558 20.92L38.6358 21.9C38.6091 22.0333 38.5958 22.1267 38.5958 22.18C38.5958 22.3533 38.6358 22.4867 38.7158 22.58C38.7958 22.66 38.9091 22.7 39.0558 22.7C39.3358 22.7 39.5358 22.74 39.6558 22.82C39.7891 22.9 39.8358 23.0467 39.7958 23.26C39.7424 23.5667 39.5824 23.8667 39.3158 24.16C39.0491 24.4533 38.6691 24.7 38.1758 24.9C37.6958 25.0867 37.1091 25.18 36.4158 25.18C35.5358 25.18 34.8358 24.9867 34.3158 24.6C33.7958 24.2 33.5358 23.6333 33.5358 22.9C33.5358 22.62 33.5758 22.32 33.6558 22L33.9758 20.72C34.0291 20.5467 34.0558 20.3667 34.0558 20.18C34.0558 19.8733 33.9491 19.6533 33.7358 19.52C33.5358 19.3867 33.2091 19.32 32.7558 19.32H31.9958L31.0758 22.64C31.0491 22.72 31.0358 22.82 31.0358 22.94C31.0358 23.1267 31.0824 23.2867 31.1758 23.42C31.2691 23.5533 31.3958 23.6933 31.5558 23.84C31.6758 23.9333 31.7691 24.0267 31.8358 24.12C31.9024 24.2 31.9358 24.2867 31.9358 24.38C31.9358 24.6067 31.8291 24.7667 31.6158 24.86C31.4024 24.9533 31.0891 25 30.6758 25H25.6558C25.3091 25 25.0491 24.94 24.8758 24.82C24.7024 24.6867 24.6424 24.5067 24.6958 24.28C24.7224 24.16 24.7758 24.0667 24.8558 24C24.9224 23.92 25.0291 23.8333 25.1758 23.74C25.4024 23.6067 25.5824 23.4667 25.7158 23.32C25.8491 23.1733 25.9558 22.9467 26.0358 22.64L28.4758 14.02C28.5291 13.8467 28.5558 13.68 28.5558 13.52C28.5558 13.3733 28.5291 13.2533 28.4758 13.16C28.4358 13.0533 28.3758 12.9333 28.2958 12.8C28.1758 12.6267 28.1158 12.4867 28.1158 12.38C28.1158 12.34 28.1291 12.2667 28.1558 12.16C28.2091 11.9867 28.3224 11.8667 28.4958 11.8C28.6824 11.72 28.9624 11.68 29.3358 11.68H36.0358C36.9558 11.68 37.7558 11.82 38.4358 12.1C39.1291 12.38 39.6558 12.7667 40.0158 13.26C40.3891 13.74 40.5758 14.2867 40.5758 14.9C40.5758 15.18 40.5358 15.46 40.4558 15.74ZM35.3358 15.54C35.4024 15.2333 35.4358 15 35.4358 14.84C35.4358 14.1333 35.0491 13.78 34.2758 13.78H33.4358L32.5558 17.32H33.3958C33.9158 17.32 34.3224 17.1933 34.6158 16.94C34.9224 16.6867 35.1624 16.22 35.3358 15.54Z" fill="#D1FFF4"/>
</svg>
