<svg width="100" height="100" viewBox="0 0 100 100" fill="none" xmlns="http://www.w3.org/2000/svg">
<path d="M100 0H0V100H100V0Z" fill="#51FF85"/>
<path d="M50.2832 39.807L50.2832 82M50.2832 39.807L82 30.114M50.2832 39.807L18 30.6842M50.2832 82L82 71.1667V30.114M50.2832 82L18 71.7368L18 30.6842M82 30.114L50.2832 17L18 30.6842" stroke="white" stroke-width="4"/>
<path d="M50.2832 39.807L18 71.7368M50.2832 39.807V28.4035V17M50.2832 39.807L66.3588 55.7016M82 71.1667L66.3588 55.7016M66.3588 55.7016L82 30.114L18 30.6842L34.1416 56.3421L50.2832 82L66.3588 55.7016Z" stroke="white" stroke-width="2"/>
</svg>
