<svg width="100" height="100" viewBox="0 0 100 100" fill="none" xmlns="http://www.w3.org/2000/svg">
<path d="M100 0H0V100H100V0Z" fill="#51D9FF"/>
<path fill-rule="evenodd" clip-rule="evenodd" d="M81.966 53.3363C80.0405 68.8808 66.3964 81.1099 49.5994 81.1099C31.4615 81.1099 17 66.8504 17 49.5549C17 32.2595 31.4615 18 49.5994 18C65.9395 18 79.296 29.5729 81.7831 44.5127H86.844C84.3176 26.7101 68.6053 13 49.5994 13C28.8338 13 12 29.3662 12 49.5549C12 69.7437 28.8338 86.1099 49.5994 86.1099C69.0516 86.1099 85.0538 71.7483 87 53.3363H81.966Z" fill="white"/>
<path d="M29.9865 47.4416L30.1831 52.9755L32.95 52.8772C33.3676 54.5349 34.9382 58.2962 36.1219 59.8446L34.0408 61.9194L38.0203 65.626L40.4088 63.5402C42.7783 64.9787 44.1842 65.407 47.1226 66.2261L47.3746 68.9877L52.9085 68.7911L52.8102 66.0241C55.6509 65.2169 57.3625 64.4607 59.4702 62.8632L61.6932 64.7851L65.5535 60.8002L63.3304 58.8782C65.0531 55.8432 65.9962 53.0282 66.1537 51.6979L69.0744 51.5941L68.7132 45.7582L65.9462 45.8565C64.5844 42.6479 63.4563 40.2542 62.637 39.3557L64.7126 37.1272L60.7331 33.4207L58.652 35.4955C56.2587 33.9798 53.1259 33.0239 51.7846 32.815L51.6808 29.8943L45.9932 30.0964L46.0969 33.017C44.0989 33.6405 41.0231 35.1404 39.5852 36.0188L37.0547 34.1078L33.189 37.939L35.4285 40.3221C33.6799 43.0931 32.9166 46.1575 32.7535 47.3433L29.9865 47.4416Z" stroke="white" stroke-width="5"/>
<circle cx="49.5277" cy="49.4407" r="15.4611" transform="rotate(-2.03423 49.5277 49.4407)" stroke="white" stroke-width="5"/>
</svg>
