<?xml version="1.0" encoding="UTF-8"?>
<svg xmlns="http://www.w3.org/2000/svg" xmlns:xlink="http://www.w3.org/1999/xlink" width="600px" height="600px" viewBox="0 0 600 600" version="1.1">
<defs>
<clipPath id="clip1">
  <path d="M 90 0 L 510 0 C 559.707031 0 600 40.292969 600 90 L 600 510 C 600 559.707031 559.707031 600 510 600 L 90 600 C 40.292969 600 0 559.707031 0 510 L 0 90 C 0 40.292969 40.292969 0 90 0 Z M 90 0 "/>
</clipPath>
<clipPath id="clip2">
  <path d="M 77 77 L 517 77 L 517 517 L 77 517 Z M 77 77 "/>
</clipPath>
<clipPath id="clip3">
  <path d="M 90 0 L 510 0 C 559.707031 0 600 40.292969 600 90 L 600 510 C 600 559.707031 559.707031 600 510 600 L 90 600 C 40.292969 600 0 559.707031 0 510 L 0 90 C 0 40.292969 40.292969 0 90 0 Z M 90 0 "/>
</clipPath>
<clipPath id="clip4">
  <path d="M 269 48 L 337 48 L 337 127 L 269 127 Z M 269 48 "/>
</clipPath>
<clipPath id="clip5">
  <path d="M 90 0 L 510 0 C 559.707031 0 600 40.292969 600 90 L 600 510 C 600 559.707031 559.707031 600 510 600 L 90 600 C 40.292969 600 0 559.707031 0 510 L 0 90 C 0 40.292969 40.292969 0 90 0 Z M 90 0 "/>
</clipPath>
<clipPath id="clip6">
  <path d="M 258 462 L 337 462 L 337 541 L 258 541 Z M 258 462 "/>
</clipPath>
<clipPath id="clip7">
  <path d="M 90 0 L 510 0 C 559.707031 0 600 40.292969 600 90 L 600 510 C 600 559.707031 559.707031 600 510 600 L 90 600 C 40.292969 600 0 559.707031 0 510 L 0 90 C 0 40.292969 40.292969 0 90 0 Z M 90 0 "/>
</clipPath>
<clipPath id="clip8">
  <path d="M 456 246 L 552 246 L 552 336 L 456 336 Z M 456 246 "/>
</clipPath>
<clipPath id="clip9">
  <path d="M 90 0 L 510 0 C 559.707031 0 600 40.292969 600 90 L 600 510 C 600 559.707031 559.707031 600 510 600 L 90 600 C 40.292969 600 0 559.707031 0 510 L 0 90 C 0 40.292969 40.292969 0 90 0 Z M 90 0 "/>
</clipPath>
<clipPath id="clip10">
  <path d="M 42 246 L 138 246 L 138 336 L 42 336 Z M 42 246 "/>
</clipPath>
<clipPath id="clip11">
  <path d="M 90 0 L 510 0 C 559.707031 0 600 40.292969 600 90 L 600 510 C 600 559.707031 559.707031 600 510 600 L 90 600 C 40.292969 600 0 559.707031 0 510 L 0 90 C 0 40.292969 40.292969 0 90 0 Z M 90 0 "/>
</clipPath>
<clipPath id="clip12">
  <path d="M 409 412 L 448 412 L 448 451 L 409 451 Z M 409 412 "/>
</clipPath>
<clipPath id="clip13">
  <path d="M 90 0 L 510 0 C 559.707031 0 600 40.292969 600 90 L 600 510 C 600 559.707031 559.707031 600 510 600 L 90 600 C 40.292969 600 0 559.707031 0 510 L 0 90 C 0 40.292969 40.292969 0 90 0 Z M 90 0 "/>
</clipPath>
<clipPath id="clip14">
  <path d="M 146 149 L 185 149 L 185 188 L 146 188 Z M 146 149 "/>
</clipPath>
<clipPath id="clip15">
  <path d="M 90 0 L 510 0 C 559.707031 0 600 40.292969 600 90 L 600 510 C 600 559.707031 559.707031 600 510 600 L 90 600 C 40.292969 600 0 559.707031 0 510 L 0 90 C 0 40.292969 40.292969 0 90 0 Z M 90 0 "/>
</clipPath>
<clipPath id="clip16">
  <path d="M 409 149 L 448 149 L 448 188 L 409 188 Z M 409 149 "/>
</clipPath>
<clipPath id="clip17">
  <path d="M 90 0 L 510 0 C 559.707031 0 600 40.292969 600 90 L 600 510 C 600 559.707031 559.707031 600 510 600 L 90 600 C 40.292969 600 0 559.707031 0 510 L 0 90 C 0 40.292969 40.292969 0 90 0 Z M 90 0 "/>
</clipPath>
<clipPath id="clip18">
  <path d="M 146 412 L 185 412 L 185 451 L 146 451 Z M 146 412 "/>
</clipPath>
<clipPath id="clip19">
  <path d="M 90 0 L 510 0 C 559.707031 0 600 40.292969 600 90 L 600 510 C 600 559.707031 559.707031 600 510 600 L 90 600 C 40.292969 600 0 559.707031 0 510 L 0 90 C 0 40.292969 40.292969 0 90 0 Z M 90 0 "/>
</clipPath>
<clipPath id="clip20">
  <path d="M 276 276 L 324 276 L 324 324 L 276 324 Z M 276 276 "/>
</clipPath>
<clipPath id="clip21">
  <path d="M 90 0 L 510 0 C 559.707031 0 600 40.292969 600 90 L 600 510 C 600 559.707031 559.707031 600 510 600 L 90 600 C 40.292969 600 0 559.707031 0 510 L 0 90 C 0 40.292969 40.292969 0 90 0 Z M 90 0 "/>
</clipPath>
<clipPath id="clip22">
  <path d="M 294 252 L 411 252 L 411 307 L 294 307 Z M 294 252 "/>
</clipPath>
<clipPath id="clip23">
  <path d="M 90 0 L 510 0 C 559.707031 0 600 40.292969 600 90 L 600 510 C 600 559.707031 559.707031 600 510 600 L 90 600 C 40.292969 600 0 559.707031 0 510 L 0 90 C 0 40.292969 40.292969 0 90 0 Z M 90 0 "/>
</clipPath>
<clipPath id="clip24">
  <path d="M 246 294 L 310 294 L 310 358 L 246 358 Z M 246 294 "/>
</clipPath>
<clipPath id="clip25">
  <path d="M 90 0 L 510 0 C 559.707031 0 600 40.292969 600 90 L 600 510 C 600 559.707031 559.707031 600 510 600 L 90 600 C 40.292969 600 0 559.707031 0 510 L 0 90 C 0 40.292969 40.292969 0 90 0 Z M 90 0 "/>
</clipPath>
</defs>
<g id="surface1">
<g clip-path="url(#clip1)" clip-rule="nonzero">
<rect x="0" y="0" width="600" height="600" style="fill:rgb(0%,76.078433%,100%);fill-opacity:1;stroke:none;"/>
</g>
<g clip-path="url(#clip2)" clip-rule="nonzero">
<g clip-path="url(#clip3)" clip-rule="nonzero">
<path style=" stroke:none;fill-rule:evenodd;fill:rgb(100%,100%,100%);fill-opacity:1;" d="M 79.277344 239.996094 C 100.28125 159.546875 164.695312 96.640625 245.996094 77.800781 L 245.996094 108.734375 C 181.304688 126.214844 129.941406 176.152344 110.457031 239.996094 Z M 77.800781 347.996094 C 97.109375 431.308594 162.6875 496.882812 245.996094 516.191406 L 245.996094 485.257812 C 179.292969 467.234375 126.757812 414.699219 108.734375 347.996094 Z M 353.996094 514.714844 C 434.445312 493.710938 497.347656 429.296875 516.191406 347.996094 L 485.257812 347.996094 C 467.777344 412.6875 417.839844 464.050781 353.996094 483.535156 Z M 353.996094 79.277344 C 432.457031 99.761719 494.230469 161.539062 514.714844 239.996094 L 483.535156 239.996094 C 464.65625 178.140625 415.851562 129.335938 353.996094 110.457031 Z M 353.996094 79.277344 "/>
</g>
</g>
<g clip-path="url(#clip4)" clip-rule="nonzero">
<g clip-path="url(#clip5)" clip-rule="nonzero">
<path style=" stroke:none;fill-rule:nonzero;fill:rgb(100%,100%,100%);fill-opacity:1;" d="M 269.25 126.75 L 269.25 115.5 L 291.75 115.5 L 291.75 70.5 L 280.5 70.5 L 280.5 59.25 L 291.75 59.25 L 291.75 48 L 314.25 48 L 314.25 115.5 L 336.75 115.5 L 336.75 126.75 Z M 269.25 126.75 "/>
</g>
</g>
<g clip-path="url(#clip6)" clip-rule="nonzero">
<g clip-path="url(#clip7)" clip-rule="nonzero">
<path style=" stroke:none;fill-rule:nonzero;fill:rgb(100%,100%,100%);fill-opacity:1;" d="M 269.25 540.75 L 269.25 529.5 L 258 529.5 L 258 518.25 L 280.5 518.25 L 280.5 529.5 L 314.25 529.5 L 314.25 507 L 280.5 507 L 280.5 495.75 L 291.75 495.75 L 291.75 484.5 L 303 484.5 L 303 473.25 L 269.25 473.25 L 269.25 462 L 336.75 462 L 336.75 473.25 L 325.5 473.25 L 325.5 484.5 L 314.25 484.5 L 314.25 495.75 L 325.5 495.75 L 325.5 507 L 336.75 507 L 336.75 529.5 L 325.5 529.5 L 325.5 540.75 Z M 269.25 540.75 "/>
</g>
</g>
<g clip-path="url(#clip8)" clip-rule="nonzero">
<g clip-path="url(#clip9)" clip-rule="nonzero">
<path style=" stroke:none;fill-rule:nonzero;fill:rgb(100%,100%,100%);fill-opacity:1;" d="M 504 246 L 516.964844 278.847656 L 552 291 L 516.964844 303.152344 L 504 336 L 491.035156 303.152344 L 456 291 L 491.035156 278.847656 Z M 504 246 "/>
</g>
</g>
<g clip-path="url(#clip10)" clip-rule="nonzero">
<g clip-path="url(#clip11)" clip-rule="nonzero">
<path style=" stroke:none;fill-rule:nonzero;fill:rgb(100%,100%,100%);fill-opacity:1;" d="M 90 246 L 102.964844 278.847656 L 138 291 L 102.964844 303.152344 L 90 336 L 77.035156 303.152344 L 42 291 L 77.035156 278.847656 Z M 90 246 "/>
</g>
</g>
<g clip-path="url(#clip12)" clip-rule="nonzero">
<g clip-path="url(#clip13)" clip-rule="nonzero">
<path style=" stroke:none;fill-rule:nonzero;fill:rgb(100%,100%,100%);fill-opacity:1;" d="M 417.914062 412.429688 L 447.613281 442.128906 L 439.128906 450.613281 L 409.429688 420.914062 Z M 417.914062 412.429688 "/>
</g>
</g>
<g clip-path="url(#clip14)" clip-rule="nonzero">
<g clip-path="url(#clip15)" clip-rule="nonzero">
<path style=" stroke:none;fill-rule:nonzero;fill:rgb(100%,100%,100%);fill-opacity:1;" d="M 154.875 149.390625 L 184.574219 179.089844 L 176.089844 187.574219 L 146.390625 157.875 Z M 154.875 149.390625 "/>
</g>
</g>
<g clip-path="url(#clip16)" clip-rule="nonzero">
<g clip-path="url(#clip17)" clip-rule="nonzero">
<path style=" stroke:none;fill-rule:nonzero;fill:rgb(100%,100%,100%);fill-opacity:1;" d="M 409.429688 179.085938 L 439.128906 149.386719 L 447.613281 157.871094 L 417.914062 187.570312 Z M 409.429688 179.085938 "/>
</g>
</g>
<g clip-path="url(#clip18)" clip-rule="nonzero">
<g clip-path="url(#clip19)" clip-rule="nonzero">
<path style=" stroke:none;fill-rule:nonzero;fill:rgb(100%,100%,100%);fill-opacity:1;" d="M 146.390625 442.125 L 176.089844 412.425781 L 184.574219 420.910156 L 154.875 450.609375 Z M 146.390625 442.125 "/>
</g>
</g>
<g clip-path="url(#clip20)" clip-rule="nonzero">
<g clip-path="url(#clip21)" clip-rule="nonzero">
<path style=" stroke:none;fill-rule:nonzero;fill:rgb(100%,100%,100%);fill-opacity:1;" d="M 324 300 C 324 286.746094 313.253906 276 300 276 C 286.746094 276 276 286.746094 276 300 C 276 313.253906 286.746094 324 300 324 C 313.253906 324 324 313.253906 324 300 Z M 324 300 "/>
</g>
</g>
<g clip-path="url(#clip22)" clip-rule="nonzero">
<g clip-path="url(#clip23)" clip-rule="nonzero">
<path style=" stroke:none;fill-rule:nonzero;fill:rgb(100%,100%,100%);fill-opacity:1;" d="M 294 295.605469 L 405.796875 252 L 410.15625 263.179688 L 298.359375 306.785156 Z M 294 295.605469 "/>
</g>
</g>
<g clip-path="url(#clip24)" clip-rule="nonzero">
<g clip-path="url(#clip25)" clip-rule="nonzero">
<path style=" stroke:none;fill-rule:nonzero;fill:rgb(100%,100%,100%);fill-opacity:1;" d="M 309.339844 302.484375 L 254.800781 357.023438 L 246.316406 348.535156 L 300.855469 294 Z M 309.339844 302.484375 "/>
</g>
</g>
<path style="fill:none;stroke-width:3;stroke-linecap:butt;stroke-linejoin:miter;stroke:rgb(43.921569%,43.921569%,43.921569%);stroke-opacity:1;stroke-miterlimit:4;" d="M 15 1.5 L 85 1.5 C 92.455729 1.5 98.5 7.544271 98.5 15 L 98.5 85 C 98.5 92.455729 92.455729 98.5 85 98.5 L 15 98.5 C 7.544271 98.5 1.5 92.455729 1.5 85 L 1.5 15 C 1.5 7.544271 7.544271 1.5 15 1.5 Z M 15 1.5 " transform="matrix(6,0,0,6,0,0)"/>
</g>
</svg>
