<svg width="100" height="100" viewBox="0 0 100 100" fill="none" xmlns="http://www.w3.org/2000/svg">
<path d="M100 0H0V100H100V0Z" fill="#51D9FF"/>
<path fill-rule="evenodd" clip-rule="evenodd" d="M81.966 53.3363C80.0405 68.8808 66.3964 81.1099 49.5994 81.1099C31.4615 81.1099 17 66.8504 17 49.5549C17 32.2595 31.4615 18 49.5994 18C65.9395 18 79.296 29.5729 81.7831 44.5127H86.844C84.3176 26.7101 68.6053 13 49.5994 13C28.8338 13 12 29.3662 12 49.5549C12 69.7437 28.8338 86.1099 49.5994 86.1099C69.0516 86.1099 85.0538 71.7483 87 53.3363H81.966Z" fill="white"/>
<path d="M29.9864 47.4416L30.183 52.9755L32.95 52.8772C33.3675 54.5349 34.9381 58.2962 36.1218 59.8446L34.0407 61.9194L38.0202 65.626L40.4088 63.5402C42.7782 64.9787 44.1841 65.407 47.1225 66.2261L47.3745 68.9877L52.9084 68.7911L52.8102 66.0241C55.6509 65.2169 57.3624 64.4607 59.4701 62.8632L61.6932 64.7851L65.5534 60.8002L63.3304 58.8782C65.053 55.8432 65.9961 53.0282 66.1536 51.6979L69.0743 51.5941L68.7131 45.7582L65.9461 45.8565C64.5844 42.6479 63.4563 40.2542 62.6369 39.3557L64.7126 37.1272L60.7331 33.4207L58.652 35.4955C56.2586 33.9798 53.1259 33.0239 51.7845 32.815L51.6808 29.8943L45.9931 30.0964L46.0969 33.017C44.0989 33.6405 41.023 35.1404 39.5852 36.0188L37.0546 34.1078L33.1889 37.939L35.4284 40.3221C33.6798 43.0931 32.9165 46.1575 32.7534 47.3433L29.9864 47.4416Z" stroke="white" stroke-width="5"/>
<circle cx="49.5276" cy="49.4407" r="15.4611" transform="rotate(-2.03423 49.5276 49.4407)" stroke="white" stroke-width="5"/>
</svg>
