<svg width="300" height="300" viewBox="0 0 300 300" fill="none" xmlns="http://www.w3.org/2000/svg">
<path d="M300 0.292969H0.292969V300H300V0.292969Z" fill="#E0DA1C"/>
<path d="M267.219 150.145C267.219 85.4883 214.805 33.0742 150.145 33.0742C85.4883 33.0742 33.0742 85.4883 33.0742 150.145C33.0742 214.805 85.4883 267.219 150.145 267.219C214.805 267.219 267.219 214.805 267.219 150.145Z" stroke="white" stroke-width="14.6342"/>
<path d="M143.707 0.292969H156.293V28.9766H143.707V0.292969Z" fill="white"/>
<path d="M143.707 271.316H156.293V300H143.707V271.316Z" fill="white"/>
<path d="M299.855 143.855V156.438H271.172V143.855H299.855Z" fill="white"/>
<path d="M28.8281 143.855V156.438H0.144531V143.855H28.8281Z" fill="white"/>
<path d="M300 290.926V300H294.145L231.23 240.277L240.129 231.379L300 290.926Z" fill="white"/>
<path d="M0.144531 9.20703V0.132812H6L68.9141 59.8555L60.0156 68.7539L0.144531 9.20703Z" fill="white"/>
<path d="M300 290.926V300H294.145L231.23 240.277L240.129 231.379L300 290.926Z" fill="white"/>
<path d="M0.144531 9.20703V0.132812H6L68.9141 59.8555L60.0156 68.7539L0.144531 9.20703Z" fill="white"/>
<path d="M0.144531 290.926V300H6L68.9141 240.277L60.0156 231.379L0.144531 290.926Z" fill="white"/>
<path d="M300 9.20703V0.132812H294.145L231.23 59.8555L240.129 68.7539L300 9.20703Z" fill="white"/>
<path d="M68.0938 92.0117C69.875 93.2695 71.707 94.2109 73.5938 94.8398C75.4805 95.4687 77.1602 95.9414 78.625 96.2578C80.4062 96.6758 82.1367 96.8867 83.8125 96.8867C85.9102 96.8867 87.7969 96.6211 89.4727 96.0977C91.2539 95.5742 93.1914 95.0508 95.2891 94.5273C97.3867 94.0039 99.7969 93.582 102.52 93.2695C105.246 92.8516 108.652 92.7969 112.738 93.1133C116.824 93.4258 120.492 94.3711 123.742 95.9414C126.992 97.4102 129.715 99.2969 131.918 101.602C134.223 103.801 136.004 106.266 137.262 108.988C138.52 111.715 139.148 114.492 139.148 117.32C138.937 121.617 138.258 125.652 137.105 129.426C136.059 132.676 134.434 135.871 132.23 139.016C130.031 142.055 126.781 144.203 122.484 145.461C127.727 146.195 131.812 147.559 134.746 149.547C137.785 151.539 140.145 153.582 141.82 155.68C143.707 158.195 145.016 160.918 145.75 163.852C146.379 167.73 146.328 171.715 145.594 175.801C144.859 179.781 143.496 183.555 141.508 187.121C139.621 190.578 137 193.668 133.645 196.395C130.398 199.016 126.469 200.953 121.855 202.211C118.711 203.051 115.098 203.258 111.008 202.84C107.027 202.316 103.148 201.582 99.375 200.641C95.6016 199.695 92.1953 198.754 89.1562 197.809C86.1172 196.867 84.0234 196.445 82.8711 196.551C81.9258 196.656 80.8242 197.023 79.5703 197.652C78.4141 198.176 77.0547 199.016 75.4805 200.168C74.0156 201.215 72.2305 202.734 70.1367 204.727C70.6602 200.012 71.0273 196.238 71.2383 193.406C71.5508 190.578 71.8125 188.324 72.0234 186.648C72.2305 184.762 72.3359 183.348 72.3359 182.402V178.945C72.3359 177.688 72.2852 176.063 72.1797 174.07C72.0742 172.082 71.9687 169.566 71.8672 166.527C77.2109 173.023 82.2422 177.898 86.957 181.145C91.6719 184.395 95.8125 186.754 99.375 188.219C103.566 189.898 107.395 190.684 110.852 190.578C113.785 190.367 116.145 189.426 117.926 187.75C119.707 185.965 120.965 183.871 121.699 181.461C122.434 179.051 122.695 176.48 122.484 173.758C122.273 170.926 121.594 168.309 120.441 165.898C119.395 163.383 117.926 161.234 116.039 159.453C114.152 157.566 111.953 156.414 109.438 155.992C106.398 155.469 103.516 155.418 100.789 155.836C98.3789 156.152 95.8672 156.883 93.2461 158.035C90.625 159.086 88.4258 160.918 86.6445 163.539C86.4336 161.758 86.2773 160.238 86.1719 158.98C86.1719 157.723 86.1172 156.676 86.0156 155.836C85.9102 154.895 85.8555 154.211 85.8555 153.793C85.8555 153.27 85.8047 152.48 85.6992 151.434C85.5937 150.598 85.4883 149.496 85.3867 148.133C85.3867 146.664 85.2813 144.832 85.0703 142.629C86.957 143.156 88.7383 143.574 90.4141 143.887C92.0938 144.098 93.5586 144.254 94.8164 144.359C96.2852 144.465 97.6484 144.465 98.9062 144.359C100.477 144.254 102.363 143.68 104.562 142.629C106.871 141.477 109.02 139.957 111.008 138.07C113 136.188 114.574 133.934 115.727 131.312C116.984 128.691 117.402 125.809 116.984 122.668C116.039 116.273 113.891 111.715 110.539 108.988C107.289 106.16 103.934 104.852 100.477 105.059C98.1719 105.375 95.4453 106.473 92.3008 108.359C89.5781 109.934 86.3281 112.344 82.5547 115.594C78.8867 118.734 74.6953 123.191 69.9805 128.953C70.1875 126.125 70.293 123.609 70.293 121.41C70.293 119.102 70.293 117.215 70.293 115.75C70.293 113.969 70.2422 112.395 70.1367 111.031L69.6641 106.316C69.457 104.746 69.2461 102.754 69.0352 100.344C68.8281 97.9336 68.5117 95.1562 68.0938 92.0117ZM176.719 93.1133C180.18 93.3203 183.008 93.4805 185.207 93.582C187.516 93.6875 189.348 93.7422 190.711 93.7422C192.281 93.8437 193.488 93.8437 194.328 93.7422H198.414C199.984 93.7422 202.188 93.793 205.016 93.8984C207.949 93.8984 211.777 93.9492 216.492 94.0547C215.969 94.7891 215.551 95.6797 215.234 96.7266C214.922 97.7773 214.656 98.8242 214.449 99.8711C214.133 101.023 213.926 102.281 213.82 103.645C213.715 105.32 213.504 107.941 213.191 111.504C212.98 114.543 212.668 118.789 212.246 124.238C211.934 129.582 211.516 136.551 210.988 145.145C214.031 145.145 216.648 144.883 218.852 144.359C221.051 143.73 222.887 142.996 224.352 142.16C226.027 141.32 227.391 140.324 228.441 139.172C228.965 138.543 229.539 137.863 230.168 137.129C230.691 136.5 231.375 135.82 232.211 135.086C233.051 134.352 233.941 133.566 234.887 132.727C234.676 135.559 234.52 138.02 234.414 140.117C234.309 142.105 234.203 143.785 234.098 145.145C233.996 146.719 233.891 147.977 233.785 148.918C233.785 150.07 233.68 151.59 233.469 153.477C233.262 155.156 233.051 157.406 232.84 160.238C232.633 162.961 232.422 166.422 232.211 170.613C231.164 168.516 230.168 166.891 229.227 165.738C228.387 164.48 227.652 163.539 227.023 162.91C226.187 162.176 225.453 161.652 224.824 161.34C224.09 161.129 223.094 160.918 221.836 160.711C220.684 160.5 219.219 160.395 217.434 160.395C215.758 160.289 213.559 160.184 210.832 160.082C210.832 166.266 210.937 171.242 211.148 175.016C211.461 178.789 211.777 181.723 212.09 183.816C212.508 186.332 212.98 188.113 213.504 189.164C214.133 190.105 215.023 191.207 216.176 192.465C217.227 193.617 218.641 194.98 220.422 196.551C222.203 198.125 224.508 199.906 227.34 201.895C224.93 202.422 222.625 202.789 220.422 202.996C218.328 203.102 216.387 203.258 214.605 203.469C212.613 203.68 210.727 203.781 208.945 203.781C207.059 203.781 204.754 203.887 202.031 204.098C199.617 204.309 196.633 204.516 193.07 204.727C189.504 204.938 185.207 205.199 180.18 205.512C181.961 203.73 183.375 202.105 184.422 200.641C185.574 199.066 186.465 197.703 187.094 196.551C187.828 195.293 188.352 194.195 188.668 193.25C188.875 192.098 189.191 190.16 189.609 187.434C189.926 185.129 190.293 181.934 190.711 177.844C191.129 173.758 191.602 168.359 192.125 161.652L149.367 162.125L150.152 151.59C155.289 144.254 159.375 138.176 162.414 133.355C165.559 128.43 167.969 124.449 169.645 121.41C171.531 117.949 172.895 115.227 173.734 113.234C174.258 111.348 174.73 109.355 175.148 107.262C175.566 105.48 175.934 103.383 176.25 100.973C176.562 98.457 176.719 95.8359 176.719 93.1133ZM194.012 146.719C194.223 143.887 194.379 141.32 194.484 139.016C194.691 136.605 194.852 134.508 194.957 132.727C195.059 130.734 195.113 128.848 195.113 127.066V121.25C195.113 119.363 195.113 117.164 195.113 114.648C195.219 112.027 195.32 109.094 195.426 105.844L172.316 147.031L194.012 146.719Z" fill="white"/>
</svg>
