<svg width="99" height="99" viewBox="0 0 99 99" fill="none" xmlns="http://www.w3.org/2000/svg">
<rect x="49.3555" width="69.7992" height="69.7992" rx="10" transform="rotate(45 49.3555 0)" fill="white"/>
<path d="M46.9541 27.8289C47.5542 25.9892 50.1568 25.9892 50.7569 27.8289L55.1329 41.2439C55.4013 42.0668 56.1687 42.6236 57.0343 42.6236H71.1828C73.1219 42.6236 73.9263 45.1064 72.3556 46.2436L60.9222 54.5217C60.2187 55.031 59.9244 55.9362 60.1937 56.7619L64.5629 70.156C65.1635 71.9972 63.0581 73.5319 61.4891 72.3966L50.0279 64.1037C49.3282 63.5975 48.3827 63.5975 47.6831 64.1037L36.2219 72.3966C34.6529 73.5318 32.5475 71.9972 33.1481 70.156L37.5172 56.7619C37.7866 55.9362 37.4922 55.031 36.7887 54.5217L25.3553 46.2436C23.7846 45.1064 24.5891 42.6236 26.5282 42.6236H40.6767C41.5423 42.6236 42.3096 42.0668 42.5781 41.2439L46.9541 27.8289Z" fill="#B384ED"/>
</svg>
