<svg width="100" height="100" viewBox="0 0 100 100" fill="none" xmlns="http://www.w3.org/2000/svg">
<rect width="100" height="100" fill="#985AE8"/>
<rect width="100" height="100" fill="black" fill-opacity="0.15"/>
<path d="M41.5 36C35.9 45.2 24.1667 49.8333 19 51V51.5L26 62L35.5 55.5C36.8333 54.8333 39.2 54 38 56C36.8 58 31.5 63.1667 29 65.5C37.8 73.5 49.6667 79.8333 54.5 82C54.1 74.4 62 62.5 66 57.5L41.5 36Z" fill="white"/>
<path d="M67.5 55L44 34L50 27.5L74 48.5L67.5 55Z" fill="white"/>
<path d="M74.5 17L60.5 32.5L67.5 38.5L81 22.5L74.5 17Z" fill="white"/>
</svg>
