<svg width="52" height="38" viewBox="0 0 52 38" fill="none" xmlns="http://www.w3.org/2000/svg">
<path d="M25.9057 37.0377L8.16981 30.434L1 1H51L43.8302 31L25.9057 37.0377Z" fill="#622AA9"/>
<path d="M25.9057 37.0377L8.16981 30.434L1 1H51L43.8302 31M25.9057 37.0377L43.8302 31M25.9057 37.0377V34.0189M43.8302 31L43.0755 29.6792M25.9057 34.0189L17.3208 31.8491M25.9057 34.0189L34.4906 31.8491M43.0755 29.6792L49.1132 4.20755H38.5472M43.0755 29.6792L34.4906 31.8491M17.3208 31.8491L9.11321 29.6792L2.88679 4.20755H38.5472M17.3208 31.8491L12.6981 4.20755M34.4906 31.8491L38.5472 4.20755" stroke="#622AA9"/>
<path d="M43.75 31.2564L25.75 37V34.1282L34.3711 32.0641L42.9921 30L43.75 31.2564Z" fill="#B445EC"/>
<path d="M9.1132 29.6792L2.88678 4.20752H12.75H38.75H49.1132L43.0755 29.6792L34.4906 31.849L25.9056 34.0188L17.3207 31.849L9.1132 29.6792Z" fill="#4F1977"/>
<path d="M17.3207 31.849L9.1132 29.6792L2.88678 4.20752H38.75M17.3207 31.849L25.9056 34.0188L34.4906 31.849M17.3207 31.849L12.75 4.20752M34.4906 31.849L43.0755 29.6792L49.1132 4.20752H38.75M34.4906 31.849L38.75 4.20752" stroke="#4F1977"/>
<path d="M25.9057 34.0188L17.3208 31.849L12.75 4.20752H38.75L34.4906 31.849L25.9057 34.0188Z" fill="#CB60FB" stroke="#CB60FB"/>
<path d="M25.06 11.68C25.5533 11.68 25.9333 11.7867 26.2 12C26.48 12.2133 26.62 12.5067 26.62 12.88C26.62 13.0667 26.5933 13.2467 26.54 13.42L26.02 15.28C25.9267 15.64 25.7867 15.8933 25.6 16.04C25.4267 16.1733 25.1733 16.24 24.84 16.24C24.52 16.24 24.2667 16.1733 24.08 16.04C23.9067 15.8933 23.7733 15.66 23.68 15.34L23.36 14.2C23.2933 13.96 23.2133 13.8 23.12 13.72C23.0267 13.64 22.8467 13.6 22.58 13.6H20.48L19.48 17.16H20.36C20.4533 17.16 20.58 17.0933 20.74 16.96L21.42 16.36C21.62 16.1867 21.7933 16.06 21.94 15.98C22.0867 15.9 22.2667 15.86 22.48 15.86C22.72 15.86 22.9133 15.9267 23.06 16.06C23.22 16.18 23.3 16.34 23.3 16.54C23.3 16.5933 23.2867 16.6733 23.26 16.78L22.44 19.56C22.36 19.8533 22.22 20.0733 22.02 20.22C21.8333 20.3533 21.6267 20.42 21.4 20.42C21.0267 20.42 20.7467 20.2267 20.56 19.84L20.22 19.14C20.1267 18.94 19.98 18.84 19.78 18.84H19L17.82 23.08H19.58C19.8333 23.08 20.0533 23.0333 20.24 22.94C20.44 22.8333 20.6533 22.6533 20.88 22.4L22.08 21.08C22.2933 20.8533 22.4933 20.6933 22.68 20.6C22.88 20.4933 23.12 20.44 23.4 20.44C23.6933 20.44 23.9333 20.5067 24.12 20.64C24.3067 20.7733 24.4 20.9733 24.4 21.24C24.4 21.3467 24.38 21.4733 24.34 21.62L23.76 23.64C23.6133 24.1467 23.4 24.5 23.12 24.7C22.84 24.9 22.4333 25 21.9 25H12.36C12.08 25 11.8667 24.9533 11.72 24.86C11.56 24.7667 11.48 24.64 11.48 24.48C11.48 24.4 11.5 24.3133 11.54 24.22C11.5933 24.0733 11.68 23.96 11.8 23.88C11.92 23.8 11.9933 23.7533 12.02 23.74C12.2333 23.6067 12.4067 23.4733 12.54 23.34C12.6733 23.1933 12.7867 22.96 12.88 22.64L15.34 14.02C15.3933 13.8467 15.42 13.6867 15.42 13.54C15.42 13.38 15.3933 13.2467 15.34 13.14C15.3 13.0333 15.2333 12.92 15.14 12.8C15.02 12.6267 14.96 12.4867 14.96 12.38C14.96 12.34 14.9733 12.2667 15 12.16C15.0533 11.9867 15.1733 11.8667 15.36 11.8C15.5467 11.72 15.82 11.68 16.18 11.68H25.06ZM36.0027 11.68C37.416 11.68 38.5027 11.9867 39.2627 12.6C40.036 13.2133 40.4227 14.0267 40.4227 15.04C40.4227 15.44 40.3627 15.86 40.2427 16.3C39.8693 17.6333 39.1293 18.62 38.0227 19.26C36.9293 19.9 35.5427 20.22 33.8627 20.22H31.8027L31.1227 22.64C31.096 22.72 31.0827 22.8267 31.0827 22.96C31.0827 23.1467 31.1227 23.3 31.2027 23.42C31.296 23.54 31.4293 23.68 31.6027 23.84C31.7493 23.9733 31.8493 24.0733 31.9027 24.14C31.956 24.2067 31.9827 24.2867 31.9827 24.38C31.9827 24.6067 31.876 24.7667 31.6627 24.86C31.4493 24.9533 31.136 25 30.7227 25H25.7027C25.356 25 25.096 24.94 24.9227 24.82C24.7493 24.6867 24.6893 24.5067 24.7427 24.28C24.7693 24.16 24.8227 24.0667 24.9027 24C24.9693 23.92 25.076 23.8333 25.2227 23.74C25.4493 23.6067 25.6293 23.4667 25.7627 23.32C25.896 23.1733 26.0027 22.9467 26.0827 22.64L28.5227 14.02C28.576 13.8467 28.6027 13.68 28.6027 13.52C28.6027 13.3733 28.576 13.2533 28.5227 13.16C28.4827 13.0533 28.4227 12.9333 28.3427 12.8C28.2227 12.6267 28.1627 12.4867 28.1627 12.38C28.1627 12.34 28.176 12.2667 28.2027 12.16C28.256 11.9867 28.3693 11.8667 28.5427 11.8C28.7293 11.72 29.0093 11.68 29.3827 11.68H36.0027ZM35.4827 15.94C35.6293 15.4467 35.7027 15.0133 35.7027 14.64C35.7027 13.8667 35.3427 13.48 34.6227 13.48H33.7227L32.3027 18.42H33.1827C33.7427 18.42 34.196 18.2467 34.5427 17.9C34.9027 17.54 35.216 16.8867 35.4827 15.94Z" fill="#F8AAFE"/>
</svg>
