<svg width="300" height="300" viewBox="0 0 300 300" fill="none" xmlns="http://www.w3.org/2000/svg">
<g clip-path="url(#clip0_912_646)">
<path d="M300 0H0V300H300V0Z" fill="#FF7951"/>
<path d="M267.188 150C267.188 85.2774 214.723 32.8125 150 32.8125C85.2774 32.8125 32.8125 85.2774 32.8125 150C32.8125 214.723 85.2774 267.188 150 267.188C214.723 267.188 267.188 214.723 267.188 150Z" stroke="white" stroke-width="14.6485"/>
<path d="M143.555 0H156.152V28.7109H143.555V0Z" fill="white"/>
<path d="M143.555 271.289H156.152V300H143.555V271.289Z" fill="white"/>
<path d="M300 143.848V156.152H270.996V143.848H300Z" fill="white"/>
<path d="M28.418 143.555V156.152H0V143.555H28.418Z" fill="white"/>
<path d="M109.176 91.5156C110.957 92.7734 112.793 93.7188 114.684 94.3477C116.57 94.9766 118.25 95.4492 119.719 95.7656C121.5 96.1836 123.23 96.3945 124.91 96.3945C127.008 96.3945 128.898 96.1328 130.574 95.6055C132.359 95.082 134.301 94.5586 136.398 94.0352C138.496 93.5078 140.91 93.0898 143.637 92.7734C146.363 92.3555 149.773 92.3008 153.863 92.6172C157.957 92.9336 161.629 93.875 164.879 95.4492C168.133 96.918 170.859 98.8047 173.062 101.113C175.371 103.316 177.152 105.781 178.41 108.512C179.672 111.238 180.301 114.016 180.301 116.852C180.09 121.152 179.406 125.191 178.254 128.965C177.207 132.219 175.578 135.418 173.375 138.566C171.172 141.605 167.922 143.758 163.621 145.016C168.867 145.75 172.957 147.113 175.895 149.109C178.938 151.102 181.297 153.148 182.977 155.246C184.863 157.762 186.176 160.488 186.91 163.426C187.539 167.309 187.484 171.297 186.75 175.387C186.016 179.371 184.652 183.148 182.66 186.715C180.773 190.18 178.148 193.273 174.793 196C171.539 198.621 167.605 200.562 162.992 201.824C159.844 202.66 156.223 202.871 152.133 202.453C148.148 201.926 144.266 201.191 140.488 200.25C136.711 199.305 133.305 198.359 130.262 197.418C127.219 196.473 125.121 196.051 123.965 196.156C123.023 196.262 121.922 196.629 120.66 197.258C119.508 197.785 118.145 198.621 116.57 199.777C115.102 200.824 113.32 202.348 111.219 204.34C111.746 199.621 112.113 195.844 112.32 193.012C112.637 190.18 112.898 187.922 113.109 186.242C113.32 184.355 113.422 182.941 113.422 181.996V178.535C113.422 177.273 113.371 175.648 113.266 173.656C113.16 171.664 113.055 169.145 112.953 166.102C118.301 172.605 123.336 177.484 128.059 180.738C132.777 183.988 136.922 186.348 140.488 187.816C144.684 189.496 148.516 190.281 151.977 190.18C154.914 189.969 157.273 189.023 159.059 187.344C160.84 185.562 162.098 183.465 162.832 181.051C163.566 178.637 163.828 176.07 163.621 173.34C163.41 170.508 162.73 167.887 161.574 165.473C160.527 162.957 159.059 160.805 157.168 159.02C155.281 157.133 153.078 155.98 150.559 155.559C147.516 155.035 144.633 154.984 141.906 155.402C139.492 155.719 136.977 156.453 134.352 157.605C131.73 158.656 129.527 160.488 127.742 163.113C127.531 161.328 127.375 159.809 127.27 158.551C127.27 157.289 127.219 156.242 127.113 155.402C127.008 154.457 126.957 153.777 126.957 153.355C126.957 152.832 126.902 152.047 126.801 150.996C126.695 150.156 126.59 149.055 126.484 147.691C126.484 146.223 126.379 144.387 126.168 142.184C128.059 142.707 129.84 143.129 131.52 143.441C133.199 143.652 134.668 143.809 135.926 143.914C137.395 144.02 138.758 144.02 140.016 143.914C141.59 143.809 143.477 143.234 145.68 142.184C147.988 141.031 150.141 139.508 152.133 137.621C154.125 135.734 155.699 133.477 156.855 130.855C158.113 128.23 158.531 125.348 158.113 122.199C157.168 115.801 155.02 111.238 151.66 108.512C148.41 105.676 145.051 104.367 141.59 104.574C139.281 104.891 136.555 105.992 133.406 107.879C130.68 109.453 127.43 111.867 123.652 115.117C119.98 118.266 115.785 122.727 111.062 128.496C111.273 125.66 111.379 123.145 111.379 120.941C111.379 118.633 111.379 116.746 111.379 115.277C111.379 113.492 111.324 111.918 111.219 110.555L110.75 105.836C110.539 104.262 110.328 102.27 110.117 99.8555C109.91 97.4414 109.594 94.6641 109.176 91.5156Z" fill="white"/>
</g>
<defs>
<clipPath id="clip0_912_646">
<rect width="300" height="300" fill="white"/>
</clipPath>
</defs>
</svg>
