<svg width="300" height="300" viewBox="0 0 300 300" fill="none" xmlns="http://www.w3.org/2000/svg">
<g clip-path="url(#clip0_916_667)">
<path d="M300 0.5H0.292969V299.5H300V0.5Z" fill="#FF9951"/>
<path d="M267.219 150C267.219 85.4961 214.805 33.2031 150.145 33.2031C85.4883 33.2031 33.0742 85.4961 33.0742 150C33.0742 214.504 85.4883 266.797 150.145 266.797C214.805 266.797 267.219 214.504 267.219 150Z" stroke="white" stroke-width="14.6169"/>
<path d="M143.707 0.5H156.293V29.1172H143.707V0.5Z" fill="white"/>
<path d="M143.707 270.883H156.293V299.5H143.707V270.883Z" fill="white"/>
<path d="M300 143.578V156.133H240V143.578H300Z" fill="white"/>
<path d="M60 143.867V156.133H0V143.867H60Z" fill="white"/>
<path d="M260.414 251.273L251.512 260.152L231.23 239.918L240.129 231.039L260.414 251.273Z" fill="white"/>
<path d="M68.7695 60.082L59.8711 68.9609L39.5898 48.7266L48.4883 39.8477L68.7695 60.082Z" fill="white"/>
<path d="M251.512 39.8477L260.414 48.7266L240.129 68.9609L231.23 60.082L251.512 39.8477Z" fill="white"/>
<path d="M59.8711 231.039L68.7695 239.918L48.4883 260.152L39.5859 251.273L59.8711 231.039Z" fill="white"/>
<path fill-rule="evenodd" clip-rule="evenodd" d="M180.586 18.5312V3.58594C238.824 15.5742 284.715 61.2773 296.844 119.34H281.859C270.215 69.3594 230.727 30.0391 180.586 18.5312Z" fill="white"/>
<path fill-rule="evenodd" clip-rule="evenodd" d="M180.586 281.469V296.414C238.824 284.426 284.715 238.723 296.844 180.66H281.859C270.215 230.641 230.727 269.961 180.586 281.469Z" fill="white"/>
<path fill-rule="evenodd" clip-rule="evenodd" d="M116.262 18.5312V3.58594C58.0195 15.5742 12.1289 61.2773 0 119.34H14.9883C26.6289 69.3594 66.1211 30.0391 116.262 18.5312Z" fill="white"/>
<path fill-rule="evenodd" clip-rule="evenodd" d="M116.262 281.469V296.414C58.0195 284.426 12.1289 238.723 0 180.66H14.9883C26.6289 230.641 66.1211 269.961 116.262 281.469Z" fill="white"/>
<path fill-rule="evenodd" clip-rule="evenodd" d="M171.301 68.9023V53.9336C209.453 61.7891 239.52 91.7305 247.465 129.77H232.453C225.023 99.8125 201.355 76.2461 171.301 68.9023ZM249.531 150.281C249.531 150.137 249.531 149.996 249.531 149.855C249.531 149.711 249.531 149.57 249.531 149.426V150.281Z" fill="white"/>
<path fill-rule="evenodd" clip-rule="evenodd" d="M171.301 230.805V245.773C209.453 237.918 239.52 207.977 247.465 169.941H232.453C225.023 199.895 201.355 223.465 171.301 230.805ZM249.531 149.426C249.531 149.57 249.531 149.711 249.531 149.855C249.531 149.996 249.531 150.137 249.531 150.281V149.426Z" fill="white"/>
<path fill-rule="evenodd" clip-rule="evenodd" d="M129.16 68.9023V53.9336C91.0039 61.7891 60.9414 91.7305 52.9922 129.77H68.0039C75.4336 99.8125 99.1055 76.2461 129.16 68.9023ZM50.9258 149.957C50.9258 149.922 50.9258 149.887 50.9258 149.855C50.9258 149.82 50.9258 149.785 50.9258 149.75V149.957Z" fill="white"/>
<path fill-rule="evenodd" clip-rule="evenodd" d="M129.16 230.805V245.773C91.0039 237.918 60.9414 207.977 52.9922 169.941H68.0039C75.4336 199.895 99.1055 223.465 129.16 230.805ZM50.9258 149.75C50.9258 149.785 50.9258 149.82 50.9258 149.855C50.9258 149.887 50.9258 149.922 50.9258 149.957V149.75Z" fill="white"/>
<path d="M128.363 109.117C132.031 107.969 135.02 107.027 137.324 106.297C139.629 105.461 141.516 104.781 142.984 104.258C144.66 103.629 145.918 103.055 146.758 102.531L150.531 100.648C151.996 99.918 153.883 98.9766 156.188 97.8281C158.496 96.5703 161.48 95.0039 165.148 93.1211C164.312 97.0937 163.684 100.859 163.262 104.414C162.949 107.863 162.688 110.949 162.477 113.668C162.164 116.805 162.004 119.68 162.004 122.293C161.902 124.488 161.742 127.414 161.535 131.074C161.43 134.734 161.273 138.707 161.062 142.996C160.852 147.281 160.645 151.672 160.434 156.168C160.223 160.664 160.066 164.898 159.961 168.871C159.961 172.742 160.016 176.086 160.117 178.91C160.328 181.73 160.695 183.668 161.219 184.711C161.742 185.965 162.426 187.168 163.262 188.32C163.996 189.363 164.836 190.566 165.777 191.926C166.824 193.18 168.082 194.434 169.551 195.691C167.141 196.211 164.887 196.684 162.793 197.102C160.695 197.414 158.859 197.676 157.289 197.887C155.402 198.199 153.727 198.461 152.258 198.668C150.688 198.773 148.539 199.035 145.812 199.453C143.508 199.766 140.574 200.188 137.012 200.707C133.445 201.125 129.047 201.598 123.805 202.121C126.531 200.445 128.68 198.828 130.25 197.258C131.926 195.691 133.184 194.332 134.023 193.18C134.965 191.82 135.543 190.516 135.754 189.262C135.855 188.422 136.016 186.176 136.223 182.516C136.539 178.754 136.801 174.359 137.012 169.344C137.324 164.219 137.586 158.781 137.797 153.031C138.109 147.176 138.32 141.738 138.426 136.723C138.531 131.703 138.582 127.414 138.582 123.859C138.582 120.305 138.426 118.164 138.109 117.43C137.691 116.699 137.062 115.863 136.223 114.922C135.492 114.086 134.496 113.195 133.238 112.254C132.086 111.316 130.461 110.27 128.363 109.117Z" fill="white"/>
</g>
<defs>
<clipPath id="clip0_916_667">
<rect width="300" height="300" fill="white"/>
</clipPath>
</defs>
</svg>
