<svg width="300" height="300" viewBox="0 0 300 300" fill="none" xmlns="http://www.w3.org/2000/svg">
<g clip-path="url(#clip0_912_175)">
<path d="M300 0H0V300H300V0Z" fill="#51ABFF"/>
<path d="M292.676 150C292.676 71.2032 228.797 7.32422 150 7.32422C71.2032 7.32422 7.32422 71.2032 7.32422 150C7.32422 228.797 71.2032 292.676 150 292.676C228.797 292.676 292.676 228.797 292.676 150Z" stroke="white" stroke-width="14.6485"/>
<path d="M143.555 0H156.152V28.7109H143.555V0Z" fill="white"/>
<path d="M142.383 13.1836H157.324V47.7539H142.383V13.1836Z" fill="white"/>
<path d="M143.555 271.289H156.152V300H143.555V271.289Z" fill="white"/>
<path d="M142.383 254.004H157.324V288.574H142.383V254.004Z" fill="white"/>
<path d="M287.402 143.262V158.496H253.125V143.262H287.402Z" fill="white"/>
<path d="M46.582 143.262V158.496H12.0117V143.262H46.582Z" fill="white"/>
<path d="M241.914 48.0625L252.645 58.793L241.66 69.7773L230.93 59.043L241.914 48.0625Z" fill="white"/>
<path d="M57.8594 231.445L68.5898 242.176L57.6055 253.16L46.875 242.43L57.8594 231.445Z" fill="white"/>
<path d="M252.645 242.973L241.914 253.703L230.93 242.719L241.66 231.988L252.645 242.973Z" fill="white"/>
<path d="M68.7148 59.043L57.9844 69.7773L47 58.793L57.7344 48.0625L68.7148 59.043Z" fill="white"/>
<path d="M61.5312 95.6055C63.5234 97.0742 65.5156 98.1758 67.5078 98.9102C69.6055 99.5391 71.4961 99.9609 73.1758 100.172C75.0625 100.484 76.9492 100.539 78.8398 100.328C80.6211 100.117 82.457 99.4883 84.3477 98.4375C86.2344 97.3906 88.4375 96.2891 90.957 95.1367C93.4727 93.9805 96.4102 92.9844 99.7656 92.1445C103.23 91.1992 107.371 90.7305 112.199 90.7305C114.297 90.7305 116.5 91.1484 118.809 91.9883C121.219 92.8281 123.527 93.9297 125.73 95.293C127.934 96.5508 129.926 97.9688 131.711 99.5391C133.598 101.113 135.016 102.687 135.961 104.262C137.008 105.836 137.742 108.406 138.164 111.973C138.582 115.434 138.738 119.211 138.633 123.301C138.531 127.395 138.164 131.43 137.531 135.418C137.008 139.402 136.223 142.656 135.172 145.176C133.914 147.379 131.5 150.211 127.934 153.672C124.891 156.609 120.328 160.387 114.242 165C108.16 169.617 99.9766 175.125 89.6953 181.523C95.7813 181.418 100.867 181.262 104.961 181.051C109.156 180.738 112.566 180.422 115.188 180.105C118.23 179.687 120.645 179.27 122.426 178.848C124 178.219 125.68 177.328 127.461 176.172C128.93 175.125 130.504 173.762 132.184 172.082C133.965 170.402 135.695 168.199 137.375 165.473C137.691 171.137 138.004 175.598 138.32 178.848C138.531 180.738 138.687 182.363 138.793 183.727C138.898 184.984 139 186.453 139.105 188.133C139.211 189.602 139.266 191.281 139.266 193.168C139.367 195.055 139.527 197.051 139.734 199.148C134.492 197.785 129.719 196.734 125.418 196C121.117 195.16 117.445 194.586 114.402 194.27C110.836 193.848 107.637 193.641 104.805 193.641C101.867 193.746 98.6133 194.008 95.0469 194.426C91.8984 194.848 88.1211 195.477 83.7188 196.316C79.4141 197.051 74.5391 198.152 69.082 199.621C68.6641 198.465 68.2969 197.312 67.9805 196.156C67.668 194.898 67.4063 193.691 67.1953 192.539C66.8789 191.281 66.6172 190.02 66.4062 188.762C66.1992 187.504 65.9883 186.297 65.7773 185.141C65.5703 184.094 65.4102 182.992 65.3047 181.84C65.2031 180.684 65.0977 179.582 64.9922 178.535C73.3828 173.184 80.2031 168.359 85.4492 164.055C90.6914 159.652 94.8359 155.926 97.8789 152.883C101.34 149.316 103.965 146.066 105.746 143.129C107.531 139.563 109 135.629 110.152 131.328C111.309 127.027 111.672 123.039 111.254 119.367C110.941 115.695 109.68 112.707 107.477 110.398C105.273 107.984 101.762 106.938 96.9336 107.25C93.7891 107.461 90.7969 108.562 87.9648 110.555C85.2383 112.551 82.7188 114.961 80.4141 117.793C78.1055 120.625 76.0586 123.668 74.2773 126.922C72.4922 130.066 70.9727 133.059 69.7109 135.891C68.5586 138.723 67.6133 141.082 66.8789 142.973C66.25 144.859 65.9375 145.855 65.9375 145.961C65.832 146.172 65.6719 145.383 65.4648 143.602C65.3594 141.816 65.2031 139.613 64.9922 136.992C64.8867 134.266 64.7305 131.43 64.5195 128.496C64.3086 125.559 64.1016 123.09 63.8906 121.098C63.7852 119.523 63.6289 117.48 63.418 114.961C63.1016 110.871 62.4727 104.418 61.5312 95.6055ZM150.578 143.801C151.551 144.488 152.555 145.004 153.582 145.344C154.613 145.688 155.527 145.945 156.328 146.117C157.301 146.348 158.246 146.461 159.16 146.461C160.309 146.461 161.336 146.32 162.25 146.031C163.227 145.746 164.285 145.461 165.43 145.176C166.57 144.887 167.887 144.66 169.375 144.488C170.863 144.258 172.723 144.23 174.957 144.402C177.188 144.574 179.187 145.09 180.965 145.945C182.738 146.746 184.223 147.777 185.426 149.035C186.684 150.238 187.656 151.582 188.344 153.07C189.031 154.559 189.375 156.074 189.375 157.621C189.262 159.965 188.887 162.168 188.258 164.227C187.688 166.004 186.801 167.746 185.598 169.465C184.395 171.125 182.621 172.297 180.277 172.984C183.137 173.383 185.371 174.129 186.973 175.215C188.629 176.301 189.918 177.418 190.832 178.562C191.863 179.938 192.578 181.422 192.98 183.027C193.324 185.141 193.293 187.316 192.895 189.547C192.492 191.723 191.75 193.781 190.66 195.727C189.633 197.617 188.203 199.305 186.371 200.793C184.598 202.223 182.449 203.281 179.934 203.969C178.215 204.426 176.242 204.539 174.012 204.312C171.836 204.023 169.719 203.625 167.66 203.109C165.598 202.594 163.738 202.078 162.082 201.566C160.422 201.051 159.277 200.82 158.648 200.879C158.133 200.934 157.531 201.137 156.844 201.48C156.215 201.766 155.473 202.223 154.613 202.852C153.813 203.426 152.84 204.254 151.695 205.34C151.98 202.766 152.18 200.707 152.297 199.16C152.469 197.617 152.609 196.387 152.727 195.473C152.84 194.441 152.898 193.668 152.898 193.152V191.266C152.898 190.578 152.867 189.691 152.812 188.605C152.754 187.516 152.695 186.145 152.641 184.484C155.559 188.031 158.305 190.691 160.879 192.465C163.453 194.242 165.715 195.527 167.66 196.328C169.949 197.246 172.035 197.676 173.926 197.617C175.527 197.504 176.816 196.988 177.789 196.07C178.762 195.098 179.445 193.953 179.848 192.637C180.246 191.324 180.391 189.922 180.277 188.434C180.16 186.887 179.789 185.457 179.16 184.141C178.59 182.77 177.789 181.594 176.758 180.621C175.727 179.594 174.527 178.961 173.152 178.734C171.492 178.449 169.918 178.418 168.434 178.648C167.117 178.82 165.742 179.219 164.312 179.852C162.883 180.422 161.68 181.422 160.707 182.855C160.594 181.879 160.508 181.051 160.449 180.363C160.449 179.68 160.422 179.105 160.363 178.648C160.309 178.133 160.277 177.762 160.277 177.531C160.277 177.246 160.25 176.816 160.191 176.246C160.137 175.789 160.078 175.188 160.02 174.441C160.02 173.641 159.965 172.641 159.848 171.438C160.879 171.723 161.852 171.953 162.766 172.125C163.684 172.238 164.484 172.324 165.172 172.383C165.973 172.441 166.715 172.441 167.402 172.383C168.262 172.324 169.289 172.012 170.492 171.438C171.75 170.809 172.922 169.98 174.012 168.949C175.098 167.918 175.957 166.688 176.586 165.258C177.273 163.828 177.5 162.254 177.273 160.539C176.758 157.047 175.586 154.559 173.754 153.07C171.98 151.527 170.148 150.809 168.262 150.926C167 151.098 165.512 151.695 163.797 152.727C162.309 153.586 160.535 154.902 158.477 156.676C156.473 158.391 154.184 160.824 151.609 163.973C151.723 162.426 151.781 161.055 151.781 159.852C151.781 158.594 151.781 157.562 151.781 156.762C151.781 155.789 151.75 154.93 151.695 154.188L151.438 151.609C151.324 150.754 151.207 149.664 151.094 148.352C150.98 147.035 150.809 145.516 150.578 143.801ZM220.617 143.715C223.25 143.656 225.91 144.258 228.598 145.516C231.289 146.777 233.719 148.691 235.895 151.27C238.07 153.785 239.844 156.961 241.215 160.797C242.59 164.629 243.305 169.121 243.363 174.27C243.418 177.703 243.16 180.824 242.59 183.625C242.016 186.43 241.246 188.949 240.273 191.18C239.301 193.352 238.184 195.301 236.926 197.016C235.723 198.676 234.492 200.105 233.234 201.309C231.977 202.453 230.773 203.367 229.629 204.055C228.484 204.742 227.512 205.199 226.711 205.426C225.68 205.77 224.449 206.086 223.02 206.371C221.59 206.602 220.102 206.742 218.559 206.801C217.012 206.914 215.469 206.828 213.922 206.543C212.434 206.312 211.117 205.855 209.973 205.168C208.828 204.484 207.484 203.512 205.941 202.25C204.453 200.934 203.023 199.16 201.648 196.93C200.273 194.641 199.102 191.781 198.129 188.348C197.156 184.914 196.672 180.707 196.672 175.73C196.672 170.75 197.242 166.289 198.387 162.34C199.59 158.391 201.219 155.043 203.277 152.297C205.395 149.551 207.914 147.461 210.832 146.031C213.809 144.543 217.07 143.773 220.617 143.715ZM208.516 175.645C208.457 179.02 208.656 181.965 209.117 184.484C209.574 187.004 210.117 189.121 210.746 190.836C211.375 192.551 212.004 193.926 212.633 194.957C213.32 195.93 213.836 196.613 214.18 197.016C214.523 197.531 215.152 197.875 216.066 198.047C216.984 198.219 217.957 198.305 218.984 198.305C220.016 198.246 221.016 198.102 221.992 197.875C222.965 197.59 223.707 197.215 224.223 196.758C224.508 196.473 224.91 195.758 225.422 194.613C225.996 193.469 226.539 191.98 227.055 190.148C227.625 188.316 228.141 186.199 228.598 183.797C229.059 181.336 229.371 178.703 229.543 175.902C229.715 172.754 229.715 169.863 229.543 167.23C229.371 164.543 229.113 162.195 228.77 160.195C228.426 158.191 228.027 156.531 227.57 155.215C227.113 153.898 226.625 153.012 226.109 152.555C225.367 151.867 224.449 151.383 223.363 151.098C222.332 150.809 221.273 150.695 220.188 150.754C219.156 150.809 218.156 151.012 217.184 151.355C216.27 151.695 215.555 152.156 215.039 152.727C214.008 153.871 213.094 155.074 212.293 156.332C211.492 157.59 210.832 159.105 210.316 160.883C209.801 162.656 209.375 164.742 209.031 167.148C208.742 169.492 208.57 172.324 208.516 175.645Z" fill="white"/>
</g>
<defs>
<clipPath id="clip0_912_175">
<rect width="300" height="300" fill="white"/>
</clipPath>
</defs>
</svg>
