<svg width="53" height="38" viewBox="0 0 53 38" fill="none" xmlns="http://www.w3.org/2000/svg">
<path d="M26.4057 37.0377L8.66981 30.434L1.5 1H51.5L44.3302 31L26.4057 37.0377Z" fill="#3D6283"/>
<path d="M26.4057 37.0377L8.66981 30.434L1.5 1H51.5L44.3302 31M26.4057 37.0377L44.3302 31M26.4057 37.0377V34.0189M44.3302 31L43.5755 29.6792M26.4057 34.0189L17.8208 31.8491M26.4057 34.0189L34.9906 31.8491M43.5755 29.6792L49.6132 4.20755H39.0472M43.5755 29.6792L34.9906 31.8491M17.8208 31.8491L9.61321 29.6792L3.38679 4.20755H39.0472M17.8208 31.8491L13.1981 4.20755M34.9906 31.8491L39.0472 4.20755" stroke="#3D6283"/>
<path d="M44.25 31.2564L26.25 37V34.1282L34.8711 32.0641L43.4921 30L44.25 31.2564Z" fill="#52A199"/>
<path d="M9.6132 29.6792L3.38678 4.20752H13.25H39.25H49.6132L43.5755 29.6792L34.9906 31.849L26.4056 34.0188L17.8207 31.849L9.6132 29.6792Z" fill="#363962"/>
<path d="M17.8207 31.849L9.6132 29.6792L3.38678 4.20752H39.25M17.8207 31.849L26.4056 34.0188L34.9906 31.849M17.8207 31.849L13.25 4.20752M34.9906 31.849L43.5755 29.6792L49.6132 4.20752H39.25M34.9906 31.849L39.25 4.20752" stroke="#363962"/>
<path d="M26.4057 34.0188L17.8208 31.849L13.25 4.20752H39.25L34.9906 31.849L26.4057 34.0188Z" fill="#58CC96" stroke="#58CC96"/>
<path d="M23.22 13.38C23.4733 12.46 23.8267 11.7667 24.28 11.3C24.7467 10.8333 25.3867 10.6 26.2 10.6C26.84 10.6 27.3533 10.8067 27.74 11.22C28.1267 11.62 28.32 12.12 28.32 12.72C28.32 12.92 28.2867 13.1533 28.22 13.42C28.0733 14.0067 27.8133 14.4333 27.44 14.7C27.0667 14.9533 26.66 15.08 26.22 15.08C25.9933 15.08 25.7867 15.0667 25.6 15.04C25.4267 15 25.26 14.9533 25.1 14.9L23.92 19.24C23.4933 20.8267 22.78 22.04 21.78 22.88C20.78 23.7067 19.42 24.12 17.7 24.12C16.1267 24.12 14.9 23.82 14.02 23.22C13.1533 22.62 12.72 21.6867 12.72 20.42C12.72 19.8067 12.8267 19.1333 13.04 18.4L14.56 13.02C14.6133 12.8467 14.64 12.68 14.64 12.52C14.64 12.36 14.6133 12.2333 14.56 12.14C14.52 12.0333 14.46 11.9133 14.38 11.78C14.26 11.6067 14.2 11.4667 14.2 11.36C14.2 11.3067 14.2133 11.24 14.24 11.16C14.2933 10.9867 14.4133 10.8667 14.6 10.8C14.7867 10.72 15.06 10.68 15.42 10.68H20.12C20.6933 10.68 20.98 10.8533 20.98 11.2C20.98 11.28 20.9733 11.3467 20.96 11.4C20.92 11.52 20.86 11.62 20.78 11.7C20.7133 11.7667 20.6067 11.8467 20.46 11.94C20.2467 12.06 20.0733 12.1933 19.94 12.34C19.8067 12.4867 19.6933 12.7133 19.6 13.02L17.86 19.14C17.74 19.5933 17.68 19.98 17.68 20.3C17.68 21.1933 18.16 21.64 19.12 21.64C19.7067 21.64 20.1933 21.4533 20.58 21.08C20.98 20.6933 21.3133 20.04 21.58 19.12L23.22 13.38ZM33.7217 24.12C32.6017 24.12 31.5951 23.9133 30.7017 23.5C29.8084 23.0867 29.0951 22.48 28.5617 21.68C28.0417 20.8667 27.7817 19.8867 27.7817 18.74C27.7817 17.94 27.9217 17.0733 28.2017 16.14C28.8151 14.14 29.7417 12.7 30.9817 11.82C32.2217 10.9267 33.5484 10.48 34.9617 10.48C35.7217 10.48 36.3951 10.5933 36.9817 10.82C37.5684 11.0467 38.1084 11.3733 38.6017 11.8L39.1417 11.38C39.5017 11.1 39.8017 10.9067 40.0417 10.8C40.2951 10.6933 40.5751 10.64 40.8817 10.64C41.2151 10.64 41.4817 10.7133 41.6817 10.86C41.8817 11.0067 41.9817 11.22 41.9817 11.5C41.9817 11.6467 41.9551 11.7933 41.9017 11.94L40.7817 15.06C40.6617 15.42 40.5151 15.6733 40.3417 15.82C40.1817 15.9667 39.9351 16.04 39.6017 16.04C39.2551 16.04 38.9684 15.92 38.7417 15.68C38.5284 15.4267 38.2817 15 38.0017 14.4C37.6817 13.7733 37.4217 13.36 37.2217 13.16C37.0217 12.96 36.7284 12.86 36.3417 12.86C35.7951 12.86 35.2684 13.2 34.7617 13.88C34.2551 14.5467 33.7951 15.5533 33.3817 16.9C33.0351 18.0333 32.8617 18.98 32.8617 19.74C32.8617 20.4067 32.9884 20.9067 33.2417 21.24C33.4951 21.56 33.8351 21.72 34.2617 21.72C34.8884 21.72 35.4017 21.58 35.8017 21.3C36.2151 21.02 36.6351 20.64 37.0617 20.16C37.3284 19.8667 37.5417 19.6533 37.7017 19.52C37.8751 19.3733 38.0551 19.3 38.2417 19.3C38.4817 19.3 38.7351 19.42 39.0017 19.66C39.2684 19.9 39.3951 20.14 39.3817 20.38C39.3951 20.6733 39.1551 21.1267 38.6617 21.74C38.1817 22.3533 37.5084 22.9067 36.6417 23.4C35.7884 23.88 34.8151 24.12 33.7217 24.12Z" fill="#B8FFDE"/>
</svg>
