<svg width="300" height="300" viewBox="0 0 300 300" fill="none" xmlns="http://www.w3.org/2000/svg">
<path d="M300 0.292969H0.292969V300H300V0.292969Z" fill="#E0DA1C"/>
<path d="M292.391 150.145C292.391 71.4258 228.574 7.60938 149.856 7.60938C71.1328 7.60938 7.31641 71.4258 7.31641 150.145C7.31641 228.867 71.1328 292.684 149.856 292.684C228.574 292.684 292.391 228.867 292.391 150.145Z" stroke="white" stroke-width="14.6342"/>
<path d="M143.707 0.292969H156.293V28.9766H143.707V0.292969Z" fill="white"/>
<path d="M143.707 271.316H156.293V300H143.707V271.316Z" fill="white"/>
<path d="M299.855 143.855V156.438H271.172V143.855H299.855Z" fill="white"/>
<path d="M28.8281 143.855V156.438H0.144531V143.855H28.8281Z" fill="white"/>
<path d="M300 290.926V300H294.145L231.23 240.277L240.129 231.379L300 290.926Z" fill="white"/>
<path d="M0.144531 9.20703V0.132812H6L68.9141 59.8555L60.0156 68.7539L0.144531 9.20703Z" fill="white"/>
<path d="M300 290.926V300H294.145L231.23 240.277L240.129 231.379L300 290.926Z" fill="white"/>
<path d="M0.144531 9.20703V0.132812H6L68.9141 59.8555L60.0156 68.7539L0.144531 9.20703Z" fill="white"/>
<path d="M0.144531 290.926V300H6L68.9141 240.277L60.0156 231.379L0.144531 290.926Z" fill="white"/>
<path d="M300 9.20703V0.132812H294.145L231.23 59.8555L240.129 68.7539L300 9.20703Z" fill="white"/>
<path d="M149.465 258.737C149.676 258.28 150.324 258.28 150.535 258.737L156.09 271.003C156.266 271.39 155.98 271.827 155.555 271.827H144.445C144.02 271.827 143.734 271.39 143.91 271.003L149.465 258.737Z" fill="white"/>
<path d="M226.413 227.46C226.237 226.991 226.698 226.53 227.167 226.706L239.769 231.452C240.167 231.601 240.277 232.112 239.976 232.413L232.12 240.269C231.819 240.569 231.308 240.46 231.159 240.062L226.413 227.46Z" fill="white"/>
<path d="M72.8369 226.413C73.3096 226.237 73.7705 226.698 73.5947 227.167L68.8486 239.769C68.7002 240.167 68.1885 240.277 67.8877 239.976L60.0283 232.12C59.7314 231.819 59.8408 231.308 60.2392 231.159L72.8369 226.413Z" fill="white"/>
<path d="M149.465 40.9688C149.676 41.4297 150.324 41.4297 150.535 40.9688L156.09 28.7031C156.266 28.3164 155.98 27.8789 155.555 27.8789H144.445C144.02 27.8789 143.734 28.3164 143.91 28.7031L149.465 40.9688Z" fill="white"/>
<path d="M41.0156 149.618C41.4648 149.829 41.4648 150.465 41.0156 150.676L28.9297 156.344C28.543 156.528 28.0977 156.243 28.0977 155.817V144.477C28.0977 144.047 28.543 143.766 28.9297 143.95L41.0156 149.618Z" fill="white"/>
<path d="M259.004 149.614C258.551 149.825 258.551 150.469 259.004 150.68L271.293 156.352C271.68 156.532 272.121 156.25 272.121 155.821V144.473C272.121 144.043 271.68 143.762 271.293 143.942L259.004 149.614Z" fill="white"/>
<path d="M226.413 72.2462C226.237 72.7149 226.698 73.1758 227.167 73.0001L239.769 68.254C240.167 68.1055 240.277 67.5938 239.976 67.293L232.12 59.4376C231.819 59.1368 231.308 59.2462 231.159 59.6446L226.413 72.2462Z" fill="white"/>
<path d="M72.8369 73.293C73.3096 73.4688 73.7705 73.0079 73.5947 72.5391L68.8486 59.9376C68.7002 59.5391 68.1885 59.4298 67.8877 59.7305L60.0283 67.586C59.7314 67.8868 59.8408 68.3985 60.2392 68.5469L72.8369 73.293Z" fill="white"/>
<path d="M64.6875 95.8047C66.6797 97.2734 68.6719 98.375 70.6641 99.1055C72.7578 99.7383 74.6445 100.156 76.3242 100.363C78.207 100.68 80.0937 100.73 81.9805 100.523C83.7617 100.312 85.5977 99.6836 87.4844 98.6367C89.3711 97.5859 91.5703 96.4883 94.0859 95.3359C96.6016 94.1836 99.5352 93.1875 102.891 92.3477C106.348 91.4063 110.488 90.9336 115.309 90.9336C117.406 90.9336 119.605 91.3516 121.91 92.1914C124.32 93.0273 126.629 94.1289 128.828 95.4922C131.027 96.75 133.02 98.1641 134.801 99.7383C136.688 101.309 138.102 102.879 139.047 104.453C140.094 106.023 140.828 108.594 141.246 112.156C141.668 115.613 141.824 119.387 141.719 123.473C141.613 127.563 141.246 131.598 140.617 135.578C140.094 139.562 139.309 142.809 138.262 145.324C137.004 147.527 134.594 150.355 131.027 153.812C127.988 156.75 123.43 160.52 117.352 165.133C111.273 169.742 103.098 175.246 92.8281 181.641C98.9062 181.535 103.988 181.375 108.078 181.168C112.27 180.852 115.676 180.539 118.297 180.223C121.336 179.805 123.746 179.387 125.527 178.965C127.098 178.336 128.777 177.445 130.559 176.293C132.023 175.246 133.598 173.883 135.273 172.207C137.055 170.531 138.785 168.328 140.461 165.605C140.773 171.262 141.09 175.719 141.402 178.965C141.613 180.852 141.77 182.477 141.875 183.84C141.98 185.098 142.086 186.566 142.191 188.242C142.293 189.707 142.348 191.387 142.348 193.273C142.453 195.16 142.609 197.148 142.82 199.246C137.578 197.883 132.809 196.836 128.512 196.102C124.215 195.262 120.547 194.687 117.508 194.371C113.945 193.953 110.75 193.742 107.922 193.742C104.984 193.848 101.738 194.109 98.1719 194.531C95.0312 194.949 91.2578 195.578 86.8555 196.414C82.5586 197.148 77.6836 198.25 72.2344 199.719C71.8164 198.562 71.4492 197.41 71.1328 196.258C70.8203 195 70.5586 193.797 70.3477 192.645C70.0352 191.387 69.7734 190.129 69.5625 188.871C69.3516 187.613 69.1445 186.406 68.9336 185.254C68.7227 184.207 68.5664 183.105 68.4609 181.953C68.3555 180.801 68.2539 179.699 68.1484 178.652C76.5312 173.309 83.3437 168.484 88.5859 164.188C93.8242 159.789 97.9648 156.066 101.004 153.027C104.461 149.465 107.082 146.215 108.863 143.281C110.645 139.719 112.113 135.789 113.266 131.492C114.418 127.195 114.785 123.211 114.367 119.543C114.051 115.875 112.793 112.891 110.594 110.582C108.391 108.172 104.879 107.125 100.059 107.438C96.9141 107.648 93.9297 108.75 91.0977 110.742C88.375 112.73 85.8594 115.141 83.5547 117.973C81.2461 120.801 79.2031 123.84 77.4219 127.09C75.6406 130.234 74.1211 133.219 72.8633 136.051C71.7109 138.879 70.7695 141.238 70.0352 143.125C69.4063 145.012 69.0898 146.008 69.0898 146.109C68.9844 146.32 68.8281 145.535 68.6211 143.754C68.5156 141.973 68.3555 139.77 68.1484 137.152C68.043 134.426 67.8867 131.598 67.6758 128.66C67.4648 125.727 67.2578 123.266 67.0469 121.273C66.9414 119.699 66.7852 117.656 66.5742 115.141C66.2617 111.055 65.6328 104.609 64.6875 95.8047ZM165.914 144.555C167.801 144.668 169.344 144.754 170.543 144.812C171.801 144.867 172.801 144.895 173.543 144.895C174.402 144.953 175.059 144.953 175.516 144.895H177.746C178.605 144.895 179.805 144.926 181.348 144.98C182.949 144.98 185.035 145.012 187.605 145.066C187.32 145.469 187.094 145.953 186.922 146.527C186.75 147.098 186.605 147.668 186.492 148.242C186.32 148.871 186.207 149.555 186.148 150.297C186.094 151.215 185.977 152.641 185.809 154.586C185.691 156.242 185.52 158.559 185.293 161.531C185.121 164.445 184.891 168.25 184.605 172.934C186.266 172.934 187.691 172.793 188.895 172.508C190.094 172.164 191.094 171.762 191.895 171.305C192.809 170.848 193.551 170.305 194.125 169.676C194.41 169.336 194.723 168.961 195.066 168.562C195.352 168.219 195.727 167.848 196.184 167.449C196.641 167.047 197.125 166.617 197.641 166.16C197.527 167.703 197.441 169.047 197.383 170.191C197.324 171.277 197.27 172.191 197.211 172.934C197.152 173.793 197.098 174.48 197.039 174.992C197.039 175.621 196.98 176.453 196.867 177.48C196.754 178.395 196.641 179.625 196.523 181.168C196.41 182.652 196.297 184.539 196.184 186.828C195.609 185.684 195.066 184.797 194.555 184.168C194.094 183.48 193.695 182.969 193.352 182.625C192.895 182.227 192.496 181.938 192.152 181.766C191.75 181.652 191.207 181.539 190.523 181.426C189.895 181.309 189.094 181.254 188.121 181.254C187.207 181.195 186.008 181.141 184.52 181.082C184.52 184.453 184.578 187.168 184.691 189.227C184.863 191.285 185.035 192.887 185.207 194.031C185.434 195.402 185.691 196.371 185.977 196.945C186.32 197.461 186.809 198.059 187.438 198.746C188.008 199.375 188.781 200.117 189.75 200.977C190.723 201.832 191.98 202.805 193.523 203.891C192.211 204.176 190.953 204.375 189.75 204.492C188.609 204.547 187.551 204.633 186.578 204.746C185.492 204.863 184.465 204.918 183.492 204.918C182.461 204.918 181.203 204.977 179.719 205.09C178.402 205.203 176.773 205.32 174.832 205.434C172.887 205.547 170.543 205.691 167.801 205.863C168.773 204.891 169.543 204.004 170.113 203.203C170.742 202.348 171.23 201.602 171.574 200.977C171.973 200.289 172.258 199.688 172.43 199.176C172.543 198.547 172.715 197.488 172.945 196C173.117 194.742 173.316 193 173.543 190.77C173.773 188.543 174.031 185.598 174.316 181.938L150.992 182.195L151.422 176.453C154.223 172.449 156.453 169.133 158.109 166.504C159.824 163.816 161.141 161.645 162.055 159.988C163.082 158.102 163.828 156.613 164.285 155.527C164.57 154.5 164.828 153.414 165.055 152.27C165.285 151.301 165.484 150.156 165.656 148.84C165.828 147.469 165.914 146.039 165.914 144.555ZM175.348 173.793C175.461 172.25 175.547 170.848 175.602 169.59C175.719 168.277 175.805 167.133 175.859 166.16C175.918 165.074 175.945 164.047 175.945 163.074V159.902C175.945 158.871 175.945 157.672 175.945 156.301C176.004 154.871 176.059 153.27 176.117 151.5L163.512 173.965L175.348 173.793ZM222.078 146.184C224.02 146.355 226.023 146.867 228.078 147.727C230.137 148.582 232.055 149.84 233.824 151.5C235.598 153.098 237.113 155.129 238.371 157.586C239.684 160.043 240.512 162.934 240.855 166.246C241.43 171.965 241.055 176.91 239.742 181.082C238.484 185.254 236.625 188.914 234.168 192.059C231.766 195.203 228.937 198.004 225.68 200.461C222.477 202.859 219.164 205.148 215.734 207.32C214.02 205.664 212.676 204.32 211.703 203.289L210.16 201.746C209.758 201.23 209.246 200.66 208.617 200.031C208.102 199.461 207.473 198.773 206.73 197.973C205.984 197.172 205.156 196.258 204.242 195.23C206.016 196.203 207.613 196.832 209.043 197.117C210.531 197.402 211.789 197.516 212.816 197.461C214.02 197.402 215.105 197.203 216.074 196.859C218.648 195.602 220.965 194.031 223.02 192.145C224.793 190.484 226.395 188.426 227.824 185.969C229.309 183.453 230.109 180.48 230.223 177.051C228.395 179.68 226.395 181.566 224.223 182.711C222.105 183.855 220.133 184.625 218.305 185.027C216.133 185.484 213.961 185.57 211.789 185.285C210.703 185.113 209.531 184.539 208.273 183.566C207.016 182.598 205.812 181.367 204.672 179.883C203.527 178.336 202.5 176.621 201.586 174.738C200.727 172.852 200.125 170.879 199.785 168.82C199.441 166.703 199.41 164.59 199.699 162.473C200.039 160.301 200.871 158.215 202.184 156.215C204.129 153.301 205.957 151.098 207.672 149.613C209.387 148.125 211.043 147.125 212.645 146.609C214.246 146.039 215.816 145.781 217.363 145.84C218.906 145.898 220.477 146.012 222.078 146.184ZM212.988 163.504C212.531 165.105 212.301 166.703 212.301 168.305C212.301 169.906 212.504 171.363 212.902 172.68C213.359 173.992 213.988 175.137 214.789 176.109C215.59 177.023 216.59 177.594 217.789 177.824C218.992 178.109 220.164 177.937 221.305 177.309C222.508 176.621 223.594 175.68 224.566 174.48C225.594 173.277 226.449 171.879 227.137 170.277C227.879 168.621 228.367 166.934 228.594 165.219C228.766 164.02 228.766 162.73 228.594 161.359C228.48 159.93 228.195 158.617 227.738 157.414C227.336 156.156 226.793 155.102 226.109 154.242C225.48 153.387 224.734 152.871 223.879 152.699C222.734 152.527 221.59 152.699 220.449 153.215C219.363 153.672 218.332 154.414 217.363 155.441C216.391 156.414 215.504 157.617 214.703 159.043C213.961 160.418 213.391 161.902 212.988 163.504Z" fill="white"/>
</svg>
