<svg width="100" height="100" viewBox="0 0 100 100" fill="none" xmlns="http://www.w3.org/2000/svg">
<rect width="100" height="100" fill="#0047FF"/>
<path fill-rule="evenodd" clip-rule="evenodd" d="M50.5952 79.7142C67.2295 79.7142 80.7143 66.2294 80.7143 49.5951C80.7143 32.9608 67.2295 19.4761 50.5952 19.4761C33.961 19.4761 20.4762 32.9608 20.4762 49.5951C20.4762 66.2294 33.961 79.7142 50.5952 79.7142ZM50.4324 71.8108C62.7916 71.8108 72.8108 61.5829 72.8108 48.9662C72.8108 36.3495 62.7916 26.1216 50.4324 26.1216C38.0732 26.1216 28.054 36.3495 28.054 48.9662C28.054 61.5829 38.0732 71.8108 50.4324 71.8108Z" fill="white"/>
<path fill-rule="evenodd" clip-rule="evenodd" d="M40.1905 15.0952V21.6667L37.4524 24.9524L30.881 19.4762L24.3095 25.5C26.1221 27.4773 29.5708 31.1503 30.2248 31.5242C29.9347 31.8451 29.1334 33.376 28.6905 34.2619L19.9286 32.619L16.6429 40.8333L24.8571 44.6667V48.5L15 50.1429L16.0952 58.9048H24.8571L27.0476 63.2857L21.5714 68.7619L27.0476 75.3333L32.5238 69.8571L38 73.6905L34.1667 79.7143L42.381 84.0952L45.6667 76.4286L51.1429 77.5238L52.2381 85.1905L59.9048 84.0952V76.4286L65.381 73.6905L69.7619 78.619L76.3333 73.1429L71.9524 67.6667L74.6905 63.2857L80.7143 66.5714L84 58.9048L78.5238 55.619V50.1429L84 49.0476V40.2857H77.4286L75.2381 35.9048L79.619 30.4286L74.1429 23.8571L68.6667 27.1429L64.2857 24.9524L66.4762 18.381L58.8095 15.0952L55.5238 20.5714H51.1429L48.9524 14L40.1905 15.0952ZM50.4324 71.811C62.7917 71.811 72.8108 61.5831 72.8108 48.9664C72.8108 36.3496 62.7917 26.1218 50.4324 26.1218C38.0732 26.1218 28.054 36.3496 28.054 48.9664C28.054 61.5831 38.0732 71.811 50.4324 71.811Z" fill="white"/>
</svg>
