<svg width="100" height="100" viewBox="0 0 100 100" fill="none" xmlns="http://www.w3.org/2000/svg">
<g clip-path="url(#clip0_268_256)">
<path d="M100 0H0V100H100V0Z" fill="#0047FF"/>
<path d="M22 45.1265V53.0949H25.9842C26.5 55.5 28.5665 60.9895 30.1897 63.2767L27.0909 66.1542L32.6245 71.6877L36.166 68.8103C39.5 71 41.5 71.6877 45.6838 73.0158L45.9051 77H53.8735V73.0158C58 72 60.5 71 63.6126 68.8103L66.7115 71.6877L72.4664 66.1542L69.3676 63.2767C72 59 73.5 55 73.7945 53.0949H78L77.7787 44.6838H73.7945C72 40 70.5 36.5 69.3676 35.166L72.4664 32.0672L66.9328 26.5336L63.834 29.4111C60.4696 27.1091 56.0132 25.5744 54.0949 25.2055V21H45.9051V25.2055C43 26 38.5 28 36.3874 29.1897L32.8458 26.3123L27.0909 31.6245L30.1897 35.166C27.5336 39.0617 26.2793 43.4295 25.9842 45.1265H22Z" stroke="white" stroke-width="6"/>
<path d="M73 49.5C73 61.8718 62.7577 72 50 72C37.2423 72 27 61.8718 27 49.5C27 37.1282 37.2423 27 50 27C62.7577 27 73 37.1282 73 49.5Z" stroke="white" stroke-width="6"/>
<path fill-rule="evenodd" clip-rule="evenodd" d="M63.9905 50C63.7187 57.1271 57.6605 63 50 63C42.161 63 36 56.8504 36 49.5C36 42.1496 42.161 36 50 36C56.5525 36 61.9326 40.2968 63.522 46H67.6399C65.9722 38.0122 58.7082 32 50 32C40.0589 32 32 39.835 32 49.5C32 59.165 40.0589 67 50 67C59.7691 67 67.7206 59.4338 67.9928 50H63.9905Z" fill="white"/>
</g>
<defs>
<clipPath id="clip0_268_256">
<rect width="100" height="100" fill="white"/>
</clipPath>
</defs>
</svg>
