<svg width="300" height="300" viewBox="0 0 300 300" fill="none" xmlns="http://www.w3.org/2000/svg">
<g clip-path="url(#clip0_912_599)">
<path d="M300 0H0V300H300V0Z" fill="#FF7951"/>
<path d="M267.188 150C267.188 85.2774 214.723 32.8125 150 32.8125C85.2774 32.8125 32.8125 85.2774 32.8125 150C32.8125 214.723 85.2774 267.188 150 267.188C214.723 267.188 267.188 214.723 267.188 150Z" stroke="white" stroke-width="14.6485"/>
<path d="M292.676 150C292.676 71.2032 228.797 7.32422 150 7.32422C71.2032 7.32422 7.32422 71.2032 7.32422 150C7.32422 228.797 71.2032 292.676 150 292.676C228.797 292.676 292.676 228.797 292.676 150Z" stroke="white" stroke-width="14.6485"/>
<path d="M143.555 0H156.152V28.7109H143.555V0Z" fill="white"/>
<path d="M143.555 271.289H156.152V300H143.555V271.289Z" fill="white"/>
<path d="M299.852 143.703V156.297H271.141V143.703H299.852Z" fill="white"/>
<path d="M28.7109 143.848V156.152H0V143.848H28.7109Z" fill="white"/>
<path d="M260.375 251.613L251.465 260.52L231.164 240.219L240.07 231.309L260.375 251.613Z" fill="white"/>
<path d="M68.543 59.7812L59.6367 68.6914L39.332 48.3867L48.2422 39.4805L68.543 59.7812Z" fill="white"/>
<path d="M251.465 39.4805L260.375 48.3867L240.07 68.6914L231.164 59.7812L251.465 39.4805Z" fill="white"/>
<path d="M59.6367 231.309L68.543 240.219L48.2422 260.52L39.332 251.613L59.6367 231.309Z" fill="white"/>
<path d="M272.059 27.9922L264.715 55.3984L244.648 35.3359L272.059 27.9922Z" fill="white"/>
<path d="M27.6992 272.059L35.043 244.648L55.1055 264.715L27.6992 272.059Z" fill="white"/>
<path d="M27.6992 27.9922L35.043 55.3984L55.1094 35.3359L27.6992 27.9922Z" fill="white"/>
<path d="M272.059 272.059L264.715 244.648L244.648 264.715L272.059 272.059Z" fill="white"/>
<path d="M85.1289 108.98C88.8008 107.827 91.793 106.882 94.0977 106.148C96.4063 105.312 98.2969 104.628 99.7656 104.105C101.441 103.472 102.699 102.898 103.539 102.374L107.316 100.483C108.785 99.7491 110.676 98.8038 112.98 97.6514C115.289 96.3936 118.281 94.8194 121.953 92.9327C121.113 96.9171 120.484 100.694 120.062 104.261C119.75 107.722 119.484 110.816 119.277 113.546C118.961 116.691 118.805 119.577 118.805 122.198C118.699 124.401 118.543 127.339 118.332 131.011C118.227 134.683 118.07 138.671 117.859 142.972C117.648 147.273 117.441 151.679 117.23 156.187C117.02 160.698 116.863 164.948 116.758 168.933C116.758 172.816 116.813 176.171 116.914 179.003C117.125 181.839 117.492 183.776 118.016 184.827C118.543 186.085 119.223 187.292 120.062 188.444C120.797 189.495 121.637 190.702 122.582 192.066C123.629 193.323 124.887 194.585 126.355 195.843C123.945 196.366 121.687 196.839 119.59 197.257C117.492 197.573 115.656 197.835 114.082 198.046C112.195 198.358 110.516 198.62 109.047 198.831C107.473 198.937 105.324 199.198 102.598 199.62C100.289 199.933 97.3516 200.355 93.7852 200.878C90.2188 201.296 85.8125 201.769 80.5664 202.292C83.293 200.616 85.4453 198.987 87.0195 197.417C88.6953 195.843 89.957 194.48 90.793 193.323C91.7383 191.96 92.3164 190.648 92.5234 189.39C92.6289 188.55 92.7891 186.296 92.9961 182.624C93.3125 178.847 93.5742 174.441 93.7852 169.405C94.0977 164.265 94.3633 158.812 94.5703 153.042C94.8867 147.167 95.0937 141.71 95.1992 136.675C95.3047 131.64 95.3594 127.339 95.3594 123.773C95.3594 120.206 95.1992 118.054 94.8867 117.319C94.4648 116.585 93.8359 115.749 92.9961 114.804C92.2617 113.964 91.2656 113.073 90.0078 112.128C88.8555 111.183 87.2266 110.136 85.1289 108.98ZM179.859 91.3585C184.684 91.253 189.562 92.3546 194.492 94.6632C199.422 96.9678 203.883 100.483 207.867 105.206C211.855 109.819 215.105 115.644 217.625 122.671C220.141 129.698 221.453 137.937 221.559 147.378C221.664 153.671 221.191 159.386 220.141 164.526C219.094 169.667 217.676 174.284 215.895 178.374C214.109 182.362 212.063 185.929 209.758 189.077C207.555 192.116 205.297 194.741 202.988 196.944C200.68 199.042 198.48 200.722 196.379 201.98C194.281 203.237 192.5 204.077 191.031 204.495C189.141 205.124 186.887 205.702 184.266 206.226C181.641 206.648 178.914 206.909 176.082 207.015C173.25 207.226 170.418 207.066 167.586 206.542C164.855 206.124 162.445 205.284 160.348 204.023C158.246 202.765 155.781 200.983 152.949 198.675C150.223 196.261 147.602 193.011 145.082 188.917C142.566 184.722 140.414 179.476 138.629 173.183C136.848 166.89 135.957 159.179 135.957 150.05C135.957 140.925 137.004 132.741 139.102 125.503C141.305 118.265 144.297 112.128 148.07 107.093C151.953 102.058 156.57 98.2296 161.918 95.6046C167.375 92.878 173.355 91.4639 179.859 91.3585ZM157.672 149.894C157.566 156.085 157.934 161.487 158.773 166.101C159.613 170.718 160.609 174.601 161.762 177.745C162.918 180.894 164.07 183.409 165.223 185.3C166.484 187.081 167.426 188.343 168.055 189.077C168.687 190.019 169.84 190.648 171.52 190.964C173.195 191.28 174.98 191.437 176.867 191.437C178.758 191.331 180.594 191.069 182.375 190.648C184.16 190.124 185.523 189.444 186.469 188.605C186.992 188.077 187.727 186.769 188.672 184.671C189.719 182.573 190.715 179.843 191.66 176.487C192.711 173.132 193.652 169.249 194.492 164.843C195.332 160.331 195.91 155.507 196.223 150.366C196.539 144.597 196.539 139.3 196.223 134.472C195.91 129.542 195.437 125.241 194.809 121.569C194.176 117.898 193.441 114.855 192.605 112.444C191.766 110.03 190.875 108.405 189.93 107.566C188.566 106.308 186.887 105.413 184.895 104.89C183.004 104.366 181.066 104.155 179.07 104.261C177.184 104.366 175.348 104.733 173.562 105.362C171.887 105.991 170.574 106.831 169.629 107.878C167.742 109.98 166.062 112.179 164.594 114.487C163.125 116.796 161.918 119.577 160.977 122.827C160.031 126.081 159.246 129.909 158.613 134.316C158.09 138.616 157.777 143.808 157.672 149.894Z" fill="#00DFEF"/>
<path d="M85.1289 108.98C88.8008 107.827 91.793 106.882 94.0977 106.148C96.4063 105.312 98.2969 104.628 99.7656 104.105C101.441 103.472 102.699 102.898 103.539 102.374L107.316 100.483C108.785 99.7491 110.676 98.8038 112.98 97.6514C115.289 96.3936 118.281 94.8194 121.953 92.9327C121.113 96.9171 120.484 100.694 120.062 104.261C119.75 107.722 119.484 110.816 119.277 113.546C118.961 116.691 118.805 119.577 118.805 122.198C118.699 124.401 118.543 127.339 118.332 131.011C118.227 134.683 118.07 138.671 117.859 142.972C117.648 147.273 117.441 151.679 117.23 156.187C117.02 160.698 116.863 164.948 116.758 168.933C116.758 172.816 116.813 176.171 116.914 179.003C117.125 181.839 117.492 183.776 118.016 184.827C118.543 186.085 119.223 187.292 120.062 188.444C120.797 189.495 121.637 190.702 122.582 192.066C123.629 193.323 124.887 194.585 126.355 195.843C123.945 196.366 121.687 196.839 119.59 197.257C117.492 197.573 115.656 197.835 114.082 198.046C112.195 198.358 110.516 198.62 109.047 198.831C107.473 198.937 105.324 199.198 102.598 199.62C100.289 199.933 97.3516 200.355 93.7852 200.878C90.2188 201.296 85.8125 201.769 80.5664 202.292C83.293 200.616 85.4453 198.987 87.0195 197.417C88.6953 195.843 89.957 194.48 90.793 193.323C91.7383 191.96 92.3164 190.648 92.5234 189.39C92.6289 188.55 92.7891 186.296 92.9961 182.624C93.3125 178.847 93.5742 174.441 93.7852 169.405C94.0977 164.265 94.3633 158.812 94.5703 153.042C94.8867 147.167 95.0937 141.71 95.1992 136.675C95.3047 131.64 95.3594 127.339 95.3594 123.773C95.3594 120.206 95.1992 118.054 94.8867 117.319C94.4648 116.585 93.8359 115.749 92.9961 114.804C92.2617 113.964 91.2656 113.073 90.0078 112.128C88.8555 111.183 87.2266 110.136 85.1289 108.98ZM179.859 91.3585C184.684 91.253 189.562 92.3546 194.492 94.6632C199.422 96.9678 203.883 100.483 207.867 105.206C211.855 109.819 215.105 115.644 217.625 122.671C220.141 129.698 221.453 137.937 221.559 147.378C221.664 153.671 221.191 159.386 220.141 164.526C219.094 169.667 217.676 174.284 215.895 178.374C214.109 182.362 212.063 185.929 209.758 189.077C207.555 192.116 205.297 194.741 202.988 196.944C200.68 199.042 198.48 200.722 196.379 201.98C194.281 203.237 192.5 204.077 191.031 204.495C189.141 205.124 186.887 205.702 184.266 206.226C181.641 206.648 178.914 206.909 176.082 207.015C173.25 207.226 170.418 207.066 167.586 206.542C164.855 206.124 162.445 205.284 160.348 204.023C158.246 202.765 155.781 200.983 152.949 198.675C150.223 196.261 147.602 193.011 145.082 188.917C142.566 184.722 140.414 179.476 138.629 173.183C136.848 166.89 135.957 159.179 135.957 150.05C135.957 140.925 137.004 132.741 139.102 125.503C141.305 118.265 144.297 112.128 148.07 107.093C151.953 102.058 156.57 98.2296 161.918 95.6046C167.375 92.878 173.355 91.4639 179.859 91.3585ZM157.672 149.894C157.566 156.085 157.934 161.487 158.773 166.101C159.613 170.718 160.609 174.601 161.762 177.745C162.918 180.894 164.07 183.409 165.223 185.3C166.484 187.081 167.426 188.343 168.055 189.077C168.687 190.019 169.84 190.648 171.52 190.964C173.195 191.28 174.98 191.437 176.867 191.437C178.758 191.331 180.594 191.069 182.375 190.648C184.16 190.124 185.523 189.444 186.469 188.605C186.992 188.077 187.727 186.769 188.672 184.671C189.719 182.573 190.715 179.843 191.66 176.487C192.711 173.132 193.652 169.249 194.492 164.843C195.332 160.331 195.91 155.507 196.223 150.366C196.539 144.597 196.539 139.3 196.223 134.472C195.91 129.542 195.437 125.241 194.809 121.569C194.176 117.898 193.441 114.855 192.605 112.444C191.766 110.03 190.875 108.405 189.93 107.566C188.566 106.308 186.887 105.413 184.895 104.89C183.004 104.366 181.066 104.155 179.07 104.261C177.184 104.366 175.348 104.733 173.562 105.362C171.887 105.991 170.574 106.831 169.629 107.878C167.742 109.98 166.062 112.179 164.594 114.487C163.125 116.796 161.918 119.577 160.977 122.827C160.031 126.081 159.246 129.909 158.613 134.316C158.09 138.616 157.777 143.808 157.672 149.894Z" fill="white"/>
<path d="M211.098 211.098L218.441 238.504L238.508 218.441L211.098 211.098Z" fill="white"/>
<path d="M88.6602 88.9531L81.3164 61.543L61.25 81.6094L88.6602 88.9531Z" fill="white"/>
<path d="M88.6602 211.098L81.3164 238.504L61.25 218.441L88.6602 211.098Z" fill="white"/>
<path d="M211.098 88.9531L218.441 61.543L238.508 81.6094L211.098 88.9531Z" fill="white"/>
</g>
<defs>
<clipPath id="clip0_912_599">
<rect width="300" height="300" fill="white"/>
</clipPath>
</defs>
</svg>
