<svg width="300" height="300" viewBox="0 0 300 300" fill="none" xmlns="http://www.w3.org/2000/svg">
<g clip-path="url(#clip0_912_530)">
<path d="M300 0H0V300H300V0Z" fill="#FF7951"/>
<path d="M267.188 150C267.188 85.2774 214.723 32.8125 150 32.8125C85.2774 32.8125 32.8125 85.2774 32.8125 150C32.8125 214.723 85.2774 267.188 150 267.188C214.723 267.188 267.188 214.723 267.188 150Z" stroke="white" stroke-width="14.6485"/>
<path d="M292.676 150C292.676 71.2032 228.797 7.32422 150 7.32422C71.2032 7.32422 7.32422 71.2032 7.32422 150C7.32422 228.797 71.2032 292.676 150 292.676C228.797 292.676 292.676 228.797 292.676 150Z" stroke="white" stroke-width="14.6485"/>
<path d="M143.555 0H156.152V28.7109H143.555V0Z" fill="white"/>
<path d="M143.555 271.289H156.152V300H143.555V271.289Z" fill="white"/>
<path d="M300 143.848V156.152H270.996V143.848H300Z" fill="white"/>
<path d="M28.418 143.848V156.152H0V143.848H28.418Z" fill="white"/>
<path d="M260.375 251.613L251.465 260.52L231.164 240.219L240.07 231.309L260.375 251.613Z" fill="white"/>
<path d="M68.543 59.7812L59.6367 68.6914L39.332 48.3867L48.2422 39.4805L68.543 59.7812Z" fill="white"/>
<path d="M251.465 39.4805L260.375 48.3867L240.07 68.6914L231.164 59.7812L251.465 39.4805Z" fill="white"/>
<path d="M59.6367 231.309L68.543 240.219L48.2422 260.52L39.332 251.613L59.6367 231.309Z" fill="white"/>
<path d="M272.059 27.9922L264.715 55.3984L244.648 35.3359L272.059 27.9922Z" fill="white"/>
<path d="M27.6992 272.059L35.043 244.648L55.1055 264.715L27.6992 272.059Z" fill="white"/>
<path d="M211.098 211.098L218.441 238.504L238.504 218.441L211.098 211.098Z" fill="white"/>
<path d="M88.6602 88.9531L81.3164 61.543L61.25 81.6094L88.6602 88.9531Z" fill="white"/>
<path d="M27.6992 27.9922L35.043 55.3984L55.1055 35.3359L27.6992 27.9922Z" fill="white"/>
<path d="M272.059 272.059L264.715 244.648L244.648 264.715L272.059 272.059Z" fill="white"/>
<path d="M153.273 95.6062C156.84 95.9226 160.511 96.8679 164.285 98.4383C168.062 100.012 171.578 102.321 174.828 105.364C178.082 108.302 180.863 112.024 183.168 116.536C185.582 121.048 187.101 126.345 187.734 132.43C188.781 142.919 188.101 151.993 185.687 159.653C183.379 167.309 179.968 174.024 175.461 179.794C171.054 185.563 165.859 190.704 159.883 195.216C154.008 199.622 147.922 203.817 141.629 207.802C138.48 204.759 136.015 202.294 134.23 200.407L131.398 197.575C130.664 196.63 129.722 195.583 128.566 194.427C127.621 193.38 126.468 192.118 125.105 190.649C123.742 189.18 122.218 187.505 120.543 185.614C123.793 187.399 126.73 188.552 129.355 189.079C132.082 189.602 134.39 189.813 136.277 189.708C138.48 189.602 140.472 189.235 142.258 188.606C146.976 186.298 151.226 183.411 155.004 179.95C158.254 176.907 161.191 173.134 163.816 168.622C166.543 164.005 168.011 158.552 168.218 152.255C164.863 157.083 161.191 160.544 157.207 162.641C153.324 164.739 149.703 166.157 146.347 166.891C142.363 167.727 138.375 167.887 134.39 167.36C132.394 167.048 130.246 165.997 127.937 164.216C125.629 162.43 123.425 160.177 121.328 157.45C119.23 154.618 117.343 151.47 115.664 148.009C114.09 144.544 112.988 140.927 112.359 137.149C111.73 133.266 111.675 129.387 112.203 125.505C112.832 121.52 114.351 117.688 116.765 114.016C120.332 108.669 123.687 104.63 126.836 101.903C129.984 99.1726 133.023 97.3367 135.961 96.3953C138.898 95.3445 141.785 94.8719 144.617 94.9773C147.449 95.0828 150.336 95.2937 153.273 95.6062ZM136.593 127.395C135.754 130.329 135.332 133.266 135.332 136.204C135.332 139.141 135.699 141.817 136.433 144.231C137.273 146.641 138.429 148.743 139.898 150.524C141.367 152.204 143.199 153.251 145.402 153.673C147.605 154.196 149.758 153.884 151.855 152.727C154.058 151.47 156.05 149.739 157.836 147.536C159.722 145.333 161.297 142.762 162.554 139.825C163.918 136.782 164.812 133.688 165.23 130.54C165.547 128.337 165.547 125.977 165.23 123.458C165.019 120.837 164.496 118.423 163.656 116.22C162.922 113.915 161.925 111.973 160.668 110.399C159.511 108.825 158.148 107.88 156.578 107.567C154.476 107.251 152.379 107.567 150.281 108.512C148.289 109.348 146.402 110.712 144.617 112.602C142.836 114.384 141.207 116.587 139.738 119.212C138.375 121.727 137.328 124.458 136.593 127.395Z" fill="#00DFEF"/>
<path d="M153.273 95.6062C156.84 95.9226 160.511 96.8679 164.285 98.4383C168.062 100.012 171.578 102.321 174.828 105.364C178.082 108.302 180.863 112.024 183.168 116.536C185.582 121.048 187.101 126.345 187.734 132.43C188.781 142.919 188.101 151.993 185.687 159.653C183.379 167.309 179.968 174.024 175.461 179.794C171.054 185.563 165.859 190.704 159.883 195.216C154.008 199.622 147.922 203.817 141.629 207.802C138.48 204.759 136.015 202.294 134.23 200.407L131.398 197.575C130.664 196.63 129.722 195.583 128.566 194.427C127.621 193.38 126.468 192.118 125.105 190.649C123.742 189.18 122.218 187.505 120.543 185.614C123.793 187.399 126.73 188.552 129.355 189.079C132.082 189.602 134.39 189.813 136.277 189.708C138.48 189.602 140.472 189.235 142.258 188.606C146.976 186.298 151.226 183.411 155.004 179.95C158.254 176.907 161.191 173.134 163.816 168.622C166.543 164.005 168.011 158.552 168.218 152.255C164.863 157.083 161.191 160.544 157.207 162.641C153.324 164.739 149.703 166.157 146.347 166.891C142.363 167.727 138.375 167.887 134.39 167.36C132.394 167.048 130.246 165.997 127.937 164.216C125.629 162.43 123.425 160.177 121.328 157.45C119.23 154.618 117.343 151.47 115.664 148.009C114.09 144.544 112.988 140.927 112.359 137.149C111.73 133.266 111.675 129.387 112.203 125.505C112.832 121.52 114.351 117.688 116.765 114.016C120.332 108.669 123.687 104.63 126.836 101.903C129.984 99.1726 133.023 97.3367 135.961 96.3953C138.898 95.3445 141.785 94.8719 144.617 94.9773C147.449 95.0828 150.336 95.2937 153.273 95.6062ZM136.593 127.395C135.754 130.329 135.332 133.266 135.332 136.204C135.332 139.141 135.699 141.817 136.433 144.231C137.273 146.641 138.429 148.743 139.898 150.524C141.367 152.204 143.199 153.251 145.402 153.673C147.605 154.196 149.758 153.884 151.855 152.727C154.058 151.47 156.05 149.739 157.836 147.536C159.722 145.333 161.297 142.762 162.554 139.825C163.918 136.782 164.812 133.688 165.23 130.54C165.547 128.337 165.547 125.977 165.23 123.458C165.019 120.837 164.496 118.423 163.656 116.22C162.922 113.915 161.925 111.973 160.668 110.399C159.511 108.825 158.148 107.88 156.578 107.567C154.476 107.251 152.379 107.567 150.281 108.512C148.289 109.348 146.402 110.712 144.617 112.602C142.836 114.384 141.207 116.587 139.738 119.212C138.375 121.727 137.328 124.458 136.593 127.395Z" fill="white"/>
</g>
<defs>
<clipPath id="clip0_912_530">
<rect width="300" height="300" fill="white"/>
</clipPath>
</defs>
</svg>
