<svg width="300" height="299" viewBox="0 0 300 299" fill="none" xmlns="http://www.w3.org/2000/svg">
<path d="M299.855 0H0.148438V299H299.855V0Z" fill="#67F077"/>
<path d="M290.666 149C290.666 71.6794 227.836 9 150.331 9C72.8295 9 10 71.6794 10 149C10 226.321 72.8295 289 150.331 289C227.836 289 290.666 226.321 290.666 149Z" stroke="white" stroke-width="14"/>
<path d="M144 3H156V29H144V3Z" fill="white"/>
<path d="M144 270H156V296H144V270Z" fill="white"/>
<path d="M298 143V156H271V143H298Z" fill="white"/>
<path d="M29 143V156H3V143H29Z" fill="white"/>
<path d="M260.27 250.773L251.367 259.652L231.086 239.418L239.984 230.539L260.27 250.773Z" fill="white"/>
<path d="M68.625 59.582L59.7266 68.4609L39.4453 48.2266L48.3438 39.3477L68.625 59.582Z" fill="white"/>
<path d="M251.367 39.3477L260.27 48.2266L239.984 68.4609L231.086 59.582L251.367 39.3477Z" fill="white"/>
<path d="M59.7266 230.539L68.625 239.418L48.3438 259.652L39.4414 250.773L59.7266 230.539Z" fill="white"/>
<path d="M271.383 29L264.043 56.3164L244 36.3203L271.383 29Z" fill="white"/>
<path d="M31 268.32L38.3359 241L58.3828 261L31 268.32Z" fill="white"/>
<path d="M29 29L36.3359 56.3164L56.3828 36.3203L29 29Z" fill="white"/>
<path d="M271.383 268.32L264.047 241L244 261L271.383 268.32Z" fill="white"/>
<path d="M88.4141 108.617C92.082 107.469 95.0703 106.527 97.375 105.797C99.6797 104.961 101.566 104.281 103.035 103.758C104.711 103.129 105.969 102.555 106.809 102.031L110.578 100.148C112.047 99.418 113.934 98.4766 116.238 97.3281C118.543 96.0703 121.531 94.5039 125.199 92.6211C124.359 96.5937 123.734 100.359 123.312 103.914C123 107.363 122.738 110.449 122.527 113.168C122.215 116.305 122.055 119.18 122.055 121.793C121.949 123.988 121.793 126.914 121.586 130.574C121.48 134.234 121.32 138.207 121.113 142.496C120.902 146.781 120.695 151.172 120.484 155.668C120.273 160.164 120.117 164.398 120.012 168.371C120.012 172.242 120.062 175.586 120.168 178.41C120.379 181.23 120.746 183.168 121.27 184.211C121.793 185.465 122.477 186.668 123.312 187.82C124.047 188.863 124.887 190.066 125.828 191.426C126.875 192.68 128.133 193.934 129.602 195.191C127.191 195.711 124.938 196.184 122.84 196.602C120.746 196.914 118.91 197.176 117.34 197.387C115.453 197.699 113.777 197.961 112.309 198.168C110.738 198.273 108.59 198.535 105.863 198.953C103.559 199.266 100.625 199.688 97.0586 200.207C93.4961 200.625 89.0937 201.098 83.8555 201.621C86.582 199.945 88.7305 198.328 90.3008 196.758C91.9766 195.191 93.2344 193.832 94.0742 192.68C95.0156 191.32 95.5937 190.016 95.8047 188.762C95.9062 187.922 96.0664 185.676 96.2734 182.016C96.5898 178.254 96.8516 173.859 97.0586 168.844C97.375 163.719 97.6367 158.281 97.8477 152.531C98.1602 146.676 98.3711 141.238 98.4766 136.223C98.5781 131.203 98.6328 126.914 98.6328 123.359C98.6328 119.805 98.4766 117.664 98.1602 116.93C97.7422 116.199 97.1133 115.363 96.2734 114.422C95.5391 113.586 94.5469 112.695 93.2891 111.754C92.1367 110.816 90.5117 109.77 88.4141 108.617ZM179.121 95.2891C182.684 95.6016 186.352 96.543 190.125 98.1094C193.898 99.6797 197.41 101.98 200.656 105.012C203.906 107.938 206.684 111.652 208.988 116.148C211.398 120.645 212.918 125.922 213.547 131.988C214.598 142.441 213.914 151.484 211.504 159.117C209.199 166.75 205.793 173.441 201.285 179.191C196.883 184.945 191.695 190.066 185.723 194.562C179.855 198.953 173.777 203.137 167.488 207.109C164.344 204.078 161.879 201.621 160.098 199.738L157.27 196.914C156.535 195.973 155.594 194.93 154.441 193.777C153.496 192.734 152.344 191.477 150.98 190.016C149.617 188.551 148.098 186.879 146.422 184.996C149.672 186.773 152.605 187.922 155.227 188.445C157.949 188.969 160.258 189.18 162.141 189.074C164.344 188.969 166.336 188.602 168.117 187.977C172.832 185.676 177.078 182.801 180.848 179.352C184.098 176.316 187.031 172.555 189.652 168.059C192.379 163.457 193.844 158.02 194.055 151.746C190.699 156.559 187.031 160.008 183.051 162.098C179.172 164.191 175.559 165.602 172.203 166.332C168.223 167.168 164.238 167.324 160.258 166.805C158.266 166.488 156.117 165.445 153.812 163.668C151.504 161.891 149.305 159.641 147.207 156.922C145.113 154.102 143.227 150.965 141.551 147.512C139.977 144.062 138.875 140.457 138.246 136.691C137.617 132.824 137.566 128.953 138.09 125.086C138.719 121.113 140.238 117.297 142.648 113.637C146.211 108.305 149.566 104.281 152.711 101.562C155.855 98.8438 158.895 97.0117 161.828 96.0703C164.762 95.0273 167.645 94.5547 170.473 94.6602C173.305 94.7656 176.188 94.9727 179.121 95.2891ZM162.457 126.969C161.617 129.895 161.199 132.824 161.199 135.75C161.199 138.68 161.566 141.344 162.301 143.75C163.137 146.152 164.289 148.246 165.758 150.023C167.227 151.695 169.059 152.742 171.262 153.16C173.461 153.684 175.609 153.367 177.707 152.219C179.906 150.965 181.898 149.238 183.68 147.043C185.566 144.848 187.137 142.285 188.395 139.359C189.758 136.324 190.648 133.242 191.066 130.105C191.383 127.91 191.383 125.555 191.066 123.047C190.859 120.434 190.336 118.027 189.496 115.832C188.762 113.531 187.766 111.598 186.508 110.031C185.355 108.461 183.992 107.52 182.422 107.207C180.324 106.895 178.23 107.207 176.133 108.148C174.141 108.984 172.258 110.344 170.473 112.227C168.691 114.004 167.066 116.199 165.602 118.812C164.238 121.32 163.191 124.039 162.457 126.969Z" fill="#00DFEF"/>
<path d="M88.4141 108.617C92.082 107.469 95.0703 106.527 97.375 105.797C99.6797 104.961 101.566 104.281 103.035 103.758C104.711 103.129 105.969 102.555 106.809 102.031L110.578 100.148C112.047 99.418 113.934 98.4766 116.238 97.3281C118.543 96.0703 121.531 94.5039 125.199 92.6211C124.359 96.5937 123.734 100.359 123.312 103.914C123 107.363 122.738 110.449 122.527 113.168C122.215 116.305 122.055 119.18 122.055 121.793C121.949 123.988 121.793 126.914 121.586 130.574C121.48 134.234 121.32 138.207 121.113 142.496C120.902 146.781 120.695 151.172 120.484 155.668C120.273 160.164 120.117 164.398 120.012 168.371C120.012 172.242 120.062 175.586 120.168 178.41C120.379 181.23 120.746 183.168 121.27 184.211C121.793 185.465 122.477 186.668 123.312 187.82C124.047 188.863 124.887 190.066 125.828 191.426C126.875 192.68 128.133 193.934 129.602 195.191C127.191 195.711 124.938 196.184 122.84 196.602C120.746 196.914 118.91 197.176 117.34 197.387C115.453 197.699 113.777 197.961 112.309 198.168C110.738 198.273 108.59 198.535 105.863 198.953C103.559 199.266 100.625 199.688 97.0586 200.207C93.4961 200.625 89.0937 201.098 83.8555 201.621C86.582 199.945 88.7305 198.328 90.3008 196.758C91.9766 195.191 93.2344 193.832 94.0742 192.68C95.0156 191.32 95.5937 190.016 95.8047 188.762C95.9062 187.922 96.0664 185.676 96.2734 182.016C96.5898 178.254 96.8516 173.859 97.0586 168.844C97.375 163.719 97.6367 158.281 97.8477 152.531C98.1602 146.676 98.3711 141.238 98.4766 136.223C98.5781 131.203 98.6328 126.914 98.6328 123.359C98.6328 119.805 98.4766 117.664 98.1602 116.93C97.7422 116.199 97.1133 115.363 96.2734 114.422C95.5391 113.586 94.5469 112.695 93.2891 111.754C92.1367 110.816 90.5117 109.77 88.4141 108.617ZM179.121 95.2891C182.684 95.6016 186.352 96.543 190.125 98.1094C193.898 99.6797 197.41 101.98 200.656 105.012C203.906 107.938 206.684 111.652 208.988 116.148C211.398 120.645 212.918 125.922 213.547 131.988C214.598 142.441 213.914 151.484 211.504 159.117C209.199 166.75 205.793 173.441 201.285 179.191C196.883 184.945 191.695 190.066 185.723 194.562C179.855 198.953 173.777 203.137 167.488 207.109C164.344 204.078 161.879 201.621 160.098 199.738L157.27 196.914C156.535 195.973 155.594 194.93 154.441 193.777C153.496 192.734 152.344 191.477 150.98 190.016C149.617 188.551 148.098 186.879 146.422 184.996C149.672 186.773 152.605 187.922 155.227 188.445C157.949 188.969 160.258 189.18 162.141 189.074C164.344 188.969 166.336 188.602 168.117 187.977C172.832 185.676 177.078 182.801 180.848 179.352C184.098 176.316 187.031 172.555 189.652 168.059C192.379 163.457 193.844 158.02 194.055 151.746C190.699 156.559 187.031 160.008 183.051 162.098C179.172 164.191 175.559 165.602 172.203 166.332C168.223 167.168 164.238 167.324 160.258 166.805C158.266 166.488 156.117 165.445 153.812 163.668C151.504 161.891 149.305 159.641 147.207 156.922C145.113 154.102 143.227 150.965 141.551 147.512C139.977 144.062 138.875 140.457 138.246 136.691C137.617 132.824 137.566 128.953 138.09 125.086C138.719 121.113 140.238 117.297 142.648 113.637C146.211 108.305 149.566 104.281 152.711 101.562C155.855 98.8438 158.895 97.0117 161.828 96.0703C164.762 95.0273 167.645 94.5547 170.473 94.6602C173.305 94.7656 176.188 94.9727 179.121 95.2891ZM162.457 126.969C161.617 129.895 161.199 132.824 161.199 135.75C161.199 138.68 161.566 141.344 162.301 143.75C163.137 146.152 164.289 148.246 165.758 150.023C167.227 151.695 169.059 152.742 171.262 153.16C173.461 153.684 175.609 153.367 177.707 152.219C179.906 150.965 181.898 149.238 183.68 147.043C185.566 144.848 187.137 142.285 188.395 139.359C189.758 136.324 190.648 133.242 191.066 130.105C191.383 127.91 191.383 125.555 191.066 123.047C190.859 120.434 190.336 118.027 189.496 115.832C188.762 113.531 187.766 111.598 186.508 110.031C185.355 108.461 183.992 107.52 182.422 107.207C180.324 106.895 178.23 107.207 176.133 108.148C174.141 108.984 172.258 110.344 170.473 112.227C168.691 114.004 167.066 116.199 165.602 118.812C164.238 121.32 163.191 124.039 162.457 126.969Z" fill="white"/>
</svg>
