<svg width="300" height="299" viewBox="0 0 300 299" fill="none" xmlns="http://www.w3.org/2000/svg">
<path d="M299.855 0H0.148438V299H299.855V0Z" fill="#B384ED"/>
<path d="M267.074 149.5C267.074 84.9961 214.66 32.7031 150 32.7031C85.3438 32.7031 32.9297 84.9961 32.9297 149.5C32.9297 214.004 85.3438 266.297 150 266.297C214.66 266.297 267.074 214.004 267.074 149.5Z" stroke="white" stroke-width="14.6169"/>
<path d="M290.666 149C290.666 71.6794 227.836 9 150.331 9C72.8295 9 10 71.6794 10 149C10 226.321 72.8295 289 150.331 289C227.836 289 290.666 226.321 290.666 149Z" stroke="white" stroke-width="14"/>
<path d="M144 2H156V29H144V2Z" fill="white"/>
<path d="M144 270H156V296H144V270Z" fill="white"/>
<path d="M297 143V156H271V143H297Z" fill="white"/>
<path d="M29 143V156H3V143H29Z" fill="white"/>
<path d="M258 249.071L249.764 257L231 238.929L239.233 231L258 249.071Z" fill="white"/>
<path d="M69 60.0706L60.4613 68L41 49.9294L49.5387 42L69 60.0706Z" fill="white"/>
<path d="M251.367 39.3477L260.27 48.2266L239.984 68.4609L231.086 59.582L251.367 39.3477Z" fill="white"/>
<path d="M59.7266 230.539L68.625 239.418L48.3438 259.652L39.4414 250.773L59.7266 230.539Z" fill="white"/>
<path d="M271.383 29L264.047 56.3164L244 36.3203L271.383 29Z" fill="white"/>
<path d="M31 268.32L38.3359 241L58.3828 261L31 268.32Z" fill="white"/>
<path d="M88.7227 210.395L81.3867 237.711L61.3398 217.711L88.7227 210.395Z" fill="white"/>
<path d="M211.039 88.6562L218.375 61.3398L238.422 81.3359L211.039 88.6562Z" fill="white"/>
<path d="M85.4883 108.617C89.1562 107.469 92.1406 106.527 94.4492 105.797C96.7539 104.961 98.6406 104.281 100.105 103.758C101.785 103.129 103.043 102.555 103.879 102.031L107.652 100.148C109.121 99.418 111.008 98.4766 113.312 97.3281C115.617 96.0703 118.605 94.5039 122.273 92.6211C121.434 96.5937 120.805 100.359 120.387 103.914C120.07 107.363 119.809 110.449 119.602 113.168C119.285 116.305 119.129 119.18 119.129 121.793C119.023 123.988 118.867 126.914 118.656 130.574C118.551 134.234 118.395 138.207 118.188 142.496C117.977 146.781 117.766 151.172 117.559 155.668C117.348 160.164 117.191 164.398 117.086 168.371C117.086 172.242 117.137 175.586 117.242 178.41C117.453 181.23 117.82 183.168 118.344 184.211C118.867 185.465 119.547 186.668 120.387 187.82C121.121 188.863 121.957 190.066 122.902 191.426C123.949 192.68 125.207 193.934 126.676 195.191C124.266 195.711 122.012 196.184 119.914 196.602C117.82 196.914 115.984 197.176 114.414 197.387C112.527 197.699 110.852 197.961 109.383 198.168C107.809 198.273 105.66 198.535 102.938 198.953C100.633 199.266 97.6953 199.688 94.1328 200.207C90.5703 200.625 86.168 201.098 80.9297 201.621C83.6523 199.945 85.8008 198.328 87.375 196.758C89.0508 195.191 90.3086 193.832 91.1484 192.68C92.0898 191.32 92.668 190.016 92.875 188.762C92.9805 187.922 93.1367 185.676 93.3477 182.016C93.6602 178.254 93.9258 173.859 94.1328 168.844C94.4492 163.719 94.7109 158.281 94.918 152.531C95.2344 146.676 95.4453 141.238 95.5469 136.223C95.6523 131.203 95.707 126.914 95.707 123.359C95.707 119.805 95.5469 117.664 95.2344 116.93C94.8164 116.199 94.1875 115.363 93.3477 114.422C92.6133 113.586 91.6172 112.695 90.3594 111.754C89.207 110.816 87.582 109.77 85.4883 108.617ZM137.992 96.6992C148.684 96.8047 157.223 96.8555 163.617 96.8555C170.113 96.8555 175.145 96.8047 178.707 96.6992C182.902 96.5937 185.836 96.4922 187.512 96.3867L194.43 95.7578C197.051 95.5508 200.559 95.2344 204.961 94.8164C209.469 94.3984 215.18 93.7734 222.098 92.9375C213.609 108.723 206.797 122.422 201.66 134.027C196.523 145.633 192.543 155.355 189.715 163.195C186.359 172.293 184.055 180.082 182.797 186.562C182.586 188.238 182.641 189.961 182.953 191.738C183.164 193.203 183.633 194.824 184.367 196.602C185.102 198.379 186.309 200 187.984 201.465C184.422 201.566 181.277 201.621 178.551 201.621C175.93 201.516 173.73 201.41 171.949 201.305C169.852 201.203 167.965 201.148 166.289 201.148C164.719 201.047 162.621 201.098 160 201.305C157.801 201.516 154.867 201.828 151.199 202.246C147.637 202.664 143.285 203.293 138.152 204.129C141.504 202.246 144.281 200.523 146.48 198.953C148.684 197.281 150.465 195.871 151.828 194.719C153.398 193.359 154.656 192.105 155.602 190.957C157.383 188.445 159.008 185.52 160.473 182.172C162.047 178.828 163.512 175.219 164.875 171.352C166.344 167.484 167.863 163.457 169.434 159.277C171.008 154.988 172.789 150.703 174.777 146.414C176.246 142.965 177.922 139.199 179.809 135.125C181.383 131.672 183.164 127.699 185.152 123.203C187.25 118.707 189.449 113.898 191.758 108.777C190.5 107.207 188.352 106.266 185.312 105.953C182.375 105.641 179.391 105.641 176.352 105.953C172.789 106.371 168.91 107.051 164.719 107.992C163.039 108.617 161.102 109.875 158.902 111.754C157.016 113.43 154.711 115.887 151.984 119.125C149.258 122.262 146.219 126.551 142.867 131.988C142.551 125.297 142.238 120.383 141.922 117.246L141.453 112.539C141.242 111.391 140.98 110.031 140.664 108.461C140.457 107.102 140.09 105.43 139.566 103.445C139.145 101.457 138.621 99.2109 137.992 96.6992Z" fill="white"/>
</svg>
