<svg width="300" height="300" viewBox="0 0 300 300" fill="none" xmlns="http://www.w3.org/2000/svg">
<g clip-path="url(#clip0_912_585)">
<path d="M300 0H0V300H300V0Z" fill="#FF7951"/>
<path d="M265 150C265 86.4855 213.514 35 150 35C86.4855 35 35 86.4855 35 150C35 213.514 86.4855 265 150 265C213.514 265 265 213.514 265 150Z" stroke="white" stroke-width="14.6485"/>
<path d="M290 150C290 72.6809 227.319 10 150 10C72.6809 10 10 72.6809 10 150C10 227.319 72.6809 290 150 290C227.319 290 290 227.319 290 150Z" stroke="white" stroke-width="14.6485"/>
<path d="M144 3H156V31H144V3Z" fill="white"/>
<path d="M144 269H156V297H144V269Z" fill="white"/>
<path d="M297 144V156H269V144H297Z" fill="white"/>
<path d="M31 144V156H3V144H31Z" fill="white"/>
<path d="M258 249.463L249.459 258L230 238.541L238.537 230L258 249.463Z" fill="white"/>
<path d="M70 61.4592L61.463 70L42 50.537L50.5408 42L70 61.4592Z" fill="white"/>
<path d="M249.459 42L258 50.537L238.537 70L230 61.4592L249.459 42Z" fill="white"/>
<path d="M61.463 230L70 238.541L50.5408 258L42 249.463L61.463 230Z" fill="white"/>
<path d="M172.419 91L175.326 129.751C174.513 126.163 173.236 123.498 171.499 121.754C169.868 120.013 168.181 118.833 166.448 118.219C164.407 117.501 162.161 117.295 159.709 117.604C153.996 119.039 148.941 121.807 144.552 125.907C142.716 127.648 140.88 129.751 139.04 132.21C137.205 134.672 135.57 137.646 134.141 141.131C132.815 144.514 131.743 148.411 130.926 152.817C130.109 157.226 129.702 162.25 129.702 167.888C131.336 163.479 133.172 159.791 135.213 156.817C137.254 153.74 139.398 151.282 141.644 149.434C143.993 147.487 146.338 146.002 148.687 144.975C151.036 143.949 153.331 143.284 155.578 142.975C160.781 142.154 166.14 142.773 171.655 144.823C176.041 146.77 179.564 149.69 182.217 153.588C184.87 157.382 186.607 161.685 187.424 166.506C188.241 171.221 188.188 176.141 187.268 181.268C186.455 186.292 184.767 190.957 182.217 195.263C179.769 199.569 176.451 203.207 172.267 206.181C168.082 209.254 163.13 211.102 157.413 211.717C148.839 212.64 141.184 211.304 134.449 207.72C127.813 204.231 122.557 199.157 118.68 192.496C114.799 185.83 112.606 177.936 112.093 168.812C111.584 159.585 113.165 149.793 116.84 139.44C118.475 134.825 120.31 130.366 122.351 126.06C124.392 121.651 127.353 117.448 131.234 113.451C135.11 109.454 140.268 105.606 146.695 101.918C153.229 98.1234 161.803 94.4854 172.419 91ZM139.652 180.039C139.96 183.215 140.625 186.136 141.644 188.804C142.666 191.469 143.837 193.774 145.167 195.721C146.596 197.672 148.075 199.211 149.607 200.337C151.237 201.36 152.769 201.822 154.198 201.719C157.159 201.516 159.66 199.569 161.701 195.878C163.844 192.083 165.121 187.059 165.528 180.806C165.733 177.73 165.323 174.656 164.304 171.58C163.384 168.4 162.21 165.582 160.781 163.12C159.352 160.662 157.771 158.715 156.037 157.279C154.403 155.741 152.925 155.023 151.594 155.126C149.553 155.432 147.718 156.306 146.083 157.737C144.552 159.173 143.225 161.02 142.104 163.277C141.081 165.533 140.318 168.144 139.808 171.118C139.398 173.988 139.348 176.962 139.652 180.039Z" fill="white"/>
</g>
<defs>
<clipPath id="clip0_912_585">
<rect width="300" height="300" fill="white"/>
</clipPath>
</defs>
</svg>
