<svg width="300" height="300" viewBox="0 0 300 300" fill="none" xmlns="http://www.w3.org/2000/svg">
<g clip-path="url(#clip0_912_585)">
<path d="M300 0H0V300H300V0Z" fill="#FF7951"/>
<path d="M267.188 150C267.188 85.2774 214.723 32.8125 150 32.8125C85.2774 32.8125 32.8125 85.2774 32.8125 150C32.8125 214.723 85.2774 267.188 150 267.188C214.723 267.188 267.188 214.723 267.188 150Z" stroke="white" stroke-width="14.6485"/>
<path d="M292.676 150C292.676 71.2032 228.797 7.32422 150 7.32422C71.2032 7.32422 7.32422 71.2032 7.32422 150C7.32422 228.797 71.2032 292.676 150 292.676C228.797 292.676 292.676 228.797 292.676 150Z" stroke="white" stroke-width="14.6485"/>
<path d="M143.555 0H156.152V28.7109H143.555V0Z" fill="white"/>
<path d="M143.555 271.289H156.152V300H143.555V271.289Z" fill="white"/>
<path d="M300 143.848V156.152H270.996V143.848H300Z" fill="white"/>
<path d="M28.418 143.555V156.152H0V143.555H28.418Z" fill="white"/>
<path d="M260.375 251.613L251.465 260.52L231.164 240.219L240.07 231.309L260.375 251.613Z" fill="white"/>
<path d="M68.543 59.7812L59.6367 68.6914L39.332 48.3867L48.2422 39.4805L68.543 59.7812Z" fill="white"/>
<path d="M251.465 39.4805L260.375 48.3867L240.07 68.6914L231.164 59.7812L251.465 39.4805Z" fill="white"/>
<path d="M59.6367 231.309L68.543 240.219L48.2422 260.52L39.332 251.613L59.6367 231.309Z" fill="white"/>
<path d="M173.199 89.6289L176.187 129.281C175.352 125.609 174.039 122.883 172.254 121.098C170.578 119.316 168.844 118.109 167.062 117.48C164.965 116.746 162.656 116.535 160.137 116.852C154.266 118.32 149.07 121.152 144.559 125.348C142.672 127.129 140.785 129.281 138.894 131.797C137.008 134.316 135.328 137.359 133.859 140.926C132.496 144.387 131.394 148.375 130.555 152.883C129.715 157.395 129.297 162.535 129.297 168.305C130.976 163.793 132.863 160.02 134.961 156.977C137.059 153.828 139.262 151.312 141.57 149.422C143.984 147.43 146.394 145.91 148.809 144.859C151.223 143.809 153.582 143.129 155.891 142.812C161.238 141.973 166.746 142.605 172.414 144.703C176.922 146.695 180.543 149.684 183.269 153.672C185.996 157.555 187.781 161.957 188.621 166.891C189.461 171.715 189.406 176.75 188.461 181.996C187.625 187.137 185.891 191.91 183.269 196.316C180.754 200.723 177.344 204.445 173.043 207.488C168.742 210.633 163.652 212.523 157.777 213.152C148.965 214.098 141.098 212.73 134.176 209.062C127.355 205.492 121.953 200.301 117.969 193.484C113.98 186.664 111.726 178.586 111.199 169.25C110.676 159.809 112.301 149.789 116.078 139.195C117.758 134.473 119.644 129.91 121.742 125.504C123.84 120.992 126.883 116.691 130.871 112.602C134.855 108.512 140.156 104.574 146.762 100.801C153.476 96.918 162.289 93.1953 173.199 89.6289ZM139.523 180.738C139.84 183.988 140.523 186.977 141.57 189.707C142.621 192.434 143.824 194.793 145.191 196.785C146.66 198.781 148.18 200.355 149.754 201.508C151.43 202.555 153.004 203.027 154.473 202.922C157.516 202.715 160.086 200.723 162.184 196.945C164.387 193.063 165.699 187.922 166.117 181.523C166.328 178.375 165.906 175.23 164.859 172.082C163.914 168.828 162.707 165.945 161.238 163.426C159.769 160.91 158.144 158.918 156.363 157.449C154.684 155.875 153.164 155.141 151.797 155.246C149.699 155.559 147.812 156.453 146.133 157.918C144.559 159.387 143.195 161.277 142.043 163.586C140.992 165.895 140.207 168.566 139.684 171.609C139.262 174.547 139.211 177.59 139.523 180.738Z" fill="white"/>
</g>
<defs>
<clipPath id="clip0_912_585">
<rect width="300" height="300" fill="white"/>
</clipPath>
</defs>
</svg>
