<svg width="100" height="100" viewBox="0 0 100 100" fill="none" xmlns="http://www.w3.org/2000/svg">
<path d="M100 0H0V100H100V0Z" fill="#FF7951"/>
<rect x="22.5" y="24.5" width="55" height="55" stroke="white" stroke-width="5"/>
<rect x="29" y="31" width="42" height="42" fill="white"/>
<path d="M58.5268 24.0539L58.7008 28.9523L61.15 28.8653C61.5196 30.3325 62.9098 33.6619 63.9575 35.0325L62.1154 36.869L65.6379 40.1498L67.7521 38.3036C69.8495 39.5769 71.0939 39.956 73.6948 40.6811L73.9179 43.1254L78.8163 42.9515L78.7293 40.5023C81.2438 39.7877 82.7587 39.1184 84.6244 37.7044L86.5921 39.4056L90.009 35.8783L88.0413 34.1771C89.5661 31.4906 90.4008 28.9989 90.5403 27.8214L93.1255 27.7295L92.8058 22.5638L90.3566 22.6508C89.1512 19.8108 88.1527 17.692 87.4275 16.8966L89.2647 14.9241L85.7423 11.6432L83.9002 13.4797C81.7817 12.1381 79.0087 11.292 77.8214 11.1071L77.7296 8.52188L72.6951 8.7007L72.787 11.286C71.0185 11.8378 68.2958 13.1655 67.0231 13.943L64.7832 12.2514L61.3615 15.6427L63.3438 17.7521C61.796 20.2048 61.1203 22.9173 60.976 23.9669L58.5268 24.0539Z" stroke="white" stroke-width="5"/>
<circle cx="75.8237" cy="25.8235" r="13.3984" transform="rotate(-2.03423 75.8237 25.8235)" stroke="white" stroke-width="5"/>
<circle cx="75.5" cy="25.5" r="11.5" fill="#FF7951"/>
<path d="M56 21.5L56.5 31.5H59.5L61 35L58.5 37L65.5 43.5L68 41.5L71.5 42.5V46L81.5 45.5" stroke="#FF7951" stroke-width="2"/>
<circle cx="50" cy="52" r="11" fill="#FF7951"/>
</svg>
