<svg width="100" height="100" viewBox="0 0 100 100" fill="none" xmlns="http://www.w3.org/2000/svg">
<g clip-path="url(#clip0_1072_184)">
<path d="M100 0H0V100H100V0Z" fill="#3853DB"/>
<path d="M21 28.888H17L26.5 15L36 28.888H32V71H21V28.888Z" stroke="white" stroke-width="2"/>
<path d="M21 81H32V84C32 84.5523 31.5523 85 31 85H22C21.4477 85 21 84.5523 21 84V81Z" stroke="white" stroke-width="2"/>
<path d="M21 74H32V78H21V74Z" stroke="white" stroke-width="2"/>
<path d="M45.625 60.375V54.75H56.875V32.25H51.25V26.625H56.875V21H68.125V54.75H79.375V60.375H45.625Z" fill="white"/>
<rect x="46.0879" y="67.7071" width="11.6009" height="11.8536" rx="1.5" transform="rotate(45 46.0879 67.7071)" stroke="white"/>
<rect x="79.0898" y="67.7071" width="11.6009" height="11.8536" rx="1.5" transform="rotate(45 79.0898 67.7071)" stroke="white"/>
<path d="M68.3536 76.3536C68.5488 76.1583 68.5488 75.8417 68.3536 75.6464L65.1716 72.4645C64.9763 72.2692 64.6597 72.2692 64.4645 72.4645C64.2692 72.6597 64.2692 72.9763 64.4645 73.1716L67.2929 76L64.4645 78.8284C64.2692 79.0237 64.2692 79.3403 64.4645 79.5355C64.6597 79.7308 64.9763 79.7308 65.1716 79.5355L68.3536 76.3536ZM57 76.5H68V75.5H57V76.5Z" fill="white"/>
<path d="M46 71L47.3505 74.6495L51 76L47.3505 77.3505L46 81L44.6495 77.3505L41 76L44.6495 74.6495L46 71Z" fill="white"/>
<path d="M79 71L80.1226 74.4549H83.7553L80.8164 76.5902L81.9389 80.0451L79 77.9098L76.0611 80.0451L77.1836 76.5902L74.2447 74.4549H77.8774L79 71Z" fill="white"/>
</g>
<rect x="1.5" y="1.5" width="97" height="97" rx="13.5" stroke="#707070" stroke-width="3"/>
<defs>
<clipPath id="clip0_1072_184">
<rect width="100" height="100" rx="15" fill="white"/>
</clipPath>
</defs>
</svg>
