<svg width="300" height="300" viewBox="0 0 300 300" fill="none" xmlns="http://www.w3.org/2000/svg">
<g clip-path="url(#clip0_912_635)">
<path d="M300 0H0V300H300V0Z" fill="#FF7951"/>
<path d="M267.188 150C267.188 85.2774 214.723 32.8125 150 32.8125C85.2774 32.8125 32.8125 85.2774 32.8125 150C32.8125 214.723 85.2774 267.188 150 267.188C214.723 267.188 267.188 214.723 267.188 150Z" stroke="white" stroke-width="14.6485"/>
<path d="M143.555 0H156.152V28.7109H143.555V0Z" fill="white"/>
<path d="M143.555 271.289H156.152V300H143.555V271.289Z" fill="white"/>
<path d="M300 143.848V156.152H270.996V143.848H300Z" fill="white"/>
<path d="M28.7109 143.848V156.152H0V143.848H28.7109Z" fill="white"/>
<path d="M260.375 251.613L251.465 260.52L231.164 240.219L240.07 231.309L260.375 251.613Z" fill="white"/>
<path d="M68.543 59.7812L59.6367 68.6914L39.332 48.3867L48.2422 39.4805L68.543 59.7812Z" fill="white"/>
<path d="M131.676 92.6172C135.137 92.8281 137.973 92.9844 140.176 93.0898C142.48 93.1953 144.316 93.2461 145.68 93.2461C147.254 93.3516 148.461 93.3516 149.301 93.2461H153.391C154.965 93.2461 157.168 93.2969 160 93.4023C162.938 93.4023 166.766 93.457 171.488 93.5625C170.965 94.2969 170.543 95.1875 170.23 96.2344C169.914 97.2852 169.652 98.3359 169.441 99.3828C169.129 100.539 168.918 101.797 168.812 103.16C168.707 104.84 168.5 107.461 168.184 111.027C167.973 114.07 167.66 118.32 167.238 123.773C166.926 129.125 166.504 136.102 165.98 144.703C169.023 144.703 171.645 144.441 173.848 143.914C176.051 143.285 177.887 142.551 179.355 141.711C181.035 140.871 182.398 139.875 183.445 138.723C183.973 138.094 184.547 137.41 185.18 136.676C185.703 136.047 186.383 135.367 187.223 134.633C188.063 133.898 188.953 133.109 189.898 132.27C189.687 135.102 189.531 137.57 189.426 139.668C189.32 141.66 189.215 143.34 189.113 144.703C189.008 146.277 188.902 147.535 188.797 148.48C188.797 149.633 188.691 151.152 188.484 153.043C188.273 154.719 188.063 156.977 187.852 159.809C187.645 162.535 187.434 165.996 187.223 170.195C186.176 168.094 185.18 166.469 184.234 165.316C183.395 164.055 182.66 163.113 182.031 162.484C181.191 161.75 180.457 161.223 179.828 160.91C179.094 160.699 178.098 160.488 176.84 160.281C175.684 160.07 174.215 159.965 172.434 159.965C170.754 159.859 168.551 159.754 165.824 159.652C165.824 165.84 165.93 170.824 166.137 174.602C166.453 178.375 166.766 181.313 167.082 183.41C167.5 185.93 167.973 187.711 168.5 188.762C169.129 189.707 170.02 190.809 171.172 192.066C172.223 193.219 173.637 194.586 175.422 196.156C177.207 197.73 179.512 199.516 182.344 201.508C179.934 202.031 177.625 202.398 175.422 202.609C173.324 202.715 171.383 202.871 169.602 203.082C167.605 203.289 165.719 203.395 163.934 203.395C162.047 203.395 159.738 203.5 157.012 203.711C154.598 203.922 151.609 204.129 148.043 204.34C144.477 204.551 140.176 204.812 135.137 205.125C136.922 203.344 138.34 201.719 139.387 200.25C140.543 198.676 141.434 197.312 142.062 196.156C142.797 194.898 143.32 193.797 143.637 192.852C143.844 191.699 144.16 189.758 144.578 187.031C144.895 184.723 145.262 181.523 145.68 177.434C146.102 173.34 146.574 167.938 147.098 161.223L104.297 161.695L105.082 151.152C110.223 143.809 114.316 137.727 117.359 132.898C120.504 127.969 122.918 123.984 124.598 120.941C126.484 117.48 127.848 114.75 128.688 112.758C129.211 110.871 129.684 108.879 130.102 106.777C130.523 104.996 130.891 102.898 131.203 100.484C131.52 97.9688 131.676 95.3437 131.676 92.6172ZM148.984 146.277C149.195 143.441 149.352 140.871 149.457 138.566C149.668 136.152 149.824 134.055 149.93 132.27C150.035 130.277 150.086 128.391 150.086 126.605V120.785C150.086 118.895 150.086 116.691 150.086 114.176C150.191 111.551 150.297 108.613 150.402 105.363L127.27 146.59L148.984 146.277Z" fill="white"/>
</g>
<defs>
<clipPath id="clip0_912_635">
<rect width="300" height="300" fill="white"/>
</clipPath>
</defs>
</svg>
