<svg width="300" height="300" viewBox="0 0 300 300" fill="none" xmlns="http://www.w3.org/2000/svg">
<path d="M300 0.292969H0.292969V300H300V0.292969Z" fill="#E0DA1C"/>
<path d="M267.219 150.145C267.219 85.4883 214.805 33.0742 150.145 33.0742C85.4883 33.0742 33.0742 85.4883 33.0742 150.145C33.0742 214.805 85.4883 267.219 150.145 267.219C214.805 267.219 267.219 214.805 267.219 150.145Z" stroke="white" stroke-width="14.6342"/>
<path d="M143.707 0.292969H156.293V28.9766H143.707V0.292969Z" fill="white"/>
<path d="M143.707 271.316H156.293V300H143.707V271.316Z" fill="white"/>
<path d="M299.855 143.855V156.438H271.172V143.855H299.855Z" fill="white"/>
<path d="M28.8281 143.855V156.438H0.144531V143.855H28.8281Z" fill="white"/>
<path d="M300 290.926V300H294.145L231.23 240.277L240.129 231.379L300 290.926Z" fill="white"/>
<path d="M0.144531 9.20703V0.132812H6L68.9141 59.8555L60.0156 68.7539L0.144531 9.20703Z" fill="white"/>
<path d="M86.5117 109.168C90.1797 108.016 93.1641 107.074 95.4688 106.34C97.7773 105.5 99.6641 104.82 101.129 104.297C102.809 103.668 104.062 103.09 104.902 102.566L108.676 100.68C110.145 99.9453 112.031 99.0039 114.336 97.8516C116.641 96.5938 119.629 95.0195 123.297 93.1328C122.457 97.1172 121.828 100.891 121.41 104.453C121.094 107.91 120.832 111.004 120.625 113.727C120.309 116.871 120.152 119.754 120.152 122.375C120.047 124.574 119.891 127.508 119.68 131.176C119.574 134.844 119.418 138.828 119.207 143.125C119 147.422 118.789 151.824 118.578 156.328C118.371 160.836 118.211 165.082 118.109 169.062C118.109 172.941 118.16 176.293 118.266 179.125C118.473 181.953 118.84 183.891 119.367 184.941C119.891 186.199 120.57 187.402 121.41 188.555C122.145 189.605 122.98 190.809 123.926 192.172C124.973 193.43 126.23 194.688 127.699 195.945C125.285 196.469 123.035 196.941 120.938 197.359C118.84 197.672 117.008 197.938 115.434 198.145C113.551 198.461 111.871 198.723 110.406 198.93C108.832 199.035 106.684 199.297 103.961 199.719C101.652 200.031 98.7188 200.449 95.1562 200.977C91.5938 201.395 87.1914 201.867 81.9531 202.391C84.6758 200.711 86.8242 199.09 88.3945 197.516C90.0742 195.945 91.332 194.582 92.168 193.43C93.1133 192.066 93.6875 190.758 93.8984 189.5C94.0039 188.66 94.1602 186.406 94.3711 182.738C94.6836 178.965 94.9453 174.566 95.1562 169.535C95.4688 164.398 95.7344 158.949 95.9414 153.184C96.2578 147.316 96.4648 141.867 96.5703 136.836C96.6758 131.805 96.7266 127.508 96.7266 123.945C96.7266 120.383 96.5703 118.234 96.2578 117.5C95.8359 116.766 95.207 115.93 94.3711 114.984C93.6367 114.148 92.6406 113.254 91.3828 112.312C90.2305 111.371 88.6055 110.32 86.5117 109.168ZM161.496 92.8203C164.953 93.0273 167.785 93.1875 169.984 93.2891C172.289 93.3945 174.125 93.4492 175.488 93.4492C177.059 93.5547 178.266 93.5547 179.102 93.4492H183.191C184.762 93.4492 186.961 93.5 189.793 93.6055C192.727 93.6055 196.551 93.6562 201.27 93.7617C200.746 94.4961 200.324 95.3867 200.012 96.4336C199.695 97.4844 199.434 98.5312 199.223 99.5781C198.91 100.73 198.699 101.988 198.594 103.352C198.492 105.027 198.281 107.648 197.969 111.211C197.758 114.25 197.441 118.496 197.023 123.945C196.711 129.289 196.289 136.258 195.766 144.852C198.805 144.852 201.426 144.59 203.625 144.066C205.828 143.438 207.66 142.707 209.129 141.867C210.805 141.027 212.168 140.031 213.215 138.879C213.738 138.25 214.316 137.57 214.945 136.836C215.469 136.207 216.148 135.527 216.988 134.793C217.828 134.059 218.719 133.273 219.66 132.434C219.453 135.266 219.293 137.727 219.188 139.824C219.086 141.812 218.98 143.492 218.875 144.852C218.77 146.426 218.664 147.684 218.559 148.625C218.559 149.777 218.457 151.301 218.246 153.184C218.035 154.863 217.828 157.117 217.617 159.945C217.406 162.668 217.199 166.129 216.988 170.32C215.941 168.223 214.945 166.602 214 165.445C213.164 164.188 212.43 163.246 211.801 162.617C210.961 161.883 210.23 161.359 209.602 161.047C208.867 160.836 207.871 160.625 206.613 160.418C205.461 160.207 203.992 160.102 202.211 160.102C200.535 159.996 198.332 159.891 195.609 159.789C195.609 165.973 195.715 170.949 195.922 174.723C196.238 178.496 196.551 181.43 196.867 183.523C197.285 186.039 197.758 187.82 198.281 188.871C198.91 189.812 199.801 190.914 200.953 192.172C202 193.324 203.418 194.688 205.199 196.258C206.98 197.832 209.285 199.613 212.113 201.602C209.703 202.129 207.398 202.496 205.199 202.703C203.102 202.809 201.164 202.965 199.383 203.176C197.391 203.387 195.504 203.488 193.723 203.488C191.836 203.488 189.531 203.594 186.805 203.805C184.395 204.016 181.406 204.223 177.844 204.434C174.281 204.645 169.984 204.906 164.953 205.219C166.734 203.438 168.152 201.813 169.199 200.348C170.352 198.773 171.242 197.41 171.871 196.258C172.605 195 173.129 193.902 173.441 192.957C173.652 191.805 173.969 189.867 174.387 187.141C174.699 184.836 175.066 181.641 175.488 177.551C175.906 173.465 176.379 168.066 176.902 161.359L134.141 161.832L134.93 151.301C140.062 143.961 144.152 137.883 147.191 133.062C150.336 128.137 152.746 124.156 154.422 121.117C156.309 117.656 157.672 114.934 158.508 112.941C159.031 111.055 159.504 109.062 159.922 106.969C160.344 105.188 160.711 103.09 161.023 100.68C161.34 98.1641 161.496 95.543 161.496 92.8203ZM178.789 146.426C178.996 143.598 179.156 141.027 179.262 138.723C179.469 136.313 179.625 134.215 179.73 132.434C179.836 130.441 179.887 128.559 179.887 126.773V120.957C179.887 119.07 179.887 116.871 179.887 114.355C179.992 111.734 180.098 108.801 180.203 105.555L157.094 146.738L178.789 146.426Z" fill="white"/>
</svg>
