<svg width="300" height="300" viewBox="0 0 300 300" fill="none" xmlns="http://www.w3.org/2000/svg">
<g clip-path="url(#clip0_912_245)">
<path d="M300 0.5H0.292969V299.5H300V0.5Z" fill="#67F077"/>
<path d="M292.684 150C292.684 71.4648 228.867 7.80078 150.145 7.80078C71.4258 7.80078 7.60938 71.4648 7.60938 150C7.60938 228.535 71.4258 292.199 150.145 292.199C228.867 292.199 292.684 228.535 292.684 150Z" stroke="white" stroke-width="14.6169"/>
<path d="M143.707 0.5H156.293V29.1172H143.707V0.5Z" fill="white"/>
<path d="M143.707 270.883H156.293V299.5H143.707V270.883Z" fill="white"/>
<path d="M299.855 143.723V156.277H271.172V143.723H299.855Z" fill="white"/>
<path d="M28.8281 143.723V156.277H0.144531V143.723H28.8281Z" fill="white"/>
<path d="M260.414 251.273L251.512 260.152L231.23 239.918L240.129 231.039L260.414 251.273Z" fill="white"/>
<path d="M79.457 70.8906L70.5547 79.7695L39.5117 48.7969L48.4102 39.918L79.457 70.8906Z" fill="white"/>
<path d="M251.512 39.8477L260.414 48.7266L229.367 79.6953L220.469 70.8203L251.512 39.8477Z" fill="white"/>
<path d="M79.457 228.957L70.5547 220.078L39.5117 251.047L48.4102 259.926L79.457 228.957Z" fill="white"/>
<path d="M251.512 259.996L260.414 251.117L229.367 220.148L220.469 229.027L251.512 259.996Z" fill="white"/>
<path d="M59.8711 231.039L68.7695 239.918L48.4883 260.152L39.5859 251.273L59.8711 231.039Z" fill="white"/>
<path d="M86.3398 226.5C86.3398 219.082 80.3125 213.07 72.8789 213.07C65.4414 213.07 59.4141 219.082 59.4141 226.5C59.4141 233.922 65.4414 239.934 72.8789 239.934C80.3125 239.934 86.3398 233.922 86.3398 226.5Z" fill="white"/>
<path d="M240.586 226.5C240.586 219.082 234.559 213.07 227.121 213.07C219.687 213.07 213.66 219.082 213.66 226.5C213.66 233.922 219.687 239.934 227.121 239.934C234.559 239.934 240.586 233.922 240.586 226.5Z" fill="white"/>
<path d="M291.219 277.309C291.219 269.891 285.191 263.875 277.758 263.875C270.32 263.875 264.293 269.891 264.293 277.309C264.293 284.727 270.32 290.742 277.758 290.742C285.191 290.742 291.219 284.727 291.219 277.309Z" fill="white"/>
<path d="M291.219 22.3984C291.219 14.9805 285.191 8.96875 277.758 8.96875C270.32 8.96875 264.293 14.9805 264.293 22.3984C264.293 29.8164 270.32 35.832 277.758 35.832C285.191 35.832 291.219 29.8164 291.219 22.3984Z" fill="white"/>
<path d="M35.707 277.309C35.707 269.891 29.6797 263.875 22.2422 263.875C14.8086 263.875 8.78125 269.891 8.78125 277.309C8.78125 284.727 14.8086 290.742 22.2422 290.742C29.6797 290.742 35.707 284.727 35.707 277.309Z" fill="white"/>
<path d="M35.707 22.3984C35.707 14.9805 29.6797 8.96875 22.2422 8.96875C14.8086 8.96875 8.78125 14.9805 8.78125 22.3984C8.78125 29.8164 14.8086 35.832 22.2422 35.832C29.6797 35.832 35.707 29.8164 35.707 22.3984Z" fill="white"/>
<path d="M86.3398 73.207C86.3398 65.7891 80.3125 59.7734 72.8789 59.7734C65.4414 59.7734 59.4141 65.7891 59.4141 73.207C59.4141 80.625 65.4414 86.6367 72.8789 86.6367C80.3125 86.6367 86.3398 80.625 86.3398 73.207Z" fill="white"/>
<path d="M240.586 73.207C240.586 65.7891 234.559 59.7734 227.121 59.7734C219.687 59.7734 213.66 65.7891 213.66 73.207C213.66 80.625 219.687 86.6367 227.121 86.6367C234.559 86.6367 240.586 80.625 240.586 73.207Z" fill="white"/>
<path d="M50.6602 159.145C55.918 153.898 55.918 145.395 50.6602 140.148C45.4023 134.906 36.8789 134.906 31.6211 140.148C26.3633 145.395 26.3633 153.898 31.6211 159.145C36.8789 164.391 45.4023 164.391 50.6602 159.145Z" fill="white"/>
<path d="M159.727 267.954C164.984 262.712 164.984 254.204 159.727 248.962C154.469 243.716 145.945 243.716 140.687 248.962C135.43 254.204 135.43 262.712 140.687 267.954C145.945 273.2 154.469 273.2 159.727 267.954Z" fill="white"/>
<path d="M159.312 50.751C164.57 45.5049 164.57 37.001 159.312 31.7549C154.055 26.5088 145.531 26.5088 140.273 31.7549C135.016 37.001 135.016 45.5049 140.273 50.751C145.531 55.9932 154.055 55.9932 159.312 50.751Z" fill="white"/>
<path d="M268.379 159.56C273.637 154.313 273.637 145.81 268.379 140.563C263.121 135.317 254.598 135.317 249.34 140.563C244.082 145.81 244.082 154.313 249.34 159.56C254.598 164.806 263.121 164.806 268.379 159.56Z" fill="white"/>
<path d="M94.3789 93.1016C97.8359 93.3086 100.664 93.4648 102.867 93.5703C105.172 93.6758 107.008 93.7266 108.367 93.7266C109.941 93.832 111.145 93.832 111.984 93.7266H116.07C117.645 93.7266 119.844 93.7813 122.676 93.8828C125.609 93.8828 129.434 93.9375 134.148 94.043C133.625 94.7734 133.207 95.6602 132.891 96.707C132.578 97.7539 132.316 98.7969 132.105 99.8438C131.793 100.992 131.582 102.25 131.477 103.609C131.371 105.281 131.164 107.895 130.848 111.449C130.641 114.48 130.324 118.715 129.906 124.152C129.59 129.484 129.172 136.438 128.648 145.012C131.687 145.012 134.309 144.75 136.508 144.227C138.707 143.602 140.543 142.867 142.012 142.031C143.687 141.195 145.051 140.203 146.098 139.051C146.621 138.426 147.199 137.746 147.828 137.012C148.352 136.387 149.031 135.707 149.871 134.973C150.707 134.242 151.598 133.457 152.543 132.621C152.332 135.445 152.176 137.902 152.07 139.992C151.965 141.98 151.863 143.652 151.758 145.012C151.652 146.578 151.547 147.836 151.441 148.777C151.441 149.926 151.336 151.441 151.129 153.324C150.918 154.996 150.707 157.246 150.5 160.066C150.289 162.785 150.078 166.234 149.871 170.418C148.82 168.328 147.828 166.707 146.883 165.555C146.047 164.301 145.312 163.359 144.684 162.734C143.844 162 143.109 161.48 142.48 161.164C141.75 160.957 140.754 160.746 139.496 160.539C138.344 160.328 136.875 160.223 135.094 160.223C133.418 160.121 131.215 160.016 128.492 159.91C128.492 166.078 128.594 171.047 128.805 174.809C129.121 178.574 129.434 181.5 129.75 183.594C130.168 186.102 130.641 187.879 131.164 188.926C131.793 189.867 132.684 190.965 133.836 192.219C134.883 193.367 136.297 194.727 138.078 196.297C139.863 197.863 142.168 199.641 144.996 201.629C142.586 202.152 140.281 202.516 138.078 202.727C135.984 202.832 134.047 202.988 132.262 203.195C130.273 203.406 128.387 203.512 126.605 203.512C124.719 203.512 122.414 203.613 119.688 203.824C117.277 204.031 114.289 204.242 110.727 204.449C107.164 204.66 102.867 204.922 97.8359 205.234C99.6172 203.457 101.031 201.836 102.082 200.375C103.234 198.805 104.125 197.445 104.754 196.297C105.488 195.039 106.012 193.941 106.324 193.004C106.535 191.852 106.848 189.918 107.27 187.199C107.582 184.898 107.949 181.711 108.367 177.633C108.789 173.555 109.258 168.172 109.785 161.48L67.0234 161.949L67.8086 151.441C72.9453 144.121 77.0313 138.059 80.0703 133.25C83.2148 128.336 85.625 124.363 87.3047 121.328C89.1914 117.879 90.5508 115.16 91.3906 113.176C91.9141 111.293 92.3867 109.305 92.8047 107.215C93.2266 105.437 93.5898 103.348 93.9062 100.941C94.2188 98.4336 94.3789 95.8203 94.3789 93.1016ZM111.672 146.578C111.879 143.758 112.035 141.195 112.141 138.895C112.352 136.492 112.508 134.398 112.613 132.621C112.719 130.637 112.77 128.754 112.77 126.977V121.172C112.77 119.293 112.77 117.094 112.77 114.586C112.875 111.973 112.98 109.043 113.086 105.805L89.9766 146.895L111.672 146.578ZM197.344 96.082C200.91 96.3945 204.578 97.3359 208.348 98.9023C212.121 100.473 215.633 102.773 218.883 105.805C222.133 108.73 224.91 112.441 227.215 116.938C229.625 121.434 231.145 126.715 231.773 132.777C232.82 143.234 232.141 152.277 229.73 159.91C227.422 167.543 224.016 174.234 219.512 179.984C215.109 185.734 209.922 190.859 203.949 195.355C198.078 199.746 192 203.93 185.711 207.902C182.566 204.867 180.105 202.41 178.324 200.531L175.496 197.707C174.762 196.766 173.816 195.719 172.664 194.57C171.723 193.523 170.57 192.27 169.207 190.805C167.844 189.344 166.324 187.668 164.648 185.789C167.895 187.566 170.832 188.715 173.449 189.238C176.176 189.762 178.48 189.969 180.367 189.867C182.566 189.762 184.559 189.395 186.34 188.77C191.059 186.469 195.301 183.594 199.074 180.141C202.324 177.109 205.258 173.348 207.879 168.852C210.602 164.25 212.07 158.813 212.281 152.539C208.926 157.348 205.258 160.801 201.277 162.891C197.398 164.98 193.781 166.395 190.43 167.125C186.445 167.961 182.465 168.117 178.48 167.594C176.488 167.281 174.34 166.234 172.035 164.457C169.73 162.68 167.531 160.434 165.434 157.715C163.336 154.891 161.449 151.754 159.773 148.305C158.203 144.855 157.102 141.246 156.473 137.484C155.844 133.613 155.793 129.746 156.316 125.879C156.945 121.906 158.465 118.09 160.875 114.43C164.438 109.098 167.793 105.07 170.934 102.352C174.078 99.6367 177.117 97.8047 180.055 96.8633C182.988 95.8203 185.871 95.3477 188.699 95.4531C191.527 95.5586 194.41 95.7656 197.344 96.082ZM180.684 127.762C179.844 130.687 179.426 133.613 179.426 136.543C179.426 139.469 179.793 142.137 180.523 144.543C181.363 146.945 182.516 149.035 183.984 150.812C185.449 152.488 187.285 153.531 189.484 153.949C191.688 154.473 193.836 154.16 195.93 153.012C198.133 151.754 200.121 150.031 201.906 147.836C203.789 145.641 205.363 143.078 206.621 140.148C207.984 137.117 208.875 134.035 209.293 130.898C209.605 128.703 209.605 126.348 209.293 123.84C209.082 121.227 208.559 118.82 207.723 116.625C206.988 114.324 205.992 112.391 204.734 110.82C203.582 109.254 202.219 108.312 200.648 108C198.551 107.688 196.453 108 194.359 108.941C192.367 109.777 190.48 111.137 188.699 113.02C186.918 114.797 185.293 116.992 183.824 119.605C182.465 122.113 181.414 124.832 180.684 127.762Z" fill="#00DFEF"/>
<path d="M94.3789 93.1016C97.8359 93.3086 100.664 93.4648 102.867 93.5703C105.172 93.6758 107.008 93.7266 108.367 93.7266C109.941 93.832 111.145 93.832 111.984 93.7266H116.07C117.645 93.7266 119.844 93.7813 122.676 93.8828C125.609 93.8828 129.434 93.9375 134.148 94.043C133.625 94.7734 133.207 95.6602 132.891 96.707C132.578 97.7539 132.316 98.7969 132.105 99.8438C131.793 100.992 131.582 102.25 131.477 103.609C131.371 105.281 131.164 107.895 130.848 111.449C130.641 114.48 130.324 118.715 129.906 124.152C129.59 129.484 129.172 136.438 128.648 145.012C131.687 145.012 134.309 144.75 136.508 144.227C138.707 143.602 140.543 142.867 142.012 142.031C143.687 141.195 145.051 140.203 146.098 139.051C146.621 138.426 147.199 137.746 147.828 137.012C148.352 136.387 149.031 135.707 149.871 134.973C150.707 134.242 151.598 133.457 152.543 132.621C152.332 135.445 152.176 137.902 152.07 139.992C151.965 141.98 151.863 143.652 151.758 145.012C151.652 146.578 151.547 147.836 151.441 148.777C151.441 149.926 151.336 151.441 151.129 153.324C150.918 154.996 150.707 157.246 150.5 160.066C150.289 162.785 150.078 166.234 149.871 170.418C148.82 168.328 147.828 166.707 146.883 165.555C146.047 164.301 145.312 163.359 144.684 162.734C143.844 162 143.109 161.48 142.48 161.164C141.75 160.957 140.754 160.746 139.496 160.539C138.344 160.328 136.875 160.223 135.094 160.223C133.418 160.121 131.215 160.016 128.492 159.91C128.492 166.078 128.594 171.047 128.805 174.809C129.121 178.574 129.434 181.5 129.75 183.594C130.168 186.102 130.641 187.879 131.164 188.926C131.793 189.867 132.684 190.965 133.836 192.219C134.883 193.367 136.297 194.727 138.078 196.297C139.863 197.863 142.168 199.641 144.996 201.629C142.586 202.152 140.281 202.516 138.078 202.727C135.984 202.832 134.047 202.988 132.262 203.195C130.273 203.406 128.387 203.512 126.605 203.512C124.719 203.512 122.414 203.613 119.688 203.824C117.277 204.031 114.289 204.242 110.727 204.449C107.164 204.66 102.867 204.922 97.8359 205.234C99.6172 203.457 101.031 201.836 102.082 200.375C103.234 198.805 104.125 197.445 104.754 196.297C105.488 195.039 106.012 193.941 106.324 193.004C106.535 191.852 106.848 189.918 107.27 187.199C107.582 184.898 107.949 181.711 108.367 177.633C108.789 173.555 109.258 168.172 109.785 161.48L67.0234 161.949L67.8086 151.441C72.9453 144.121 77.0313 138.059 80.0703 133.25C83.2148 128.336 85.625 124.363 87.3047 121.328C89.1914 117.879 90.5508 115.16 91.3906 113.176C91.9141 111.293 92.3867 109.305 92.8047 107.215C93.2266 105.437 93.5898 103.348 93.9062 100.941C94.2188 98.4336 94.3789 95.8203 94.3789 93.1016ZM111.672 146.578C111.879 143.758 112.035 141.195 112.141 138.895C112.352 136.492 112.508 134.398 112.613 132.621C112.719 130.637 112.77 128.754 112.77 126.977V121.172C112.77 119.293 112.77 117.094 112.77 114.586C112.875 111.973 112.98 109.043 113.086 105.805L89.9766 146.895L111.672 146.578ZM197.344 96.082C200.91 96.3945 204.578 97.3359 208.348 98.9023C212.121 100.473 215.633 102.773 218.883 105.805C222.133 108.73 224.91 112.441 227.215 116.938C229.625 121.434 231.145 126.715 231.773 132.777C232.82 143.234 232.141 152.277 229.73 159.91C227.422 167.543 224.016 174.234 219.512 179.984C215.109 185.734 209.922 190.859 203.949 195.355C198.078 199.746 192 203.93 185.711 207.902C182.566 204.867 180.105 202.41 178.324 200.531L175.496 197.707C174.762 196.766 173.816 195.719 172.664 194.57C171.723 193.523 170.57 192.27 169.207 190.805C167.844 189.344 166.324 187.668 164.648 185.789C167.895 187.566 170.832 188.715 173.449 189.238C176.176 189.762 178.48 189.969 180.367 189.867C182.566 189.762 184.559 189.395 186.34 188.77C191.059 186.469 195.301 183.594 199.074 180.141C202.324 177.109 205.258 173.348 207.879 168.852C210.602 164.25 212.07 158.813 212.281 152.539C208.926 157.348 205.258 160.801 201.277 162.891C197.398 164.98 193.781 166.395 190.43 167.125C186.445 167.961 182.465 168.117 178.48 167.594C176.488 167.281 174.34 166.234 172.035 164.457C169.73 162.68 167.531 160.434 165.434 157.715C163.336 154.891 161.449 151.754 159.773 148.305C158.203 144.855 157.102 141.246 156.473 137.484C155.844 133.613 155.793 129.746 156.316 125.879C156.945 121.906 158.465 118.09 160.875 114.43C164.438 109.098 167.793 105.07 170.934 102.352C174.078 99.6367 177.117 97.8047 180.055 96.8633C182.988 95.8203 185.871 95.3477 188.699 95.4531C191.527 95.5586 194.41 95.7656 197.344 96.082ZM180.684 127.762C179.844 130.687 179.426 133.613 179.426 136.543C179.426 139.469 179.793 142.137 180.523 144.543C181.363 146.945 182.516 149.035 183.984 150.812C185.449 152.488 187.285 153.531 189.484 153.949C191.688 154.473 193.836 154.16 195.93 153.012C198.133 151.754 200.121 150.031 201.906 147.836C203.789 145.641 205.363 143.078 206.621 140.148C207.984 137.117 208.875 134.035 209.293 130.898C209.605 128.703 209.605 126.348 209.293 123.84C209.082 121.227 208.559 118.82 207.723 116.625C206.988 114.324 205.992 112.391 204.734 110.82C203.582 109.254 202.219 108.312 200.648 108C198.551 107.688 196.453 108 194.359 108.941C192.367 109.777 190.48 111.137 188.699 113.02C186.918 114.797 185.293 116.992 183.824 119.605C182.465 122.113 181.414 124.832 180.684 127.762Z" fill="white"/>
</g>
<defs>
<clipPath id="clip0_912_245">
<rect width="300" height="300" fill="white"/>
</clipPath>
</defs>
</svg>
