<svg width="52" height="38" viewBox="0 0 52 38" fill="none" xmlns="http://www.w3.org/2000/svg">
<path d="M25.9057 37.0377L8.16981 30.434L1 1H51L43.8302 31L25.9057 37.0377Z" fill="#FFD88D"/>
<path d="M25.9057 37.0377L8.16981 30.434L1 1H51L43.8302 31M25.9057 37.0377L43.8302 31M25.9057 37.0377V34.0189M43.8302 31L43.0755 29.6792M25.9057 34.0189L17.3208 31.8491M25.9057 34.0189L34.4906 31.8491M43.0755 29.6792L49.1132 4.20755H38.5472M43.0755 29.6792L34.4906 31.8491M17.3208 31.8491L9.11321 29.6792L2.88679 4.20755H38.5472M17.3208 31.8491L12.6981 4.20755M34.4906 31.8491L38.5472 4.20755" stroke="#FFD88D"/>
<path d="M43.75 31.2564L25.75 37V34.1282L34.3711 32.0641L42.9921 30L43.75 31.2564Z" fill="#F0BD5B"/>
<path d="M9.1132 29.6792L2.88678 4.20752H12.75H38.75H49.1132L43.0755 29.6792L34.4906 31.849L25.9056 34.0188L17.3207 31.849L9.1132 29.6792Z" fill="#C6A15A"/>
<path d="M17.3207 31.849L9.1132 29.6792L2.88678 4.20752H38.75M17.3207 31.849L25.9056 34.0188L34.4906 31.849M17.3207 31.849L12.75 4.20752M34.4906 31.849L43.0755 29.6792L49.1132 4.20752H38.75M34.4906 31.849L38.75 4.20752" stroke="#C6A15A"/>
<path d="M25.9057 34.0188L17.3208 31.849L12.75 4.20752H38.75L34.4906 31.849L25.9057 34.0188Z" fill="#F3D08C" stroke="#F3D08C"/>
<path d="M22.036 12.676C22.232 12.676 22.3813 12.7087 22.484 12.774C22.596 12.83 22.652 12.914 22.652 13.026C22.652 13.0727 22.638 13.1333 22.61 13.208C22.582 13.292 22.54 13.3573 22.484 13.404C22.4373 13.4413 22.3627 13.4927 22.26 13.558C22.1107 13.642 21.9893 13.7353 21.896 13.838C21.812 13.9407 21.7373 14.0993 21.672 14.314L19.964 20.334C19.9267 20.4553 19.908 20.572 19.908 20.684C19.908 20.7867 19.922 20.8753 19.95 20.95C19.9873 21.0153 20.034 21.0947 20.09 21.188C20.1273 21.2347 20.16 21.286 20.188 21.342C20.216 21.3887 20.23 21.44 20.23 21.496C20.23 21.5147 20.2207 21.5613 20.202 21.636C20.1647 21.7573 20.076 21.846 19.936 21.902C19.8053 21.958 19.614 21.986 19.362 21.986H16.072C15.876 21.986 15.722 21.9533 15.61 21.888C15.5073 21.8227 15.456 21.734 15.456 21.622C15.456 21.566 15.47 21.5053 15.498 21.44C15.526 21.3747 15.5633 21.3187 15.61 21.272C15.666 21.216 15.7127 21.1787 15.75 21.16C15.7967 21.132 15.8293 21.1087 15.848 21.09C15.9973 21.006 16.1187 20.9127 16.212 20.81C16.3053 20.7073 16.3847 20.5487 16.45 20.334L17.514 16.554L13.888 21.048C13.5893 21.412 13.3467 21.664 13.16 21.804C12.9827 21.9347 12.7773 22 12.544 22C12.32 22 12.1427 21.93 12.012 21.79C11.8907 21.6407 11.7787 21.3933 11.676 21.048L10.36 16.722L9.324 20.348C9.28667 20.4693 9.268 20.586 9.268 20.698C9.268 20.81 9.282 20.9033 9.31 20.978C9.34733 21.0527 9.39867 21.132 9.464 21.216C9.548 21.3373 9.59 21.4353 9.59 21.51C9.59 21.5287 9.58067 21.5753 9.562 21.65C9.52467 21.7807 9.44067 21.874 9.31 21.93C9.17933 21.9767 8.98333 22 8.722 22H7.56C7.364 22 7.21 21.9673 7.098 21.902C6.99533 21.8367 6.944 21.748 6.944 21.636C6.944 21.58 6.958 21.5193 6.986 21.454C7.02333 21.3513 7.084 21.272 7.168 21.216C7.252 21.16 7.30333 21.1273 7.322 21.118C7.47133 21.0247 7.59267 20.9313 7.686 20.838C7.77933 20.7353 7.85867 20.572 7.924 20.348L9.632 14.3L9.408 13.558C9.36133 13.418 9.338 13.2827 9.338 13.152C9.338 12.984 9.38933 12.8627 9.492 12.788C9.604 12.7133 9.772 12.676 9.996 12.676H12.166C12.446 12.676 12.6513 12.7367 12.782 12.858C12.922 12.9793 13.034 13.1893 13.118 13.488L14.518 18.136L18.312 13.418C18.5547 13.1193 18.7927 12.9233 19.026 12.83C19.2593 12.7273 19.5673 12.676 19.95 12.676H22.036ZM32.6642 12.62C33.0749 12.62 33.4109 12.7553 33.6722 13.026C33.9335 13.2873 34.0642 13.6233 34.0642 14.034C34.0642 14.09 34.0549 14.1927 34.0362 14.342C33.9615 14.79 33.7842 15.1213 33.5042 15.336C33.2335 15.5507 32.9162 15.658 32.5522 15.658C32.3095 15.658 32.1042 15.6207 31.9362 15.546C31.7682 15.4713 31.6095 15.3453 31.4602 15.168L29.1502 18.178L28.5062 20.348C28.4875 20.404 28.4782 20.4787 28.4782 20.572C28.4782 20.7027 28.5109 20.8147 28.5762 20.908C28.6415 20.992 28.7349 21.0853 28.8562 21.188C28.9589 21.2813 29.0335 21.3607 29.0802 21.426C29.1269 21.4913 29.1362 21.566 29.1082 21.65C29.0709 21.7807 28.9775 21.874 28.8282 21.93C28.6882 21.9767 28.4922 22 28.2402 22H24.7122C24.4695 22 24.2875 21.958 24.1662 21.874C24.0542 21.7807 24.0169 21.6547 24.0542 21.496C24.0729 21.412 24.1055 21.3467 24.1522 21.3C24.2082 21.244 24.2922 21.1787 24.4042 21.104C24.5442 21.02 24.6609 20.9267 24.7542 20.824C24.8475 20.712 24.9269 20.5533 24.9922 20.348L25.6362 18.164L24.3482 14.496C24.2549 14.2253 24.1429 14.02 24.0122 13.88C23.8909 13.7307 23.7462 13.586 23.5782 13.446C23.4755 13.3713 23.4009 13.306 23.3542 13.25C23.3075 13.194 23.2842 13.1287 23.2842 13.054C23.2842 12.942 23.3309 12.8533 23.4242 12.788C23.5269 12.7133 23.6715 12.676 23.8582 12.676H27.5962C27.9229 12.676 28.1469 12.704 28.2682 12.76C28.3895 12.816 28.4549 12.914 28.4642 13.054C28.4642 13.138 28.4455 13.2127 28.4082 13.278C28.3709 13.334 28.3149 13.404 28.2402 13.488C28.1562 13.6 28.0909 13.6933 28.0442 13.768C28.0069 13.8333 27.9882 13.9173 27.9882 14.02C27.9882 14.048 27.9975 14.1087 28.0162 14.202L28.6602 16.666L30.4382 14.132C30.8209 13.5907 31.1802 13.2033 31.5162 12.97C31.8615 12.7367 32.2442 12.62 32.6642 12.62ZM44.3136 12.676C44.8269 12.676 45.0836 12.886 45.0836 13.306C45.0836 13.4367 45.0556 13.6 44.9996 13.796L44.6636 14.93C44.5609 15.2753 44.4349 15.518 44.2856 15.658C44.1363 15.798 43.9216 15.868 43.6416 15.868C43.4083 15.868 43.2263 15.8073 43.0956 15.686C42.9743 15.5647 42.8576 15.3733 42.7456 15.112L42.5076 14.538C42.4329 14.3607 42.3536 14.2393 42.2696 14.174C42.1856 14.1087 42.0549 14.076 41.8776 14.076H41.5556L39.7776 20.334C39.7496 20.4553 39.7356 20.5627 39.7356 20.656C39.7356 20.768 39.7496 20.8613 39.7776 20.936C39.8149 21.0107 39.8663 21.09 39.9316 21.174C40.0156 21.3047 40.0576 21.412 40.0576 21.496C40.0576 21.5147 40.0483 21.5613 40.0296 21.636C39.9829 21.7573 39.8896 21.846 39.7496 21.902C39.6189 21.958 39.4276 21.986 39.1756 21.986H35.8856C35.6896 21.986 35.5356 21.9533 35.4236 21.888C35.3209 21.8227 35.2696 21.7293 35.2696 21.608C35.2696 21.552 35.2836 21.496 35.3116 21.44C35.3489 21.356 35.3909 21.2953 35.4376 21.258C35.4936 21.2113 35.5729 21.1553 35.6756 21.09C35.8156 21.006 35.9323 20.9127 36.0256 20.81C36.1189 20.7073 36.1983 20.5487 36.2636 20.334L38.0276 14.076H37.7056C37.5003 14.076 37.3323 14.1087 37.2016 14.174C37.0709 14.2393 36.9309 14.3607 36.7816 14.538L36.3196 15.112C36.1049 15.364 35.8949 15.5553 35.6896 15.686C35.4936 15.8073 35.2789 15.868 35.0456 15.868C34.8309 15.868 34.6629 15.812 34.5416 15.7C34.4203 15.588 34.3596 15.434 34.3596 15.238C34.3596 15.1447 34.3736 15.042 34.4016 14.93L34.7656 13.656C34.8403 13.3947 34.9243 13.1987 35.0176 13.068C35.1109 12.928 35.2416 12.83 35.4096 12.774C35.5869 12.7087 35.8343 12.676 36.1516 12.676H44.3136Z" fill="#FFF3DD"/>
</svg>
