<svg width="100" height="99" viewBox="0 0 100 99" fill="none" xmlns="http://www.w3.org/2000/svg">
<rect x="49.7109" width="69.7992" height="69.7992" rx="10" transform="rotate(45 49.7109 0)" fill="white"/>
<path d="M22.3555 12.5C22.3555 7.25414 18.1023 3 12.8568 3C7.60862 3 3.35547 7.25414 3.35547 12.5C3.35547 17.7459 7.60862 22 12.8568 22C18.1023 22 22.3555 17.7459 22.3555 12.5Z" fill="white"/>
<path d="M94.3555 12.5C94.3555 7.25414 90.1023 3 84.8568 3C79.6086 3 75.3555 7.25414 75.3555 12.5C75.3555 17.7459 79.6086 22 84.8568 22C90.1023 22 94.3555 17.7459 94.3555 12.5Z" fill="white"/>
<path d="M22.3555 84.5C22.3555 79.2541 18.1023 75 12.8568 75C7.60862 75 3.35547 79.2541 3.35547 84.5C3.35547 89.7459 7.60862 94 12.8568 94C18.1023 94 22.3555 89.7459 22.3555 84.5Z" fill="white"/>
<path d="M94.3555 84.5C94.3555 79.2541 90.1023 75 84.8568 75C79.6086 75 75.3555 79.2541 75.3555 84.5C75.3555 89.7459 79.6086 94 84.8568 94C90.1023 94 94.3555 89.7459 94.3555 84.5Z" fill="white"/>
<path d="M59 49C59 43.478 54.523 39 49.0015 39C43.477 39 39 43.478 39 49C39 54.522 43.477 59 49.0015 59C54.523 59 59 54.522 59 49Z" fill="#67F077"/>
</svg>
