<svg width="300" height="300" viewBox="0 0 300 300" fill="none" xmlns="http://www.w3.org/2000/svg">
<g clip-path="url(#clip0_912_124)">
<path d="M300 0H0V300H300V0Z" fill="#51ABFF"/>
<path d="M274.805 150C274.805 81.0743 218.926 25.1953 150 25.1953C81.0743 25.1953 25.1953 81.0743 25.1953 150C25.1953 218.926 81.0743 274.805 150 274.805C218.926 274.805 274.805 218.926 274.805 150Z" stroke="white" stroke-width="14.6485"/>
<path d="M143.555 0H156.152V28.7109H143.555V0Z" fill="white"/>
<path d="M143.262 29.2969H156.445V59.7656H143.262V29.2969Z" fill="white"/>
<path d="M143.555 271.289H156.152V300H143.555V271.289Z" fill="white"/>
<path d="M143.262 241.699H156.445V272.168H143.262V241.699Z" fill="white"/>
<path d="M271.289 144.141V157.324H240.82V144.141H271.289Z" fill="white"/>
<path d="M58.8867 144.141V157.324H28.418V144.141H58.8867Z" fill="white"/>
<path d="M63.875 95.8984C65.8672 97.3672 67.8594 98.4688 69.8516 99.2031C71.9492 99.832 73.8398 100.254 75.5195 100.465C77.4063 100.777 79.293 100.832 81.1836 100.621C82.9648 100.41 84.8008 99.7812 86.6914 98.7305C88.5781 97.6836 90.7813 96.582 93.3008 95.4297C95.8164 94.2734 98.7539 93.2773 102.109 92.4375C105.574 91.4922 109.715 91.0234 114.543 91.0234C116.641 91.0234 118.844 91.4414 121.152 92.2812C123.562 93.1211 125.871 94.2227 128.074 95.5859C130.277 96.8437 132.27 98.2617 134.055 99.832C135.941 101.406 137.359 102.98 138.305 104.555C139.352 106.129 140.086 108.699 140.508 112.266C140.926 115.727 141.082 119.504 140.977 123.594C140.875 127.688 140.508 131.727 139.875 135.711C139.352 139.695 138.566 142.949 137.516 145.469C136.258 147.672 133.844 150.504 130.277 153.965C127.234 156.902 122.672 160.68 116.586 165.293C110.504 169.91 102.32 175.418 92.0391 181.816C98.125 181.711 103.211 181.555 107.305 181.344C111.5 181.031 114.91 180.715 117.531 180.398C120.574 179.98 122.988 179.562 124.77 179.141C126.344 178.512 128.023 177.621 129.805 176.465C131.273 175.418 132.848 174.055 134.527 172.375C136.309 170.695 138.039 168.492 139.719 165.766C140.035 171.43 140.348 175.891 140.664 179.141C140.875 181.031 141.031 182.656 141.137 184.02C141.242 185.277 141.344 186.746 141.449 188.426C141.555 189.895 141.609 191.57 141.609 193.461C141.711 195.348 141.871 197.344 142.078 199.441C136.836 198.078 132.062 197.027 127.762 196.293C123.461 195.453 119.789 194.879 116.746 194.562C113.18 194.141 109.98 193.934 107.148 193.934C104.211 194.039 100.957 194.301 97.3906 194.719C94.2422 195.141 90.4648 195.77 86.0625 196.609C81.7578 197.344 76.8828 198.445 71.4258 199.914C71.0078 198.758 70.6406 197.605 70.3242 196.449C70.0117 195.191 69.75 193.984 69.5391 192.832C69.2227 191.57 68.9609 190.312 68.75 189.055C68.543 187.797 68.332 186.59 68.1211 185.434C67.9141 184.387 67.7539 183.285 67.6484 182.133C67.5469 180.977 67.4414 179.875 67.3359 178.828C75.7266 173.477 82.5469 168.652 87.793 164.352C93.0352 159.945 97.1797 156.219 100.223 153.176C103.684 149.609 106.309 146.359 108.09 143.422C109.875 139.855 111.344 135.922 112.496 131.621C113.652 127.32 114.016 123.332 113.598 119.66C113.285 115.988 112.023 113 109.82 110.691C107.617 108.277 104.105 107.23 99.2773 107.543C96.1328 107.754 93.1406 108.855 90.3086 110.848C87.582 112.844 85.0625 115.254 82.7578 118.086C80.4492 120.918 78.4023 123.961 76.6211 127.215C74.8359 130.359 73.3164 133.352 72.0547 136.184C70.9023 139.016 69.957 141.375 69.2227 143.266C68.5938 145.152 68.2812 146.148 68.2812 146.254C68.1758 146.465 68.0156 145.676 67.8086 143.895C67.7031 142.109 67.5469 139.906 67.3359 137.285C67.2305 134.559 67.0742 131.727 66.8633 128.789C66.6523 125.852 66.4453 123.383 66.2344 121.391C66.1289 119.816 65.9727 117.773 65.7617 115.254C65.4453 111.164 64.8164 104.711 63.875 95.8984ZM197.312 91.6523C202.137 91.5469 207.016 92.6484 211.945 94.957C216.875 97.2617 221.336 100.777 225.32 105.5C229.309 110.113 232.559 115.937 235.078 122.965C237.594 129.992 238.906 138.227 239.012 147.672C239.117 153.965 238.645 159.68 237.594 164.82C236.547 169.961 235.129 174.578 233.348 178.668C231.563 182.656 229.516 186.223 227.211 189.371C225.008 192.41 222.75 195.035 220.441 197.238C218.137 199.336 215.934 201.016 213.836 202.273C211.734 203.531 209.953 204.371 208.484 204.789C206.598 205.418 204.34 205.996 201.719 206.52C199.094 206.941 196.367 207.203 193.535 207.309C190.703 207.52 187.871 207.359 185.039 206.836C182.309 206.418 179.898 205.578 177.801 204.316C175.703 203.059 173.234 201.277 170.402 198.969C167.676 196.555 165.055 193.305 162.535 189.211C160.02 185.016 157.867 179.77 156.086 173.477C154.301 167.184 153.41 159.473 153.41 150.344C153.41 141.219 154.457 133.035 156.555 125.797C158.758 118.559 161.75 112.422 165.527 107.387C169.406 102.352 174.023 98.5234 179.375 95.8984C184.828 93.1719 190.809 91.7578 197.312 91.6523ZM175.125 150.188C175.02 156.379 175.387 161.781 176.227 166.395C177.066 171.012 178.062 174.895 179.215 178.039C180.371 181.188 181.523 183.703 182.676 185.594C183.938 187.375 184.879 188.637 185.512 189.371C186.141 190.312 187.293 190.941 188.973 191.258C190.648 191.57 192.434 191.73 194.32 191.73C196.211 191.625 198.047 191.363 199.828 190.941C201.613 190.418 202.977 189.738 203.922 188.898C204.445 188.371 205.18 187.062 206.125 184.965C207.172 182.867 208.168 180.137 209.113 176.781C210.164 173.426 211.105 169.543 211.945 165.137C212.785 160.625 213.363 155.801 213.676 150.66C213.992 144.891 213.992 139.594 213.676 134.766C213.363 129.836 212.891 125.535 212.262 121.863C211.633 118.191 210.898 115.148 210.059 112.738C209.219 110.324 208.328 108.699 207.383 107.859C206.02 106.602 204.34 105.707 202.348 105.184C200.457 104.66 198.52 104.449 196.523 104.555C194.637 104.66 192.801 105.027 191.016 105.656C189.34 106.285 188.027 107.125 187.082 108.172C185.195 110.273 183.516 112.473 182.047 114.781C180.578 117.09 179.375 119.871 178.43 123.121C177.484 126.375 176.699 130.203 176.07 134.609C175.543 138.91 175.23 144.102 175.125 150.188Z" fill="white"/>
</g>
<defs>
<clipPath id="clip0_912_124">
<rect width="300" height="300" fill="white"/>
</clipPath>
</defs>
</svg>
