<svg width="300" height="300" viewBox="0 0 300 300" fill="none" xmlns="http://www.w3.org/2000/svg">
<g clip-path="url(#clip0_912_551)">
<path d="M300 0H0V300H300V0Z" fill="#FF7951"/>
<path d="M290 149.676C290 70.879 227.319 7 150 7C72.6809 7 10 70.879 10 149.676C10 228.473 72.6809 292.352 150 292.352C227.319 292.352 290 228.473 290 149.676Z" stroke="white" stroke-width="14.6485"/>
<path d="M143.555 0H156.152V28.7109H143.555V0Z" fill="white"/>
<path d="M143.555 271.289H156.152V300H143.555V271.289Z" fill="white"/>
<path d="M297 144V156H271V144H297Z" fill="white"/>
<path d="M28 144V156H3V144H28Z" fill="white"/>
<path d="M260.375 251.613L251.465 260.52L231.164 240.219L240.07 231.309L260.375 251.613Z" fill="white"/>
<path d="M68.543 59.7812L59.6367 68.6914L39.332 48.3867L48.2422 39.4805L68.543 59.7812Z" fill="white"/>
<path d="M251.465 39.4805L260.375 48.3867L240.07 68.6914L231.164 59.7812L251.465 39.4805Z" fill="white"/>
<path d="M59.6367 231.309L68.543 240.219L48.2422 260.52L39.332 251.613L59.6367 231.309Z" fill="white"/>
<path d="M272.059 27.9922L264.715 55.3984L244.648 35.3359L272.059 27.9922Z" fill="white"/>
<path d="M27.6992 272.059L35.043 244.648L55.1055 264.715L27.6992 272.059Z" fill="white"/>
<path d="M27.6992 27.9922L35.043 55.3984L55.1055 35.3359L27.6992 27.9922Z" fill="white"/>
<path d="M272.059 272.059L264.715 244.648L244.648 264.715L272.059 272.059Z" fill="white"/>
<path d="M159.215 91.5148C164.25 91.1984 168.867 91.9328 173.062 93.7179C177.363 95.3976 180.98 97.6515 183.918 100.484C186.855 103.21 189.059 106.253 190.527 109.612C191.996 112.968 192.574 116.062 192.258 118.894C191.629 122.566 190.371 126.132 188.484 129.597C186.805 132.53 184.391 135.573 181.242 138.722C178.203 141.87 173.953 144.491 168.5 146.589C173.324 149.527 176.996 152.726 179.512 156.187C182.031 159.546 183.867 162.691 185.02 165.628C186.281 169.093 186.91 172.499 186.91 175.859C186.594 181.105 185.492 185.929 183.605 190.335C181.82 194.636 179.25 198.359 175.895 201.507C172.535 204.655 168.445 207.066 163.621 208.745C158.793 210.425 153.289 211.21 147.098 211.105C134.613 210.792 125.016 208.273 118.301 203.554C111.586 198.831 108.02 192.222 107.602 183.726C107.602 178.48 108.441 173.55 110.117 168.933C110.852 167.046 111.746 165.105 112.793 163.112C113.949 161.12 115.363 159.284 117.043 157.605C118.824 155.82 120.926 154.249 123.336 152.882C125.75 151.413 128.531 150.312 131.676 149.577C128.633 148.843 126.062 147.952 123.965 146.905C121.973 145.749 120.242 144.491 118.773 143.128C117.41 141.659 116.309 140.191 115.469 138.722C114.734 137.148 114.211 135.573 113.895 133.999C113.055 130.538 113.109 126.71 114.055 122.515C115.625 117.163 117.516 112.652 119.719 108.98C122.027 105.206 124.91 102.109 128.371 99.6984C131.938 97.2843 136.238 95.4484 141.277 94.1906C146.312 92.9328 152.289 92.0383 159.215 91.5148ZM134.352 121.726C133.723 123.616 133.512 125.82 133.723 128.335C133.934 130.855 134.562 133.214 135.609 135.417C136.66 137.515 138.129 139.3 140.016 140.769C141.906 142.237 144.266 142.917 147.098 142.812C150.559 142.706 153.551 142.027 156.066 140.769C158.691 139.507 160.895 137.882 162.676 135.89C164.461 133.898 165.93 131.64 167.082 129.124C168.34 126.499 169.336 123.722 170.07 120.784C170.805 117.847 170.965 115.171 170.543 112.757C170.125 110.241 169.336 108.089 168.184 106.308C167.133 104.523 165.824 103.109 164.25 102.058C162.781 100.905 161.312 100.222 159.844 100.011C156.383 99.4875 153.184 99.9601 150.246 101.429C147.414 102.898 144.895 104.839 142.691 107.249C140.594 109.558 138.809 112.077 137.34 114.804C135.977 117.425 134.98 119.734 134.352 121.726ZM129.16 172.237C127.797 175.175 127.164 178.167 127.27 181.206C127.375 184.144 128.059 186.874 129.316 189.39C130.574 191.804 132.305 193.847 134.508 195.527C136.711 197.101 139.281 197.941 142.219 198.046C145.473 198.152 148.305 197.73 150.719 196.784C153.234 195.737 155.332 194.32 157.012 192.538C158.793 190.648 160.262 188.445 161.418 185.929C162.676 183.308 163.777 180.472 164.723 177.433C165.562 174.39 165.719 171.503 165.195 168.777C164.668 165.945 163.672 163.48 162.203 161.382C160.84 159.179 159.16 157.448 157.168 156.187C155.176 154.823 153.184 154.144 151.188 154.144C146.68 154.144 142.535 155.718 138.758 158.862C135.086 161.905 131.887 166.362 129.16 172.237Z" fill="white"/>
<path d="M265 150C265 86.4855 213.514 35 150 35C86.4855 35 35 86.4855 35 150C35 213.514 86.4855 265 150 265C213.514 265 265 213.514 265 150Z" stroke="white" stroke-width="14.6485"/>
</g>
<defs>
<clipPath id="clip0_912_551">
<rect width="300" height="300" fill="white"/>
</clipPath>
</defs>
</svg>
