<svg width="300" height="300" viewBox="0 0 300 300" fill="none" xmlns="http://www.w3.org/2000/svg">
<g clip-path="url(#clip0_912_662)">
<path d="M300 0H0V300H300V0Z" fill="#FF7951"/>
<path d="M267.188 150C267.188 85.2774 214.723 32.8125 150 32.8125C85.2774 32.8125 32.8125 85.2774 32.8125 150C32.8125 214.723 85.2774 267.188 150 267.188C214.723 267.188 267.188 214.723 267.188 150Z" stroke="white" stroke-width="14.6485"/>
<path d="M128.195 108.98C131.867 107.828 134.859 106.883 137.164 106.148C139.473 105.312 141.363 104.629 142.832 104.105C144.508 103.473 145.766 102.898 146.605 102.375L150.383 100.484C151.852 99.75 153.742 98.8047 156.047 97.6523C158.355 96.3945 161.348 94.8203 165.016 92.9336C164.18 96.918 163.551 100.695 163.129 104.262C162.813 107.723 162.551 110.816 162.344 113.547C162.027 116.691 161.871 119.578 161.871 122.199C161.766 124.402 161.609 127.34 161.398 131.012C161.293 134.684 161.137 138.672 160.926 142.973C160.715 147.273 160.508 151.68 160.297 156.188C160.086 160.699 159.93 164.949 159.824 168.934C159.824 172.816 159.879 176.172 159.98 179.004C160.191 181.84 160.559 183.777 161.082 184.828C161.609 186.086 162.289 187.293 163.129 188.445C163.863 189.496 164.703 190.703 165.648 192.066C166.695 193.324 167.953 194.586 169.422 195.844C167.012 196.367 164.754 196.84 162.656 197.258C160.559 197.574 158.723 197.836 157.148 198.047C155.262 198.359 153.582 198.621 152.113 198.832C150.539 198.938 148.391 199.199 145.664 199.621C143.355 199.934 140.418 200.355 136.852 200.879C133.285 201.297 128.879 201.77 123.633 202.293C126.359 200.617 128.512 198.988 130.086 197.418C131.762 195.844 133.023 194.48 133.859 193.324C134.805 191.961 135.383 190.648 135.594 189.391C135.695 188.551 135.855 186.297 136.062 182.625C136.379 178.848 136.641 174.441 136.852 169.406C137.164 164.266 137.43 158.812 137.637 153.043C137.953 147.168 138.16 141.711 138.266 136.676C138.371 131.641 138.426 127.34 138.426 123.773C138.426 120.207 138.266 118.055 137.953 117.32C137.531 116.586 136.902 115.75 136.062 114.805C135.328 113.965 134.332 113.074 133.074 112.129C131.922 111.184 130.293 110.137 128.195 108.98Z" fill="white"/>
</g>
<defs>
<clipPath id="clip0_912_662">
<rect width="300" height="300" fill="white"/>
</clipPath>
</defs>
</svg>
