<svg width="99" height="99" viewBox="0 0 99 99" fill="none" xmlns="http://www.w3.org/2000/svg">
<rect x="49.3555" width="69.7992" height="69.7992" rx="10" transform="rotate(45 49.3555 0)" fill="#FF4C15"/>
<path d="M51.0875 89C50.3177 90.3333 48.3932 90.3333 47.6234 89L39.8292 75.5C39.0594 74.1667 40.0216 72.5 41.5612 72.5L57.1497 72.5C58.6893 72.5 59.6515 74.1667 58.8817 75.5L51.0875 89Z" fill="white"/>
<path d="M47.6234 11C48.3932 9.66667 50.3177 9.66667 51.0875 11L58.8818 24.5C59.6516 25.8333 58.6893 27.5 57.1497 27.5L41.5612 27.5C40.0216 27.5 39.0594 25.8333 39.8292 24.5L47.6234 11Z" fill="white"/>
<path d="M10.3555 51.7321C9.02214 50.9622 9.02214 49.0377 10.3555 48.2679L23.8555 40.4737C25.1888 39.7039 26.8555 40.6662 26.8555 42.2058L26.8555 57.7942C26.8555 59.3338 25.1888 60.2961 23.8555 59.5263L10.3555 51.7321Z" fill="white"/>
<path d="M88.3555 48.2679C89.6888 49.0378 89.6888 50.9623 88.3555 51.7321L74.8555 59.5263C73.5221 60.2961 71.8555 59.3338 71.8555 57.7942L71.8555 42.2058C71.8555 40.6662 73.5221 39.7039 74.8555 40.4737L88.3555 48.2679Z" fill="white"/>
</svg>
