<svg width="100" height="99" viewBox="0 0 100 99" fill="none" xmlns="http://www.w3.org/2000/svg">
<rect x="50" width="69.7992" height="69.7992" rx="10" transform="rotate(45 50 0)" fill="#FF7951"/>
<path d="M51.7321 89C50.9622 90.3333 49.0377 90.3333 48.2679 89L40.4737 75.5C39.7039 74.1667 40.6662 72.5 42.2058 72.5L57.7942 72.5C59.3338 72.5 60.2961 74.1667 59.5263 75.5L51.7321 89Z" fill="white"/>
<path d="M48.268 11C49.0378 9.66667 50.9623 9.66667 51.7321 11L59.5263 24.5C60.2961 25.8333 59.3338 27.5 57.7942 27.5L42.2058 27.5C40.6662 27.5 39.7039 25.8333 40.4737 24.5L48.268 11Z" fill="white"/>
<path d="M11 51.7321C9.66667 50.9622 9.66667 49.0377 11 48.2679L24.5 40.4737C25.8333 39.7039 27.5 40.6662 27.5 42.2058L27.5 57.7942C27.5 59.3338 25.8333 60.2961 24.5 59.5263L11 51.7321Z" fill="white"/>
<path d="M89 48.2679C90.3333 49.0378 90.3333 50.9623 89 51.7321L75.5 59.5263C74.1667 60.2961 72.5 59.3338 72.5 57.7942L72.5 42.2058C72.5 40.6662 74.1667 39.7039 75.5 40.4737L89 48.2679Z" fill="white"/>
</svg>
