<svg width="300" height="300" viewBox="0 0 300 300" fill="none" xmlns="http://www.w3.org/2000/svg">
<rect width="300" height="300" fill="#EFEFEF"/>
<circle cx="150.5" cy="149.5" r="70" fill="#FECF25" stroke="black"/>
<circle cx="150.324" cy="150.676" r="52.919" fill="#FE6500" stroke="black"/>
<circle cx="149.31" cy="150.338" r="35.8524" fill="#EFEFEF" stroke="black" stroke-width="2"/>
<circle cx="149.648" cy="150.676" r="1.88095" fill="#EFEFEF" stroke="black" stroke-width="3"/>
<rect x="148.971" y="114.838" width="2.02857" height="4.73333" fill="black"/>
<rect x="149.471" y="79.5" width="1.02857" height="39.5714" stroke="black"/>
<rect x="184.81" y="149.324" width="2.02857" height="4.73333" transform="rotate(90 184.81 149.324)" fill="black"/>
<rect x="220.148" y="149.824" width="1.02857" height="39.5714" transform="rotate(90 220.148 149.824)" stroke="black"/>
<rect x="151" y="185.838" width="2.02857" height="4.73333" transform="rotate(180 151 185.838)" fill="black"/>
<rect x="150.5" y="219.147" width="1.02857" height="37.5429" transform="rotate(180 150.5 219.147)" stroke="black"/>
<rect x="113.81" y="151.353" width="2.02857" height="4.73333" transform="rotate(-90 113.81 151.353)" fill="black"/>
<rect x="80.5" y="150.853" width="1.02857" height="37.5429" transform="rotate(-90 80.5 150.853)" stroke="black"/>
<g filter="url(#filter0_d_265_219)">
<circle cx="90.819" cy="210.857" r="10.1429" fill="#3BC4C0"/>
</g>
<g filter="url(#filter1_d_265_219)">
<circle cx="209.829" cy="210.857" r="9.64286" stroke="black" shape-rendering="crispEdges"/>
</g>
<g filter="url(#filter2_d_265_219)">
<circle cx="90.819" cy="89.1429" r="10.1429" fill="#FBAD0B"/>
</g>
<g filter="url(#filter3_d_265_219)">
<circle cx="209.829" cy="89.1429" r="10.1429" fill="#F88400"/>
</g>
<rect x="36" y="117" width="110" height="41" fill="#EFEFEF"/>
<rect x="151" y="187" width="110" height="35" fill="#EFEFEF"/>
<path d="M161.818 185H241V220H168L153 187L156.5 186.5L158.5 186L161.818 185Z" fill="#EFEFEF"/>
<path d="M147.662 217.977V197.005L157.794 189.168C160.87 189.38 163.238 190.161 164.898 191.512C166.917 193.156 167.926 195.573 167.926 198.763V215.779L163.287 217.977H163.043V198.763C163.043 196.728 162.514 195.263 161.456 194.368C160.398 193.473 159.177 193.025 157.794 193.025C156.264 193.025 154.994 193.522 153.985 194.515C153.025 195.459 152.545 196.875 152.545 198.763V215.779L147.906 217.977H147.662ZM185.382 217.977C182.306 217.765 179.938 216.984 178.277 215.633C176.259 213.973 175.25 211.556 175.25 208.382V197.005L185.382 189.168C188.458 189.38 190.826 190.161 192.486 191.512C194.505 193.156 195.514 195.573 195.514 198.763L180.499 210.896C180.792 211.71 181.199 212.337 181.72 212.776C182.778 213.672 183.982 214.119 185.333 214.119C186.749 214.119 188.035 213.623 189.19 212.63C190.151 211.8 190.631 210.384 190.631 208.382L195.27 206.185H195.514V210.14L185.382 217.977ZM180.133 207.308L190.631 198.787C190.631 196.736 190.094 195.263 189.02 194.368C187.962 193.473 186.749 193.025 185.382 193.025C183.803 193.025 182.534 193.522 181.573 194.515C180.613 195.507 180.133 196.924 180.133 198.763V207.308ZM202.838 217.977V197.005L212.97 189.168C216.046 189.38 218.414 190.161 220.074 191.512C222.092 193.156 223.102 195.573 223.102 198.763V215.779L218.463 217.977H218.219V198.763C218.219 196.728 217.69 195.263 216.632 194.368C215.574 193.473 214.353 193.025 212.97 193.025C211.44 193.025 210.17 193.522 209.161 194.515C208.201 195.459 207.721 196.875 207.721 198.763V215.779L203.082 217.977H202.838ZM231.646 217.977V191.365L236.285 189.168H236.529V215.779L231.891 217.977H231.646ZM236.529 179.158V184.725L231.891 186.922H231.646V181.355L236.285 179.158H236.529Z" fill="black"/>
<path d="M62.5732 153.977L50.1221 117.16L54.3457 115.158H54.5898L65.3809 147.287L76.0986 115.158H76.3428L78.9551 116.403L67.041 151.975L62.8174 153.977H62.5732ZM79.834 153.977V133.005L89.9658 125.168C93.042 125.38 95.4102 126.161 97.0703 127.512C99.0885 129.156 100.098 131.573 100.098 134.763L95.459 136.96H95.2148V134.763C95.2148 132.728 94.6777 131.263 93.6035 130.368C92.5456 129.473 91.3249 129.025 89.9414 129.025C88.5254 129.025 87.264 129.522 86.1572 130.515C85.1969 131.377 84.7168 132.793 84.7168 134.763V151.779L80.0781 153.977H79.834ZM115.112 153.977C112.036 153.765 109.668 152.984 108.008 151.633C105.99 149.973 104.98 147.556 104.98 144.382V133.005L115.112 125.168C118.188 125.38 120.557 126.161 122.217 127.512C124.235 129.156 125.244 131.573 125.244 134.763L110.229 146.896C110.522 147.71 110.929 148.337 111.45 148.776C112.508 149.672 113.713 150.119 115.063 150.119C116.479 150.119 117.765 149.623 118.921 148.63C119.881 147.8 120.361 146.384 120.361 144.382L125 142.185H125.244V146.14L115.112 153.977ZM109.863 143.308L120.361 134.787C120.361 132.736 119.824 131.263 118.75 130.368C117.692 129.473 116.479 129.025 115.112 129.025C113.534 129.025 112.264 129.522 111.304 130.515C110.343 131.507 109.863 132.924 109.863 134.763V143.308ZM132.568 153.977V133.005L142.7 125.168C145.809 125.38 148.177 126.161 149.805 127.512C150.651 128.212 151.326 129.042 151.831 130.002L158.081 125.168C161.157 125.38 163.525 126.161 165.186 127.512C167.204 129.156 168.213 131.573 168.213 134.763V151.779L163.574 153.977H163.33V134.763C163.33 132.728 162.801 131.263 161.743 130.368C160.685 129.473 159.465 129.025 158.081 129.025C156.551 129.025 155.282 129.522 154.272 130.515C153.312 131.459 152.832 132.875 152.832 134.763V151.779L148.193 153.977H147.949V134.763C147.949 132.728 147.42 131.263 146.362 130.368C145.304 129.473 144.084 129.025 142.7 129.025C141.17 129.025 139.901 129.522 138.892 130.515C137.931 131.459 137.451 132.875 137.451 134.763V151.779L132.812 153.977H132.568Z" fill="black"/>
<rect x="151" y="125" width="21" height="36" fill="#EFEFEF"/>
<path d="M151.529 150.676C151.529 151.715 150.686 152.557 149.648 152.557C148.609 152.557 147.767 151.715 147.767 150.676C147.767 149.841 148.135 144.763 148.745 139.849C149.011 137.714 149.316 135.657 149.648 134.029C149.979 135.657 150.284 137.714 150.55 139.849C151.161 144.763 151.529 149.841 151.529 150.676Z" fill="black" stroke="black" stroke-width="3"/>
<path d="M162.615 148.234C161.351 148.843 159.696 149.504 157.955 150.129C156.075 150.804 154.137 151.421 152.562 151.868C151.773 152.091 151.088 152.269 150.553 152.389C150.285 152.449 150.065 152.492 149.897 152.52C149.737 152.546 149.662 152.551 149.649 152.552C149.647 152.552 149.647 152.552 149.648 152.552C148.61 152.552 147.768 151.711 147.767 150.674C147.768 149.636 148.61 148.795 149.648 148.795C150.101 148.795 151.125 148.722 152.368 148.633C152.598 148.616 152.835 148.599 153.077 148.582C154.684 148.468 156.634 148.337 158.52 148.263C160.026 148.205 161.452 148.185 162.615 148.234Z" fill="black" stroke="black" stroke-width="3"/>
<path d="M131 187L139 186L149 187V203H147L142.5 202.5L135 201L130 199L131 187Z" fill="#FE6500"/>
<path d="M129 205L132.5 201L135 202L139.5 203L141 203.253L149 204V208.5V219L139 218H138.5L134 217L130 216L127 215L129 205Z" fill="#FECF25"/>
<rect x="160" y="184" width="51" height="1" fill="black"/>
<rect x="89" y="116" width="47" height="1" fill="black"/>
<rect width="34" height="1" transform="matrix(1 0 0 -1 81 159)" fill="black"/>
<defs>
<filter id="filter0_d_265_219" x="75.6762" y="199.714" width="30.2857" height="30.2856" filterUnits="userSpaceOnUse" color-interpolation-filters="sRGB">
<feFlood flood-opacity="0" result="BackgroundImageFix"/>
<feColorMatrix in="SourceAlpha" type="matrix" values="0 0 0 0 0 0 0 0 0 0 0 0 0 0 0 0 0 0 127 0" result="hardAlpha"/>
<feOffset dy="4"/>
<feGaussianBlur stdDeviation="2.5"/>
<feComposite in2="hardAlpha" operator="out"/>
<feColorMatrix type="matrix" values="0 0 0 0 0 0 0 0 0 0 0 0 0 0 0 0 0 0 0.25 0"/>
<feBlend mode="normal" in2="BackgroundImageFix" result="effect1_dropShadow_265_219"/>
<feBlend mode="normal" in="SourceGraphic" in2="effect1_dropShadow_265_219" result="shape"/>
</filter>
<filter id="filter1_d_265_219" x="194.686" y="199.714" width="30.2857" height="30.2856" filterUnits="userSpaceOnUse" color-interpolation-filters="sRGB">
<feFlood flood-opacity="0" result="BackgroundImageFix"/>
<feColorMatrix in="SourceAlpha" type="matrix" values="0 0 0 0 0 0 0 0 0 0 0 0 0 0 0 0 0 0 127 0" result="hardAlpha"/>
<feOffset dy="4"/>
<feGaussianBlur stdDeviation="2.5"/>
<feComposite in2="hardAlpha" operator="out"/>
<feColorMatrix type="matrix" values="0 0 0 0 0 0 0 0 0 0 0 0 0 0 0 0 0 0 0.25 0"/>
<feBlend mode="normal" in2="BackgroundImageFix" result="effect1_dropShadow_265_219"/>
<feBlend mode="normal" in="SourceGraphic" in2="effect1_dropShadow_265_219" result="shape"/>
</filter>
<filter id="filter2_d_265_219" x="75.6762" y="78" width="30.2857" height="30.2856" filterUnits="userSpaceOnUse" color-interpolation-filters="sRGB">
<feFlood flood-opacity="0" result="BackgroundImageFix"/>
<feColorMatrix in="SourceAlpha" type="matrix" values="0 0 0 0 0 0 0 0 0 0 0 0 0 0 0 0 0 0 127 0" result="hardAlpha"/>
<feOffset dy="4"/>
<feGaussianBlur stdDeviation="2.5"/>
<feComposite in2="hardAlpha" operator="out"/>
<feColorMatrix type="matrix" values="0 0 0 0 0 0 0 0 0 0 0 0 0 0 0 0 0 0 0.25 0"/>
<feBlend mode="normal" in2="BackgroundImageFix" result="effect1_dropShadow_265_219"/>
<feBlend mode="normal" in="SourceGraphic" in2="effect1_dropShadow_265_219" result="shape"/>
</filter>
<filter id="filter3_d_265_219" x="194.686" y="78" width="30.2857" height="30.2856" filterUnits="userSpaceOnUse" color-interpolation-filters="sRGB">
<feFlood flood-opacity="0" result="BackgroundImageFix"/>
<feColorMatrix in="SourceAlpha" type="matrix" values="0 0 0 0 0 0 0 0 0 0 0 0 0 0 0 0 0 0 127 0" result="hardAlpha"/>
<feOffset dy="4"/>
<feGaussianBlur stdDeviation="2.5"/>
<feComposite in2="hardAlpha" operator="out"/>
<feColorMatrix type="matrix" values="0 0 0 0 0 0 0 0 0 0 0 0 0 0 0 0 0 0 0.25 0"/>
<feBlend mode="normal" in2="BackgroundImageFix" result="effect1_dropShadow_265_219"/>
<feBlend mode="normal" in="SourceGraphic" in2="effect1_dropShadow_265_219" result="shape"/>
</filter>
</defs>
</svg>
