<svg width="400" height="400" viewBox="0 0 400 400" fill="none" xmlns="http://www.w3.org/2000/svg">
<rect width="400" height="400" fill="white"/>
<path d="M332.206 77.5011L92 317.5H210.5C211.605 317.5 212.5 316.605 212.5 315.5L212.5 79.5005C212.5 78.3959 213.395 77.5005 214.5 77.5005L332.206 77.5011Z" stroke="#F96F18" stroke-width="10"/>
<path d="M58.083 99.4766H65.8174L81.4619 152.914L78.6494 161H75.9248L58.083 99.4766ZM79.5283 132.084L90.4268 99.4766H98.1611C97.6338 101.176 95.4365 107.973 91.5693 119.867C87.0576 133.695 84.4795 141.635 83.835 143.686H82.9561L79.5283 132.084ZM102.644 161V99.4766H110.29V161H102.644ZM114.685 134.369V127.426H122.683C128.894 127.309 132.028 123.852 132.087 117.055C131.97 110.082 128.425 106.566 121.452 106.508H114.685V99.4766H122.858C131.354 99.7695 136.599 103.314 138.591 110.111C139.177 112.045 139.47 114.154 139.47 116.439C139.411 123.236 137.39 128.012 133.405 130.766C136.804 132.582 138.854 135.893 139.558 140.697C139.616 141.107 139.675 141.518 139.733 141.928L141.228 161H134.021L132.702 145.355C132.233 140.316 130.944 137.094 128.835 135.688C127.429 134.75 125.524 134.311 123.122 134.369H114.685ZM147.116 161V99.4766H179.108V107.035H154.763V126.547H170.847V134.193H154.763V153.441H179.108V161H147.116ZM186.228 161V117.055H187.019L193.874 133.754V161H186.228ZM186.228 104.311V99.4766H192.468L212.683 148.432L227.097 115.824H227.976V132.875L215.583 161H209.782L186.228 104.311ZM232.37 161V99.4766H240.017V161H232.37Z" fill="#F96F18"/>
<path d="M184.832 291V247.055H185.623L192.479 263.754V291H184.832ZM184.832 234.311V229.477H191.072L211.287 278.432L225.701 245.824H226.58V262.875L214.188 291H208.387L184.832 234.311ZM230.975 291V229.477H238.621V291H230.975ZM245.916 291V229.477H277.908V237.035H253.562V256.547H269.646V264.193H253.562V283.441H277.908V291H245.916ZM285.027 291V242.924H285.73L292.674 254.174V291H285.027ZM285.027 234.398V229.477H291.619L324.139 281.596V291H320.359L285.027 234.398ZM316.492 261.645V229.477H324.139V272.895H323.436L316.492 261.645ZM331.521 291V229.477H339.168V291H331.521Z" fill="#F96F18"/>
<path d="M217.5 96H244L241.5 161L217.5 162V96Z" fill="white"/>
<path d="M182.5 234L189.5 227L207.5 230V294H182L182.5 234Z" fill="white"/>
<path d="M84 302H118V312.5H84V302Z" fill="white"/>
<path d="M307 82.5H341V93H307V82.5Z" fill="white"/>
</svg>
