<svg width="400" height="400" viewBox="0 0 400 400" fill="none" xmlns="http://www.w3.org/2000/svg">
<rect width="400" height="400" fill="black"/>
<path d="M318.206 78.5011L78 318.5H196.5C197.605 318.5 198.5 317.605 198.5 316.5L198.5 80.5005C198.5 79.3959 199.395 78.5005 200.5 78.5005L318.206 78.5011Z" stroke="#E87B37" stroke-width="10"/>
<path d="M46.2803 161V99.4766H53.9268V161H46.2803ZM58.3213 161.088V154.232H62.9795C66.3193 154.232 69.1318 153.559 71.417 152.211C74.7568 150.102 76.4268 146.996 76.4268 142.895C76.4268 141.898 76.3096 140.961 76.0752 140.082C74.9619 135.746 71.6514 133.578 66.1436 133.578H58.3213V126.723H66.1436C67.1396 126.723 68.0771 126.635 68.9561 126.459C73.8193 125.58 76.251 122.592 76.251 117.494C76.251 115.736 75.8408 114.037 75.0205 112.396C73.0283 108.354 69.542 106.332 64.5615 106.332H58.3213V99.4766H65.4404C70.6553 99.4766 74.9033 100.912 78.1846 103.783C81.9932 107.123 83.8975 111.547 83.8975 117.055C83.8975 117.816 83.8389 118.607 83.7217 119.428C83.1357 124.115 81.1729 127.689 77.833 130.15C81.9346 133.314 84.0146 137.709 84.0732 143.334C84.0732 147.143 83.0479 150.57 80.9971 153.617C77.5986 158.598 72.4717 161.088 65.6162 161.088H58.3213ZM90.9287 161V99.4766H98.5752V161H90.9287ZM102.97 133.49V126.02H111.319C117.12 125.961 120.079 122.738 120.196 116.352C120.138 110.141 117.149 106.977 111.231 106.859H102.97V99.4766H112.462C112.813 99.4766 113.165 99.4766 113.517 99.4766C123.185 100.004 128.019 105.629 128.019 116.352C128.019 119.574 127.638 122.357 126.876 124.701C124.942 130.502 120.138 133.432 112.462 133.49H102.97ZM133.204 161V99.4766H165.196V107.035H140.851V126.547H156.935V134.193H140.851V153.441H165.196V161H133.204ZM172.315 161V117.055H173.106L179.962 133.754V161H172.315ZM172.315 104.311V99.4766H178.556L198.771 148.432L213.185 115.824H214.063V132.875L201.671 161H195.87L172.315 104.311ZM218.458 161V99.4766H226.104V161H218.458Z" fill="#E87B37"/>
<path d="M171.973 291V247.055H172.764L179.619 263.754V291H171.973ZM171.973 234.311V229.477H178.213L198.428 278.432L212.842 245.824H213.721V262.875L201.328 291H195.527L171.973 234.311ZM218.115 291V229.477H225.762V291H218.115ZM233.057 291V229.477H265.049V237.035H240.703V256.547H256.787V264.193H240.703V283.441H265.049V291H233.057ZM271.992 291V229.477H279.639V256.283H287.549V263.754H279.639V291H271.992ZM291.943 263.754V256.283H299.766V229.477H307.5V291H299.766V263.754H291.943ZM314.18 274.037V229.477H321.914V274.037C321.914 277.904 323.936 280.805 327.979 282.738C329.443 283.441 330.674 283.793 331.67 283.793V291.439C328.271 291.439 324.873 290.238 321.475 287.836C316.67 284.379 314.238 279.779 314.18 274.037ZM336.064 291.439V283.793C337.998 283.793 339.99 283.002 342.041 281.42C344.502 279.486 345.762 277.025 345.82 274.037V229.477H353.467V274.037C353.467 280.6 350.537 285.551 344.678 288.891C341.689 290.59 338.818 291.439 336.064 291.439Z" fill="#E87B37"/>
<path d="M203.5 97H230L227.5 162L203.5 163V97Z" fill="black"/>
<path d="M168.5 235L175.5 228L193.5 231V295H168L168.5 235Z" fill="black"/>
<path d="M70 303H104V313.5H70V303Z" fill="black"/>
<path d="M293 83.5H327V94H293V83.5Z" fill="black"/>
<path d="M311 229H355V292H311V229Z" fill="black"/>
<path d="M354.056 291V242.924H353.353L346.409 254.174V291H354.056ZM354.056 234.398V229.477H347.464L314.944 281.596V291H318.724L354.056 234.398ZM322.591 261.645V229.477H314.944V272.895H315.647L322.591 261.645Z" fill="#E87B37"/>
</svg>
