<svg width="300" height="300" viewBox="0 0 300 300" fill="none" xmlns="http://www.w3.org/2000/svg">
<rect width="300" height="300" fill="#EFEFEF"/>
<circle cx="150.5" cy="149.5" r="70" fill="#FECF25" stroke="black"/>
<circle cx="150.324" cy="150.676" r="52.919" fill="#FE6500" stroke="black"/>
<circle cx="149.31" cy="150.338" r="35.8524" fill="#EFEFEF" stroke="black" stroke-width="2"/>
<circle cx="149.648" cy="150.676" r="1.88095" fill="#EFEFEF" stroke="black" stroke-width="3"/>
<rect x="148.971" y="114.838" width="2.02857" height="4.73333" fill="black"/>
<rect x="149.471" y="79.5" width="1.02857" height="39.5714" stroke="black"/>
<rect x="184.81" y="149.324" width="2.02857" height="4.73333" transform="rotate(90 184.81 149.324)" fill="black"/>
<rect x="220.148" y="149.824" width="1.02857" height="39.5714" transform="rotate(90 220.148 149.824)" stroke="black"/>
<rect x="151" y="185.838" width="2.02857" height="4.73333" transform="rotate(180 151 185.838)" fill="black"/>
<rect x="150.5" y="219.147" width="1.02857" height="37.5429" transform="rotate(180 150.5 219.147)" stroke="black"/>
<rect x="113.81" y="151.353" width="2.02857" height="4.73333" transform="rotate(-90 113.81 151.353)" fill="black"/>
<rect x="80.5" y="150.853" width="1.02857" height="37.5429" transform="rotate(-90 80.5 150.853)" stroke="black"/>
<g filter="url(#filter0_d_300_195)">
<circle cx="90.819" cy="210.857" r="10.1429" fill="#3BC4C0"/>
</g>
<g filter="url(#filter1_d_300_195)">
<circle cx="209.829" cy="210.857" r="9.64286" stroke="black" shape-rendering="crispEdges"/>
</g>
<g filter="url(#filter2_d_300_195)">
<circle cx="90.819" cy="89.1429" r="10.1429" fill="#FBAD0B"/>
</g>
<g filter="url(#filter3_d_300_195)">
<circle cx="209.829" cy="89.1429" r="10.1429" fill="#F88400"/>
</g>
<rect x="36" y="117" width="110" height="41" fill="#EFEFEF"/>
<rect x="151" y="187" width="110" height="35" fill="#EFEFEF"/>
<path d="M161.818 185H241V220H168L153 187L156.5 186.5L158.5 186L161.818 185Z" fill="#EFEFEF"/>
<path d="M134.977 191.539H144.742L151.029 203.465L156.986 191.539H166.227V195.445H163.785V210.094H166.227V214H154.508V210.094H156.949V200.292L151.09 212.035L148.282 212.047L141.324 198.863V210.094H143.766V214H134.977V210.094H137.418V195.445H134.977V191.539ZM179.874 214.635C178.271 214.635 176.753 214.354 175.321 213.792C173.897 213.231 172.656 212.45 171.598 211.449C170.548 210.44 169.714 209.199 169.095 207.726C168.485 206.253 168.18 204.649 168.18 202.916C168.18 201.183 168.485 199.571 169.095 198.082C169.714 196.593 170.548 195.34 171.598 194.322C172.656 193.297 173.897 192.495 175.321 191.917C176.753 191.34 178.271 191.051 179.874 191.051C181.477 191.051 182.991 191.34 184.415 191.917C185.847 192.495 187.088 193.297 188.138 194.322C189.196 195.34 190.03 196.593 190.641 198.082C191.259 199.571 191.568 201.183 191.568 202.916L191.263 204.234H175.479C175.553 205.178 175.707 206.021 175.943 206.761C176.179 207.502 176.464 208.108 176.798 208.58C177.14 209.052 177.534 209.443 177.982 209.752C178.43 210.053 178.889 210.269 179.361 210.399C179.833 210.521 180.338 210.582 180.875 210.582C182.592 210.582 183.931 210.252 184.891 209.593C185.86 208.926 186.633 207.901 187.21 206.517L190.458 207.64C190.165 208.43 189.79 209.174 189.334 209.874C188.887 210.566 188.346 211.205 187.711 211.791C187.076 212.376 186.368 212.881 185.587 213.304C184.814 213.719 183.939 214.045 182.962 214.281C181.986 214.517 180.956 214.635 179.874 214.635ZM175.565 200.328H184.183C183.972 198.456 183.504 197.093 182.779 196.239C182.055 195.384 181.095 194.957 179.898 194.957C179.304 194.957 178.771 195.055 178.299 195.25C177.827 195.437 177.404 195.742 177.03 196.166C176.655 196.581 176.342 197.138 176.09 197.838C175.846 198.53 175.671 199.36 175.565 200.328ZM207.926 214V210.094H210.367V204.234H203.043V210.094H205.484V214H193.766V210.094H196.207V195.445H193.766V191.539H205.484V195.445H203.043V200.328H210.367V195.445H207.926V191.539H219.645V195.445H217.203V210.094H219.645V214H207.926ZM236.002 214V210.094H238.443V200.755L230.802 214H221.842V210.094H224.283V195.445H221.842V191.539H233.561V195.445H231.119V205.626L239.249 191.539H247.721V195.445H245.279V210.094H247.721V214H236.002Z" fill="black"/>
<path d="M49.4648 118.727H62.1602C65.1143 118.727 67.4295 118.82 69.106 119.007C70.7905 119.194 72.1007 119.487 73.0366 119.886C73.9806 120.277 74.8473 120.867 75.6367 121.656C76.3447 122.364 76.8778 123.255 77.2358 124.33C77.6021 125.396 77.7852 126.539 77.7852 127.76C77.7852 128.964 77.3783 130.156 76.5645 131.336C75.7507 132.516 74.6276 133.566 73.1953 134.486C74.8636 135.023 76.125 135.796 76.9795 136.805C77.8421 137.806 78.2734 139.104 78.2734 140.699C78.2734 143.425 77.362 145.513 75.5391 146.961C75.1403 147.279 74.7375 147.547 74.3306 147.767C73.9237 147.987 73.4272 148.174 72.8413 148.329C72.2554 148.483 71.6735 148.605 71.0957 148.695C70.5179 148.776 69.7407 148.841 68.7642 148.89C67.7876 148.939 66.8273 148.972 65.8833 148.988C64.9474 148.996 63.7064 149 62.1602 149H49.4648V145.094H53.3711V122.633H49.4648V118.727ZM61.1836 122.633V133.375H63.1367C67.043 133.375 68.9961 131.585 68.9961 128.004C68.9961 127.231 68.9554 126.576 68.874 126.039C68.7926 125.493 68.6462 124.993 68.4346 124.537C68.2311 124.081 67.9463 123.723 67.5801 123.463C67.2139 123.194 66.7459 122.991 66.1763 122.853C65.6066 122.706 64.9189 122.633 64.1133 122.633H61.1836ZM61.1836 137.281V145.094H64.1133C66.0745 145.094 67.458 144.805 68.2637 144.227C69.0775 143.649 69.4844 142.636 69.4844 141.188C69.4844 140.195 69.2809 139.422 68.874 138.868C68.4753 138.307 67.8242 137.904 66.9209 137.66C66.0176 137.407 64.7562 137.281 63.1367 137.281H61.1836ZM96.6206 125.978C98.5249 125.978 100.14 126.466 101.467 127.442C102.793 128.419 103.778 129.782 104.421 131.532C105.072 133.281 105.397 135.365 105.397 137.782C105.397 139.548 105.166 141.163 104.702 142.628C104.246 144.093 103.603 145.33 102.773 146.339C101.951 147.34 100.954 148.117 99.7822 148.67C98.6185 149.216 97.3408 149.488 95.9492 149.488C95.2493 149.488 94.5902 149.423 93.9717 149.293C93.3532 149.171 92.8242 149.016 92.3848 148.829C91.9535 148.642 91.5425 148.41 91.1519 148.133C90.7612 147.857 90.4438 147.596 90.1997 147.352C89.9637 147.108 89.7318 146.835 89.5039 146.534V152.906H91.9453V156.812H80.2266V152.906H82.668V130.445H80.2266V126.539H87.4775L88.9546 129.383C89.272 128.936 89.6341 128.529 90.041 128.163C91.6523 126.706 93.8455 125.978 96.6206 125.978ZM89.5039 142.396C90.4316 144.105 91.693 144.959 93.2881 144.959C94.8994 144.959 96.0957 144.329 96.877 143.067C97.6663 141.806 98.061 140.016 98.061 137.696C98.061 136.606 97.9308 135.601 97.6704 134.681C97.4181 133.753 97.0763 132.984 96.645 132.374C96.2218 131.764 95.7336 131.292 95.1802 130.958C94.6268 130.616 94.049 130.445 93.4468 130.445C92.633 130.445 91.9087 130.673 91.2739 131.129C90.6473 131.576 90.0573 132.244 89.5039 133.131V142.396ZM119.558 149.635C117.954 149.635 116.437 149.354 115.004 148.792C113.58 148.231 112.339 147.45 111.281 146.449C110.231 145.44 109.397 144.199 108.779 142.726C108.168 141.253 107.863 139.649 107.863 137.916C107.863 136.183 108.168 134.571 108.779 133.082C109.397 131.593 110.231 130.34 111.281 129.322C112.339 128.297 113.58 127.495 115.004 126.917C116.437 126.34 117.954 126.051 119.558 126.051C121.161 126.051 122.674 126.34 124.099 126.917C125.531 127.495 126.772 128.297 127.822 129.322C128.88 130.34 129.714 131.593 130.324 133.082C130.943 134.571 131.252 136.183 131.252 137.916L130.947 139.234H115.163C115.236 140.178 115.391 141.021 115.627 141.761C115.863 142.502 116.148 143.108 116.481 143.58C116.823 144.052 117.218 144.443 117.666 144.752C118.113 145.053 118.573 145.269 119.045 145.399C119.517 145.521 120.021 145.582 120.559 145.582C122.276 145.582 123.614 145.252 124.575 144.593C125.543 143.926 126.316 142.901 126.894 141.517L130.141 142.64C129.848 143.43 129.474 144.174 129.018 144.874C128.57 145.566 128.029 146.205 127.395 146.791C126.76 147.376 126.052 147.881 125.271 148.304C124.497 148.719 123.623 149.045 122.646 149.281C121.669 149.517 120.64 149.635 119.558 149.635ZM115.249 135.328H123.867C123.655 133.456 123.187 132.093 122.463 131.239C121.739 130.384 120.778 129.957 119.582 129.957C118.988 129.957 118.455 130.055 117.983 130.25C117.511 130.437 117.088 130.742 116.713 131.166C116.339 131.581 116.026 132.138 115.773 132.838C115.529 133.53 115.354 134.36 115.249 135.328ZM133.449 126.539H143.215L149.501 138.465L155.458 126.539H164.699V130.445H162.258V145.094H164.699V149H152.98V145.094H155.422V135.292L149.562 147.035L146.755 147.047L139.797 133.863V145.094H142.238V149H133.449V145.094H135.891V130.445H133.449V126.539Z" fill="black"/>
<rect x="151" y="125" width="21" height="36" fill="#EFEFEF"/>
<path d="M151.529 150.676C151.529 151.715 150.686 152.557 149.648 152.557C148.609 152.557 147.767 151.715 147.767 150.676C147.767 149.841 148.135 144.763 148.745 139.849C149.011 137.714 149.316 135.657 149.648 134.029C149.979 135.657 150.284 137.714 150.55 139.849C151.161 144.763 151.529 149.841 151.529 150.676Z" fill="black" stroke="black" stroke-width="3"/>
<path d="M162.615 148.234C161.351 148.843 159.696 149.504 157.955 150.129C156.075 150.804 154.137 151.421 152.562 151.868C151.773 152.091 151.088 152.269 150.553 152.389C150.285 152.449 150.065 152.492 149.897 152.52C149.737 152.546 149.662 152.551 149.649 152.552C149.647 152.552 149.647 152.552 149.648 152.552C148.61 152.552 147.768 151.711 147.767 150.674C147.768 149.636 148.61 148.795 149.648 148.795C150.101 148.795 151.125 148.722 152.368 148.633C152.598 148.616 152.835 148.599 153.077 148.582C154.684 148.468 156.634 148.337 158.52 148.263C160.026 148.205 161.452 148.185 162.615 148.234Z" fill="black" stroke="black" stroke-width="3"/>
<path d="M131 187L139 186L149 187V203H147L142.5 202.5L135 201L130 199L131 187Z" fill="#FE6500"/>
<path d="M129 205L132.5 201L135 202L139.5 203L141 203.253L149 204V208.5V219L139 218H138.5L134 217L130 216L127 215L129 205Z" fill="#FECF25"/>
<rect x="160" y="184" width="51" height="1" fill="black"/>
<rect x="89" y="116" width="47" height="1" fill="black"/>
<rect width="34" height="1" transform="matrix(1 0 0 -1 81 159)" fill="black"/>
<defs>
<filter id="filter0_d_300_195" x="75.6762" y="199.714" width="30.2857" height="30.2856" filterUnits="userSpaceOnUse" color-interpolation-filters="sRGB">
<feFlood flood-opacity="0" result="BackgroundImageFix"/>
<feColorMatrix in="SourceAlpha" type="matrix" values="0 0 0 0 0 0 0 0 0 0 0 0 0 0 0 0 0 0 127 0" result="hardAlpha"/>
<feOffset dy="4"/>
<feGaussianBlur stdDeviation="2.5"/>
<feComposite in2="hardAlpha" operator="out"/>
<feColorMatrix type="matrix" values="0 0 0 0 0 0 0 0 0 0 0 0 0 0 0 0 0 0 0.25 0"/>
<feBlend mode="normal" in2="BackgroundImageFix" result="effect1_dropShadow_300_195"/>
<feBlend mode="normal" in="SourceGraphic" in2="effect1_dropShadow_300_195" result="shape"/>
</filter>
<filter id="filter1_d_300_195" x="194.686" y="199.714" width="30.2857" height="30.2856" filterUnits="userSpaceOnUse" color-interpolation-filters="sRGB">
<feFlood flood-opacity="0" result="BackgroundImageFix"/>
<feColorMatrix in="SourceAlpha" type="matrix" values="0 0 0 0 0 0 0 0 0 0 0 0 0 0 0 0 0 0 127 0" result="hardAlpha"/>
<feOffset dy="4"/>
<feGaussianBlur stdDeviation="2.5"/>
<feComposite in2="hardAlpha" operator="out"/>
<feColorMatrix type="matrix" values="0 0 0 0 0 0 0 0 0 0 0 0 0 0 0 0 0 0 0.25 0"/>
<feBlend mode="normal" in2="BackgroundImageFix" result="effect1_dropShadow_300_195"/>
<feBlend mode="normal" in="SourceGraphic" in2="effect1_dropShadow_300_195" result="shape"/>
</filter>
<filter id="filter2_d_300_195" x="75.6762" y="78" width="30.2857" height="30.2856" filterUnits="userSpaceOnUse" color-interpolation-filters="sRGB">
<feFlood flood-opacity="0" result="BackgroundImageFix"/>
<feColorMatrix in="SourceAlpha" type="matrix" values="0 0 0 0 0 0 0 0 0 0 0 0 0 0 0 0 0 0 127 0" result="hardAlpha"/>
<feOffset dy="4"/>
<feGaussianBlur stdDeviation="2.5"/>
<feComposite in2="hardAlpha" operator="out"/>
<feColorMatrix type="matrix" values="0 0 0 0 0 0 0 0 0 0 0 0 0 0 0 0 0 0 0.25 0"/>
<feBlend mode="normal" in2="BackgroundImageFix" result="effect1_dropShadow_300_195"/>
<feBlend mode="normal" in="SourceGraphic" in2="effect1_dropShadow_300_195" result="shape"/>
</filter>
<filter id="filter3_d_300_195" x="194.686" y="78" width="30.2857" height="30.2856" filterUnits="userSpaceOnUse" color-interpolation-filters="sRGB">
<feFlood flood-opacity="0" result="BackgroundImageFix"/>
<feColorMatrix in="SourceAlpha" type="matrix" values="0 0 0 0 0 0 0 0 0 0 0 0 0 0 0 0 0 0 127 0" result="hardAlpha"/>
<feOffset dy="4"/>
<feGaussianBlur stdDeviation="2.5"/>
<feComposite in2="hardAlpha" operator="out"/>
<feColorMatrix type="matrix" values="0 0 0 0 0 0 0 0 0 0 0 0 0 0 0 0 0 0 0.25 0"/>
<feBlend mode="normal" in2="BackgroundImageFix" result="effect1_dropShadow_300_195"/>
<feBlend mode="normal" in="SourceGraphic" in2="effect1_dropShadow_300_195" result="shape"/>
</filter>
</defs>
</svg>
