<svg width="300" height="300" viewBox="0 0 300 300" fill="none" xmlns="http://www.w3.org/2000/svg">
<rect width="300" height="300" fill="#312F3C"/>
<circle cx="150.5" cy="149.5" r="70" fill="#FECF25" stroke="#D9D9D9"/>
<circle cx="150.324" cy="150.676" r="52.919" fill="#FE6500" stroke="#D9D9D9"/>
<circle cx="149.31" cy="150.338" r="35.8524" fill="#312F3C" stroke="#D9D9D9" stroke-width="2"/>
<circle cx="149.648" cy="150.676" r="1.88095" fill="white" stroke="#D9D9D9" stroke-width="3"/>
<rect x="148.971" y="114.838" width="2.02857" height="4.73333" fill="#D9D9D9"/>
<rect x="149.471" y="79.5" width="1.02857" height="39.5714" stroke="#D9D9D9"/>
<rect x="184.81" y="149.324" width="2.02857" height="4.73333" transform="rotate(90 184.81 149.324)" fill="#D9D9D9"/>
<rect x="220.148" y="149.824" width="1.02857" height="39.5714" transform="rotate(90 220.148 149.824)" stroke="#D9D9D9"/>
<rect x="151" y="185.838" width="2.02857" height="4.73333" transform="rotate(180 151 185.838)" fill="#D9D9D9"/>
<rect x="150.5" y="219.147" width="1.02857" height="37.5429" transform="rotate(180 150.5 219.147)" stroke="#D9D9D9"/>
<rect x="113.81" y="151.353" width="2.02857" height="4.73333" transform="rotate(-90 113.81 151.353)" fill="#D9D9D9"/>
<rect x="80.5" y="150.853" width="1.02857" height="37.5429" transform="rotate(-90 80.5 150.853)" stroke="#D9D9D9"/>
<g filter="url(#filter0_d_270_141)">
<circle cx="90.819" cy="210.857" r="10.1429" fill="#3BC4C0"/>
</g>
<g filter="url(#filter1_d_270_141)">
<circle cx="209.829" cy="210.857" r="9.64286" stroke="#D9D9D9" shape-rendering="crispEdges"/>
</g>
<g filter="url(#filter2_d_270_141)">
<circle cx="90.819" cy="89.1429" r="10.1429" fill="#FBAD0B"/>
</g>
<g filter="url(#filter3_d_270_141)">
<circle cx="209.829" cy="89.1429" r="10.1429" fill="#F88400"/>
</g>
<rect x="36" y="117" width="110" height="41" fill="#312F3C"/>
<rect x="151" y="187" width="110" height="35" fill="#312F3C"/>
<path d="M161.818 185H241V220H168L153 187L156.5 186.5L158.5 186L161.818 185Z" fill="#312F3C"/>
<path d="M50.4648 117.727H63.1602C66.1143 117.727 68.4295 117.82 70.106 118.007C71.7905 118.194 73.1007 118.487 74.0366 118.886C74.9806 119.277 75.8473 119.867 76.6367 120.656C77.3447 121.364 77.8778 122.255 78.2358 123.33C78.6021 124.396 78.7852 125.539 78.7852 126.76C78.7852 127.964 78.3783 129.156 77.5645 130.336C76.7507 131.516 75.6276 132.566 74.1953 133.486C75.8636 134.023 77.125 134.796 77.9795 135.805C78.8421 136.806 79.2734 138.104 79.2734 139.699C79.2734 142.425 78.362 144.513 76.5391 145.961C76.1403 146.279 75.7375 146.547 75.3306 146.767C74.9237 146.987 74.4272 147.174 73.8413 147.329C73.2554 147.483 72.6735 147.605 72.0957 147.695C71.5179 147.776 70.7407 147.841 69.7642 147.89C68.7876 147.939 67.8273 147.972 66.8833 147.988C65.9474 147.996 64.7064 148 63.1602 148H50.4648V144.094H54.3711V121.633H50.4648V117.727ZM62.1836 121.633V132.375H64.1367C68.043 132.375 69.9961 130.585 69.9961 127.004C69.9961 126.231 69.9554 125.576 69.874 125.039C69.7926 124.493 69.6462 123.993 69.4346 123.537C69.2311 123.081 68.9463 122.723 68.5801 122.463C68.2139 122.194 67.7459 121.991 67.1763 121.853C66.6066 121.706 65.9189 121.633 65.1133 121.633H62.1836ZM62.1836 136.281V144.094H65.1133C67.0745 144.094 68.458 143.805 69.2637 143.227C70.0775 142.649 70.4844 141.636 70.4844 140.188C70.4844 139.195 70.2809 138.422 69.874 137.868C69.4753 137.307 68.8242 136.904 67.9209 136.66C67.0176 136.407 65.7562 136.281 64.1367 136.281H62.1836ZM97.6206 124.978C99.5249 124.978 101.14 125.466 102.467 126.442C103.793 127.419 104.778 128.782 105.421 130.532C106.072 132.281 106.397 134.365 106.397 136.782C106.397 138.548 106.166 140.163 105.702 141.628C105.246 143.093 104.603 144.33 103.773 145.339C102.951 146.34 101.954 147.117 100.782 147.67C99.6185 148.216 98.3408 148.488 96.9492 148.488C96.2493 148.488 95.5902 148.423 94.9717 148.293C94.3532 148.171 93.8242 148.016 93.3848 147.829C92.9535 147.642 92.5425 147.41 92.1519 147.133C91.7612 146.857 91.4438 146.596 91.1997 146.352C90.9637 146.108 90.7318 145.835 90.5039 145.534V151.906H92.9453V155.812H81.2266V151.906H83.668V129.445H81.2266V125.539H88.4775L89.9546 128.383C90.272 127.936 90.6341 127.529 91.041 127.163C92.6523 125.706 94.8455 124.978 97.6206 124.978ZM90.5039 141.396C91.4316 143.105 92.693 143.959 94.2881 143.959C95.8994 143.959 97.0957 143.329 97.877 142.067C98.6663 140.806 99.061 139.016 99.061 136.696C99.061 135.606 98.9308 134.601 98.6704 133.681C98.4181 132.753 98.0763 131.984 97.645 131.374C97.2218 130.764 96.7336 130.292 96.1802 129.958C95.6268 129.616 95.049 129.445 94.4468 129.445C93.633 129.445 92.9087 129.673 92.2739 130.129C91.6473 130.576 91.0573 131.244 90.5039 132.131V141.396ZM120.558 148.635C118.954 148.635 117.437 148.354 116.004 147.792C114.58 147.231 113.339 146.45 112.281 145.449C111.231 144.44 110.397 143.199 109.779 141.726C109.168 140.253 108.863 138.649 108.863 136.916C108.863 135.183 109.168 133.571 109.779 132.082C110.397 130.593 111.231 129.34 112.281 128.322C113.339 127.297 114.58 126.495 116.004 125.917C117.437 125.34 118.954 125.051 120.558 125.051C122.161 125.051 123.674 125.34 125.099 125.917C126.531 126.495 127.772 127.297 128.822 128.322C129.88 129.34 130.714 130.593 131.324 132.082C131.943 133.571 132.252 135.183 132.252 136.916L131.947 138.234H116.163C116.236 139.178 116.391 140.021 116.627 140.761C116.863 141.502 117.148 142.108 117.481 142.58C117.823 143.052 118.218 143.443 118.666 143.752C119.113 144.053 119.573 144.269 120.045 144.399C120.517 144.521 121.021 144.582 121.559 144.582C123.276 144.582 124.614 144.252 125.575 143.593C126.543 142.926 127.316 141.901 127.894 140.517L131.141 141.64C130.848 142.43 130.474 143.174 130.018 143.874C129.57 144.566 129.029 145.205 128.395 145.791C127.76 146.376 127.052 146.881 126.271 147.304C125.497 147.719 124.623 148.045 123.646 148.281C122.669 148.517 121.64 148.635 120.558 148.635ZM116.249 134.328H124.867C124.655 132.456 124.187 131.093 123.463 130.239C122.739 129.384 121.778 128.957 120.582 128.957C119.988 128.957 119.455 129.055 118.983 129.25C118.511 129.437 118.088 129.742 117.713 130.166C117.339 130.581 117.026 131.138 116.773 131.838C116.529 132.53 116.354 133.36 116.249 134.328ZM134.449 125.539H144.215L150.501 137.465L156.458 125.539H165.699V129.445H163.258V144.094H165.699V148H153.98V144.094H156.422V134.292L150.562 146.035L147.755 146.047L140.797 132.863V144.094H143.238V148H134.449V144.094H136.891V129.445H134.449V125.539Z" fill="#D9D9D9"/>
<path d="M134.977 191.539H144.742L151.029 203.465L156.986 191.539H166.227V195.445H163.785V210.094H166.227V214H154.508V210.094H156.949V200.292L151.09 212.035L148.282 212.047L141.324 198.863V210.094H143.766V214H134.977V210.094H137.418V195.445H134.977V191.539ZM179.874 214.635C178.271 214.635 176.753 214.354 175.321 213.792C173.897 213.231 172.656 212.45 171.598 211.449C170.548 210.44 169.714 209.199 169.095 207.726C168.485 206.253 168.18 204.649 168.18 202.916C168.18 201.183 168.485 199.571 169.095 198.082C169.714 196.593 170.548 195.34 171.598 194.322C172.656 193.297 173.897 192.495 175.321 191.917C176.753 191.34 178.271 191.051 179.874 191.051C181.477 191.051 182.991 191.34 184.415 191.917C185.847 192.495 187.088 193.297 188.138 194.322C189.196 195.34 190.03 196.593 190.641 198.082C191.259 199.571 191.568 201.183 191.568 202.916L191.263 204.234H175.479C175.553 205.178 175.707 206.021 175.943 206.761C176.179 207.502 176.464 208.108 176.798 208.58C177.14 209.052 177.534 209.443 177.982 209.752C178.43 210.053 178.889 210.269 179.361 210.399C179.833 210.521 180.338 210.582 180.875 210.582C182.592 210.582 183.931 210.252 184.891 209.593C185.86 208.926 186.633 207.901 187.21 206.517L190.458 207.64C190.165 208.43 189.79 209.174 189.334 209.874C188.887 210.566 188.346 211.205 187.711 211.791C187.076 212.376 186.368 212.881 185.587 213.304C184.814 213.719 183.939 214.045 182.962 214.281C181.986 214.517 180.956 214.635 179.874 214.635ZM175.565 200.328H184.183C183.972 198.456 183.504 197.093 182.779 196.239C182.055 195.384 181.095 194.957 179.898 194.957C179.304 194.957 178.771 195.055 178.299 195.25C177.827 195.437 177.404 195.742 177.03 196.166C176.655 196.581 176.342 197.138 176.09 197.838C175.846 198.53 175.671 199.36 175.565 200.328ZM207.926 214V210.094H210.367V204.234H203.043V210.094H205.484V214H193.766V210.094H196.207V195.445H193.766V191.539H205.484V195.445H203.043V200.328H210.367V195.445H207.926V191.539H219.645V195.445H217.203V210.094H219.645V214H207.926ZM236.002 214V210.094H238.443V200.755L230.802 214H221.842V210.094H224.283V195.445H221.842V191.539H233.561V195.445H231.119V205.626L239.249 191.539H247.721V195.445H245.279V210.094H247.721V214H236.002Z" fill="#D9D9D9"/>
<rect x="151" y="125" width="21" height="36" fill="#312F3C"/>
<path d="M151.529 150.676C151.529 151.715 150.686 152.557 149.648 152.557C148.609 152.557 147.767 151.715 147.767 150.676C147.767 149.841 148.135 144.763 148.745 139.849C149.011 137.714 149.316 135.657 149.648 134.029C149.979 135.657 150.284 137.714 150.55 139.849C151.161 144.763 151.529 149.841 151.529 150.676Z" fill="#D9D9D9" stroke="#D9D9D9" stroke-width="3"/>
<path d="M162.615 148.234C161.351 148.843 159.696 149.504 157.955 150.129C156.075 150.804 154.137 151.421 152.562 151.868C151.773 152.091 151.088 152.269 150.553 152.389C150.285 152.449 150.065 152.492 149.897 152.52C149.737 152.546 149.662 152.551 149.649 152.552C149.647 152.552 149.647 152.552 149.648 152.552C148.61 152.552 147.768 151.711 147.767 150.674C147.768 149.636 148.61 148.795 149.648 148.795C150.101 148.795 151.125 148.722 152.368 148.633C152.598 148.616 152.835 148.599 153.077 148.582C154.684 148.468 156.634 148.337 158.52 148.263C160.026 148.205 161.452 148.185 162.615 148.234Z" fill="#D9D9D9" stroke="#D9D9D9" stroke-width="3"/>
<path d="M131 187L139 186L149 187V203H147L142.5 202.5L135 201L130 199L131 187Z" fill="#FE6500"/>
<path d="M129 205L132.5 201L135 202L139.5 203L141 203.253L149 204V208.5V219L139 218H138.5L134 217L130 216L127 215L129 205Z" fill="#FECF25"/>
<rect x="160" y="184" width="51" height="1" fill="#D9D9D9"/>
<rect x="89" y="116" width="47" height="1" fill="#D9D9D9"/>
<rect width="34" height="1" transform="matrix(1 0 0 -1 81 159)" fill="#D9D9D9"/>
<defs>
<filter id="filter0_d_270_141" x="75.6762" y="199.714" width="30.2857" height="30.2856" filterUnits="userSpaceOnUse" color-interpolation-filters="sRGB">
<feFlood flood-opacity="0" result="BackgroundImageFix"/>
<feColorMatrix in="SourceAlpha" type="matrix" values="0 0 0 0 0 0 0 0 0 0 0 0 0 0 0 0 0 0 127 0" result="hardAlpha"/>
<feOffset dy="4"/>
<feGaussianBlur stdDeviation="2.5"/>
<feComposite in2="hardAlpha" operator="out"/>
<feColorMatrix type="matrix" values="0 0 0 0 0 0 0 0 0 0 0 0 0 0 0 0 0 0 0.25 0"/>
<feBlend mode="normal" in2="BackgroundImageFix" result="effect1_dropShadow_270_141"/>
<feBlend mode="normal" in="SourceGraphic" in2="effect1_dropShadow_270_141" result="shape"/>
</filter>
<filter id="filter1_d_270_141" x="194.686" y="199.714" width="30.2857" height="30.2856" filterUnits="userSpaceOnUse" color-interpolation-filters="sRGB">
<feFlood flood-opacity="0" result="BackgroundImageFix"/>
<feColorMatrix in="SourceAlpha" type="matrix" values="0 0 0 0 0 0 0 0 0 0 0 0 0 0 0 0 0 0 127 0" result="hardAlpha"/>
<feOffset dy="4"/>
<feGaussianBlur stdDeviation="2.5"/>
<feComposite in2="hardAlpha" operator="out"/>
<feColorMatrix type="matrix" values="0 0 0 0 0 0 0 0 0 0 0 0 0 0 0 0 0 0 0.25 0"/>
<feBlend mode="normal" in2="BackgroundImageFix" result="effect1_dropShadow_270_141"/>
<feBlend mode="normal" in="SourceGraphic" in2="effect1_dropShadow_270_141" result="shape"/>
</filter>
<filter id="filter2_d_270_141" x="75.6762" y="78" width="30.2857" height="30.2856" filterUnits="userSpaceOnUse" color-interpolation-filters="sRGB">
<feFlood flood-opacity="0" result="BackgroundImageFix"/>
<feColorMatrix in="SourceAlpha" type="matrix" values="0 0 0 0 0 0 0 0 0 0 0 0 0 0 0 0 0 0 127 0" result="hardAlpha"/>
<feOffset dy="4"/>
<feGaussianBlur stdDeviation="2.5"/>
<feComposite in2="hardAlpha" operator="out"/>
<feColorMatrix type="matrix" values="0 0 0 0 0 0 0 0 0 0 0 0 0 0 0 0 0 0 0.25 0"/>
<feBlend mode="normal" in2="BackgroundImageFix" result="effect1_dropShadow_270_141"/>
<feBlend mode="normal" in="SourceGraphic" in2="effect1_dropShadow_270_141" result="shape"/>
</filter>
<filter id="filter3_d_270_141" x="194.686" y="78" width="30.2857" height="30.2856" filterUnits="userSpaceOnUse" color-interpolation-filters="sRGB">
<feFlood flood-opacity="0" result="BackgroundImageFix"/>
<feColorMatrix in="SourceAlpha" type="matrix" values="0 0 0 0 0 0 0 0 0 0 0 0 0 0 0 0 0 0 127 0" result="hardAlpha"/>
<feOffset dy="4"/>
<feGaussianBlur stdDeviation="2.5"/>
<feComposite in2="hardAlpha" operator="out"/>
<feColorMatrix type="matrix" values="0 0 0 0 0 0 0 0 0 0 0 0 0 0 0 0 0 0 0.25 0"/>
<feBlend mode="normal" in2="BackgroundImageFix" result="effect1_dropShadow_270_141"/>
<feBlend mode="normal" in="SourceGraphic" in2="effect1_dropShadow_270_141" result="shape"/>
</filter>
</defs>
</svg>
