<svg width="300" height="300" viewBox="0 0 300 300" fill="none" xmlns="http://www.w3.org/2000/svg">
<g clip-path="url(#clip0_912_655)">
<path d="M300 0H0V300H300V0Z" fill="#FF7951"/>
<path d="M267.188 150C267.188 85.2774 214.723 32.8125 150 32.8125C85.2774 32.8125 32.8125 85.2774 32.8125 150C32.8125 214.723 85.2774 267.188 150 267.188C214.723 267.188 267.188 214.723 267.188 150Z" stroke="white" stroke-width="14.6485"/>
<path d="M143.555 0H156.152V28.7109H143.555V0Z" fill="white"/>
<path d="M143.555 271.289H156.152V300H143.555V271.289Z" fill="white"/>
<path d="M110.75 95.6055C112.742 97.0742 114.734 98.1758 116.727 98.9102C118.824 99.5391 120.715 99.9609 122.395 100.172C124.281 100.484 126.168 100.539 128.059 100.328C129.84 100.117 131.676 99.4883 133.566 98.4375C135.453 97.3906 137.656 96.2891 140.176 95.1367C142.691 93.9805 145.629 92.9844 148.984 92.1445C152.449 91.1992 156.59 90.7305 161.418 90.7305C163.516 90.7305 165.719 91.1484 168.027 91.9883C170.437 92.8281 172.746 93.9297 174.949 95.293C177.152 96.5508 179.145 97.9688 180.93 99.5391C182.816 101.113 184.234 102.687 185.18 104.262C186.227 105.836 186.961 108.406 187.383 111.973C187.801 115.434 187.957 119.211 187.852 123.301C187.75 127.395 187.383 131.43 186.75 135.418C186.227 139.402 185.441 142.656 184.391 145.176C183.133 147.379 180.719 150.211 177.152 153.672C174.109 156.609 169.547 160.387 163.461 165C157.379 169.617 149.195 175.125 138.914 181.523C145 181.418 150.086 181.262 154.18 181.051C158.375 180.738 161.785 180.422 164.406 180.105C167.449 179.687 169.863 179.27 171.645 178.848C173.219 178.219 174.898 177.328 176.68 176.172C178.148 175.125 179.723 173.762 181.402 172.082C183.184 170.402 184.914 168.199 186.594 165.473C186.91 171.137 187.223 175.598 187.539 178.848C187.75 180.738 187.906 182.363 188.012 183.727C188.117 184.984 188.219 186.453 188.324 188.133C188.43 189.602 188.484 191.281 188.484 193.168C188.586 195.055 188.746 197.051 188.953 199.148C183.711 197.785 178.937 196.734 174.637 196C170.336 195.16 166.664 194.586 163.621 194.27C160.055 193.848 156.855 193.641 154.023 193.641C151.086 193.746 147.832 194.008 144.266 194.426C141.117 194.848 137.34 195.477 132.938 196.316C128.633 197.051 123.758 198.152 118.301 199.621C117.883 198.465 117.516 197.312 117.199 196.156C116.887 194.898 116.625 193.691 116.414 192.539C116.098 191.281 115.836 190.02 115.625 188.762C115.418 187.504 115.207 186.297 114.996 185.141C114.789 184.094 114.629 182.992 114.523 181.84C114.422 180.684 114.316 179.582 114.211 178.535C122.602 173.184 129.422 168.359 134.668 164.055C139.91 159.652 144.055 155.926 147.098 152.883C150.559 149.316 153.184 146.066 154.965 143.129C156.75 139.563 158.219 135.629 159.371 131.328C160.527 127.027 160.895 123.039 160.473 119.367C160.16 115.695 158.898 112.707 156.695 110.398C154.492 107.984 150.98 106.938 146.152 107.25C143.008 107.461 140.016 108.562 137.184 110.555C134.457 112.551 131.938 114.961 129.633 117.793C127.324 120.625 125.277 123.668 123.496 126.922C121.711 130.066 120.191 133.059 118.93 135.891C117.777 138.723 116.832 141.082 116.098 142.973C115.469 144.859 115.156 145.855 115.156 145.961C115.051 146.172 114.891 145.383 114.684 143.602C114.578 141.816 114.422 139.613 114.211 136.992C114.105 134.266 113.949 131.43 113.738 128.496C113.527 125.559 113.32 123.09 113.109 121.098C113.004 119.523 112.848 117.48 112.637 114.961C112.32 110.871 111.691 104.418 110.75 95.6055Z" fill="white"/>
</g>
<defs>
<clipPath id="clip0_912_655">
<rect width="300" height="300" fill="white"/>
</clipPath>
</defs>
</svg>
