<svg width="100" height="100" viewBox="0 0 100 100" fill="none" xmlns="http://www.w3.org/2000/svg">
<path d="M100 0H0V100H100V0Z" fill="#D37373"/>
<path d="M46.8594 72.1719V40.2383L52.4258 37.6016H52.7188V69.5352L47.1523 72.1719H46.8594ZM52.7188 25.5898V32.2695L47.1523 34.9062H46.8594V28.2266L52.4258 25.5898H52.7188Z" fill="white"/>
<path fill-rule="evenodd" clip-rule="evenodd" d="M80 50C80 66.5685 66.5685 80 50 80C33.4315 80 20 66.5685 20 50C20 33.4315 33.4315 20 50 20C60.6193 20 69.9498 25.5175 75.2813 33.8421L79.0498 30.4716C72.7636 21.1388 62.0987 15 50 15C30.67 15 15 30.67 15 50C15 69.33 30.67 85 50 85C69.33 85 85 69.33 85 50C85 44.2539 83.6153 38.8313 81.1614 34.0475L77.2861 37.5137C79.0286 41.3154 80 45.5443 80 50Z" fill="white"/>
</svg>
