<svg width="100" height="100" viewBox="0 0 100 100" fill="none" xmlns="http://www.w3.org/2000/svg">
<path d="M100 0H0V100H100V0Z" fill="#FF7951"/>
<rect x="22.5" y="24.5" width="55" height="55" stroke="white" stroke-width="5"/>
<rect x="29" y="31" width="42" height="42" fill="white"/>
<circle cx="50" cy="52" r="11" fill="#FF7951"/>
<path d="M57 19H80V42H64C60.134 42 57 38.866 57 35V19Z" fill="#FF7951"/>
<path d="M68.0833 20.4167V14.0833C68.0814 12.1201 68.8089 10.2261 70.1248 8.76914C71.4407 7.31216 73.2511 6.39609 75.2044 6.19879C77.1577 6.00149 79.1147 6.53701 80.6953 7.70141C82.276 8.86581 83.3677 10.576 83.7583 12.5M64.9167 20.4167H87.0833C88.8322 20.4167 90.25 21.8344 90.25 23.5833V34.6667C90.25 36.4156 88.8322 37.8333 87.0833 37.8333H64.9167C63.1678 37.8333 61.75 36.4156 61.75 34.6667V23.5833C61.75 21.8344 63.1678 20.4167 64.9167 20.4167Z" stroke="white" stroke-width="5" stroke-linecap="round" stroke-linejoin="round"/>
</svg>
