<svg width="52" height="38" viewBox="0 0 52 38" fill="none" xmlns="http://www.w3.org/2000/svg">
<path d="M25.9057 37.0377L8.16981 30.434L1 1H51L43.8302 31L25.9057 37.0377Z" fill="#302897"/>
<path d="M25.9057 37.0377L8.16981 30.434L1 1H51L43.8302 31M25.9057 37.0377L43.8302 31M25.9057 37.0377V34.0189M43.8302 31L43.0755 29.6792M25.9057 34.0189L17.3208 31.8491M25.9057 34.0189L34.4906 31.8491M43.0755 29.6792L49.1132 4.20755H38.5472M43.0755 29.6792L34.4906 31.8491M17.3208 31.8491L9.11321 29.6792L2.88679 4.20755H38.5472M17.3208 31.8491L12.6981 4.20755M34.4906 31.8491L38.5472 4.20755" stroke="#302897"/>
<path d="M43.75 31.2564L25.75 37V34.1282L34.3711 32.0641L42.9921 30L43.75 31.2564Z" fill="#4F41C7"/>
<path d="M9.1132 29.6792L2.88678 4.20752H12.75H38.75H49.1132L43.0755 29.6792L34.4906 31.849L25.9056 34.0188L17.3207 31.849L9.1132 29.6792Z" fill="#2F186B"/>
<path d="M17.3207 31.849L9.1132 29.6792L2.88678 4.20752H38.75M17.3207 31.849L25.9056 34.0188L34.4906 31.849M17.3207 31.849L12.75 4.20752M34.4906 31.849L43.0755 29.6792L49.1132 4.20752H38.75M34.4906 31.849L38.75 4.20752" stroke="#2F186B"/>
<path d="M25.9057 34.0188L17.3208 31.849L12.75 4.20752H38.75L34.4906 31.849L25.9057 34.0188Z" fill="#545EDD" stroke="#545EDD"/>
<path d="M18.168 15.444C18.04 15.908 17.8 16.272 17.448 16.536C17.096 16.792 16.652 16.952 16.116 17.016C16.5 17.048 16.788 17.16 16.98 17.352C17.172 17.544 17.268 17.796 17.268 18.108C17.268 18.228 17.248 18.376 17.208 18.552L17.076 19.14C17.06 19.22 17.052 19.276 17.052 19.308C17.052 19.412 17.076 19.492 17.124 19.548C17.172 19.596 17.24 19.62 17.328 19.62C17.496 19.62 17.616 19.644 17.688 19.692C17.768 19.74 17.796 19.828 17.772 19.956C17.74 20.14 17.644 20.32 17.484 20.496C17.324 20.672 17.096 20.82 16.8 20.94C16.512 21.052 16.16 21.108 15.744 21.108C15.216 21.108 14.796 20.992 14.484 20.76C14.172 20.52 14.016 20.18 14.016 19.74C14.016 19.572 14.04 19.392 14.088 19.2L14.28 18.432C14.312 18.328 14.328 18.22 14.328 18.108C14.328 17.924 14.264 17.792 14.136 17.712C14.016 17.632 13.82 17.592 13.548 17.592H13.092L12.54 19.584C12.524 19.632 12.516 19.692 12.516 19.764C12.516 19.876 12.544 19.972 12.6 20.052C12.656 20.132 12.732 20.216 12.828 20.304C12.9 20.36 12.956 20.416 12.996 20.472C13.036 20.52 13.056 20.572 13.056 20.628C13.056 20.764 12.992 20.86 12.864 20.916C12.736 20.972 12.548 21 12.3 21H9.288C9.08 21 8.924 20.964 8.82 20.892C8.716 20.812 8.68 20.704 8.712 20.568C8.728 20.496 8.76 20.44 8.808 20.4C8.848 20.352 8.912 20.3 9 20.244C9.136 20.164 9.244 20.08 9.324 19.992C9.404 19.904 9.468 19.768 9.516 19.584L10.98 14.412C11.012 14.308 11.028 14.208 11.028 14.112C11.028 14.024 11.012 13.952 10.98 13.896C10.956 13.832 10.92 13.76 10.872 13.68C10.8 13.576 10.764 13.492 10.764 13.428C10.764 13.404 10.772 13.36 10.788 13.296C10.82 13.192 10.888 13.12 10.992 13.08C11.104 13.032 11.272 13.008 11.496 13.008H15.516C16.068 13.008 16.548 13.092 16.956 13.26C17.372 13.428 17.688 13.66 17.904 13.956C18.128 14.244 18.24 14.572 18.24 14.94C18.24 15.108 18.216 15.276 18.168 15.444ZM15.096 15.324C15.136 15.14 15.156 15 15.156 14.904C15.156 14.48 14.924 14.268 14.46 14.268H13.956L13.428 16.392H13.932C14.244 16.392 14.488 16.316 14.664 16.164C14.848 16.012 14.992 15.732 15.096 15.324ZM25.4375 19.584C25.4055 19.688 25.3895 19.792 25.3895 19.896C25.3895 19.984 25.4015 20.06 25.4255 20.124C25.4495 20.18 25.4735 20.228 25.4975 20.268C25.5295 20.3 25.5495 20.324 25.5575 20.34C25.6375 20.42 25.6775 20.5 25.6775 20.58C25.6775 20.596 25.6695 20.636 25.6535 20.7C25.6215 20.812 25.5495 20.892 25.4375 20.94C25.3335 20.98 25.1695 21 24.9455 21H22.1015C21.9335 21 21.8015 20.972 21.7055 20.916C21.6175 20.86 21.5735 20.784 21.5735 20.688C21.5735 20.64 21.5855 20.588 21.6095 20.532C21.6335 20.468 21.6655 20.42 21.7055 20.388C21.7535 20.348 21.8175 20.304 21.8975 20.256C22.0255 20.184 22.1295 20.104 22.2095 20.016C22.2895 19.928 22.3575 19.784 22.4135 19.584L22.7255 18.552H20.8535L20.5295 19.236C20.3935 19.532 20.3255 19.764 20.3255 19.932C20.3255 20.028 20.3415 20.108 20.3735 20.172C20.4055 20.228 20.4535 20.288 20.5175 20.352C20.5735 20.416 20.6095 20.472 20.6255 20.52C20.6495 20.56 20.6535 20.616 20.6375 20.688C20.6055 20.808 20.5375 20.892 20.4335 20.94C20.3375 20.98 20.1815 21 19.9655 21H18.1775C17.9935 21 17.8535 20.968 17.7575 20.904C17.6615 20.832 17.6135 20.74 17.6135 20.628C17.6135 20.5 17.6615 20.4 17.7575 20.328C17.8455 20.248 17.9815 20.164 18.1655 20.076C18.4055 19.956 18.5975 19.84 18.7415 19.728C18.8855 19.608 19.0095 19.444 19.1135 19.236L21.2495 14.808C21.5775 14.12 21.9615 13.624 22.4015 13.32C22.8495 13.008 23.4375 12.852 24.1655 12.852C24.9815 12.852 25.6135 13.02 26.0615 13.356C26.5095 13.684 26.7335 14.144 26.7335 14.736C26.7335 14.984 26.6935 15.24 26.6135 15.504L25.4375 19.584ZM23.0855 17.352L23.7215 15.24C23.7535 15.144 23.7695 15.044 23.7695 14.94C23.7695 14.788 23.7255 14.676 23.6375 14.604C23.5575 14.524 23.4415 14.484 23.2895 14.484C23.0975 14.484 22.9335 14.54 22.7975 14.652C22.6615 14.764 22.5255 14.964 22.3895 15.252L21.4055 17.352H23.0855ZM35.6524 15.444C35.5244 15.908 35.2844 16.272 34.9324 16.536C34.5804 16.792 34.1364 16.952 33.6004 17.016C33.9844 17.048 34.2724 17.16 34.4644 17.352C34.6564 17.544 34.7524 17.796 34.7524 18.108C34.7524 18.228 34.7324 18.376 34.6924 18.552L34.5604 19.14C34.5444 19.22 34.5364 19.276 34.5364 19.308C34.5364 19.412 34.5604 19.492 34.6084 19.548C34.6564 19.596 34.7244 19.62 34.8124 19.62C34.9804 19.62 35.1004 19.644 35.1724 19.692C35.2524 19.74 35.2804 19.828 35.2564 19.956C35.2244 20.14 35.1284 20.32 34.9684 20.496C34.8084 20.672 34.5804 20.82 34.2844 20.94C33.9964 21.052 33.6444 21.108 33.2284 21.108C32.7004 21.108 32.2804 20.992 31.9684 20.76C31.6564 20.52 31.5004 20.18 31.5004 19.74C31.5004 19.572 31.5244 19.392 31.5724 19.2L31.7644 18.432C31.7964 18.328 31.8124 18.22 31.8124 18.108C31.8124 17.924 31.7484 17.792 31.6204 17.712C31.5004 17.632 31.3044 17.592 31.0324 17.592H30.5764L30.0244 19.584C30.0084 19.632 30.0004 19.692 30.0004 19.764C30.0004 19.876 30.0284 19.972 30.0844 20.052C30.1404 20.132 30.2164 20.216 30.3124 20.304C30.3844 20.36 30.4404 20.416 30.4804 20.472C30.5204 20.52 30.5404 20.572 30.5404 20.628C30.5404 20.764 30.4764 20.86 30.3484 20.916C30.2204 20.972 30.0324 21 29.7844 21H26.7724C26.5644 21 26.4084 20.964 26.3044 20.892C26.2004 20.812 26.1644 20.704 26.1964 20.568C26.2124 20.496 26.2444 20.44 26.2924 20.4C26.3324 20.352 26.3964 20.3 26.4844 20.244C26.6204 20.164 26.7284 20.08 26.8084 19.992C26.8884 19.904 26.9524 19.768 27.0004 19.584L28.4644 14.412C28.4964 14.308 28.5124 14.208 28.5124 14.112C28.5124 14.024 28.4964 13.952 28.4644 13.896C28.4404 13.832 28.4044 13.76 28.3564 13.68C28.2844 13.576 28.2484 13.492 28.2484 13.428C28.2484 13.404 28.2564 13.36 28.2724 13.296C28.3044 13.192 28.3724 13.12 28.4764 13.08C28.5884 13.032 28.7564 13.008 28.9804 13.008H33.0004C33.5524 13.008 34.0324 13.092 34.4404 13.26C34.8564 13.428 35.1724 13.66 35.3884 13.956C35.6124 14.244 35.7244 14.572 35.7244 14.94C35.7244 15.108 35.7004 15.276 35.6524 15.444ZM32.5804 15.324C32.6204 15.14 32.6404 15 32.6404 14.904C32.6404 14.48 32.4084 14.268 31.9444 14.268H31.4404L30.9124 16.392H31.4164C31.7284 16.392 31.9724 16.316 32.1484 16.164C32.3324 16.012 32.4764 15.732 32.5804 15.324ZM43.4258 13.008C43.7218 13.008 43.9498 13.072 44.1098 13.2C44.2778 13.328 44.3618 13.504 44.3618 13.728C44.3618 13.84 44.3458 13.948 44.3138 14.052L44.0018 15.168C43.9458 15.384 43.8618 15.536 43.7498 15.624C43.6458 15.704 43.4938 15.744 43.2938 15.744C43.1018 15.744 42.9498 15.704 42.8378 15.624C42.7338 15.536 42.6538 15.396 42.5978 15.204L42.4058 14.52C42.3658 14.376 42.3178 14.28 42.2618 14.232C42.2058 14.184 42.0978 14.16 41.9378 14.16H40.6778L40.0778 16.296H40.6058C40.6618 16.296 40.7378 16.256 40.8338 16.176L41.2418 15.816C41.3618 15.712 41.4658 15.636 41.5538 15.588C41.6418 15.54 41.7498 15.516 41.8778 15.516C42.0218 15.516 42.1378 15.556 42.2258 15.636C42.3218 15.708 42.3698 15.804 42.3698 15.924C42.3698 15.956 42.3618 16.004 42.3458 16.068L41.8538 17.736C41.8058 17.912 41.7218 18.044 41.6018 18.132C41.4898 18.212 41.3658 18.252 41.2298 18.252C41.0058 18.252 40.8378 18.136 40.7258 17.904L40.5218 17.484C40.4658 17.364 40.3778 17.304 40.2578 17.304H39.7898L39.0818 19.848H40.1378C40.2898 19.848 40.4218 19.82 40.5338 19.764C40.6538 19.7 40.7818 19.592 40.9178 19.44L41.6378 18.648C41.7658 18.512 41.8858 18.416 41.9978 18.36C42.1178 18.296 42.2618 18.264 42.4298 18.264C42.6058 18.264 42.7498 18.304 42.8618 18.384C42.9738 18.464 43.0298 18.584 43.0298 18.744C43.0298 18.808 43.0178 18.884 42.9938 18.972L42.6458 20.184C42.5578 20.488 42.4298 20.7 42.2618 20.82C42.0938 20.94 41.8498 21 41.5298 21H35.8058C35.6378 21 35.5098 20.972 35.4218 20.916C35.3258 20.86 35.2778 20.784 35.2778 20.688C35.2778 20.64 35.2898 20.588 35.3138 20.532C35.3458 20.444 35.3978 20.376 35.4698 20.328C35.5418 20.28 35.5858 20.252 35.6018 20.244C35.7298 20.164 35.8338 20.084 35.9138 20.004C35.9938 19.916 36.0618 19.776 36.1178 19.584L37.5938 14.412C37.6258 14.308 37.6418 14.212 37.6418 14.124C37.6418 14.028 37.6258 13.948 37.5938 13.884C37.5698 13.82 37.5298 13.752 37.4738 13.68C37.4018 13.576 37.3658 13.492 37.3658 13.428C37.3658 13.404 37.3738 13.36 37.3898 13.296C37.4218 13.192 37.4938 13.12 37.6058 13.08C37.7178 13.032 37.8818 13.008 38.0978 13.008H43.4258Z" fill="#CFD2F4"/>
</svg>
