<svg width="100" height="101" viewBox="0 0 100 101" fill="none" xmlns="http://www.w3.org/2000/svg">
<rect x="49.7109" width="69.7992" height="69.7992" rx="10" transform="rotate(45 49.7109 0)" fill="#E934C2"/>
<path d="M49.3965 52L44.2603 91.1111C44.0243 92.9077 45.4227 94.5018 47.2347 94.5018H51.5583C53.3702 94.5018 54.7686 92.9077 54.5327 91.1111L49.3965 52Z" fill="white"/>
<path d="M49.3555 52L75.7662 31.0215C77.1537 29.9194 77.2887 27.8613 76.0572 26.5873L74.0809 24.5428C72.7935 23.2111 70.6189 23.3526 69.515 24.8398L49.3555 52Z" fill="white"/>
<path d="M49.3555 52L23.0679 31.8153C21.6307 30.7118 21.4923 28.5958 22.7736 27.3145L24.67 25.4181C25.9513 24.1368 28.0672 24.2752 29.1708 25.7124L49.3555 52Z" fill="white"/>
</svg>
