<svg width="99" height="101" viewBox="0 0 99 101" fill="none" xmlns="http://www.w3.org/2000/svg">
<rect x="49.3555" width="69.7992" height="69.7992" rx="10" transform="rotate(45 49.3555 0)" fill="#FF7BE2"/>
<path d="M49.041 52L43.9048 91.1111C43.6689 92.9077 45.0673 94.5018 46.8792 94.5018H51.2028C53.0148 94.5018 54.4132 92.9077 54.1772 91.1111L49.041 52Z" fill="white"/>
<path d="M49 52L75.4107 31.0215C76.7982 29.9194 76.9333 27.8613 75.7018 26.5873L73.7254 24.5428C72.4381 23.2111 70.2634 23.3526 69.1595 24.8398L49 52Z" fill="white"/>
<path d="M49 52L22.7124 31.8153C21.2752 30.7118 21.1368 28.5958 22.4181 27.3145L24.3145 25.4181C25.5958 24.1368 27.7118 24.2752 28.8153 25.7124L49 52Z" fill="white"/>
</svg>
