<svg width="300" height="299" viewBox="0 0 300 299" fill="none" xmlns="http://www.w3.org/2000/svg">
<path d="M299.855 0H0.148438V299H299.855V0Z" fill="#67F077"/>
<path d="M290.666 149C290.666 71.6794 227.836 9 150.331 9C72.8295 9 10 71.6794 10 149C10 226.321 72.8295 289 150.331 289C227.836 289 290.666 226.321 290.666 149Z" stroke="white" stroke-width="14"/>
<path d="M144 3H156V29H144V3Z" fill="white"/>
<path d="M144 270H156V296H144V270Z" fill="white"/>
<path d="M297 143V156H271V143H297Z" fill="white"/>
<path d="M29 143V156H3V143H29Z" fill="white"/>
<path d="M260.27 250.773L251.367 259.652L231.086 239.418L239.984 230.539L260.27 250.773Z" fill="white"/>
<path d="M79.3125 70.3906L70.4102 79.2695L39.3672 48.2969L48.2656 39.418L79.3125 70.3906Z" fill="white"/>
<path d="M251.367 39.3477L260.27 48.2266L229.223 79.1953L220.324 70.3203L251.367 39.3477Z" fill="white"/>
<path d="M79.3125 228.457L70.4102 219.578L39.3672 250.547L48.2656 259.426L79.3125 228.457Z" fill="white"/>
<path d="M251.367 259.496L260.27 250.617L229.223 219.648L220.324 228.527L251.367 259.496Z" fill="white"/>
<path d="M59.7266 230.539L68.625 239.418L48.3438 259.652L39.4414 250.773L59.7266 230.539Z" fill="white"/>
<path d="M269.383 32L262.043 59.3164L242 39.3203L269.383 32Z" fill="white"/>
<path d="M32 267.32L39.3359 240L59.3789 260L32 267.32Z" fill="white"/>
<path d="M32 32L39.3359 59.3164L59.3828 39.3203L32 32Z" fill="white"/>
<path d="M269.383 270.32L262.047 243L242 263L269.383 270.32Z" fill="white"/>
<path d="M86.1953 226C86.1953 218.582 80.168 212.57 72.7344 212.57C65.2969 212.57 59.2695 218.582 59.2695 226C59.2695 233.422 65.2969 239.434 72.7344 239.434C80.168 239.434 86.1953 233.422 86.1953 226Z" fill="white"/>
<path d="M240.441 226C240.441 218.582 234.414 212.57 226.977 212.57C219.543 212.57 213.516 218.582 213.516 226C213.516 233.422 219.543 239.434 226.977 239.434C234.414 239.434 240.441 233.422 240.441 226Z" fill="white"/>
<path d="M86.1953 72.707C86.1953 65.2891 80.168 59.2734 72.7344 59.2734C65.2969 59.2734 59.2695 65.2891 59.2695 72.707C59.2695 80.125 65.2969 86.1367 72.7344 86.1367C80.168 86.1367 86.1953 80.125 86.1953 72.707Z" fill="white"/>
<path d="M240.441 72.707C240.441 65.2891 234.414 59.2734 226.977 59.2734C219.543 59.2734 213.516 65.2891 213.516 72.707C213.516 80.125 219.543 86.1367 226.977 86.1367C234.414 86.1367 240.441 80.125 240.441 72.707Z" fill="white"/>
<path d="M70.1055 95.582C72.0977 97.043 74.0898 98.1406 76.0781 98.875C78.1758 99.5 80.0625 99.918 81.7383 100.129C83.625 100.441 85.5117 100.492 87.3984 100.285C89.1797 100.074 91.0117 99.4492 92.8984 98.4023C94.7852 97.3594 96.9883 96.2578 99.5039 95.1094C102.02 93.9609 104.953 92.9648 108.305 92.1289C111.766 91.1875 115.902 90.7188 120.727 90.7188C122.82 90.7188 125.023 91.1367 127.328 91.9727C129.738 92.8086 132.043 93.9062 134.246 95.2656C136.445 96.5195 138.438 97.9336 140.219 99.5C142.105 101.07 143.52 102.637 144.461 104.207C145.512 105.773 146.242 108.336 146.664 111.891C147.082 115.34 147.238 119.105 147.137 123.184C147.031 127.262 146.664 131.285 146.035 135.258C145.512 139.23 144.723 142.473 143.676 144.98C142.418 147.18 140.008 150 136.445 153.449C133.406 156.379 128.848 160.141 122.77 164.742C116.691 169.344 108.516 174.832 98.2461 181.211C104.324 181.105 109.406 180.949 113.492 180.738C117.688 180.426 121.09 180.113 123.711 179.801C126.75 179.379 129.16 178.961 130.941 178.543C132.516 177.918 134.191 177.027 135.973 175.879C137.441 174.832 139.012 173.473 140.691 171.801C142.473 170.129 144.199 167.934 145.879 165.215C146.191 170.859 146.508 175.305 146.82 178.543C147.031 180.426 147.188 182.047 147.293 183.406C147.398 184.66 147.5 186.125 147.605 187.797C147.711 189.262 147.766 190.934 147.766 192.816C147.867 194.699 148.027 196.684 148.234 198.777C142.996 197.418 138.227 196.371 133.93 195.641C129.633 194.801 125.965 194.227 122.926 193.914C119.363 193.496 116.168 193.285 113.336 193.285C110.402 193.391 107.152 193.652 103.59 194.07C100.445 194.488 96.6719 195.117 92.2695 195.953C87.9727 196.684 83.1016 197.781 77.6523 199.246C77.2305 198.094 76.8672 196.945 76.5508 195.797C76.2383 194.539 75.9766 193.34 75.7656 192.188C75.4492 190.934 75.1875 189.68 74.9805 188.426C74.7695 187.168 74.5586 185.969 74.3516 184.816C74.1406 183.773 73.9844 182.676 73.8789 181.523C73.7734 180.375 73.668 179.277 73.5625 178.23C81.9492 172.898 88.7617 168.09 94 163.801C99.2422 159.41 103.379 155.699 106.418 152.668C109.879 149.113 112.496 145.871 114.281 142.941C116.062 139.387 117.527 135.469 118.68 131.18C119.836 126.895 120.199 122.922 119.781 119.262C119.469 115.602 118.211 112.621 116.008 110.32C113.809 107.918 110.297 106.871 105.477 107.188C102.332 107.395 99.3438 108.492 96.5156 110.48C93.7891 112.465 91.2773 114.871 88.9688 117.691C86.6641 120.516 84.6211 123.547 82.8398 126.789C81.0586 129.926 79.5391 132.906 78.2812 135.73C77.1289 138.551 76.1836 140.906 75.4492 142.785C74.8203 144.668 74.5078 145.66 74.5078 145.766C74.4023 145.977 74.2461 145.191 74.0352 143.414C73.9297 141.637 73.7734 139.441 73.5625 136.828C73.4609 134.109 73.3008 131.285 73.0938 128.359C72.8828 125.43 72.6719 122.973 72.4648 120.988C72.3594 119.418 72.2031 117.379 71.9922 114.871C71.6797 110.793 71.0508 104.363 70.1055 95.582ZM199.484 95.582C203.047 95.8945 206.715 96.8359 210.488 98.4023C214.262 99.9727 217.77 102.273 221.02 105.305C224.27 108.23 227.047 111.941 229.352 116.438C231.762 120.934 233.281 126.215 233.91 132.277C234.957 142.734 234.277 151.777 231.867 159.41C229.562 167.043 226.156 173.734 221.648 179.484C217.246 185.234 212.059 190.359 206.086 194.855C200.219 199.246 194.141 203.43 187.852 207.402C184.707 204.367 182.242 201.91 180.461 200.031L177.633 197.207C176.898 196.266 175.957 195.219 174.801 194.07C173.859 193.023 172.707 191.77 171.344 190.305C169.98 188.844 168.461 187.168 166.785 185.289C170.035 187.066 172.969 188.215 175.59 188.738C178.312 189.262 180.617 189.469 182.504 189.367C184.707 189.262 186.699 188.895 188.48 188.27C193.195 185.969 197.441 183.094 201.211 179.641C204.461 176.609 207.395 172.848 210.016 168.352C212.742 163.75 214.207 158.312 214.418 152.039C211.062 156.848 207.395 160.301 203.414 162.391C199.535 164.48 195.922 165.895 192.566 166.625C188.586 167.461 184.602 167.617 180.617 167.094C178.629 166.781 176.48 165.734 174.176 163.957C171.867 162.18 169.668 159.934 167.57 157.215C165.477 154.391 163.59 151.254 161.91 147.805C160.34 144.355 159.238 140.746 158.609 136.984C157.98 133.113 157.93 129.246 158.453 125.379C159.082 121.406 160.602 117.59 163.012 113.93C166.574 108.598 169.93 104.57 173.074 101.852C176.219 99.1367 179.258 97.3047 182.191 96.3633C185.125 95.3203 188.008 94.8477 190.836 94.9531C193.668 95.0586 196.551 95.2656 199.484 95.582ZM182.82 127.262C181.98 130.188 181.562 133.113 181.562 136.043C181.562 138.969 181.93 141.637 182.664 144.043C183.5 146.445 184.652 148.535 186.121 150.312C187.59 151.988 189.422 153.031 191.625 153.449C193.824 153.973 195.973 153.66 198.07 152.512C200.27 151.254 202.262 149.531 204.043 147.336C205.93 145.141 207.5 142.578 208.758 139.648C210.121 136.617 211.012 133.535 211.43 130.398C211.746 128.203 211.746 125.848 211.43 123.34C211.223 120.727 210.695 118.32 209.859 116.125C209.125 113.824 208.129 111.891 206.871 110.32C205.719 108.754 204.355 107.812 202.785 107.5C200.688 107.188 198.594 107.5 196.496 108.441C194.504 109.277 192.617 110.637 190.836 112.52C189.055 114.297 187.43 116.492 185.965 119.105C184.602 121.613 183.555 124.332 182.82 127.262Z" fill="#00DFEF"/>
<path d="M70.1055 95.582C72.0977 97.043 74.0898 98.1406 76.0781 98.875C78.1758 99.5 80.0625 99.918 81.7383 100.129C83.625 100.441 85.5117 100.492 87.3984 100.285C89.1797 100.074 91.0117 99.4492 92.8984 98.4023C94.7852 97.3594 96.9883 96.2578 99.5039 95.1094C102.02 93.9609 104.953 92.9648 108.305 92.1289C111.766 91.1875 115.902 90.7188 120.727 90.7188C122.82 90.7188 125.023 91.1367 127.328 91.9727C129.738 92.8086 132.043 93.9062 134.246 95.2656C136.445 96.5195 138.438 97.9336 140.219 99.5C142.105 101.07 143.52 102.637 144.461 104.207C145.512 105.773 146.242 108.336 146.664 111.891C147.082 115.34 147.238 119.105 147.137 123.184C147.031 127.262 146.664 131.285 146.035 135.258C145.512 139.23 144.723 142.473 143.676 144.98C142.418 147.18 140.008 150 136.445 153.449C133.406 156.379 128.848 160.141 122.77 164.742C116.691 169.344 108.516 174.832 98.2461 181.211C104.324 181.105 109.406 180.949 113.492 180.738C117.688 180.426 121.09 180.113 123.711 179.801C126.75 179.379 129.16 178.961 130.941 178.543C132.516 177.918 134.191 177.027 135.973 175.879C137.441 174.832 139.012 173.473 140.691 171.801C142.473 170.129 144.199 167.934 145.879 165.215C146.191 170.859 146.508 175.305 146.82 178.543C147.031 180.426 147.188 182.047 147.293 183.406C147.398 184.66 147.5 186.125 147.605 187.797C147.711 189.262 147.766 190.934 147.766 192.816C147.867 194.699 148.027 196.684 148.234 198.777C142.996 197.418 138.227 196.371 133.93 195.641C129.633 194.801 125.965 194.227 122.926 193.914C119.363 193.496 116.168 193.285 113.336 193.285C110.402 193.391 107.152 193.652 103.59 194.07C100.445 194.488 96.6719 195.117 92.2695 195.953C87.9727 196.684 83.1016 197.781 77.6523 199.246C77.2305 198.094 76.8672 196.945 76.5508 195.797C76.2383 194.539 75.9766 193.34 75.7656 192.188C75.4492 190.934 75.1875 189.68 74.9805 188.426C74.7695 187.168 74.5586 185.969 74.3516 184.816C74.1406 183.773 73.9844 182.676 73.8789 181.523C73.7734 180.375 73.668 179.277 73.5625 178.23C81.9492 172.898 88.7617 168.09 94 163.801C99.2422 159.41 103.379 155.699 106.418 152.668C109.879 149.113 112.496 145.871 114.281 142.941C116.062 139.387 117.527 135.469 118.68 131.18C119.836 126.895 120.199 122.922 119.781 119.262C119.469 115.602 118.211 112.621 116.008 110.32C113.809 107.918 110.297 106.871 105.477 107.188C102.332 107.395 99.3438 108.492 96.5156 110.48C93.7891 112.465 91.2773 114.871 88.9688 117.691C86.6641 120.516 84.6211 123.547 82.8398 126.789C81.0586 129.926 79.5391 132.906 78.2812 135.73C77.1289 138.551 76.1836 140.906 75.4492 142.785C74.8203 144.668 74.5078 145.66 74.5078 145.766C74.4023 145.977 74.2461 145.191 74.0352 143.414C73.9297 141.637 73.7734 139.441 73.5625 136.828C73.4609 134.109 73.3008 131.285 73.0938 128.359C72.8828 125.43 72.6719 122.973 72.4648 120.988C72.3594 119.418 72.2031 117.379 71.9922 114.871C71.6797 110.793 71.0508 104.363 70.1055 95.582ZM199.484 95.582C203.047 95.8945 206.715 96.8359 210.488 98.4023C214.262 99.9727 217.77 102.273 221.02 105.305C224.27 108.23 227.047 111.941 229.352 116.438C231.762 120.934 233.281 126.215 233.91 132.277C234.957 142.734 234.277 151.777 231.867 159.41C229.562 167.043 226.156 173.734 221.648 179.484C217.246 185.234 212.059 190.359 206.086 194.855C200.219 199.246 194.141 203.43 187.852 207.402C184.707 204.367 182.242 201.91 180.461 200.031L177.633 197.207C176.898 196.266 175.957 195.219 174.801 194.07C173.859 193.023 172.707 191.77 171.344 190.305C169.98 188.844 168.461 187.168 166.785 185.289C170.035 187.066 172.969 188.215 175.59 188.738C178.312 189.262 180.617 189.469 182.504 189.367C184.707 189.262 186.699 188.895 188.48 188.27C193.195 185.969 197.441 183.094 201.211 179.641C204.461 176.609 207.395 172.848 210.016 168.352C212.742 163.75 214.207 158.312 214.418 152.039C211.062 156.848 207.395 160.301 203.414 162.391C199.535 164.48 195.922 165.895 192.566 166.625C188.586 167.461 184.602 167.617 180.617 167.094C178.629 166.781 176.48 165.734 174.176 163.957C171.867 162.18 169.668 159.934 167.57 157.215C165.477 154.391 163.59 151.254 161.91 147.805C160.34 144.355 159.238 140.746 158.609 136.984C157.98 133.113 157.93 129.246 158.453 125.379C159.082 121.406 160.602 117.59 163.012 113.93C166.574 108.598 169.93 104.57 173.074 101.852C176.219 99.1367 179.258 97.3047 182.191 96.3633C185.125 95.3203 188.008 94.8477 190.836 94.9531C193.668 95.0586 196.551 95.2656 199.484 95.582ZM182.82 127.262C181.98 130.188 181.562 133.113 181.562 136.043C181.562 138.969 181.93 141.637 182.664 144.043C183.5 146.445 184.652 148.535 186.121 150.312C187.59 151.988 189.422 153.031 191.625 153.449C193.824 153.973 195.973 153.66 198.07 152.512C200.27 151.254 202.262 149.531 204.043 147.336C205.93 145.141 207.5 142.578 208.758 139.648C210.121 136.617 211.012 133.535 211.43 130.398C211.746 128.203 211.746 125.848 211.43 123.34C211.223 120.727 210.695 118.32 209.859 116.125C209.125 113.824 208.129 111.891 206.871 110.32C205.719 108.754 204.355 107.812 202.785 107.5C200.688 107.188 198.594 107.5 196.496 108.441C194.504 109.277 192.617 110.637 190.836 112.52C189.055 114.297 187.43 116.492 185.965 119.105C184.602 121.613 183.555 124.332 182.82 127.262Z" fill="white"/>
</svg>
