<svg width="300" height="300" viewBox="0 0 300 300" fill="none" xmlns="http://www.w3.org/2000/svg">
<g clip-path="url(#clip0_912_147)">
<path d="M300 0H0V300H300V0Z" fill="#51ABFF"/>
<path d="M292.676 150C292.676 71.2032 228.797 7.32422 150 7.32422C71.2032 7.32422 7.32422 71.2032 7.32422 150C7.32422 228.797 71.2032 292.676 150 292.676C228.797 292.676 292.676 228.797 292.676 150Z" stroke="white" stroke-width="14.6485"/>
<path d="M143.555 0H156.152V28.7109H143.555V0Z" fill="white"/>
<path d="M142.383 13.1836H157.324V47.7539H142.383V13.1836Z" fill="white"/>
<path d="M143.555 271.289H156.152V300H143.555V271.289Z" fill="white"/>
<path d="M142.383 254.004H157.324V288.574H142.383V254.004Z" fill="white"/>
<path d="M287.402 143.262V158.496H253.125V143.262H287.402Z" fill="white"/>
<path d="M46.582 143.262V158.496H12.0117V143.262H46.582Z" fill="white"/>
<path d="M241.914 48.0625L252.645 58.793L228.188 83.25L217.457 72.5195L241.914 48.0625Z" fill="white"/>
<path d="M71.4609 218.516L82.1914 229.246L57.7344 253.703L47 242.973L71.4609 218.516Z" fill="white"/>
<path d="M252.645 242.973L241.914 253.703L217.457 229.246L228.188 218.516L252.645 242.973Z" fill="white"/>
<path d="M82.1914 72.5195L71.457 83.25L47 58.793L57.7344 48.0625L82.1914 72.5195Z" fill="white"/>
<path d="M91.2812 108.98C94.9531 107.828 97.9453 106.883 100.25 106.148C102.559 105.312 104.449 104.629 105.918 104.105C107.594 103.473 108.852 102.898 109.691 102.375L113.469 100.484C114.938 99.75 116.828 98.8047 119.133 97.6523C121.441 96.3945 124.434 94.8203 128.102 92.9336C127.266 96.918 126.637 100.695 126.215 104.262C125.898 107.723 125.637 110.816 125.43 113.547C125.113 116.691 124.957 119.578 124.957 122.199C124.852 124.402 124.695 127.34 124.484 131.012C124.379 134.684 124.223 138.672 124.012 142.973C123.801 147.273 123.594 151.68 123.383 156.188C123.172 160.699 123.016 164.949 122.91 168.934C122.91 172.816 122.965 176.172 123.066 179.004C123.277 181.84 123.645 183.777 124.168 184.828C124.695 186.086 125.375 187.293 126.215 188.445C126.949 189.496 127.789 190.703 128.734 192.066C129.781 193.324 131.039 194.586 132.508 195.844C130.098 196.367 127.84 196.84 125.742 197.258C123.645 197.574 121.809 197.836 120.234 198.047C118.348 198.359 116.668 198.621 115.199 198.832C113.625 198.938 111.477 199.199 108.75 199.621C106.441 199.934 103.504 200.355 99.9375 200.879C96.3711 201.297 91.9648 201.77 86.7188 202.293C89.4453 200.617 91.5977 198.988 93.1719 197.418C94.8477 195.844 96.1094 194.48 96.9453 193.324C97.8906 191.961 98.4687 190.648 98.6797 189.391C98.7812 188.551 98.9414 186.297 99.1484 182.625C99.4648 178.848 99.7266 174.441 99.9375 169.406C100.25 164.266 100.516 158.812 100.723 153.043C101.039 147.168 101.246 141.711 101.352 136.676C101.457 131.641 101.512 127.34 101.512 123.773C101.512 120.207 101.352 118.055 101.039 117.32C100.617 116.586 99.9883 115.75 99.1484 114.805C98.4141 113.965 97.418 113.074 96.1602 112.129C95.0078 111.184 93.3789 110.137 91.2812 108.98ZM141.449 153.328C143.453 152.699 145.082 152.184 146.344 151.781C147.602 151.324 148.633 150.953 149.434 150.668C150.348 150.324 151.035 150.008 151.492 149.723L153.551 148.691C154.352 148.293 155.383 147.777 156.641 147.148C157.902 146.461 159.531 145.602 161.535 144.574C161.078 146.746 160.734 148.809 160.504 150.754C160.332 152.641 160.191 154.328 160.074 155.816C159.902 157.535 159.816 159.105 159.816 160.539C159.762 161.738 159.676 163.34 159.559 165.344C159.504 167.348 159.418 169.52 159.305 171.867C159.187 174.215 159.074 176.617 158.961 179.078C158.844 181.539 158.758 183.855 158.703 186.031C158.703 188.148 158.73 189.977 158.789 191.523C158.902 193.066 159.102 194.125 159.391 194.699C159.676 195.387 160.047 196.043 160.504 196.672C160.906 197.246 161.363 197.902 161.879 198.648C162.449 199.332 163.137 200.02 163.938 200.707C162.621 200.992 161.391 201.25 160.246 201.48C159.102 201.652 158.102 201.793 157.242 201.91C156.215 202.078 155.297 202.223 154.496 202.336C153.637 202.395 152.465 202.539 150.977 202.766C149.719 202.938 148.117 203.168 146.172 203.453C144.227 203.684 141.82 203.938 138.961 204.227C140.449 203.309 141.621 202.422 142.48 201.566C143.395 200.707 144.082 199.961 144.539 199.332C145.055 198.59 145.371 197.875 145.484 197.188C145.543 196.73 145.629 195.5 145.742 193.496C145.914 191.437 146.055 189.035 146.172 186.285C146.344 183.484 146.484 180.508 146.602 177.359C146.773 174.156 146.887 171.18 146.941 168.434C147 165.687 147.027 163.34 147.027 161.395C147.027 159.449 146.941 158.277 146.773 157.879C146.543 157.477 146.199 157.02 145.742 156.504C145.34 156.047 144.797 155.559 144.109 155.043C143.48 154.531 142.594 153.957 141.449 153.328ZM172.52 144.918C175.266 145.43 177.672 145.805 179.73 146.031C181.789 146.262 183.535 146.434 184.965 146.547C186.625 146.66 188.055 146.691 189.258 146.633C190.461 146.633 191.977 146.547 193.809 146.375C195.352 146.262 197.297 146.117 199.645 145.945C202.047 145.719 204.879 145.461 208.141 145.176C207.969 146.719 207.797 148.121 207.625 149.379C207.512 150.582 207.398 151.609 207.281 152.469C207.168 153.5 207.082 154.414 207.023 155.215C206.969 156.074 206.883 157.047 206.766 158.133C206.652 159.105 206.539 160.309 206.426 161.738C206.367 163.168 206.309 164.828 206.254 166.719C204.078 163.113 202.105 160.336 200.328 158.391C198.555 156.391 197.012 154.902 195.695 153.93C194.207 152.84 192.863 152.184 191.66 151.953H188.141C187.113 151.953 185.996 151.984 184.793 152.039C183.594 152.098 182.504 152.211 181.531 152.383L181.875 172.641C183.02 171.211 184.281 170.152 185.652 169.465C187.027 168.777 188.371 168.293 189.688 168.004C191.176 167.719 192.691 167.605 194.234 167.66C198.242 168.004 201.332 168.691 203.504 169.723C205.738 170.75 207.34 172.27 208.312 174.27C208.77 175.301 209.141 176.875 209.43 178.992C209.773 181.051 209.887 183.281 209.773 185.688C209.656 188.09 209.285 190.465 208.656 192.809C208.027 195.098 207.023 196.957 205.652 198.391C204.277 199.762 202.934 200.906 201.617 201.824C200.301 202.68 198.984 203.395 197.668 203.969C196.352 204.484 194.98 204.855 193.551 205.086C192.117 205.312 190.602 205.484 189 205.598C186.426 205.77 183.965 205.484 181.617 204.742C179.273 203.996 177.215 202.996 175.438 201.738C173.664 200.477 172.234 199.133 171.148 197.703C170.059 196.215 169.461 194.871 169.344 193.668C169.23 192.754 169.172 191.836 169.172 190.922C169.172 190.121 169.203 189.289 169.258 188.434C169.375 187.574 169.574 186.832 169.859 186.199L192.09 187.746C189.914 188.434 188.285 189.176 187.199 189.977C186.109 190.723 185.34 191.438 184.879 192.125C184.309 192.926 184.078 193.727 184.195 194.527C184.594 196.586 185.309 198.273 186.34 199.59C187.371 200.848 188.543 201.363 189.859 201.137C190.547 201.02 191.316 200.562 192.176 199.762C193.09 198.902 193.949 197.844 194.75 196.586C195.609 195.328 196.352 193.926 196.984 192.383C197.668 190.777 198.098 189.176 198.27 187.574C198.441 185.973 198.555 184.285 198.613 182.512C198.727 180.738 198.672 179.105 198.441 177.617C198.211 176.129 197.813 174.898 197.238 173.926C196.668 172.898 195.84 172.383 194.75 172.383C193.836 172.496 192.805 172.867 191.66 173.5C190.688 174.07 189.516 174.93 188.141 176.074C186.824 177.219 185.34 178.875 183.68 181.051C182.535 180.766 181.562 180.48 180.762 180.191C180.016 179.852 179.387 179.562 178.871 179.336C178.242 179.105 177.758 178.848 177.414 178.562C177.07 178.332 176.613 178.047 176.039 177.703C175.582 177.418 175.012 177.074 174.324 176.676C173.637 176.215 172.809 175.672 171.836 175.043C172.062 172.812 172.207 170.922 172.262 169.379C172.32 167.832 172.379 166.574 172.434 165.602V162.77C172.379 161.969 172.348 160.797 172.348 159.25C172.348 157.934 172.348 156.133 172.348 153.844C172.348 151.496 172.406 148.52 172.52 144.918Z" fill="white"/>
</g>
<defs>
<clipPath id="clip0_912_147">
<rect width="300" height="300" fill="white"/>
</clipPath>
</defs>
</svg>
