<svg width="300" height="300" viewBox="0 0 300 300" fill="none" xmlns="http://www.w3.org/2000/svg">
<g clip-path="url(#clip0_912_569)">
<path d="M300 0H0V300H300V0Z" fill="#FF7951"/>
<path d="M265 150C265 86.4855 213.514 35 150 35C86.4855 35 35 86.4855 35 150C35 213.514 86.4855 265 150 265C213.514 265 265 213.514 265 150Z" stroke="white" stroke-width="14.6485"/>
<path d="M290 150C290 72.6809 227.319 10 150 10C72.6809 10 10 72.6809 10 150C10 227.319 72.6809 290 150 290C227.319 290 290 227.319 290 150Z" stroke="white" stroke-width="14.6485"/>
<path d="M143 5H155V33H143V5Z" fill="white"/>
<path d="M143 268H155V296H143V268Z" fill="white"/>
<path d="M295 145V156H267V145H295Z" fill="white"/>
<path d="M32 145V156H4V145H32Z" fill="white"/>
<path d="M257 249.158L248.154 258L228 237.846L236.842 229L257 249.158Z" fill="white"/>
<path d="M70 63.1542L61.463 72L42 51.8419L50.5408 43L70 63.1542Z" fill="white"/>
<path d="M248.154 43L257 51.8419L236.842 72L228 63.1542L248.154 43Z" fill="white"/>
<path d="M61.463 229L70 237.846L50.5408 258L42 249.158L61.463 229Z" fill="white"/>
<path d="M268 32L260.766 59L241 39.2349L268 32Z" fill="white"/>
<path d="M31 269L37.9669 242L57 261.766L31 269Z" fill="white"/>
<path d="M112 98.6905C122.422 98.7935 130.751 98.8431 136.983 98.8431C143.318 98.8431 148.223 98.7935 151.697 98.6905C155.783 98.5874 158.645 98.4844 160.281 98.3813L167.023 97.7669C169.58 97.5608 173.001 97.2555 177.293 96.8471C181.687 96.435 187.258 95.8205 194 95C185.724 110.475 179.081 123.902 174.077 135.278C169.07 146.655 165.185 156.188 162.427 163.874C159.158 172.79 156.91 180.426 155.684 186.78C155.479 188.421 155.528 190.112 155.837 191.856C156.038 193.287 156.499 194.879 157.214 196.619C157.929 198.363 159.105 199.951 160.741 201.386C157.267 201.489 154.2 201.538 151.545 201.538C148.988 201.435 146.842 201.336 145.107 201.233C143.063 201.13 141.222 201.08 139.59 201.08C138.056 200.977 136.013 201.027 133.456 201.233C131.31 201.435 128.453 201.745 124.876 202.153C121.398 202.565 117.159 203.179 112.152 204C115.421 202.153 118.13 200.462 120.276 198.928C122.422 197.287 124.161 195.902 125.488 194.776C127.022 193.444 128.247 192.211 129.168 191.085C130.903 188.628 132.486 185.758 133.916 182.476C135.45 179.197 136.88 175.659 138.208 171.87C139.639 168.076 141.123 164.13 142.653 160.031C144.186 155.829 145.925 151.628 147.865 147.426C149.296 144.041 150.932 140.354 152.77 136.354C154.303 132.973 156.038 129.077 157.983 124.672C160.026 120.265 162.172 115.551 164.42 110.529C163.192 108.991 161.099 108.067 158.135 107.762C155.273 107.453 152.363 107.453 149.399 107.762C145.925 108.17 142.143 108.838 138.056 109.758C136.42 110.372 134.529 111.605 132.383 113.448C130.545 115.089 128.297 117.498 125.641 120.673C122.985 123.749 120.021 127.951 116.752 133.282C116.444 126.722 116.136 121.906 115.832 118.83L115.371 114.216C115.166 113.09 114.911 111.758 114.606 110.22C114.401 108.888 114.043 107.247 113.533 105.3C113.122 103.354 112.613 101.148 112 98.6905Z" fill="white"/>
</g>
<defs>
<clipPath id="clip0_912_569">
<rect width="300" height="300" fill="white"/>
</clipPath>
</defs>
</svg>
