<svg width="300" height="300" viewBox="0 0 300 300" fill="none" xmlns="http://www.w3.org/2000/svg">
<g clip-path="url(#clip0_912_569)">
<path d="M300 0H0V300H300V0Z" fill="#FF7951"/>
<path d="M267.188 150C267.188 85.2774 214.723 32.8125 150 32.8125C85.2774 32.8125 32.8125 85.2774 32.8125 150C32.8125 214.723 85.2774 267.188 150 267.188C214.723 267.188 267.188 214.723 267.188 150Z" stroke="white" stroke-width="14.6485"/>
<path d="M292.676 150C292.676 71.2032 228.797 7.32422 150 7.32422C71.2032 7.32422 7.32422 71.2032 7.32422 150C7.32422 228.797 71.2032 292.676 150 292.676C228.797 292.676 292.676 228.797 292.676 150Z" stroke="white" stroke-width="14.6485"/>
<path d="M143.555 0H156.152V28.7109H143.555V0Z" fill="white"/>
<path d="M143.555 271.289H156.152V300H143.555V271.289Z" fill="white"/>
<path d="M300 143.848V156.152H270.996V143.848H300Z" fill="white"/>
<path d="M28.7109 143.848V156.152H0V143.848H28.7109Z" fill="white"/>
<path d="M260.375 251.613L251.465 260.52L231.164 240.219L240.07 231.309L260.375 251.613Z" fill="white"/>
<path d="M68.543 59.7812L59.6367 68.6914L39.332 48.3867L48.2422 39.4805L68.543 59.7812Z" fill="white"/>
<path d="M251.465 39.4805L260.375 48.3867L240.07 68.6914L231.164 59.7812L251.465 39.4805Z" fill="white"/>
<path d="M59.6367 231.309L68.543 240.219L48.2422 260.52L39.332 251.613L59.6367 231.309Z" fill="white"/>
<path d="M272.059 27.9922L264.715 55.3984L244.648 35.3359L272.059 27.9922Z" fill="white"/>
<path d="M27.6992 272.059L35.043 244.648L55.1055 264.715L27.6992 272.059Z" fill="white"/>
<path d="M111.812 97.0234C122.512 97.1289 131.062 97.1797 137.461 97.1797C143.965 97.1797 149 97.1289 152.566 97.0234C156.762 96.918 159.699 96.8125 161.379 96.707L168.301 96.0781C170.926 95.8672 174.438 95.5547 178.844 95.1367C183.355 94.7148 189.074 94.0859 195.996 93.2461C187.5 109.086 180.68 122.828 175.543 134.473C170.402 146.117 166.414 155.875 163.582 163.742C160.227 172.867 157.918 180.684 156.66 187.188C156.449 188.867 156.5 190.598 156.816 192.383C157.023 193.848 157.496 195.477 158.23 197.258C158.965 199.043 160.172 200.668 161.852 202.137C158.285 202.242 155.137 202.293 152.41 202.293C149.785 202.187 147.582 202.086 145.801 201.98C143.703 201.875 141.812 201.824 140.137 201.824C138.562 201.719 136.465 201.77 133.84 201.98C131.637 202.187 128.703 202.504 125.031 202.922C121.461 203.344 117.109 203.973 111.969 204.812C115.324 202.922 118.105 201.191 120.309 199.621C122.512 197.941 124.297 196.523 125.66 195.371C127.234 194.008 128.492 192.746 129.438 191.594C131.219 189.078 132.844 186.141 134.312 182.781C135.887 179.426 137.355 175.805 138.719 171.926C140.188 168.043 141.711 164.004 143.281 159.809C144.855 155.508 146.641 151.207 148.633 146.906C150.102 143.441 151.781 139.668 153.668 135.574C155.242 132.113 157.023 128.125 159.02 123.617C161.117 119.105 163.32 114.281 165.629 109.141C164.367 107.566 162.219 106.621 159.176 106.309C156.238 105.992 153.25 105.992 150.207 106.309C146.641 106.727 142.758 107.41 138.562 108.352C136.883 108.98 134.941 110.242 132.738 112.129C130.852 113.809 128.543 116.273 125.816 119.523C123.09 122.672 120.047 126.973 116.691 132.43C116.375 125.715 116.059 120.785 115.746 117.637L115.273 112.914C115.062 111.762 114.801 110.398 114.488 108.824C114.277 107.461 113.91 105.781 113.387 103.789C112.965 101.797 112.441 99.5391 111.812 97.0234Z" fill="white"/>
</g>
<defs>
<clipPath id="clip0_912_569">
<rect width="300" height="300" fill="white"/>
</clipPath>
</defs>
</svg>
