<svg width="100" height="100" viewBox="0 0 100 100" fill="none" xmlns="http://www.w3.org/2000/svg">
<path d="M15 1.5H85C92.4558 1.5 98.5 7.54416 98.5 15V85C98.5 92.4558 92.4558 98.5 85 98.5H15C7.54415 98.5 1.5 92.4558 1.5 85V15C1.5 7.54415 7.54416 1.5 15 1.5Z" fill="#A96FF0" stroke="#707070" stroke-width="3"/>
<rect x="21.0879" y="10.7071" width="11.6009" height="11.8536" rx="1.5" transform="rotate(45 21.0879 10.7071)" stroke="white"/>
<path d="M21 14L22.3505 17.6495L26 19L22.3505 20.3505L21 24L19.6495 20.3505L16 19L19.6495 17.6495L21 14Z" fill="white"/>
<path d="M40 14L41.3505 17.6495L45 19L41.3505 20.3505L40 24L38.6495 20.3505L35 19L38.6495 17.6495L40 14Z" fill="white"/>
<path d="M59 14L60.3505 17.6495L64 19L60.3505 20.3505L59 24L57.6495 20.3505L54 19L57.6495 17.6495L59 14Z" fill="white"/>
<path d="M78 14L79.3505 17.6495L83 19L79.3505 20.3505L78 24L76.6495 20.3505L73 19L76.6495 17.6495L78 14Z" fill="white"/>
<rect x="40.0879" y="10.7071" width="11.6009" height="11.8536" rx="1.5" transform="rotate(45 40.0879 10.7071)" stroke="white"/>
<rect x="59.0898" y="10.7071" width="11.6009" height="11.8536" rx="1.5" transform="rotate(45 59.0898 10.7071)" stroke="white"/>
<rect x="30.0898" y="28.7071" width="11.6009" height="11.8536" rx="1.5" transform="rotate(45 30.0898 28.7071)" stroke="white"/>
<rect x="49.0879" y="28.7071" width="11.6009" height="11.8536" rx="1.5" transform="rotate(45 49.0879 28.7071)" stroke="white"/>
<rect x="68.0898" y="28.7071" width="11.6009" height="11.8536" rx="1.5" transform="rotate(45 68.0898 28.7071)" stroke="white"/>
<rect x="78.0898" y="10.7071" width="11.6009" height="11.8536" rx="1.5" transform="rotate(45 78.0898 10.7071)" stroke="white"/>
<rect x="10" y="8" width="80" height="40" rx="4" stroke="white" stroke-width="2"/>
<path d="M30 32L31.1226 35.4549H34.7553L31.8164 37.5902L32.9389 41.0451L30 38.9098L27.0611 41.0451L28.1836 37.5902L25.2447 35.4549H28.8774L30 32Z" fill="white"/>
<path d="M49 32L50.1226 35.4549H53.7553L50.8164 37.5902L51.9389 41.0451L49 38.9098L46.0611 41.0451L47.1836 37.5902L44.2447 35.4549H47.8774L49 32Z" fill="white"/>
<path d="M68 32L69.1226 35.4549H72.7553L69.8164 37.5902L70.9389 41.0451L68 38.9098L65.0611 41.0451L66.1836 37.5902L63.2447 35.4549H66.8774L68 32Z" fill="white"/>
<rect x="49.5234" y="57.4142" width="22.2933" height="22.7805" rx="1" transform="rotate(45 49.5234 57.4142)" stroke="white" stroke-width="2"/>
<path d="M44.3906 66.5234C45.1719 66.5885 45.8555 66.6276 46.4414 66.6406C47.0404 66.6536 47.5482 66.6602 47.9648 66.6602C48.4466 66.6602 48.8633 66.6471 49.2148 66.6211C49.5794 66.582 50.0547 66.5299 50.6406 66.4648C51.1354 66.3997 51.7734 66.3151 52.5547 66.2109C53.3359 66.0938 54.2865 65.944 55.4062 65.7617C55.263 65.9831 55.1393 66.2174 55.0352 66.4648C54.944 66.6992 54.8659 66.9141 54.8008 67.1094C54.7357 67.3438 54.6771 67.5716 54.625 67.793C54.5859 68.0404 54.5404 68.3464 54.4883 68.7109C54.4362 69.0234 54.3711 69.4206 54.293 69.9023C54.2279 70.3711 54.1432 70.931 54.0391 71.582C53.6484 70.5664 53.2513 69.7852 52.8477 69.2383C52.457 68.6914 52.0924 68.2878 51.7539 68.0273C51.3633 67.7279 50.9922 67.5586 50.6406 67.5195C50.1328 67.5195 49.7161 67.6172 49.3906 67.8125C49.0651 68.0078 48.7982 68.2617 48.5898 68.5742C48.3945 68.8737 48.2448 69.2057 48.1406 69.5703C48.0365 69.9219 47.9648 70.2669 47.9258 70.6055C47.8867 70.931 47.8607 71.224 47.8477 71.4844C47.8346 71.7318 47.8216 71.901 47.8086 71.9922C48.2643 71.9661 48.6484 71.9336 48.9609 71.8945C49.2734 71.8555 49.5208 71.8164 49.7031 71.7773C49.9245 71.7253 50.1003 71.6732 50.2305 71.6211C50.4258 71.5169 50.6211 71.3932 50.8164 71.25C50.9857 71.1198 51.1615 70.9635 51.3438 70.7812C51.5391 70.599 51.7083 70.3776 51.8516 70.1172C51.7734 70.5859 51.7018 70.9766 51.6367 71.2891C51.5846 71.6016 51.5391 71.849 51.5 72.0312C51.4479 72.2526 51.4154 72.4219 51.4023 72.5391C51.3763 72.6562 51.3438 72.819 51.3047 73.0273C51.2656 73.2096 51.2201 73.444 51.168 73.7305C51.1159 74.0169 51.0573 74.375 50.9922 74.8047C50.8359 74.5312 50.6732 74.3099 50.5039 74.1406C50.3346 73.9583 50.1784 73.8151 50.0352 73.7109C49.8659 73.5938 49.7031 73.5026 49.5469 73.4375C49.3776 73.3854 49.1953 73.3333 49 73.2812C48.8307 73.2422 48.6289 73.2031 48.3945 73.1641C48.1732 73.112 47.9323 73.0664 47.6719 73.0273C47.6979 73.7305 47.737 74.3359 47.7891 74.8438C47.8411 75.3385 47.8867 75.7552 47.9258 76.0938C47.9779 76.4844 48.0299 76.8099 48.082 77.0703C48.1471 77.3307 48.2513 77.6107 48.3945 77.9102C48.5117 78.1706 48.6745 78.4701 48.8828 78.8086C49.1042 79.1341 49.3841 79.4857 49.7227 79.8633C49.4622 79.7982 49.1888 79.7526 48.9023 79.7266C48.6159 79.7005 48.362 79.681 48.1406 79.668C47.8672 79.6549 47.6068 79.6549 47.3594 79.668C47.099 79.681 46.8125 79.707 46.5 79.7461C46.2396 79.7721 45.9401 79.8112 45.6016 79.8633C45.263 79.9154 44.9049 79.974 44.5273 80.0391C44.7487 79.8177 44.931 79.5964 45.0742 79.375C45.2174 79.1536 45.3216 78.9583 45.3867 78.7891C45.4648 78.5938 45.5169 78.4049 45.543 78.2227C45.556 78.0664 45.5625 77.7279 45.5625 77.207C45.5625 76.6732 45.556 76.0547 45.543 75.3516C45.5299 74.6354 45.5104 73.8802 45.4844 73.0859C45.4583 72.2917 45.4323 71.5495 45.4062 70.8594C45.3802 70.1562 45.3477 69.5573 45.3086 69.0625C45.2826 68.5677 45.25 68.2682 45.2109 68.1641C45.1589 68.0339 45.1003 67.8841 45.0352 67.7148C44.931 67.4414 44.7161 67.0443 44.3906 66.5234Z" fill="white"/>
</svg>
