<?xml version="1.0" encoding="UTF-8"?>
<svg xmlns="http://www.w3.org/2000/svg" xmlns:xlink="http://www.w3.org/1999/xlink" width="600px" height="600px" viewBox="0 0 600 600" version="1.1">
<g id="surface1">
<path style="fill-rule:nonzero;fill:rgb(66.274512%,43.529412%,94.117647%);fill-opacity:1;stroke-width:3;stroke-linecap:butt;stroke-linejoin:miter;stroke:rgb(43.921569%,43.921569%,43.921569%);stroke-opacity:1;stroke-miterlimit:4;" d="M 15 1.5 L 85 1.5 C 92.455729 1.5 98.5 7.544271 98.5 15 L 98.5 85 C 98.5 92.455729 92.455729 98.5 85 98.5 L 15 98.5 C 7.544271 98.5 1.5 92.455729 1.5 85 L 1.5 15 C 1.5 7.544271 7.544271 1.5 15 1.5 Z M 15 1.5 " transform="matrix(6,0,0,6,0,0)"/>
<path style=" stroke:none;fill-rule:nonzero;fill:rgb(100%,100%,100%);fill-opacity:0.8;" d="M 363 148.019531 L 359.070312 171.035156 L 373.980469 189 L 350.964844 185.070312 L 333 199.980469 L 336.933594 176.964844 L 322.019531 159 L 345.035156 162.933594 Z M 363 148.019531 "/>
<path style=" stroke:none;fill-rule:nonzero;fill:rgb(100%,100%,100%);fill-opacity:0.8;" d="M 457.980469 237 L 443.066406 254.964844 L 447 277.980469 L 429.035156 263.070312 L 406.019531 267 L 420.929688 249.035156 L 417 226.019531 L 434.964844 240.933594 Z M 457.980469 237 "/>
<path style=" stroke:none;fill-rule:nonzero;fill:rgb(100%,100%,100%);fill-opacity:0.8;" d="M 457.980469 387 L 434.964844 383.070312 L 417 397.980469 L 420.929688 374.964844 L 406.019531 357 L 429.035156 360.933594 L 447 346.019531 L 443.066406 369.035156 Z M 457.980469 387 "/>
<path style=" stroke:none;fill-rule:nonzero;fill:rgb(100%,100%,100%);fill-opacity:0.8;" d="M 373.980469 429 L 359.066406 446.964844 L 363 469.980469 L 345.035156 455.070312 L 322.019531 459 L 336.929688 441.035156 L 333 418.019531 L 350.964844 432.933594 Z M 373.980469 429 "/>
<path style=" stroke:none;fill-rule:nonzero;fill:rgb(100%,100%,100%);fill-opacity:0.8;" d="M 231 148.019531 L 234.929688 171.035156 L 220.019531 189 L 243.035156 185.070312 L 261 199.980469 L 257.066406 176.964844 L 271.980469 159 L 248.964844 162.933594 Z M 231 148.019531 "/>
<path style=" stroke:none;fill-rule:nonzero;fill:rgb(100%,100%,100%);fill-opacity:0.8;" d="M 177 226.019531 L 159.035156 240.933594 L 136.019531 237 L 150.929688 254.964844 L 147 277.980469 L 164.964844 263.070312 L 187.980469 267 L 173.066406 249.035156 Z M 177 226.019531 "/>
<path style=" stroke:none;fill-rule:nonzero;fill:rgb(100%,100%,100%);fill-opacity:0.8;" d="M 190.972656 364.234375 L 167.726562 362.074219 L 154.230469 343.019531 L 152.074219 366.269531 L 133.019531 379.761719 L 156.265625 381.921875 L 169.761719 400.976562 L 171.917969 377.726562 Z M 190.972656 364.234375 "/>
<path style=" stroke:none;fill-rule:nonzero;fill:rgb(100%,100%,100%);fill-opacity:0.8;" d="M 261 418.019531 L 243.035156 432.933594 L 220.019531 429 L 234.929688 446.964844 L 231 469.980469 L 248.964844 455.070312 L 271.980469 459 L 257.066406 441.035156 Z M 261 418.019531 "/>
<path style=" stroke:none;fill-rule:nonzero;fill:rgb(100%,100%,100%);fill-opacity:1;" d="M 132 303 L 96.757812 314.449219 L 96.757812 351.503906 L 74.980469 321.527344 L 39.738281 332.976562 L 61.519531 303 L 39.738281 273.023438 L 74.980469 284.472656 L 96.757812 254.496094 L 96.757812 291.550781 Z M 132 303 "/>
<path style=" stroke:none;fill-rule:nonzero;fill:rgb(100%,100%,100%);fill-opacity:1;" d="M 183.066406 189.0625 L 150.050781 172.238281 L 123.851562 198.441406 L 129.648438 161.84375 L 96.632812 145.023438 L 133.230469 139.226562 L 139.027344 102.628906 L 155.847656 135.644531 L 192.445312 129.847656 L 166.246094 156.046875 Z M 183.066406 189.0625 "/>
<path style=" stroke:none;fill-rule:nonzero;fill:rgb(100%,100%,100%);fill-opacity:1;" d="M 462 303 L 497.242188 314.449219 L 497.242188 351.503906 L 519.019531 321.527344 L 554.257812 332.976562 L 532.480469 303 L 554.257812 273.023438 L 519.019531 284.472656 L 497.242188 254.496094 L 497.242188 291.550781 Z M 462 303 "/>
<path style=" stroke:none;fill-rule:nonzero;fill:rgb(100%,100%,100%);fill-opacity:1;" d="M 410.933594 189.0625 L 443.949219 172.238281 L 470.148438 198.441406 L 464.351562 161.84375 L 497.367188 145.023438 L 460.769531 139.226562 L 454.972656 102.628906 L 438.152344 135.644531 L 401.554688 129.847656 L 427.753906 156.046875 Z M 410.933594 189.0625 "/>
<path style=" stroke:none;fill-rule:nonzero;fill:rgb(100%,100%,100%);fill-opacity:1;" d="M 297 132 L 308.449219 96.757812 L 345.503906 96.757812 L 315.527344 74.980469 L 326.976562 39.738281 L 297 61.519531 L 267.023438 39.738281 L 278.472656 74.980469 L 248.496094 96.757812 L 285.550781 96.757812 Z M 297 132 "/>
<path style=" stroke:none;fill-rule:nonzero;fill:rgb(100%,100%,100%);fill-opacity:1;" d="M 183.066406 422.9375 L 150.050781 439.761719 L 123.851562 413.558594 L 129.648438 450.15625 L 96.632812 466.976562 L 133.230469 472.773438 L 139.027344 509.371094 L 155.847656 476.355469 L 192.445312 482.152344 L 166.246094 455.953125 Z M 183.066406 422.9375 "/>
<path style=" stroke:none;fill-rule:nonzero;fill:rgb(100%,100%,100%);fill-opacity:1;" d="M 447 510 L 435.550781 474.757812 L 398.496094 474.757812 L 428.472656 452.980469 L 417.023438 417.742188 L 447 439.519531 L 476.976562 417.742188 L 465.527344 452.980469 L 495.503906 474.757812 L 458.449219 474.757812 Z M 447 510 "/>
<path style=" stroke:none;fill-rule:nonzero;fill:rgb(100%,100%,100%);fill-opacity:1;" d="M 297 480 L 308.449219 515.242188 L 345.503906 515.242188 L 315.527344 537.019531 L 326.976562 572.257812 L 297 550.480469 L 267.023438 572.257812 L 278.472656 537.019531 L 248.496094 515.242188 L 285.550781 515.242188 Z M 297 480 "/>
<path style=" stroke:none;fill-rule:nonzero;fill:rgb(100%,100%,100%);fill-opacity:0.501961;" d="M 246 222 L 250.039062 234.4375 L 263.121094 234.4375 L 252.539062 242.125 L 256.582031 254.5625 L 246 246.875 L 235.417969 254.5625 L 239.460938 242.125 L 228.878906 234.4375 L 241.960938 234.4375 Z M 246 222 "/>
<path style=" stroke:none;fill-rule:nonzero;fill:rgb(100%,100%,100%);fill-opacity:0.501961;" d="M 354 222 L 349.960938 234.4375 L 336.878906 234.4375 L 347.460938 242.125 L 343.417969 254.5625 L 354 246.875 L 364.582031 254.5625 L 360.539062 242.125 L 371.121094 234.4375 L 358.039062 234.4375 Z M 354 222 "/>
<path style=" stroke:none;fill-rule:nonzero;fill:rgb(100%,100%,100%);fill-opacity:0.501961;" d="M 246 396 L 250.039062 383.5625 L 263.121094 383.5625 L 252.539062 375.875 L 256.582031 363.4375 L 246 371.125 L 235.417969 363.4375 L 239.460938 375.875 L 228.878906 383.5625 L 241.960938 383.5625 Z M 246 396 "/>
<path style=" stroke:none;fill-rule:nonzero;fill:rgb(100%,100%,100%);fill-opacity:0.501961;" d="M 354 396 L 349.960938 383.5625 L 336.878906 383.5625 L 347.460938 375.875 L 343.417969 363.4375 L 354 371.125 L 364.582031 363.4375 L 360.539062 375.875 L 371.121094 383.5625 L 358.039062 383.5625 Z M 354 396 "/>
<path style="fill:none;stroke-width:2;stroke-linecap:butt;stroke-linejoin:miter;stroke:rgb(100%,100%,100%);stroke-opacity:1;stroke-miterlimit:4;" d="M 51.523222 35.414076 L 71.816635 35.414076 C 72.369062 35.414076 72.816988 35.862002 72.816528 36.413969 L 72.816528 57.194438 C 72.816528 57.746865 72.369062 58.194331 71.816635 58.194331 L 51.523683 58.194791 C 50.971256 58.194791 50.523329 57.746865 50.523329 57.194438 L 50.523329 36.413969 C 50.523329 35.861542 50.970795 35.414076 51.523222 35.414076 Z M 51.523222 35.414076 " transform="matrix(4.242641,4.242641,-4.242641,4.242641,239.037491,-152.117156)"/>
<path style=" stroke:none;fill-rule:nonzero;fill:rgb(100%,100%,100%);fill-opacity:1;" d="M 272.34375 267.140625 C 277.03125 267.53125 281.132812 267.765625 284.648438 267.84375 C 288.242188 267.921875 291.289062 267.960938 293.789062 267.960938 C 296.679688 267.960938 299.179688 267.882812 301.289062 267.726562 C 303.476562 267.492188 306.328125 267.179688 309.84375 266.789062 C 312.8125 266.398438 316.640625 265.890625 321.328125 265.265625 C 326.015625 264.5625 331.71875 263.664062 338.4375 262.570312 C 337.578125 263.898438 336.835938 265.304688 336.210938 266.789062 C 335.664062 268.195312 335.195312 269.484375 334.804688 270.65625 C 334.414062 272.0625 334.0625 273.429688 333.75 274.757812 C 333.515625 276.242188 333.242188 278.078125 332.929688 280.265625 C 332.617188 282.140625 332.226562 284.523438 331.757812 287.414062 C 331.367188 290.226562 330.859375 293.585938 330.234375 297.492188 C 327.890625 291.398438 325.507812 286.710938 323.085938 283.429688 C 320.742188 280.148438 318.554688 277.726562 316.523438 276.164062 C 314.179688 274.367188 311.953125 273.351562 309.84375 273.117188 C 306.796875 273.117188 304.296875 273.703125 302.34375 274.875 C 300.390625 276.046875 298.789062 277.570312 297.539062 279.445312 C 296.367188 281.242188 295.46875 283.234375 294.84375 285.421875 C 294.21875 287.53125 293.789062 289.601562 293.554688 291.632812 C 293.320312 293.585938 293.164062 295.34375 293.085938 296.90625 C 293.007812 298.390625 292.929688 299.40625 292.851562 299.953125 C 295.585938 299.796875 297.890625 299.601562 299.765625 299.367188 C 301.640625 299.132812 303.125 298.898438 304.21875 298.664062 C 305.546875 298.351562 306.601562 298.039062 307.382812 297.726562 C 308.554688 297.101562 309.726562 296.359375 310.898438 295.5 C 311.914062 294.71875 312.96875 293.78125 314.0625 292.6875 C 315.234375 291.59375 316.25 290.265625 317.109375 288.703125 C 316.640625 291.515625 316.210938 293.859375 315.820312 295.734375 C 315.507812 297.609375 315.234375 299.09375 315 300.1875 C 314.6875 301.515625 314.492188 302.53125 314.414062 303.234375 C 314.257812 303.9375 314.0625 304.914062 313.828125 306.164062 C 313.59375 307.257812 313.320312 308.664062 313.007812 310.382812 C 312.695312 312.101562 312.34375 314.25 311.953125 316.828125 C 311.015625 315.1875 310.039062 313.859375 309.023438 312.84375 C 308.007812 311.75 307.070312 310.890625 306.210938 310.265625 C 305.195312 309.5625 304.21875 309.015625 303.28125 308.625 C 302.265625 308.3125 301.171875 308 300 307.6875 C 298.984375 307.453125 297.773438 307.21875 296.367188 306.984375 C 295.039062 306.671875 293.59375 306.398438 292.03125 306.164062 C 292.1875 310.382812 292.421875 314.015625 292.734375 317.0625 C 293.046875 320.03125 293.320312 322.53125 293.554688 324.5625 C 293.867188 326.90625 294.179688 328.859375 294.492188 330.421875 C 294.882812 331.984375 295.507812 333.664062 296.367188 335.460938 C 297.070312 337.023438 298.046875 338.820312 299.296875 340.851562 C 300.625 342.804688 302.304688 344.914062 304.335938 347.179688 C 302.773438 346.789062 301.132812 346.515625 299.414062 346.359375 C 297.695312 346.203125 296.171875 346.085938 294.84375 346.007812 C 293.203125 345.929688 291.640625 345.929688 290.15625 346.007812 C 288.59375 346.085938 286.875 346.242188 285 346.476562 C 283.4375 346.632812 281.640625 346.867188 279.609375 347.179688 C 277.578125 347.492188 275.429688 347.84375 273.164062 348.234375 C 274.492188 346.90625 275.585938 345.578125 276.445312 344.25 C 277.304688 342.921875 277.929688 341.75 278.320312 340.734375 C 278.789062 339.5625 279.101562 338.429688 279.257812 337.335938 C 279.335938 336.398438 279.375 334.367188 279.375 331.242188 C 279.375 328.039062 279.335938 324.328125 279.257812 320.109375 C 279.179688 315.8125 279.0625 311.28125 278.90625 306.515625 C 278.75 301.75 278.59375 297.296875 278.4375 293.15625 C 278.28125 288.9375 278.085938 285.34375 277.851562 282.375 C 277.695312 279.40625 277.5 277.609375 277.265625 276.984375 C 276.953125 276.203125 276.601562 275.304688 276.210938 274.289062 C 275.585938 272.648438 274.296875 270.265625 272.34375 267.140625 Z M 272.34375 267.140625 "/>
</g>
</svg>
