<svg width="100" height="100" viewBox="0 0 100 100" fill="none" xmlns="http://www.w3.org/2000/svg">
<rect width="100" height="100" fill="white"/>
<path fill-rule="evenodd" clip-rule="evenodd" d="M100 0H0V100H100V0ZM70.9205 20.1065L70.2463 17.9456L67.9833 18.0009L23.1154 19.097L21.5557 19.1352L20.6913 20.434L18.5026 23.7224L17.9884 24.495L18.0002 25.4229L18.5467 68.2025C18.5339 68.7391 18.5364 69.2898 18.5581 69.8495L18.559 69.9884L18.5665 70.046C18.6222 71.2399 18.7669 72.472 19.0392 73.6941L19.1403 74.4738L19.228 74.4624C19.7492 76.3967 20.6137 78.2802 21.9769 79.9187L22.9719 81.1147L24.5227 80.9904L79.2396 76.6058L78.9279 72.7163L79.4971 72.3373C79.2454 71.9594 79.0163 71.587 78.8081 71.2205L78.7604 70.625L78.4963 70.6461C75.4146 64.6927 77.855 60.3892 79.1226 59.12L79.0801 59.0775L79.18 59.0715L83.0051 58.8416L81.8639 55.1834L70.9205 20.1065ZM25.7832 74.8702C25.4266 74.1982 25.1512 73.4454 24.9512 72.6281L24.5564 69.5811L24.5474 68.2509C24.6088 66.0647 24.9921 63.9325 25.4344 62.2522C32.6768 61.8522 55.7376 60.4774 71.9985 59.5026C70.8364 62.5696 70.4424 66.6114 72.1579 71.154L25.7832 74.8702ZM29.5405 56.0107C28.2571 56.085 27.1295 56.1496 26.1887 56.2028L26.1887 25.0238L65.8669 24.0544L74.9948 53.312C66.1234 53.8444 54.4461 54.5426 44.4056 55.1375C38.6243 55.48 33.3868 55.7882 29.5405 56.0107Z" fill="#933FFF"/>
</svg>
