<svg width="300" height="300" viewBox="0 0 300 300" fill="none" xmlns="http://www.w3.org/2000/svg">
<g clip-path="url(#clip0_916_724)">
<path d="M300 0.5H0.292969V299.5H300V0.5Z" fill="#FF9951"/>
<path d="M265 150C265 86.4885 213.514 35 149.998 35C86.4863 35 35 86.4885 35 150C35 213.512 86.4863 265 149.998 265C213.514 265 265 213.512 265 150Z" stroke="white" stroke-width="14.6169"/>
<path d="M143.707 0.5H156.293V29.1172H143.707V0.5Z" fill="white"/>
<path d="M143.707 270.883H156.293V299.5H143.707V270.883Z" fill="white"/>
<path d="M297 144V156H271V144H297Z" fill="white"/>
<path d="M29 144V156H3V144H29Z" fill="white"/>
<path d="M258 249.766L249.764 258L231 239.234L239.233 231L258 249.766Z" fill="white"/>
<path d="M69 61.0706L60.7663 69L42 50.9294L50.2337 43L69 61.0706Z" fill="white"/>
<path d="M249.764 43L258 50.9294L239.233 69L231 61.0706L249.764 43Z" fill="white"/>
<path d="M60.7674 231L69 239.234L50.2362 258L42 249.766L60.7674 231Z" fill="white"/>
<path fill-rule="evenodd" clip-rule="evenodd" d="M121 295V280.25C61.6912 266.657 17.4595 213.725 17.4595 150.5C17.4595 87.275 61.6912 34.3433 121 20.7499V6C53.6393 19.8478 3 79.2832 3 150.5C3 221.717 53.6393 281.152 121 295Z" fill="white"/>
<path fill-rule="evenodd" clip-rule="evenodd" d="M179 6V20.7499C238.309 34.3433 282.54 87.275 282.54 150.5C282.54 213.725 238.309 266.657 179 280.25V295C246.361 281.152 297 221.717 297 150.5C297 79.2832 246.361 19.8478 179 6Z" fill="white"/>
<path d="M86.5117 109.117C90.1797 107.969 93.1641 107.027 95.4688 106.297C97.7773 105.461 99.6641 104.781 101.129 104.258C102.809 103.629 104.062 103.055 104.902 102.531L108.676 100.648C110.145 99.918 112.031 98.9766 114.336 97.8281C116.641 96.5703 119.629 95.0039 123.297 93.1211C122.457 97.0937 121.828 100.859 121.41 104.414C121.094 107.863 120.832 110.949 120.625 113.668C120.309 116.805 120.152 119.68 120.152 122.293C120.047 124.488 119.891 127.414 119.68 131.074C119.574 134.734 119.418 138.707 119.207 142.996C119 147.281 118.789 151.672 118.578 156.168C118.371 160.664 118.211 164.898 118.109 168.871C118.109 172.742 118.16 176.086 118.266 178.91C118.473 181.73 118.84 183.668 119.367 184.711C119.891 185.965 120.57 187.168 121.41 188.32C122.145 189.363 122.98 190.566 123.926 191.926C124.973 193.18 126.23 194.434 127.699 195.691C125.285 196.211 123.035 196.684 120.938 197.102C118.84 197.414 117.008 197.676 115.434 197.887C113.551 198.199 111.871 198.461 110.406 198.668C108.832 198.773 106.684 199.035 103.961 199.453C101.652 199.766 98.7188 200.188 95.1562 200.707C91.5938 201.125 87.1914 201.598 81.9531 202.121C84.6758 200.445 86.8242 198.828 88.3945 197.258C90.0742 195.691 91.332 194.332 92.168 193.18C93.1133 191.82 93.6875 190.516 93.8984 189.262C94.0039 188.422 94.1602 186.176 94.3711 182.516C94.6836 178.754 94.9453 174.359 95.1562 169.344C95.4688 164.219 95.7344 158.781 95.9414 153.031C96.2578 147.176 96.4648 141.738 96.5703 136.723C96.6758 131.703 96.7266 127.414 96.7266 123.859C96.7266 120.305 96.5703 118.164 96.2578 117.43C95.8359 116.699 95.207 115.863 94.3711 114.922C93.6367 114.086 92.6406 113.195 91.3828 112.254C90.2305 111.316 88.6055 110.27 86.5117 109.117ZM143.418 93.75C148.449 94.6914 152.848 95.3711 156.621 95.7891C160.395 96.207 163.594 96.5195 166.211 96.7305C169.25 96.9375 171.871 96.9922 174.07 96.8867C176.273 96.8867 179.051 96.7305 182.402 96.4141C185.234 96.207 188.797 95.9453 193.094 95.6328C197.496 95.2148 202.684 94.7422 208.656 94.2188C208.344 97.043 208.027 99.6055 207.715 101.906C207.504 104.102 207.293 105.98 207.086 107.551C206.875 109.434 206.719 111.105 206.613 112.57C206.508 114.137 206.352 115.914 206.141 117.902C205.934 119.68 205.723 121.875 205.512 124.488C205.406 127.102 205.305 130.133 205.199 133.586C201.215 126.996 197.602 121.926 194.352 118.371C191.102 114.711 188.273 111.992 185.863 110.215C183.137 108.23 180.676 107.027 178.473 106.609H172.027C170.141 106.609 168.098 106.66 165.898 106.766C163.695 106.871 161.707 107.078 159.922 107.395L160.551 144.406C162.648 141.793 164.953 139.859 167.469 138.602C169.984 137.348 172.449 136.461 174.859 135.938C177.582 135.414 180.359 135.203 183.191 135.309C190.527 135.938 196.184 137.191 200.168 139.074C204.254 140.957 207.188 143.727 208.973 147.387C209.809 149.27 210.492 152.145 211.016 156.012C211.645 159.777 211.852 163.852 211.645 168.246C211.434 172.637 210.754 176.977 209.602 181.262C208.445 185.445 206.613 188.84 204.098 191.457C201.582 193.965 199.121 196.055 196.711 197.73C194.297 199.297 191.887 200.605 189.477 201.648C187.066 202.59 184.551 203.27 181.934 203.688C179.312 204.105 176.535 204.422 173.602 204.629C168.883 204.941 164.379 204.422 160.082 203.062C155.785 201.703 152.012 199.871 148.762 197.57C145.512 195.273 142.895 192.816 140.902 190.199C138.91 187.484 137.812 185.023 137.602 182.828C137.391 181.156 137.285 179.484 137.285 177.812C137.285 176.348 137.34 174.832 137.445 173.262C137.652 171.695 138.02 170.336 138.543 169.184L179.262 172.008C175.277 173.262 172.289 174.621 170.301 176.086C168.309 177.445 166.895 178.754 166.055 180.008C165.008 181.469 164.586 182.934 164.797 184.398C165.531 188.16 166.84 191.246 168.727 193.652C170.613 195.953 172.762 196.891 175.172 196.473C176.43 196.266 177.844 195.43 179.418 193.965C181.094 192.395 182.664 190.461 184.133 188.16C185.703 185.863 187.066 183.301 188.219 180.477C189.477 177.551 190.266 174.621 190.578 171.695C190.895 168.766 191.102 165.684 191.207 162.441C191.418 159.199 191.312 156.219 190.895 153.504C190.473 150.785 189.738 148.535 188.691 146.758C187.645 144.875 186.125 143.934 184.133 143.934C182.457 144.145 180.57 144.824 178.473 145.973C176.691 147.02 174.543 148.59 172.027 150.68C169.617 152.77 166.895 155.801 163.855 159.777C161.758 159.254 159.977 158.73 158.508 158.207C157.145 157.578 155.992 157.059 155.051 156.641C153.898 156.219 153.008 155.75 152.379 155.227C151.75 154.809 150.91 154.285 149.863 153.66C149.023 153.137 147.977 152.508 146.719 151.777C145.461 150.941 143.941 149.949 142.16 148.797C142.578 144.719 142.84 141.27 142.945 138.445C143.051 135.625 143.156 133.324 143.262 131.547V126.371C143.156 124.906 143.102 122.762 143.102 119.941C143.102 117.535 143.102 114.242 143.102 110.059C143.102 105.773 143.207 100.336 143.418 93.75Z" fill="white"/>
</g>
<defs>
<clipPath id="clip0_916_724">
<rect width="300" height="300" fill="white"/>
</clipPath>
</defs>
</svg>
