<svg width="300" height="300" viewBox="0 0 300 300" fill="none" xmlns="http://www.w3.org/2000/svg">
<g clip-path="url(#clip0_912_162)">
<path d="M300 0H0V300H300V0Z" fill="#51ABFF"/>
<path d="M143.555 0H156.152V28.7109H143.555V0Z" fill="white"/>
<path d="M143.555 28.7109H156.152V57.4219H143.555V28.7109Z" fill="white"/>
<path d="M143.555 271.289H156.152V300H143.555V271.289Z" fill="white"/>
<path d="M143.555 242.578H156.152V271.289H143.555V242.578Z" fill="white"/>
<path d="M273.047 144.434V157.031H244.336V144.434H273.047Z" fill="white"/>
<path d="M57.4219 143.555V156.152H28.7109V143.555H57.4219Z" fill="white"/>
<path d="M231.238 58.8867L240.148 67.793L219.844 88.0977L210.938 79.1875L231.238 58.8867Z" fill="white"/>
<path d="M79.1875 211.816L88.0977 220.723L67.793 241.027L58.8867 232.117L79.1875 211.816Z" fill="white"/>
<path d="M69.625 91.5156C71.4062 92.7734 73.2422 93.7188 75.1328 94.3477C77.0195 94.9766 78.6992 95.4492 80.168 95.7656C81.9492 96.1836 83.6797 96.3945 85.3594 96.3945C87.457 96.3945 89.3477 96.1328 91.0234 95.6055C92.8086 95.082 94.75 94.5586 96.8477 94.0352C98.9453 93.5078 101.359 93.0898 104.086 92.7734C106.812 92.3555 110.223 92.3008 114.312 92.6172C118.406 92.9336 122.078 93.875 125.328 95.4492C128.582 96.918 131.309 98.8047 133.512 101.113C135.82 103.316 137.602 105.781 138.859 108.512C140.121 111.238 140.75 114.016 140.75 116.852C140.539 121.152 139.859 125.191 138.703 128.965C137.656 132.219 136.027 135.418 133.824 138.566C131.621 141.605 128.371 143.758 124.07 145.016C129.316 145.75 133.406 147.113 136.344 149.109C139.387 151.102 141.746 153.148 143.426 155.246C145.313 157.762 146.625 160.488 147.359 163.426C147.988 167.309 147.934 171.297 147.199 175.387C146.465 179.371 145.102 183.148 143.109 186.715C141.223 190.18 138.598 193.273 135.242 196C131.988 198.621 128.055 200.562 123.441 201.824C120.293 202.66 116.672 202.871 112.582 202.453C108.598 201.926 104.715 201.191 100.938 200.25C97.1602 199.305 93.7539 198.359 90.7109 197.418C87.668 196.473 85.5703 196.051 84.4141 196.156C83.4727 196.262 82.3711 196.629 81.1094 197.258C79.957 197.785 78.5938 198.621 77.0195 199.777C75.5508 200.824 73.7695 202.348 71.668 204.34C72.1953 199.621 72.5625 195.844 72.7695 193.012C73.0859 190.18 73.3477 187.922 73.5586 186.242C73.7695 184.355 73.8711 182.941 73.8711 181.996V178.535C73.8711 177.273 73.8203 175.648 73.7148 173.656C73.6094 171.664 73.5039 169.145 73.4023 166.102C78.75 172.605 83.7852 177.484 88.5078 180.738C93.2266 183.988 97.3711 186.348 100.938 187.816C105.133 189.496 108.965 190.281 112.426 190.18C115.363 189.969 117.723 189.023 119.508 187.344C121.289 185.562 122.547 183.465 123.281 181.051C124.016 178.637 124.277 176.07 124.07 173.34C123.859 170.508 123.18 167.887 122.023 165.473C120.977 162.957 119.508 160.805 117.617 159.02C115.73 157.133 113.527 155.98 111.008 155.559C107.965 155.035 105.082 154.984 102.355 155.402C99.9414 155.719 97.4219 156.453 94.8008 157.605C92.1797 158.656 89.9766 160.488 88.1914 163.113C87.9805 161.328 87.8242 159.809 87.7188 158.551C87.7188 157.289 87.668 156.242 87.5625 155.402C87.457 154.457 87.4062 153.777 87.4062 153.355C87.4062 152.832 87.3516 152.047 87.25 150.996C87.1445 150.156 87.0391 149.055 86.9336 147.691C86.9336 146.223 86.8281 144.387 86.6172 142.184C88.5078 142.707 90.2891 143.129 91.9688 143.441C93.6484 143.652 95.1172 143.809 96.375 143.914C97.8438 144.02 99.207 144.02 100.465 143.914C102.039 143.809 103.93 143.234 106.133 142.184C108.438 141.031 110.59 139.508 112.582 137.621C114.574 135.734 116.148 133.477 117.305 130.855C118.562 128.23 118.98 125.348 118.562 122.199C117.617 115.801 115.469 111.238 112.109 108.512C108.859 105.676 105.5 104.367 102.039 104.574C99.7305 104.891 97.0039 105.992 93.8555 107.879C91.1289 109.453 87.8789 111.867 84.1016 115.117C80.4297 118.266 76.2344 122.727 71.5117 128.496C71.7227 125.66 71.8281 123.145 71.8281 120.941C71.8281 118.633 71.8281 116.746 71.8281 115.277C71.8281 113.492 71.7734 111.918 71.668 110.555L71.1992 105.836C70.9883 104.262 70.7773 102.27 70.5664 99.8555C70.3594 97.4414 70.043 94.6641 69.625 91.5156ZM160.262 93.5625C165.297 94.5039 169.703 95.1875 173.48 95.6055C177.254 96.0273 180.457 96.3398 183.078 96.5508C186.121 96.7617 188.742 96.8125 190.945 96.707C193.148 96.707 195.93 96.5508 199.285 96.2344C202.117 96.0273 205.684 95.7656 209.984 95.4492C214.391 95.0312 219.586 94.5586 225.562 94.0352C225.25 96.8672 224.934 99.4375 224.621 101.742C224.41 103.945 224.199 105.836 223.992 107.41C223.781 109.297 223.625 110.977 223.52 112.445C223.414 114.016 223.258 115.801 223.047 117.793C222.836 119.578 222.625 121.781 222.418 124.402C222.312 127.027 222.207 130.066 222.102 133.531C218.117 126.922 214.496 121.832 211.246 118.266C207.992 114.594 205.16 111.867 202.746 110.082C200.02 108.09 197.555 106.883 195.352 106.465H188.898C187.012 106.465 184.965 106.516 182.762 106.621C180.559 106.727 178.566 106.938 176.785 107.25L177.414 144.387C179.512 141.766 181.82 139.824 184.336 138.566C186.855 137.305 189.32 136.414 191.734 135.891C194.461 135.367 197.238 135.156 200.074 135.262C207.414 135.891 213.082 137.148 217.066 139.039C221.16 140.926 224.094 143.707 225.879 147.379C226.719 149.266 227.398 152.148 227.926 156.031C228.555 159.809 228.766 163.898 228.555 168.305C228.344 172.711 227.664 177.066 226.508 181.367C225.355 185.562 223.52 188.973 221 191.594C218.484 194.113 216.02 196.211 213.605 197.887C211.191 199.461 208.781 200.773 206.367 201.824C203.953 202.766 201.438 203.449 198.812 203.867C196.191 204.289 193.41 204.602 190.473 204.812C185.754 205.125 181.242 204.602 176.941 203.238C172.641 201.875 168.863 200.039 165.613 197.73C162.359 195.422 159.738 192.957 157.742 190.336C155.75 187.609 154.648 185.141 154.438 182.941C154.23 181.262 154.125 179.582 154.125 177.902C154.125 176.434 154.176 174.914 154.281 173.34C154.492 171.766 154.859 170.402 155.383 169.25L196.137 172.082C192.152 173.34 189.164 174.703 187.168 176.172C185.176 177.535 183.762 178.848 182.922 180.105C181.871 181.574 181.453 183.043 181.66 184.512C182.395 188.289 183.707 191.383 185.594 193.797C187.484 196.105 189.633 197.051 192.047 196.629C193.305 196.418 194.723 195.582 196.297 194.113C197.973 192.539 199.547 190.598 201.016 188.289C202.59 185.98 203.953 183.41 205.109 180.578C206.367 177.641 207.152 174.703 207.469 171.766C207.781 168.828 207.992 165.734 208.098 162.484C208.309 159.23 208.203 156.242 207.781 153.516C207.363 150.785 206.629 148.531 205.578 146.746C204.531 144.859 203.008 143.914 201.016 143.914C199.34 144.125 197.449 144.809 195.352 145.961C193.57 147.012 191.418 148.582 188.898 150.68C186.488 152.781 183.762 155.82 180.719 159.809C178.621 159.285 176.836 158.758 175.367 158.234C174.004 157.605 172.852 157.082 171.906 156.66C170.75 156.242 169.859 155.77 169.23 155.246C168.602 154.824 167.762 154.301 166.715 153.672C165.875 153.148 164.824 152.516 163.566 151.781C162.309 150.945 160.785 149.945 159.004 148.793C159.422 144.703 159.684 141.242 159.789 138.406C159.895 135.574 160 133.266 160.105 131.484V126.293C160 124.824 159.945 122.672 159.945 119.84C159.945 117.426 159.945 114.121 159.945 109.926C159.945 105.625 160.051 100.172 160.262 93.5625Z" fill="white"/>
<path d="M274.805 150C274.805 81.0743 218.926 25.1953 150 25.1953C81.0743 25.1953 25.1953 81.0743 25.1953 150C25.1953 218.926 81.0743 274.805 150 274.805C218.926 274.805 274.805 218.926 274.805 150Z" stroke="white" stroke-width="14.6485"/>
</g>
<defs>
<clipPath id="clip0_912_162">
<rect width="300" height="300" fill="white"/>
</clipPath>
</defs>
</svg>
