<svg width="300" height="300" viewBox="0 0 300 300" fill="none" xmlns="http://www.w3.org/2000/svg">
<g clip-path="url(#clip0_967_111)">
<path d="M300 0H0V300H300V0Z" fill="#F84848"/>
<path d="M267.188 150C267.188 85.2774 214.723 32.8125 150 32.8125C85.2774 32.8125 32.8125 85.2774 32.8125 150C32.8125 214.723 85.2774 267.188 150 267.188C214.723 267.188 267.188 214.723 267.188 150Z" stroke="white" stroke-width="14.6485"/>
<path d="M72.0059 98.7285C73.8613 100.096 75.7168 101.121 77.5723 101.805C79.5254 102.391 81.2832 102.781 82.8457 102.977C84.6035 103.27 86.3613 103.318 88.1191 103.123C89.7793 102.928 91.4883 102.342 93.2461 101.365C95.0039 100.389 97.0547 99.3633 99.3984 98.2891C101.742 97.2148 104.477 96.2871 107.602 95.5059C110.824 94.627 114.682 94.1875 119.174 94.1875C121.127 94.1875 123.178 94.5781 125.326 95.3594C127.572 96.1406 129.721 97.166 131.771 98.4355C133.822 99.6074 135.678 100.926 137.338 102.391C139.096 103.855 140.414 105.32 141.293 106.785C142.27 108.25 142.953 110.643 143.344 113.963C143.734 117.186 143.881 120.701 143.783 124.51C143.686 128.318 143.344 132.078 142.758 135.789C142.27 139.5 141.537 142.527 140.561 144.871C139.389 146.922 137.143 149.559 133.822 152.781C130.99 155.516 126.742 159.031 121.078 163.328C115.414 167.625 107.797 172.752 98.2266 178.709C103.891 178.611 108.627 178.465 112.436 178.27C116.342 177.977 119.516 177.684 121.957 177.391C124.789 177 127.035 176.609 128.695 176.219C130.16 175.633 131.723 174.803 133.383 173.729C134.75 172.752 136.215 171.482 137.777 169.92C139.438 168.357 141.049 166.307 142.611 163.768C142.904 169.041 143.197 173.191 143.49 176.219C143.686 177.977 143.832 179.49 143.93 180.76C144.027 181.932 144.125 183.299 144.223 184.861C144.32 186.229 144.369 187.791 144.369 189.549C144.467 191.307 144.613 193.162 144.809 195.115C139.926 193.846 135.482 192.869 131.479 192.186C127.475 191.404 124.057 190.867 121.225 190.574C117.904 190.184 114.926 189.988 112.289 189.988C109.555 190.086 106.527 190.33 103.207 190.721C100.277 191.111 96.7617 191.697 92.6602 192.479C88.6562 193.162 84.1152 194.188 79.0371 195.555C78.6465 194.48 78.3047 193.406 78.0117 192.332C77.7188 191.16 77.4746 190.037 77.2793 188.963C76.9863 187.791 76.7422 186.619 76.5469 185.447C76.3516 184.275 76.1562 183.152 75.9609 182.078C75.7656 181.102 75.6191 180.076 75.5215 179.002C75.4238 177.928 75.3262 176.902 75.2285 175.926C83.041 170.945 89.3887 166.453 94.2715 162.449C99.1543 158.348 103.012 154.881 105.844 152.049C109.066 148.729 111.508 145.701 113.168 142.967C114.828 139.646 116.195 135.984 117.27 131.98C118.344 127.977 118.686 124.266 118.295 120.848C118.002 117.43 116.83 114.646 114.779 112.498C112.729 110.252 109.457 109.275 104.965 109.568C102.035 109.764 99.252 110.789 96.6152 112.645C94.0762 114.5 91.7324 116.746 89.584 119.383C87.4355 122.02 85.5312 124.852 83.8711 127.879C82.2109 130.809 80.7949 133.592 79.623 136.229C78.5488 138.865 77.6699 141.062 76.9863 142.82C76.4004 144.578 76.1074 145.506 76.1074 145.604C76.0098 145.799 75.8633 145.066 75.668 143.406C75.5703 141.746 75.4238 139.695 75.2285 137.254C75.1309 134.715 74.9844 132.078 74.7891 129.344C74.5938 126.609 74.3984 124.314 74.2031 122.459C74.1055 120.994 73.959 119.09 73.7637 116.746C73.4707 112.938 72.8848 106.932 72.0059 98.7285ZM177.914 95.9453C181.137 96.1406 183.773 96.2871 185.824 96.3848C187.973 96.4824 189.682 96.5312 190.951 96.5312C192.416 96.6289 193.539 96.6289 194.32 96.5312H198.129C199.594 96.5312 201.645 96.5801 204.281 96.6777C207.016 96.6777 210.58 96.7266 214.975 96.8242C214.486 97.5078 214.096 98.3379 213.803 99.3145C213.51 100.291 213.266 101.268 213.07 102.244C212.777 103.318 212.582 104.49 212.484 105.76C212.387 107.322 212.191 109.764 211.898 113.084C211.703 115.916 211.41 119.871 211.02 124.949C210.727 129.93 210.336 136.424 209.848 144.432C212.68 144.432 215.121 144.188 217.172 143.699C219.223 143.113 220.932 142.43 222.299 141.648C223.861 140.867 225.131 139.939 226.107 138.865C226.596 138.279 227.133 137.645 227.719 136.961C228.207 136.375 228.842 135.74 229.623 135.057C230.404 134.373 231.234 133.641 232.113 132.859C231.918 135.496 231.771 137.791 231.674 139.744C231.576 141.6 231.479 143.162 231.381 144.432C231.283 145.896 231.186 147.068 231.088 147.947C231.088 149.021 230.99 150.438 230.795 152.195C230.6 153.758 230.404 155.857 230.209 158.494C230.014 161.033 229.818 164.256 229.623 168.162C228.646 166.209 227.719 164.695 226.84 163.621C226.059 162.449 225.375 161.57 224.789 160.984C224.008 160.301 223.324 159.812 222.738 159.52C222.055 159.324 221.127 159.129 219.955 158.934C218.881 158.738 217.514 158.641 215.854 158.641C214.291 158.543 212.24 158.445 209.701 158.348C209.701 164.109 209.799 168.748 209.994 172.264C210.287 175.779 210.58 178.514 210.873 180.467C211.264 182.811 211.703 184.471 212.191 185.447C212.777 186.326 213.607 187.352 214.682 188.523C215.658 189.598 216.977 190.867 218.637 192.332C220.297 193.797 222.445 195.457 225.082 197.312C222.836 197.801 220.688 198.143 218.637 198.338C216.684 198.436 214.877 198.582 213.217 198.777C211.361 198.973 209.604 199.07 207.943 199.07C206.186 199.07 204.037 199.168 201.498 199.363C199.252 199.559 196.469 199.754 193.148 199.949C189.828 200.145 185.824 200.389 181.137 200.682C182.797 199.021 184.115 197.508 185.092 196.141C186.166 194.676 186.996 193.406 187.582 192.332C188.266 191.16 188.754 190.135 189.047 189.256C189.242 188.182 189.535 186.375 189.926 183.836C190.219 181.688 190.561 178.709 190.951 174.9C191.342 171.092 191.781 166.062 192.27 159.812L152.426 160.252L153.158 150.438C157.943 143.602 161.752 137.938 164.584 133.445C167.514 128.855 169.76 125.145 171.322 122.312C173.08 119.09 174.35 116.551 175.131 114.695C175.619 112.938 176.059 111.082 176.449 109.129C176.84 107.469 177.182 105.516 177.475 103.27C177.768 100.926 177.914 98.4844 177.914 95.9453ZM194.027 145.896C194.223 143.26 194.369 140.867 194.467 138.719C194.662 136.473 194.809 134.52 194.906 132.859C195.004 131.004 195.053 129.246 195.053 127.586V122.166C195.053 120.408 195.053 118.357 195.053 116.014C195.15 113.572 195.248 110.838 195.346 107.811L173.812 146.189L194.027 145.896Z" fill="white"/>
<path d="M286.926 26.4297C286.926 19.0117 280.898 13 273.465 13C266.027 13 260 19.0117 260 26.4297C260 33.8477 266.027 39.8633 273.465 39.8633C280.898 39.8633 286.926 33.8477 286.926 26.4297Z" fill="white"/>
<path d="M38.9258 273.434C38.9258 266.016 32.8984 260 25.4609 260C18.0273 260 12 266.016 12 273.434C12 280.852 18.0273 286.867 25.4609 286.867C32.8984 286.867 38.9258 280.852 38.9258 273.434Z" fill="white"/>
<path fill-rule="evenodd" clip-rule="evenodd" d="M180.586 17.5312V2.58594C238.824 14.5742 284.715 60.2773 296.844 118.34H281.859C270.215 68.3594 230.727 29.0391 180.586 17.5312Z" fill="white"/>
<path fill-rule="evenodd" clip-rule="evenodd" d="M116.262 280.469V295.414C58.0195 283.426 12.1289 237.723 0 179.66H14.9883C26.6289 229.641 66.1211 268.961 116.262 280.469Z" fill="white"/>
<path fill-rule="evenodd" clip-rule="evenodd" d="M107.957 221.047L97.3477 231.629C129.895 252.992 172.375 253.027 204.957 231.734L194.344 221.148C167.855 237.09 134.414 237.055 107.957 221.047ZM220.953 218.688C220.855 218.789 220.754 218.891 220.652 218.992C220.551 219.09 220.453 219.191 220.352 219.293L220.953 218.688Z" fill="white"/>
<path fill-rule="evenodd" clip-rule="evenodd" d="M192.5 77.2466L203.109 66.6646C170.562 45.3013 128.082 45.2662 95.5039 66.5552L106.117 77.1451C132.602 61.2037 166.043 61.2388 192.5 77.2466ZM79.7305 79.3755C79.7578 79.3521 79.7812 79.3248 79.8047 79.3013C79.8281 79.2779 79.8555 79.2544 79.8789 79.2271L79.7305 79.3755Z" fill="white"/>
<path d="M271.652 261L274.875 270.918H285.305L276.867 277.051L280.09 286.969L271.652 280.84L263.215 286.969L266.438 277.051L258 270.918H268.43L271.652 261Z" fill="white"/>
<path d="M25.6523 12L28.875 21.918H39.3047L30.8672 28.0508L34.0898 37.9688L25.6523 31.8398L17.2148 37.9688L20.4375 28.0508L12 21.918H22.4297L25.6523 12Z" fill="white"/>
<path d="M275.122 192.116C274.835 189.795 271.478 189.769 271.156 192.086L262.524 254.167C262.355 255.376 263.3 256.452 264.52 256.442L280.809 256.314C282.004 256.304 282.925 255.255 282.778 254.069L275.122 192.116Z" fill="white"/>
<path d="M187.116 274.679C184.795 274.966 184.769 278.322 187.086 278.645L249.167 287.277C250.376 287.445 251.452 286.501 251.442 285.281L251.314 268.992C251.304 267.797 250.255 266.876 249.069 267.023L187.116 274.679Z" fill="white"/>
<path d="M22.6788 112.684C22.9657 115.006 26.3225 115.032 26.6447 112.715L35.2772 50.634C35.4453 49.4252 34.501 48.349 33.2806 48.3586L16.9921 48.4869C15.7965 48.4963 14.8763 49.5456 15.0229 50.7321L22.6788 112.684Z" fill="white"/>
<path d="M112.686 28.122C115.008 27.835 115.034 24.4783 112.717 24.1561L50.636 15.5236C49.4272 15.3555 48.351 16.2998 48.3606 17.5202L48.4889 33.8087C48.4983 35.0043 49.5475 35.9245 50.7341 35.7779L112.686 28.122Z" fill="white"/>
<path d="M89.8937 214.132L108.001 220.999L97.5015 231.999L89.8937 214.132Z" fill="white"/>
<path d="M212.015 214.383L205 232L194 221.5L212.015 214.383Z" fill="white"/>
<path d="M210.143 83.8669L192.035 76.9999L203 66.5015L210.143 83.8669Z" fill="white"/>
<path d="M88.3009 83.8673L95.5 66.5L106 77L88.3009 83.8673Z" fill="white"/>
</g>
<defs>
<clipPath id="clip0_967_111">
<rect width="300" height="300" fill="white"/>
</clipPath>
</defs>
</svg>
