<svg width="300" height="300" viewBox="0 0 300 300" fill="none" xmlns="http://www.w3.org/2000/svg">
<g clip-path="url(#clip0_912_447)">
<path d="M300 0H0V300H300V0Z" fill="#FF7BE2"/>
<path d="M265 150C265 86.4855 213.514 35 150 35C86.4855 35 35 86.4855 35 150C35 213.514 86.4855 265 150 265C213.514 265 265 213.514 265 150Z" stroke="white" stroke-width="14.6485"/>
<path d="M290 150C290 72.6809 227.319 10 150 10C72.6809 10 10 72.6809 10 150C10 227.319 72.6809 290 150 290C227.319 290 290 227.319 290 150Z" stroke="white" stroke-width="14.6485"/>
<path d="M144 3H156V29H144V3Z" fill="white"/>
<path d="M144 271H156V297H144V271Z" fill="white"/>
<path d="M297 144V156H240V144H297Z" fill="white"/>
<path d="M60 144V156H3V144H60Z" fill="white"/>
<path d="M260.375 251.613L251.465 260.52L231.164 240.219L240.07 231.309L260.375 251.613Z" fill="white"/>
<path d="M68.543 59.7812L59.6367 68.6914L32.7031 41.7578L41.6133 32.8516L68.543 59.7812Z" fill="white"/>
<path d="M231.152 59.7812L240.059 68.6914L266.992 41.7578L258.082 32.8516L231.152 59.7812Z" fill="white"/>
<path d="M231.262 240.352L240.168 231.445L267.098 258.375L258.191 267.285L231.262 240.352Z" fill="white"/>
<path d="M68.6523 240.352L59.7422 231.445L32.8125 258.375L41.7188 267.285L68.6523 240.352Z" fill="white"/>
<path d="M59.6367 231.309L68.543 240.219L48.2422 260.52L39.332 251.613L59.6367 231.309Z" fill="white"/>
<path d="M28.75 29.043L32.5391 42.0312L41.7383 32.832L28.75 29.043Z" fill="white"/>
<path d="M198.5 101.734L264.867 15.3008L284.934 35.3672L198.5 101.734Z" fill="white"/>
<path d="M104.957 101.734L38.5898 15.3008L18.5234 35.3672L104.957 101.734Z" fill="white"/>
<path d="M198.5 194.984L264.867 281.418L284.934 261.352L198.5 194.984Z" fill="white"/>
<path d="M104.957 194.984L38.5898 281.418L18.5234 261.352L104.957 194.984Z" fill="white"/>
<path d="M28.75 271.004L32.5391 258.016L41.7383 267.219L28.75 271.004Z" fill="white"/>
<path d="M271.008 271.004L267.219 258.016L258.016 267.219L271.008 271.004Z" fill="white"/>
<path d="M173.117 89.6289L176.105 129.281C175.266 125.609 173.953 122.883 172.172 121.098C170.492 119.316 168.762 118.109 166.976 117.48C164.879 116.746 162.574 116.535 160.055 116.852C154.18 118.32 148.988 121.152 144.476 125.348C142.59 127.129 140.699 129.281 138.812 131.797C136.922 134.316 135.246 137.359 133.777 140.926C132.414 144.387 131.312 148.375 130.473 152.883C129.633 157.395 129.215 162.535 129.215 168.305C130.891 163.793 132.781 160.02 134.879 156.977C136.976 153.828 139.18 151.312 141.488 149.422C143.898 147.43 146.312 145.91 148.726 144.859C151.137 143.809 153.5 143.129 155.805 142.812C161.156 141.973 166.664 142.605 172.328 144.703C176.84 146.695 180.457 149.684 183.187 153.672C185.914 157.555 187.695 161.957 188.535 166.891C189.375 171.715 189.324 176.75 188.379 181.996C187.539 187.137 185.809 191.91 183.187 196.316C180.668 200.723 177.258 204.445 172.957 207.488C168.656 210.633 163.57 212.523 157.695 213.152C148.883 214.098 141.016 212.73 134.09 209.062C127.273 205.492 121.871 200.301 117.883 193.484C113.898 186.664 111.641 178.586 111.117 169.25C110.594 159.809 112.219 149.789 115.996 139.195C117.672 134.473 119.562 129.91 121.66 125.504C123.758 120.992 126.801 116.691 130.785 112.602C134.773 108.512 140.07 104.574 146.68 100.801C153.394 96.918 162.207 93.1953 173.117 89.6289ZM139.441 180.738C139.754 183.988 140.437 186.977 141.488 189.707C142.535 192.434 143.742 194.793 145.105 196.785C146.574 198.781 148.094 200.355 149.668 201.508C151.348 202.555 152.922 203.027 154.391 202.922C157.434 202.715 160.004 200.723 162.101 196.945C164.305 193.062 165.613 187.922 166.035 181.523C166.246 178.375 165.824 175.23 164.777 172.082C163.832 168.828 162.625 165.945 161.156 163.426C159.687 160.91 158.062 158.918 156.277 157.449C154.601 155.875 153.078 155.141 151.715 155.246C149.617 155.559 147.73 156.453 146.051 157.918C144.476 159.387 143.113 161.277 141.957 163.586C140.91 165.895 140.121 168.566 139.598 171.609C139.18 174.547 139.125 177.59 139.441 180.738Z" fill="white"/>
</g>
<defs>
<clipPath id="clip0_912_447">
<rect width="300" height="300" fill="white"/>
</clipPath>
</defs>
</svg>
