<svg width="53" height="38" viewBox="0 0 53 38" fill="none" xmlns="http://www.w3.org/2000/svg">
<path d="M25.9057 37.0377L8.16981 30.434L1 1H51L43.8302 31L25.9057 37.0377Z" fill="#6C536D"/>
<path d="M25.9057 37.0377L8.16981 30.434L1 1H51L43.8302 31M25.9057 37.0377L43.8302 31M25.9057 37.0377V34.0189M43.8302 31L43.0755 29.6792M25.9057 34.0189L17.3208 31.8491M25.9057 34.0189L34.4906 31.8491M43.0755 29.6792L49.1132 4.20755H38.5472M43.0755 29.6792L34.4906 31.8491M17.3208 31.8491L9.11321 29.6792L2.88679 4.20755H38.5472M17.3208 31.8491L12.6981 4.20755M34.4906 31.8491L38.5472 4.20755" stroke="#6C536D"/>
<path d="M43.75 31.2564L25.75 37V34.1282L34.3711 32.0641L42.9921 30L43.75 31.2564Z" fill="#C79E73"/>
<path d="M9.1132 29.6792L2.88678 4.20752H12.75H38.75H49.1132L43.0755 29.6792L34.4906 31.849L25.9056 34.0188L17.3207 31.849L9.1132 29.6792Z" fill="#563351"/>
<path d="M17.3207 31.849L9.1132 29.6792L2.88678 4.20752H38.75M17.3207 31.849L25.9056 34.0188L34.4906 31.849M17.3207 31.849L12.75 4.20752M34.4906 31.849L43.0755 29.6792L49.1132 4.20752H38.75M34.4906 31.849L38.75 4.20752" stroke="#563351"/>
<path d="M25.9057 34.0188L17.3208 31.849L12.75 4.20752H38.75L34.4906 31.849L25.9057 34.0188Z" fill="#E0CB6E" stroke="#E0CB6E"/>
<path d="M19.595 18.13C19.875 18.13 20.085 18.19 20.225 18.31C20.375 18.42 20.45 18.58 20.45 18.79C20.45 18.88 20.435 18.98 20.405 19.09L19.91 20.845C19.78 21.275 19.595 21.575 19.355 21.745C19.125 21.915 18.78 22 18.32 22H11.27C11.06 22 10.9 21.965 10.79 21.895C10.67 21.825 10.61 21.73 10.61 21.61C10.61 21.55 10.625 21.485 10.655 21.415C10.685 21.335 10.735 21.27 10.805 21.22C10.875 21.16 10.95 21.105 11.03 21.055C11.19 20.955 11.32 20.855 11.42 20.755C11.52 20.645 11.605 20.47 11.675 20.23L13.505 13.765C13.545 13.635 13.565 13.51 13.565 13.39C13.565 13.28 13.545 13.19 13.505 13.12C13.475 13.04 13.43 12.95 13.37 12.85C13.28 12.72 13.235 12.615 13.235 12.535C13.235 12.505 13.245 12.45 13.265 12.37C13.305 12.24 13.39 12.15 13.52 12.1C13.66 12.04 13.87 12.01 14.15 12.01H17.675C17.885 12.01 18.045 12.045 18.155 12.115C18.275 12.175 18.335 12.265 18.335 12.385C18.335 12.435 18.32 12.5 18.29 12.58C18.26 12.65 18.215 12.715 18.155 12.775C18.105 12.825 18.055 12.865 18.005 12.895C17.965 12.915 17.935 12.935 17.915 12.955C17.755 13.045 17.625 13.145 17.525 13.255C17.425 13.365 17.34 13.535 17.27 13.765L15.335 20.56H16.265C16.495 20.56 16.69 20.52 16.85 20.44C17.02 20.36 17.195 20.21 17.375 19.99L18.41 18.76C18.6 18.54 18.78 18.38 18.95 18.28C19.13 18.18 19.345 18.13 19.595 18.13ZM30.5655 12.01C30.9355 12.01 31.2205 12.09 31.4205 12.25C31.6305 12.41 31.7355 12.63 31.7355 12.91C31.7355 13.05 31.7155 13.185 31.6755 13.315L31.2855 14.71C31.2155 14.98 31.1105 15.17 30.9705 15.28C30.8405 15.38 30.6505 15.43 30.4005 15.43C30.1605 15.43 29.9705 15.38 29.8305 15.28C29.7005 15.17 29.6005 14.995 29.5305 14.755L29.2905 13.9C29.2405 13.72 29.1805 13.6 29.1105 13.54C29.0405 13.48 28.9055 13.45 28.7055 13.45H27.1305L26.3805 16.12H27.0405C27.1105 16.12 27.2055 16.07 27.3255 15.97L27.8355 15.52C27.9855 15.39 28.1155 15.295 28.2255 15.235C28.3355 15.175 28.4705 15.145 28.6305 15.145C28.8105 15.145 28.9555 15.195 29.0655 15.295C29.1855 15.385 29.2455 15.505 29.2455 15.655C29.2455 15.695 29.2355 15.755 29.2155 15.835L28.6005 17.92C28.5405 18.14 28.4355 18.305 28.2855 18.415C28.1455 18.515 27.9905 18.565 27.8205 18.565C27.5405 18.565 27.3305 18.42 27.1905 18.13L26.9355 17.605C26.8655 17.455 26.7555 17.38 26.6055 17.38H26.0205L25.1355 20.56H26.4555C26.6455 20.56 26.8105 20.525 26.9505 20.455C27.1005 20.375 27.2605 20.24 27.4305 20.05L28.3305 19.06C28.4905 18.89 28.6405 18.77 28.7805 18.7C28.9305 18.62 29.1105 18.58 29.3205 18.58C29.5405 18.58 29.7205 18.63 29.8605 18.73C30.0005 18.83 30.0705 18.98 30.0705 19.18C30.0705 19.26 30.0555 19.355 30.0255 19.465L29.5905 20.98C29.4805 21.36 29.3205 21.625 29.1105 21.775C28.9005 21.925 28.5955 22 28.1955 22H21.0405C20.8305 22 20.6705 21.965 20.5605 21.895C20.4405 21.825 20.3805 21.73 20.3805 21.61C20.3805 21.55 20.3955 21.485 20.4255 21.415C20.4655 21.305 20.5305 21.22 20.6205 21.16C20.7105 21.1 20.7655 21.065 20.7855 21.055C20.9455 20.955 21.0755 20.855 21.1755 20.755C21.2755 20.645 21.3605 20.47 21.4305 20.23L23.2755 13.765C23.3155 13.635 23.3355 13.515 23.3355 13.405C23.3355 13.285 23.3155 13.185 23.2755 13.105C23.2455 13.025 23.1955 12.94 23.1255 12.85C23.0355 12.72 22.9905 12.615 22.9905 12.535C22.9905 12.505 23.0005 12.45 23.0205 12.37C23.0605 12.24 23.1505 12.15 23.2905 12.1C23.4305 12.04 23.6355 12.01 23.9055 12.01H30.5655ZM35.274 22.09C34.604 22.09 33.994 21.945 33.444 21.655C32.904 21.355 32.474 20.92 32.154 20.35C31.834 19.77 31.674 19.08 31.674 18.28C31.674 17.67 31.779 16.99 31.989 16.24C32.449 14.64 33.169 13.51 34.149 12.85C35.139 12.19 36.194 11.86 37.314 11.86C38.334 11.86 39.254 12.23 40.074 12.97L40.524 12.535C40.774 12.325 40.989 12.18 41.169 12.1C41.349 12.02 41.559 11.98 41.799 11.98C42.059 11.98 42.269 12.045 42.429 12.175C42.589 12.295 42.669 12.46 42.669 12.67C42.669 12.75 42.654 12.845 42.624 12.955L42.084 14.845C41.984 15.165 41.864 15.39 41.724 15.52C41.594 15.65 41.414 15.715 41.184 15.715C40.944 15.715 40.729 15.655 40.539 15.535C40.359 15.415 40.149 15.2 39.909 14.89C39.589 14.47 39.304 14.175 39.054 14.005C38.814 13.825 38.549 13.735 38.259 13.735C37.809 13.735 37.379 13.965 36.969 14.425C36.569 14.875 36.219 15.63 35.919 16.69C35.729 17.38 35.634 17.975 35.634 18.475C35.634 19.005 35.734 19.41 35.934 19.69C36.144 19.96 36.434 20.095 36.804 20.095C37.124 20.095 37.369 20.02 37.539 19.87C37.719 19.72 37.859 19.46 37.959 19.09L38.064 18.715C38.114 18.515 38.139 18.38 38.139 18.31C38.139 18.19 38.109 18.105 38.049 18.055C37.999 18.005 37.909 17.95 37.779 17.89L37.254 17.695C37.024 17.605 36.909 17.44 36.909 17.2C36.909 17.13 36.914 17.075 36.924 17.035C36.964 16.905 37.034 16.81 37.134 16.75C37.244 16.69 37.409 16.66 37.629 16.66L42.159 16.675C42.489 16.675 42.654 16.78 42.654 16.99C42.654 17.03 42.644 17.09 42.624 17.17C42.584 17.32 42.519 17.44 42.429 17.53C42.339 17.62 42.209 17.71 42.039 17.8L41.649 18.025C41.549 18.085 41.474 18.145 41.424 18.205C41.374 18.255 41.339 18.32 41.319 18.4L40.524 21.175C40.424 21.505 40.309 21.725 40.179 21.835C40.059 21.945 39.909 22 39.729 22H39.099C38.859 22 38.659 21.95 38.499 21.85C38.349 21.75 38.224 21.555 38.124 21.265L37.974 20.83C37.254 21.67 36.354 22.09 35.274 22.09Z" fill="#FFF0AE"/>
</svg>
