<svg width="300" height="300" viewBox="0 0 300 300" fill="none" xmlns="http://www.w3.org/2000/svg">
<path d="M300 0H0V300H300V0Z" fill="#FF7BE2"/>
<path d="M267.188 150C267.188 85.2774 214.723 32.8125 150 32.8125C85.2774 32.8125 32.8125 85.2774 32.8125 150C32.8125 214.723 85.2774 267.188 150 267.188C214.723 267.188 267.188 214.723 267.188 150Z" stroke="white" stroke-width="14.6485"/>
<path d="M292.676 150C292.676 71.2032 228.797 7.32422 150 7.32422C71.2032 7.32422 7.32422 71.2032 7.32422 150C7.32422 228.797 71.2032 292.676 150 292.676C228.797 292.676 292.676 228.797 292.676 150Z" stroke="white" stroke-width="14.6485"/>
<path d="M143.555 0H156.152V28.7109H143.555V0Z" fill="white"/>
<path d="M143.555 271.289H156.152V300H143.555V271.289Z" fill="white"/>
<path d="M300 143.555V156.152H239.941V143.555H300Z" fill="white"/>
<path d="M59.7656 143.848V156.152H0V143.848H59.7656Z" fill="white"/>
<path d="M260.375 251.613L251.465 260.52L231.164 240.219L240.07 231.309L260.375 251.613Z" fill="white"/>
<path d="M68.543 59.7812L59.6367 68.6914L32.7031 41.7578L41.6133 32.8516L68.543 59.7812Z" fill="white"/>
<path d="M231.152 59.7812L240.059 68.6914L266.992 41.7578L258.082 32.8516L231.152 59.7812Z" fill="white"/>
<path d="M231.262 240.352L240.168 231.445L267.098 258.375L258.191 267.285L231.262 240.352Z" fill="white"/>
<path d="M68.6523 240.352L59.7422 231.445L32.8125 258.375L41.7188 267.285L68.6523 240.352Z" fill="white"/>
<path d="M59.6367 231.309L68.543 240.219L48.2422 260.52L39.332 251.613L59.6367 231.309Z" fill="white"/>
<path d="M28.75 29.043L32.5391 42.0312L41.7383 32.832L28.75 29.043Z" fill="white"/>
<path d="M88.6602 88.9531L81.3164 61.543L61.25 81.6094L88.6602 88.9531Z" fill="white"/>
<path d="M271.008 29.043L267.219 42.0312L258.016 32.832L271.008 29.043Z" fill="white"/>
<path d="M211.094 88.9531L218.441 61.543L238.504 81.6094L211.094 88.9531Z" fill="white"/>
<path d="M28.75 271.004L32.5391 258.016L41.7383 267.219L28.75 271.004Z" fill="white"/>
<path d="M88.6602 211.098L81.3164 238.504L61.25 218.441L88.6602 211.098Z" fill="white"/>
<path d="M271.008 271.004L267.219 258.016L258.016 267.219L271.008 271.004Z" fill="white"/>
<path d="M211.094 211.098L218.441 238.504L238.504 218.441L211.094 211.098Z" fill="white"/>
<path d="M90.9531 92.6172C94.4141 92.8281 97.25 92.9844 99.4531 93.0898C101.758 93.1953 103.594 93.2461 104.961 93.2461C106.531 93.3516 107.738 93.3516 108.578 93.2461H112.668C114.242 93.2461 116.445 93.2969 119.277 93.4023C122.215 93.4023 126.043 93.457 130.766 93.5625C130.242 94.2969 129.82 95.1875 129.508 96.2344C129.191 97.2852 128.93 98.3359 128.719 99.3828C128.406 100.539 128.195 101.797 128.09 103.16C127.984 104.84 127.777 107.461 127.461 111.027C127.25 114.07 126.938 118.32 126.516 123.773C126.203 129.125 125.781 136.102 125.258 144.703C128.301 144.703 130.922 144.441 133.125 143.914C135.328 143.285 137.164 142.551 138.633 141.711C140.313 140.871 141.676 139.875 142.723 138.723C143.25 138.094 143.824 137.41 144.457 136.676C144.98 136.047 145.66 135.367 146.5 134.633C147.34 133.898 148.23 133.109 149.176 132.27C148.965 135.102 148.809 137.57 148.703 139.668C148.598 141.66 148.492 143.34 148.391 144.703C148.285 146.277 148.18 147.535 148.074 148.48C148.074 149.633 147.969 151.152 147.762 153.043C147.551 154.719 147.34 156.977 147.129 159.809C146.922 162.535 146.711 165.996 146.5 170.195C145.453 168.094 144.457 166.469 143.512 165.316C142.672 164.055 141.937 163.113 141.309 162.484C140.469 161.75 139.734 161.223 139.105 160.91C138.371 160.699 137.375 160.488 136.117 160.281C134.961 160.07 133.492 159.965 131.711 159.965C130.031 159.859 127.828 159.754 125.102 159.652C125.102 165.84 125.207 170.824 125.414 174.602C125.73 178.375 126.043 181.313 126.359 183.41C126.777 185.93 127.25 187.711 127.777 188.762C128.406 189.707 129.297 190.809 130.449 192.066C131.5 193.219 132.914 194.586 134.699 196.156C136.484 197.73 138.789 199.516 141.621 201.508C139.211 202.031 136.902 202.398 134.699 202.609C132.602 202.715 130.66 202.871 128.875 203.082C126.883 203.289 124.996 203.395 123.211 203.395C121.324 203.395 119.016 203.5 116.289 203.711C113.875 203.922 110.887 204.129 107.32 204.34C103.754 204.551 99.4531 204.812 94.4141 205.125C96.1992 203.344 97.6172 201.719 98.6641 200.25C99.8203 198.676 100.711 197.312 101.34 196.156C102.074 194.898 102.598 193.797 102.914 192.852C103.121 191.699 103.438 189.758 103.859 187.031C104.172 184.723 104.539 181.523 104.961 177.434C105.379 173.34 105.852 167.938 106.375 161.223L63.5742 161.695L64.3594 151.152C69.5 143.809 73.5938 137.727 76.6328 132.898C79.7813 127.969 82.1953 123.984 83.875 120.941C85.7617 117.48 87.125 114.75 87.9648 112.758C88.4883 110.871 88.9609 108.879 89.3789 106.777C89.8008 104.996 90.168 102.898 90.4805 100.484C90.7969 97.9688 90.9531 95.3437 90.9531 92.6172ZM108.262 146.277C108.473 143.441 108.629 140.871 108.734 138.566C108.945 136.152 109.102 134.055 109.207 132.27C109.313 130.277 109.363 128.391 109.363 126.605V120.785C109.363 118.895 109.363 116.691 109.363 114.176C109.469 111.551 109.574 108.613 109.68 105.363L86.5469 146.59L108.262 146.277ZM153.566 143.801C154.539 144.488 155.543 145.004 156.57 145.344C157.602 145.688 158.516 145.945 159.32 146.117C160.293 146.348 161.234 146.461 162.152 146.461C163.297 146.461 164.324 146.32 165.242 146.031C166.215 145.746 167.273 145.461 168.418 145.176C169.562 144.887 170.875 144.66 172.363 144.488C173.852 144.258 175.711 144.23 177.945 144.402C180.176 144.574 182.18 145.09 183.953 145.945C185.727 146.746 187.215 147.777 188.414 149.035C189.672 150.238 190.648 151.582 191.332 153.07C192.02 154.559 192.363 156.074 192.363 157.621C192.25 159.965 191.875 162.168 191.246 164.227C190.676 166.004 189.789 167.746 188.586 169.465C187.387 171.125 185.609 172.297 183.266 172.984C186.125 173.383 188.359 174.129 189.961 175.215C191.621 176.301 192.906 177.418 193.82 178.562C194.852 179.938 195.566 181.422 195.969 183.027C196.312 185.141 196.281 187.316 195.883 189.547C195.48 191.723 194.738 193.781 193.652 195.727C192.621 197.617 191.191 199.305 189.359 200.793C187.586 202.223 185.441 203.281 182.922 203.969C181.207 204.426 179.23 204.539 177 204.312C174.824 204.023 172.707 203.625 170.648 203.109C168.59 202.594 166.727 202.078 165.07 201.566C163.41 201.051 162.266 200.82 161.637 200.879C161.121 200.934 160.52 201.137 159.832 201.48C159.203 201.766 158.461 202.223 157.602 202.852C156.801 203.426 155.828 204.254 154.684 205.34C154.969 202.766 155.168 200.707 155.285 199.16C155.457 197.617 155.598 196.387 155.715 195.473C155.828 194.441 155.887 193.668 155.887 193.152V191.266C155.887 190.578 155.855 189.691 155.801 188.605C155.742 187.516 155.684 186.145 155.629 184.484C158.547 188.031 161.293 190.691 163.867 192.465C166.441 194.242 168.703 195.527 170.648 196.328C172.937 197.246 175.023 197.676 176.914 197.617C178.516 197.504 179.805 196.988 180.777 196.07C181.75 195.098 182.434 193.953 182.836 192.637C183.238 191.324 183.379 189.922 183.266 188.434C183.152 186.887 182.777 185.457 182.148 184.141C181.578 182.77 180.777 181.594 179.746 180.621C178.715 179.594 177.516 178.961 176.141 178.734C174.48 178.449 172.906 178.418 171.422 178.648C170.105 178.82 168.73 179.219 167.301 179.852C165.871 180.422 164.668 181.422 163.695 182.855C163.582 181.879 163.496 181.051 163.438 180.363C163.438 179.68 163.41 179.105 163.352 178.648C163.297 178.133 163.266 177.762 163.266 177.531C163.266 177.246 163.238 176.816 163.18 176.246C163.125 175.789 163.066 175.188 163.008 174.441C163.008 173.641 162.953 172.641 162.836 171.438C163.867 171.723 164.84 171.953 165.754 172.125C166.672 172.238 167.473 172.324 168.16 172.383C168.961 172.441 169.703 172.441 170.391 172.383C171.25 172.324 172.277 172.012 173.48 171.438C174.738 170.809 175.914 169.98 177 168.949C178.086 167.918 178.945 166.688 179.574 165.258C180.262 163.828 180.488 162.254 180.262 160.539C179.746 157.047 178.574 154.559 176.742 153.07C174.969 151.527 173.137 150.809 171.25 150.926C169.988 151.098 168.504 151.695 166.785 152.727C165.297 153.586 163.523 154.902 161.465 156.676C159.461 158.391 157.172 160.824 154.598 163.973C154.711 162.426 154.77 161.055 154.77 159.852C154.77 158.594 154.77 157.562 154.77 156.762C154.77 155.789 154.742 154.93 154.684 154.188L154.426 151.609C154.313 150.754 154.195 149.664 154.082 148.352C153.969 147.035 153.797 145.516 153.566 143.801ZM223.605 143.715C226.238 143.656 228.898 144.258 231.586 145.516C234.277 146.777 236.711 148.691 238.883 151.27C241.059 153.785 242.832 156.961 244.203 160.797C245.578 164.629 246.293 169.121 246.352 174.27C246.406 177.703 246.148 180.824 245.578 183.625C245.008 186.43 244.234 188.949 243.262 191.18C242.289 193.352 241.172 195.301 239.914 197.016C238.711 198.676 237.48 200.105 236.223 201.309C234.965 202.453 233.762 203.367 232.617 204.055C231.473 204.742 230.5 205.199 229.699 205.426C228.668 205.77 227.438 206.086 226.008 206.371C224.578 206.602 223.09 206.742 221.547 206.801C220 206.914 218.457 206.828 216.91 206.543C215.422 206.312 214.105 205.855 212.961 205.168C211.816 204.484 210.473 203.512 208.93 202.25C207.441 200.934 206.012 199.16 204.637 196.93C203.266 194.641 202.09 191.781 201.117 188.348C200.145 184.914 199.66 180.707 199.66 175.73C199.66 170.75 200.23 166.289 201.375 162.34C202.578 158.391 204.207 155.043 206.27 152.297C208.387 149.551 210.902 147.461 213.82 146.031C216.797 144.543 220.059 143.773 223.605 143.715ZM211.504 175.645C211.445 179.02 211.648 181.965 212.105 184.484C212.562 187.004 213.105 189.121 213.734 190.836C214.363 192.551 214.992 193.926 215.625 194.957C216.309 195.93 216.824 196.613 217.168 197.016C217.512 197.531 218.141 197.875 219.055 198.047C219.973 198.219 220.945 198.305 221.977 198.305C223.004 198.246 224.008 198.102 224.98 197.875C225.953 197.59 226.695 197.215 227.211 196.758C227.496 196.473 227.898 195.758 228.41 194.613C228.984 193.469 229.527 191.98 230.043 190.148C230.613 188.316 231.129 186.199 231.586 183.797C232.047 181.336 232.359 178.703 232.531 175.902C232.703 172.754 232.703 169.863 232.531 167.23C232.359 164.543 232.102 162.195 231.758 160.195C231.414 158.191 231.016 156.531 230.559 155.215C230.102 153.898 229.613 153.012 229.098 152.555C228.355 151.867 227.438 151.383 226.352 151.098C225.32 150.809 224.262 150.695 223.176 150.754C222.148 150.809 221.145 151.012 220.172 151.355C219.258 151.695 218.543 152.156 218.027 152.727C216.996 153.871 216.082 155.074 215.281 156.332C214.48 157.59 213.82 159.105 213.305 160.883C212.789 162.656 212.363 164.742 212.02 167.148C211.73 169.492 211.563 172.324 211.504 175.645Z" fill="white"/>
</svg>
