<svg width="100" height="100" viewBox="0 0 100 100" fill="none" xmlns="http://www.w3.org/2000/svg">
<rect width="100" height="100" fill="#D32929"/>
<rect width="100" height="100" fill="black" fill-opacity="0.15"/>
<circle cx="50.4009" cy="35.4009" r="20.1515" transform="rotate(-29.0465 50.4009 35.4009)" fill="white"/>
<path d="M39.9848 17.9999L40.9848 17.4999L41.9848 19.4999L40.9849 20L39.9848 17.9999Z" fill="black"/>
<path d="M67.9849 25.4998L68.4849 26.4997L66.4849 27.4997L65.9849 26.4998L67.9849 25.4998Z" fill="black"/>
<rect x="59.6185" y="50.9058" width="1.59091" height="2.65152" transform="rotate(150.954 59.6185 50.9058)" fill="black"/>
<rect x="34.6897" y="45.3394" width="2.12121" height="2.65152" transform="rotate(-119.046 34.6897 45.3394)" fill="black"/>
<path d="M52.9298 35.5852C53.4105 36.4507 53.0736 37.5558 52.1775 38.0535C51.2814 38.5512 50.1652 38.253 49.6846 37.3875C49.2039 36.522 45.102 27.4247 45.9982 26.927C46.8943 26.4293 52.4491 34.7197 52.9298 35.5852Z" fill="black"/>
<path d="M57.5634 30.8219C58.0863 31.7632 52.9109 37.6429 52.0721 38.1088C51.2334 38.5746 50.1296 38.1891 49.6068 37.2477C49.084 36.3063 49.3401 35.1655 50.1789 34.6997C51.0176 34.2339 57.0406 29.8805 57.5634 30.8219Z" fill="black"/>
<path d="M57.5649 30.8246C58.0878 31.766 52.9124 37.6457 52.0737 38.1115C51.2349 38.5773 50.1311 38.1918 49.6083 37.2504C49.0855 36.309 49.3416 35.1683 50.1804 34.7024C51.0191 34.2366 57.0421 29.8832 57.5649 30.8246Z" fill="black"/>
<path d="M18.1818 47.8812L50 47.8856L81.8182 47.8812V80.3633C81.8182 82.7063 79.9188 84.6057 77.5758 84.6057H22.4242C20.0812 84.6057 18.1818 82.7063 18.1818 80.3633V47.8812Z" fill="white"/>
<path d="M15 40.0603C15 37.7173 16.8994 35.8179 19.2424 35.8179H80.7576C83.1006 35.8179 85 37.7173 85 40.0603V43.7724C85 46.1154 83.1006 47.8856 80.7576 47.8856H50H19.2424C16.8994 47.8856 15 46.1154 15 43.7724V40.0603Z" fill="#BEC6C6"/>
<rect x="39.394" y="73" width="21.2121" height="5.83333" rx="2.91667" fill="#BEC6C6"/>
</svg>
