<svg width="300" height="300" viewBox="0 0 300 300" fill="none" xmlns="http://www.w3.org/2000/svg">
<path d="M300 0.5H0.292969V299.5H300V0.5Z" fill="#FF7BE2"/>
<path d="M267.219 150C267.219 85.4961 214.805 33.2031 150.145 33.2031C85.4883 33.2031 33.0742 85.4961 33.0742 150C33.0742 214.504 85.4883 266.797 150.145 266.797C214.805 266.797 267.219 214.504 267.219 150Z" stroke="white" stroke-width="14.6169"/>
<path d="M143.707 0.5H156.293V29.1172H143.707V0.5Z" fill="white"/>
<path d="M143.707 270.883H156.293V299.5H143.707V270.883Z" fill="white"/>
<path d="M300 143.578V156.133H240V143.578H300Z" fill="white"/>
<path d="M60 143.867V156.133H0V143.867H60Z" fill="white"/>
<path d="M260.414 251.273L251.512 260.152L231.23 239.918L240.129 231.039L260.414 251.273Z" fill="white"/>
<path d="M68.7695 60.082L59.8711 68.9609L39.5898 48.7266L48.4883 39.8477L68.7695 60.082Z" fill="white"/>
<path d="M251.512 39.8477L260.414 48.7266L240.129 68.9609L231.23 60.082L251.512 39.8477Z" fill="white"/>
<path d="M59.8711 231.039L68.7695 239.918L48.4883 260.152L39.5859 251.273L59.8711 231.039Z" fill="white"/>
<path fill-rule="evenodd" clip-rule="evenodd" d="M180.586 18.5312V3.58594C238.824 15.5742 284.715 61.2773 296.844 119.34H281.859C270.215 69.3594 230.727 30.0391 180.586 18.5312Z" fill="white"/>
<path fill-rule="evenodd" clip-rule="evenodd" d="M180.586 281.469V296.414C238.824 284.426 284.715 238.723 296.844 180.66H281.859C270.215 230.641 230.727 269.961 180.586 281.469Z" fill="white"/>
<path fill-rule="evenodd" clip-rule="evenodd" d="M116.262 18.5312V3.58594C58.0195 15.5742 12.1289 61.2773 0 119.34H14.9883C26.6289 69.3594 66.1211 30.0391 116.262 18.5312Z" fill="white"/>
<path fill-rule="evenodd" clip-rule="evenodd" d="M116.262 18.5312V3.58594C58.0195 15.5742 12.1289 61.2773 0 119.34H14.9883C26.6289 69.3594 66.1211 30.0391 116.262 18.5312Z" fill="white"/>
<path fill-rule="evenodd" clip-rule="evenodd" d="M116.262 281.469V296.414C58.0195 284.426 12.1289 238.723 0 180.66H14.9883C26.6289 230.641 66.1211 269.961 116.262 281.469Z" fill="white"/>
<path fill-rule="evenodd" clip-rule="evenodd" d="M107.957 222.047L97.3477 232.629C129.895 253.992 172.375 254.027 204.957 232.734L194.344 222.148C167.855 238.09 134.414 238.055 107.957 222.047ZM220.953 219.688C220.855 219.789 220.754 219.891 220.652 219.992C220.551 220.09 220.453 220.191 220.352 220.293L220.953 219.688Z" fill="white"/>
<path fill-rule="evenodd" clip-rule="evenodd" d="M192.5 78.2466L203.109 67.6646C170.562 46.3013 128.082 46.2662 95.5039 67.5552L106.117 78.1451C132.602 62.2037 166.043 62.2388 192.5 78.2466ZM79.7305 80.3755C79.7578 80.3521 79.7812 80.3248 79.8047 80.3013C79.8281 80.2779 79.8555 80.2544 79.8789 80.2271L79.7305 80.3755Z" fill="white"/>
<path fill-rule="evenodd" clip-rule="evenodd" d="M78.2735 107.859L67.6641 97.2773C46.254 129.746 46.2188 172.125 67.5586 204.629L78.1719 194.039C62.1915 167.617 62.2266 134.254 78.2735 107.859ZM80.6368 220.59C80.5352 220.492 80.4336 220.391 80.3321 220.289C80.2344 220.188 80.1329 220.09 80.0313 219.988L80.6368 220.59Z" fill="white"/>
<path fill-rule="evenodd" clip-rule="evenodd" d="M222.414 192.203L233.02 202.789C254.434 170.316 254.469 127.938 233.129 95.4336L222.516 106.023C238.496 132.445 238.461 165.809 222.414 192.203ZM220.281 79.6992C220.305 79.7266 220.328 79.75 220.355 79.7734C220.379 79.7969 220.402 79.8242 220.426 79.8477L220.281 79.6992Z" fill="white"/>
<path d="M111.996 91.7109C113.777 92.9648 115.609 93.9063 117.496 94.5352C119.383 95.1602 121.062 95.6328 122.527 95.9453C124.309 96.3633 126.039 96.5703 127.715 96.5703C129.812 96.5703 131.699 96.3125 133.375 95.7891C135.156 95.2656 137.094 94.7422 139.191 94.2188C141.289 93.6953 143.699 93.2773 146.422 92.9648C149.148 92.5469 152.555 92.4961 156.641 92.8086C160.727 93.1211 164.395 94.0625 167.645 95.6328C170.895 97.0938 173.617 98.9766 175.82 101.277C178.125 103.473 179.906 105.93 181.164 108.648C182.422 111.367 183.051 114.137 183.051 116.961C182.84 121.246 182.16 125.273 181.008 129.035C179.961 132.277 178.336 135.465 176.133 138.602C173.934 141.637 170.684 143.777 166.387 145.035C171.629 145.766 175.715 147.125 178.648 149.109C181.687 151.098 184.047 153.137 185.723 155.227C187.609 157.738 188.918 160.453 189.652 163.383C190.281 167.25 190.23 171.223 189.496 175.301C188.762 179.273 187.398 183.039 185.41 186.594C183.523 190.043 180.902 193.129 177.547 195.848C174.301 198.461 170.371 200.395 165.758 201.648C162.613 202.484 159 202.695 154.91 202.277C150.93 201.754 147.051 201.023 143.277 200.082C139.504 199.141 136.102 198.199 133.059 197.258C130.02 196.316 127.926 195.898 126.773 196.004C125.828 196.109 124.73 196.473 123.473 197.102C122.316 197.625 120.957 198.461 119.383 199.609C117.918 200.656 116.137 202.172 114.039 204.16C114.563 199.453 114.93 195.691 115.141 192.867C115.453 190.043 115.715 187.797 115.926 186.125C116.137 184.242 116.238 182.828 116.238 181.891V178.438C116.238 177.184 116.188 175.562 116.082 173.578C115.977 171.59 115.871 169.082 115.77 166.047C121.113 172.531 126.145 177.395 130.859 180.633C135.574 183.875 139.715 186.227 143.277 187.691C147.469 189.363 151.297 190.148 154.754 190.043C157.688 189.836 160.047 188.895 161.828 187.223C163.609 185.445 164.867 183.352 165.602 180.949C166.336 178.543 166.598 175.98 166.387 173.262C166.18 170.441 165.496 167.824 164.344 165.422C163.297 162.914 161.828 160.77 159.941 158.992C158.055 157.109 155.855 155.961 153.34 155.543C150.301 155.02 147.418 154.965 144.695 155.383C142.281 155.699 139.77 156.43 137.148 157.578C134.527 158.625 132.328 160.453 130.547 163.07C130.336 161.293 130.18 159.777 130.074 158.52C130.074 157.266 130.02 156.219 129.918 155.383C129.812 154.441 129.758 153.762 129.758 153.344C129.758 152.824 129.707 152.039 129.602 150.992C129.496 150.156 129.391 149.059 129.289 147.699C129.289 146.234 129.184 144.406 128.973 142.211C130.859 142.734 132.641 143.152 134.316 143.465C135.996 143.676 137.461 143.832 138.719 143.934C140.188 144.039 141.551 144.039 142.809 143.934C144.379 143.832 146.266 143.254 148.465 142.211C150.773 141.059 152.922 139.543 154.91 137.664C156.902 135.781 158.477 133.531 159.629 130.918C160.887 128.305 161.305 125.43 160.887 122.293C159.941 115.914 157.793 111.367 154.441 108.648C151.191 105.824 147.836 104.52 144.379 104.727C142.074 105.043 139.348 106.141 136.203 108.02C133.48 109.59 130.23 111.992 126.457 115.234C122.789 118.371 118.598 122.816 113.883 128.566C114.09 125.742 114.195 123.234 114.195 121.039C114.195 118.738 114.195 116.855 114.195 115.391C114.195 113.613 114.145 112.047 114.039 110.688L113.566 105.98C113.359 104.414 113.148 102.426 112.938 100.023C112.73 97.6172 112.414 94.8477 111.996 91.7109Z" fill="white"/>
</svg>
