<svg width="99" height="99" viewBox="0 0 99 99" fill="none" xmlns="http://www.w3.org/2000/svg">
<rect x="49.3555" width="69.7992" height="69.7992" rx="10" transform="rotate(45 49.3555 0)" fill="#67F077"/>
<path d="M22 12.5C22 7.25414 17.7468 3 12.5014 3C7.25316 3 3 7.25414 3 12.5C3 17.7459 7.25316 22 12.5014 22C17.7468 22 22 17.7459 22 12.5Z" fill="#67F077"/>
<path d="M94 12.5C94 7.25414 89.7468 3 84.5014 3C79.2532 3 75 7.25414 75 12.5C75 17.7459 79.2532 22 84.5014 22C89.7468 22 94 17.7459 94 12.5Z" fill="#67F077"/>
<path d="M22 84.5C22 79.2541 17.7468 75 12.5014 75C7.25316 75 3 79.2541 3 84.5C3 89.7459 7.25316 94 12.5014 94C17.7468 94 22 89.7459 22 84.5Z" fill="#67F077"/>
<path d="M94 84.5C94 79.2541 89.7468 75 84.5014 75C79.2532 75 75 79.2541 75 84.5C75 89.7459 79.2532 94 84.5014 94C89.7468 94 94 89.7459 94 84.5Z" fill="#67F077"/>
<path d="M59 49C59 43.478 54.523 39 49.0015 39C43.477 39 39 43.478 39 49C39 54.522 43.477 59 49.0015 59C54.523 59 59 54.522 59 49Z" fill="white"/>
</svg>
