<svg width="300" height="300" viewBox="0 0 300 300" fill="none" xmlns="http://www.w3.org/2000/svg">
<g clip-path="url(#clip0_912_352)">
<path d="M300 0H0V300H300V0Z" fill="#B384ED"/>
<path d="M290 150C290 72.6809 227.319 10 150 10C72.6809 10 10 72.6809 10 150C10 227.319 72.6809 290 150 290C227.319 290 290 227.319 290 150Z" stroke="white" stroke-width="14.6485"/>
<path d="M270.41 29L263.066 56.4062L243 36.3438L270.41 29Z" fill="white"/>
<path d="M29 270.41L36.3438 243L56.4062 263.066L29 270.41Z" fill="white"/>
<path d="M88.6602 211.098L81.3164 238.504L61.25 218.441L88.6602 211.098Z" fill="white"/>
<path d="M211.098 88.9531L218.441 61.543L238.508 81.6094L211.098 88.9531Z" fill="white"/>
<path d="M210.949 211.242L238.359 218.586L218.293 238.652L210.949 211.242Z" fill="white"/>
<path d="M88.8086 88.8047L61.3984 81.4609L81.4609 61.3984L88.8086 88.8047Z" fill="white"/>
<path fill-rule="evenodd" clip-rule="evenodd" d="M174.84 46.0586V31.0547C222.062 40.7969 259.27 77.9414 269.105 125.133H254.094C244.758 86.0508 213.953 55.3086 174.84 46.0586ZM271.66 150.555C271.66 150.387 271.66 150.219 271.66 150.051C271.66 149.879 271.66 149.711 271.66 149.543V150.555Z" fill="white"/>
<path fill-rule="evenodd" clip-rule="evenodd" d="M174.84 254.039V269.043C222.062 259.301 259.27 222.156 269.105 174.965H254.094C244.758 214.047 213.953 244.793 174.84 254.039ZM271.66 149.543C271.66 149.711 271.66 149.879 271.66 150.051C271.66 150.219 271.66 150.387 271.66 150.555V149.543Z" fill="white"/>
<path fill-rule="evenodd" clip-rule="evenodd" d="M122.684 46.0586V31.0547C75.4609 40.7969 38.2539 77.9414 28.418 125.133H43.4297C52.7656 86.0508 83.5703 55.3086 122.684 46.0586Z" fill="white"/>
<path fill-rule="evenodd" clip-rule="evenodd" d="M122.684 254.039V269.043C75.4609 259.301 38.2539 222.156 28.418 174.965H43.4297C52.7656 214.047 83.5703 244.793 122.684 254.039Z" fill="white"/>
<path d="M70.8086 93.5625C75.8438 94.5039 80.25 95.1875 84.0273 95.6055C87.8008 96.0273 91 96.3398 93.625 96.5508C96.668 96.7617 99.2891 96.8125 101.492 96.707C103.695 96.707 106.477 96.5508 109.832 96.2344C112.664 96.0273 116.23 95.7656 120.531 95.4492C124.938 95.0312 130.133 94.5586 136.109 94.0352C135.797 96.8672 135.48 99.4375 135.168 101.742C134.957 103.945 134.746 105.836 134.535 107.41C134.328 109.297 134.168 110.977 134.066 112.445C133.961 114.016 133.801 115.801 133.594 117.793C133.383 119.578 133.172 121.781 132.965 124.402C132.859 127.027 132.754 130.066 132.648 133.531C128.664 126.922 125.043 121.832 121.789 118.266C118.539 114.594 115.707 111.867 113.293 110.082C110.566 108.09 108.102 106.883 105.898 106.465H99.4453C97.5586 106.465 95.5117 106.516 93.3086 106.621C91.1055 106.727 89.1133 106.938 87.3281 107.25L87.9609 144.387C90.0586 141.766 92.3633 139.824 94.8828 138.566C97.4023 137.305 99.8672 136.414 102.277 135.891C105.008 135.367 107.785 135.156 110.617 135.262C117.961 135.891 123.625 137.148 127.613 139.039C131.703 140.926 134.641 143.707 136.426 147.379C137.266 149.266 137.945 152.148 138.469 156.031C139.102 159.809 139.309 163.898 139.102 168.305C138.891 172.711 138.207 177.066 137.055 181.367C135.902 185.562 134.066 188.973 131.547 191.594C129.031 194.113 126.562 196.211 124.152 197.887C121.738 199.461 119.324 200.773 116.914 201.824C114.5 202.766 111.98 203.449 109.359 203.867C106.738 204.289 103.957 204.602 101.02 204.812C96.3008 205.125 91.7891 204.602 87.4883 203.238C83.1875 201.875 79.4102 200.039 76.1562 197.73C72.9062 195.422 70.2813 192.957 68.2891 190.336C66.2969 187.609 65.1953 185.141 64.9844 182.941C64.7734 181.262 64.6719 179.582 64.6719 177.902C64.6719 176.434 64.7227 174.914 64.8281 173.34C65.0391 171.766 65.4062 170.402 65.9297 169.25L106.684 172.082C102.699 173.34 99.707 174.703 97.7148 176.172C95.7227 177.535 94.3047 178.848 93.4648 180.105C92.418 181.574 92 183.043 92.207 184.512C92.9414 188.289 94.2539 191.383 96.1406 193.797C98.0312 196.105 100.18 197.051 102.594 196.629C103.852 196.418 105.27 195.582 106.844 194.113C108.52 192.539 110.094 190.598 111.562 188.289C113.137 185.98 114.5 183.41 115.652 180.578C116.914 177.641 117.699 174.703 118.016 171.766C118.328 168.828 118.539 165.734 118.645 162.484C118.855 159.23 118.75 156.242 118.328 153.516C117.91 150.785 117.176 148.531 116.125 146.746C115.078 144.859 113.555 143.914 111.562 143.914C109.883 144.125 107.996 144.809 105.898 145.961C104.113 147.012 101.965 148.582 99.4453 150.68C97.0352 152.781 94.3047 155.82 91.2656 159.809C89.1641 159.285 87.3828 158.758 85.9141 158.234C84.5508 157.605 83.3945 157.082 82.4531 156.66C81.2969 156.242 80.4062 155.77 79.7773 155.246C79.1484 154.824 78.3086 154.301 77.2578 153.672C76.418 153.148 75.3711 152.516 74.1133 151.781C72.8516 150.945 71.332 149.945 69.5469 148.793C69.9688 144.703 70.2305 141.242 70.3359 138.406C70.4414 135.574 70.5469 133.266 70.6484 131.484V126.293C70.5469 124.824 70.4922 122.672 70.4922 119.84C70.4922 117.426 70.4922 114.121 70.4922 109.926C70.4922 105.625 70.5977 100.172 70.8086 93.5625ZM152.004 95.6055C153.996 97.0742 155.988 98.1758 157.984 98.9102C160.082 99.5391 161.969 99.9609 163.648 100.172C165.535 100.484 167.426 100.539 169.312 100.328C171.098 100.117 172.93 99.4883 174.82 98.4375C176.707 97.3906 178.91 96.2891 181.43 95.1367C183.945 93.9805 186.883 92.9844 190.242 92.1445C193.703 91.1992 197.848 90.7305 202.672 90.7305C204.77 90.7305 206.973 91.1484 209.281 91.9883C211.695 92.8281 214 93.9297 216.203 95.293C218.406 96.5508 220.402 97.9688 222.184 99.5391C224.074 101.113 225.488 102.688 226.434 104.262C227.48 105.836 228.215 108.406 228.637 111.973C229.055 115.434 229.211 119.211 229.109 123.301C229.004 127.395 228.637 131.43 228.008 135.418C227.48 139.402 226.695 142.656 225.645 145.176C224.387 147.379 221.973 150.211 218.406 153.672C215.367 156.609 210.801 160.387 204.719 165C198.633 169.617 190.449 175.125 180.172 181.523C186.254 181.418 191.344 181.262 195.434 181.051C199.629 180.738 203.039 180.422 205.66 180.105C208.703 179.688 211.117 179.27 212.898 178.848C214.473 178.219 216.152 177.328 217.938 176.172C219.406 175.125 220.977 173.762 222.656 172.082C224.441 170.402 226.172 168.199 227.848 165.473C228.164 171.137 228.477 175.598 228.793 178.848C229.004 180.738 229.16 182.363 229.266 183.727C229.371 184.984 229.477 186.453 229.578 188.133C229.684 189.602 229.738 191.281 229.738 193.168C229.844 195.055 230 197.051 230.211 199.148C224.965 197.785 220.191 196.734 215.891 196C211.59 195.16 207.918 194.586 204.875 194.27C201.309 193.848 198.109 193.641 195.277 193.641C192.34 193.746 189.086 194.008 185.52 194.426C182.375 194.848 178.598 195.477 174.191 196.316C169.891 197.051 165.012 198.152 159.555 199.621C159.137 198.465 158.77 197.312 158.453 196.156C158.141 194.898 157.879 193.691 157.668 192.539C157.352 191.281 157.09 190.02 156.883 188.762C156.672 187.504 156.461 186.297 156.25 185.141C156.043 184.094 155.887 182.992 155.781 181.84C155.676 180.684 155.57 179.582 155.465 178.535C163.859 173.184 170.676 168.359 175.922 164.055C181.168 159.652 185.309 155.926 188.352 152.883C191.816 149.316 194.438 146.066 196.219 143.129C198.004 139.562 199.473 135.629 200.625 131.328C201.781 127.027 202.148 123.039 201.727 119.367C201.414 115.695 200.152 112.707 197.953 110.398C195.75 107.984 192.234 106.938 187.41 107.25C184.262 107.461 181.273 108.562 178.438 110.555C175.711 112.551 173.195 114.961 170.887 117.793C168.578 120.625 166.531 123.668 164.75 126.922C162.965 130.066 161.445 133.059 160.188 135.891C159.031 138.723 158.086 141.082 157.352 142.973C156.723 144.859 156.41 145.855 156.41 145.961C156.305 146.172 156.148 145.383 155.938 143.602C155.832 141.816 155.676 139.613 155.465 136.992C155.359 134.266 155.203 131.43 154.992 128.496C154.785 125.559 154.574 123.09 154.363 121.098C154.258 119.523 154.102 117.48 153.891 114.961C153.578 110.871 152.949 104.418 152.004 95.6055Z" fill="white"/>
</g>
<defs>
<clipPath id="clip0_912_352">
<rect width="300" height="300" fill="white"/>
</clipPath>
</defs>
</svg>
