<svg width="300" height="300" viewBox="0 0 300 300" fill="none" xmlns="http://www.w3.org/2000/svg">
<g clip-path="url(#clip0_912_273)">
<path d="M300 0.5H0.292969V299.5H300V0.5Z" fill="#67F077"/>
<path d="M292.684 150C292.684 71.4648 228.867 7.80078 150.145 7.80078C71.4258 7.80078 7.60938 71.4648 7.60938 150C7.60938 228.535 71.4258 292.199 150.145 292.199C228.867 292.199 292.684 228.535 292.684 150Z" stroke="white" stroke-width="14.6169"/>
<path d="M143.707 0.5H156.293V29.1172H143.707V0.5Z" fill="white"/>
<path d="M143.707 270.883H156.293V299.5H143.707V270.883Z" fill="white"/>
<path d="M299.855 143.723V156.277H271.172V143.723H299.855Z" fill="white"/>
<path d="M28.8281 143.723V156.277H0.144531V143.723H28.8281Z" fill="white"/>
<path d="M260.414 251.273L251.512 260.152L231.23 239.918L240.129 231.039L260.414 251.273Z" fill="white"/>
<path d="M79.457 70.8906L70.5547 79.7695L39.5117 48.7969L48.4102 39.918L79.457 70.8906Z" fill="white"/>
<path d="M251.512 39.8477L260.414 48.7266L229.367 79.6953L220.469 70.8203L251.512 39.8477Z" fill="white"/>
<path d="M79.457 228.957L70.5547 220.078L39.5117 251.047L48.4102 259.926L79.457 228.957Z" fill="white"/>
<path d="M251.512 259.996L260.414 251.117L229.367 220.148L220.469 229.027L251.512 259.996Z" fill="white"/>
<path d="M59.8711 231.039L68.7695 239.918L48.4883 260.152L39.5859 251.273L59.8711 231.039Z" fill="white"/>
<path d="M272.086 28.3984L264.746 55.7148L244.703 35.7188L272.086 28.3984Z" fill="white"/>
<path d="M27.9648 271.652L35.3008 244.332L55.3438 264.332L27.9648 271.652Z" fill="white"/>
<path d="M27.9648 28.3984L35.3008 55.7148L55.3477 35.7188L27.9648 28.3984Z" fill="white"/>
<path d="M272.086 271.652L264.75 244.332L244.703 264.332L272.086 271.652Z" fill="white"/>
<path d="M86.3398 226.5C86.3398 219.082 80.3125 213.07 72.8789 213.07C65.4414 213.07 59.4141 219.082 59.4141 226.5C59.4141 233.922 65.4414 239.934 72.8789 239.934C80.3125 239.934 86.3398 233.922 86.3398 226.5Z" fill="white"/>
<path d="M240.586 226.5C240.586 219.082 234.559 213.07 227.121 213.07C219.687 213.07 213.66 219.082 213.66 226.5C213.66 233.922 219.687 239.934 227.121 239.934C234.559 239.934 240.586 233.922 240.586 226.5Z" fill="white"/>
<path d="M86.3398 73.207C86.3398 65.7891 80.3125 59.7734 72.8789 59.7734C65.4414 59.7734 59.4141 65.7891 59.4141 73.207C59.4141 80.625 65.4414 86.6367 72.8789 86.6367C80.3125 86.6367 86.3398 80.625 86.3398 73.207Z" fill="white"/>
<path d="M240.586 73.207C240.586 65.7891 234.559 59.7734 227.121 59.7734C219.687 59.7734 213.66 65.7891 213.66 73.207C213.66 80.625 219.687 86.6367 227.121 86.6367C234.559 86.6367 240.586 80.625 240.586 73.207Z" fill="white"/>
<path d="M50.6602 159.145C55.918 153.898 55.918 145.395 50.6602 140.148C45.4023 134.906 36.8789 134.906 31.6211 140.148C26.3633 145.395 26.3633 153.898 31.6211 159.145C36.8789 164.391 45.4023 164.391 50.6602 159.145Z" fill="white"/>
<path d="M159.727 267.954C164.984 262.712 164.984 254.204 159.727 248.962C154.469 243.716 145.945 243.716 140.687 248.962C135.43 254.204 135.43 262.712 140.687 267.954C145.945 273.2 154.469 273.2 159.727 267.954Z" fill="white"/>
<path d="M159.312 50.751C164.57 45.5049 164.57 37.001 159.312 31.7549C154.055 26.5088 145.531 26.5088 140.273 31.7549C135.016 37.001 135.016 45.5049 140.273 50.751C145.531 55.9932 154.055 55.9932 159.312 50.751Z" fill="white"/>
<path d="M268.379 159.56C273.637 154.313 273.637 145.81 268.379 140.563C263.121 135.317 254.598 135.317 249.34 140.563C244.082 145.81 244.082 154.313 249.34 159.56C254.598 164.806 263.121 164.806 268.379 159.56Z" fill="white"/>
<path d="M71.8984 92.0039C73.6797 93.2578 75.5117 94.1992 77.3984 94.8242C79.2852 95.4531 80.9648 95.9219 82.4297 96.2383C84.2109 96.6563 85.9414 96.8633 87.6172 96.8633C89.7148 96.8633 91.6016 96.6016 93.2773 96.082C95.0586 95.5586 96.9961 95.0352 99.0938 94.5117C101.191 93.9883 103.602 93.5703 106.324 93.2578C109.051 92.8398 112.457 92.7852 116.543 93.1016C120.629 93.4141 124.297 94.3555 127.547 95.9219C130.797 97.3867 133.52 99.2695 135.723 101.57C138.027 103.766 139.809 106.223 141.066 108.941C142.324 111.66 142.953 114.43 142.953 117.254C142.742 121.539 142.063 125.562 140.91 129.328C139.863 132.57 138.238 135.758 136.035 138.895C133.836 141.926 130.586 144.07 126.289 145.324C131.531 146.059 135.617 147.418 138.551 149.402C141.59 151.391 143.949 153.43 145.625 155.52C147.512 158.027 148.82 160.746 149.555 163.676C150.184 167.543 150.133 171.516 149.398 175.594C148.664 179.566 147.301 183.332 145.312 186.887C143.426 190.336 140.805 193.422 137.453 196.141C134.203 198.754 130.273 200.688 125.66 201.941C122.516 202.777 118.902 202.988 114.812 202.57C110.832 202.047 106.953 201.312 103.18 200.375C99.4102 199.434 96.0039 198.492 92.9609 197.551C89.9219 196.609 87.8281 196.191 86.6758 196.297C85.7305 196.398 84.6328 196.766 83.375 197.395C82.2227 197.918 80.8594 198.754 79.2852 199.902C77.8203 200.949 76.0391 202.465 73.9414 204.449C74.4648 199.746 74.832 195.98 75.043 193.16C75.3555 190.336 75.6172 188.09 75.8281 186.414C76.0391 184.535 76.1406 183.121 76.1406 182.18V178.73C76.1406 177.477 76.0898 175.855 75.9844 173.867C75.8789 171.883 75.7734 169.371 75.6719 166.34C81.0156 172.824 86.0469 177.684 90.7617 180.926C95.4766 184.168 99.6172 186.52 103.18 187.984C107.375 189.656 111.199 190.441 114.656 190.336C117.59 190.125 119.949 189.187 121.73 187.512C123.512 185.734 124.77 183.645 125.504 181.238C126.238 178.836 126.5 176.273 126.289 173.555C126.082 170.73 125.398 168.117 124.246 165.715C123.199 163.203 121.73 161.063 119.844 159.285C117.957 157.402 115.758 156.25 113.242 155.832C110.203 155.309 107.32 155.258 104.598 155.676C102.184 155.988 99.6719 156.723 97.0508 157.871C94.4297 158.918 92.2305 160.746 90.4492 163.359C90.2383 161.582 90.082 160.066 89.9766 158.812C89.9766 157.559 89.9219 156.512 89.8203 155.676C89.7148 154.734 89.6602 154.055 89.6602 153.637C89.6602 153.113 89.6094 152.332 89.5039 151.285C89.3984 150.449 89.293 149.352 89.1914 147.992C89.1914 146.527 89.0859 144.699 88.875 142.504C90.7617 143.023 92.543 143.441 94.2188 143.758C95.8984 143.965 97.3633 144.121 98.6211 144.227C100.09 144.332 101.453 144.332 102.711 144.227C104.281 144.121 106.168 143.547 108.367 142.504C110.676 141.352 112.824 139.836 114.812 137.953C116.805 136.07 118.379 133.824 119.531 131.211C120.789 128.598 121.207 125.723 120.789 122.586C119.844 116.207 117.695 111.66 114.344 108.941C111.094 106.117 107.738 104.809 104.281 105.02C101.977 105.332 99.25 106.43 96.1055 108.312C93.3828 109.883 90.1328 112.285 86.3594 115.527C82.6914 118.664 78.5 123.109 73.7852 128.859C73.9922 126.035 74.0977 123.527 74.0977 121.328C74.0977 119.031 74.0977 117.148 74.0977 115.684C74.0977 113.906 74.0469 112.34 73.9414 110.98L73.4688 106.273C73.2617 104.707 73.0508 102.719 72.8398 100.316C72.6328 97.9102 72.3164 95.1406 71.8984 92.0039ZM196.246 96.082C199.809 96.3945 203.477 97.3359 207.25 98.9023C211.023 100.473 214.531 102.773 217.781 105.805C221.031 108.73 223.809 112.441 226.113 116.938C228.523 121.434 230.043 126.715 230.672 132.777C231.719 143.234 231.039 152.277 228.629 159.91C226.324 167.543 222.918 174.234 218.41 179.984C214.008 185.734 208.82 190.859 202.848 195.355C196.98 199.746 190.898 203.93 184.613 207.902C181.469 204.867 179.004 202.41 177.223 200.531L174.395 197.707C173.66 196.766 172.719 195.719 171.562 194.57C170.621 193.523 169.469 192.27 168.105 190.805C166.742 189.344 165.223 187.668 163.547 185.789C166.797 187.566 169.73 188.715 172.352 189.238C175.074 189.762 177.379 189.969 179.266 189.867C181.469 189.762 183.461 189.395 185.242 188.77C189.957 186.469 194.203 183.594 197.973 180.141C201.223 177.109 204.156 173.348 206.777 168.852C209.504 164.25 210.969 158.813 211.18 152.539C207.824 157.348 204.156 160.801 200.176 162.891C196.297 164.98 192.684 166.395 189.328 167.125C185.344 167.961 181.363 168.117 177.379 167.594C175.391 167.281 173.242 166.234 170.934 164.457C168.629 162.68 166.43 160.434 164.332 157.715C162.238 154.891 160.352 151.754 158.672 148.305C157.102 144.855 156 141.246 155.371 137.484C154.742 133.613 154.691 129.746 155.215 125.879C155.844 121.906 157.363 118.09 159.773 114.43C163.336 109.098 166.691 105.07 169.836 102.352C172.98 99.6367 176.02 97.8047 178.953 96.8633C181.887 95.8203 184.77 95.3477 187.598 95.4531C190.43 95.5586 193.312 95.7656 196.246 96.082ZM179.582 127.762C178.742 130.687 178.324 133.613 178.324 136.543C178.324 139.469 178.691 142.137 179.426 144.543C180.262 146.945 181.414 149.035 182.883 150.812C184.352 152.488 186.184 153.531 188.387 153.949C190.586 154.473 192.734 154.16 194.832 153.012C197.031 151.754 199.023 150.031 200.805 147.836C202.691 145.641 204.262 143.078 205.52 140.148C206.883 137.117 207.773 134.035 208.191 130.898C208.508 128.703 208.508 126.348 208.191 123.84C207.984 121.227 207.457 118.82 206.621 116.625C205.887 114.324 204.891 112.391 203.633 110.82C202.48 109.254 201.117 108.312 199.547 108C197.449 107.688 195.355 108 193.258 108.941C191.266 109.777 189.379 111.137 187.598 113.02C185.816 114.797 184.191 116.992 182.727 119.605C181.363 122.113 180.316 124.832 179.582 127.762Z" fill="#00DFEF"/>
<path d="M71.8984 92.0039C73.6797 93.2578 75.5117 94.1992 77.3984 94.8242C79.2852 95.4531 80.9648 95.9219 82.4297 96.2383C84.2109 96.6563 85.9414 96.8633 87.6172 96.8633C89.7148 96.8633 91.6016 96.6016 93.2773 96.082C95.0586 95.5586 96.9961 95.0352 99.0938 94.5117C101.191 93.9883 103.602 93.5703 106.324 93.2578C109.051 92.8398 112.457 92.7852 116.543 93.1016C120.629 93.4141 124.297 94.3555 127.547 95.9219C130.797 97.3867 133.52 99.2695 135.723 101.57C138.027 103.766 139.809 106.223 141.066 108.941C142.324 111.66 142.953 114.43 142.953 117.254C142.742 121.539 142.063 125.562 140.91 129.328C139.863 132.57 138.238 135.758 136.035 138.895C133.836 141.926 130.586 144.07 126.289 145.324C131.531 146.059 135.617 147.418 138.551 149.402C141.59 151.391 143.949 153.43 145.625 155.52C147.512 158.027 148.82 160.746 149.555 163.676C150.184 167.543 150.133 171.516 149.398 175.594C148.664 179.566 147.301 183.332 145.312 186.887C143.426 190.336 140.805 193.422 137.453 196.141C134.203 198.754 130.273 200.688 125.66 201.941C122.516 202.777 118.902 202.988 114.812 202.57C110.832 202.047 106.953 201.312 103.18 200.375C99.4102 199.434 96.0039 198.492 92.9609 197.551C89.9219 196.609 87.8281 196.191 86.6758 196.297C85.7305 196.398 84.6328 196.766 83.375 197.395C82.2227 197.918 80.8594 198.754 79.2852 199.902C77.8203 200.949 76.0391 202.465 73.9414 204.449C74.4648 199.746 74.832 195.98 75.043 193.16C75.3555 190.336 75.6172 188.09 75.8281 186.414C76.0391 184.535 76.1406 183.121 76.1406 182.18V178.73C76.1406 177.477 76.0898 175.855 75.9844 173.867C75.8789 171.883 75.7734 169.371 75.6719 166.34C81.0156 172.824 86.0469 177.684 90.7617 180.926C95.4766 184.168 99.6172 186.52 103.18 187.984C107.375 189.656 111.199 190.441 114.656 190.336C117.59 190.125 119.949 189.187 121.73 187.512C123.512 185.734 124.77 183.645 125.504 181.238C126.238 178.836 126.5 176.273 126.289 173.555C126.082 170.73 125.398 168.117 124.246 165.715C123.199 163.203 121.73 161.063 119.844 159.285C117.957 157.402 115.758 156.25 113.242 155.832C110.203 155.309 107.32 155.258 104.598 155.676C102.184 155.988 99.6719 156.723 97.0508 157.871C94.4297 158.918 92.2305 160.746 90.4492 163.359C90.2383 161.582 90.082 160.066 89.9766 158.812C89.9766 157.559 89.9219 156.512 89.8203 155.676C89.7148 154.734 89.6602 154.055 89.6602 153.637C89.6602 153.113 89.6094 152.332 89.5039 151.285C89.3984 150.449 89.293 149.352 89.1914 147.992C89.1914 146.527 89.0859 144.699 88.875 142.504C90.7617 143.023 92.543 143.441 94.2188 143.758C95.8984 143.965 97.3633 144.121 98.6211 144.227C100.09 144.332 101.453 144.332 102.711 144.227C104.281 144.121 106.168 143.547 108.367 142.504C110.676 141.352 112.824 139.836 114.812 137.953C116.805 136.07 118.379 133.824 119.531 131.211C120.789 128.598 121.207 125.723 120.789 122.586C119.844 116.207 117.695 111.66 114.344 108.941C111.094 106.117 107.738 104.809 104.281 105.02C101.977 105.332 99.25 106.43 96.1055 108.312C93.3828 109.883 90.1328 112.285 86.3594 115.527C82.6914 118.664 78.5 123.109 73.7852 128.859C73.9922 126.035 74.0977 123.527 74.0977 121.328C74.0977 119.031 74.0977 117.148 74.0977 115.684C74.0977 113.906 74.0469 112.34 73.9414 110.98L73.4688 106.273C73.2617 104.707 73.0508 102.719 72.8398 100.316C72.6328 97.9102 72.3164 95.1406 71.8984 92.0039ZM196.246 96.082C199.809 96.3945 203.477 97.3359 207.25 98.9023C211.023 100.473 214.531 102.773 217.781 105.805C221.031 108.73 223.809 112.441 226.113 116.938C228.523 121.434 230.043 126.715 230.672 132.777C231.719 143.234 231.039 152.277 228.629 159.91C226.324 167.543 222.918 174.234 218.41 179.984C214.008 185.734 208.82 190.859 202.848 195.355C196.98 199.746 190.898 203.93 184.613 207.902C181.469 204.867 179.004 202.41 177.223 200.531L174.395 197.707C173.66 196.766 172.719 195.719 171.562 194.57C170.621 193.523 169.469 192.27 168.105 190.805C166.742 189.344 165.223 187.668 163.547 185.789C166.797 187.566 169.73 188.715 172.352 189.238C175.074 189.762 177.379 189.969 179.266 189.867C181.469 189.762 183.461 189.395 185.242 188.77C189.957 186.469 194.203 183.594 197.973 180.141C201.223 177.109 204.156 173.348 206.777 168.852C209.504 164.25 210.969 158.813 211.18 152.539C207.824 157.348 204.156 160.801 200.176 162.891C196.297 164.98 192.684 166.395 189.328 167.125C185.344 167.961 181.363 168.117 177.379 167.594C175.391 167.281 173.242 166.234 170.934 164.457C168.629 162.68 166.43 160.434 164.332 157.715C162.238 154.891 160.352 151.754 158.672 148.305C157.102 144.855 156 141.246 155.371 137.484C154.742 133.613 154.691 129.746 155.215 125.879C155.844 121.906 157.363 118.09 159.773 114.43C163.336 109.098 166.691 105.07 169.836 102.352C172.98 99.6367 176.02 97.8047 178.953 96.8633C181.887 95.8203 184.77 95.3477 187.598 95.4531C190.43 95.5586 193.312 95.7656 196.246 96.082ZM179.582 127.762C178.742 130.687 178.324 133.613 178.324 136.543C178.324 139.469 178.691 142.137 179.426 144.543C180.262 146.945 181.414 149.035 182.883 150.812C184.352 152.488 186.184 153.531 188.387 153.949C190.586 154.473 192.734 154.16 194.832 153.012C197.031 151.754 199.023 150.031 200.805 147.836C202.691 145.641 204.262 143.078 205.52 140.148C206.883 137.117 207.773 134.035 208.191 130.898C208.508 128.703 208.508 126.348 208.191 123.84C207.984 121.227 207.457 118.82 206.621 116.625C205.887 114.324 204.891 112.391 203.633 110.82C202.48 109.254 201.117 108.312 199.547 108C197.449 107.688 195.355 108 193.258 108.941C191.266 109.777 189.379 111.137 187.598 113.02C185.816 114.797 184.191 116.992 182.727 119.605C181.363 122.113 180.316 124.832 179.582 127.762Z" fill="white"/>
</g>
<defs>
<clipPath id="clip0_912_273">
<rect width="300" height="300" fill="white"/>
</clipPath>
</defs>
</svg>
