<svg width="300" height="300" viewBox="0 0 300 300" fill="none" xmlns="http://www.w3.org/2000/svg">
<g clip-path="url(#clip0_912_622)">
<path d="M300 0H0V300H300V0Z" fill="#FF7951"/>
<path d="M267.188 150C267.188 85.2774 214.723 32.8125 150 32.8125C85.2774 32.8125 32.8125 85.2774 32.8125 150C32.8125 214.723 85.2774 267.188 150 267.188C214.723 267.188 267.188 214.723 267.188 150Z" stroke="white" stroke-width="14.6485"/>
<path d="M143.555 0H156.152V28.7109H143.555V0Z" fill="white"/>
<path d="M143.555 271.289H156.152V300H143.555V271.289Z" fill="white"/>
<path d="M300 143.848V156.152H270.996V143.848H300Z" fill="white"/>
<path d="M28.7109 143.848V156.152H0V143.848H28.7109Z" fill="white"/>
<path d="M260.375 251.613L251.465 260.52L231.164 240.219L240.07 231.309L260.375 251.613Z" fill="white"/>
<path d="M68.543 59.7812L59.6367 68.6914L39.332 48.3867L48.2422 39.4805L68.543 59.7812Z" fill="white"/>
<path d="M251.465 39.4805L260.375 48.3867L240.07 68.6914L231.164 59.7812L251.465 39.4805Z" fill="white"/>
<path d="M59.6367 231.309L68.543 240.219L48.2422 260.52L39.332 251.613L59.6367 231.309Z" fill="white"/>
<path d="M113.582 93.5625C118.617 94.5039 123.023 95.1875 126.801 95.6055C130.574 96.0273 133.773 96.3398 136.398 96.5508C139.441 96.7617 142.062 96.8125 144.266 96.707C146.469 96.707 149.25 96.5508 152.605 96.2344C155.437 96.0273 159.004 95.7656 163.305 95.4492C167.711 95.0312 172.906 94.5586 178.883 94.0352C178.57 96.8672 178.254 99.4375 177.941 101.742C177.73 103.945 177.52 105.836 177.309 107.41C177.102 109.297 176.941 110.977 176.84 112.445C176.734 114.016 176.574 115.801 176.367 117.793C176.156 119.578 175.945 121.781 175.738 124.402C175.633 127.027 175.527 130.066 175.422 133.531C171.438 126.922 167.816 121.832 164.562 118.266C161.312 114.594 158.48 111.867 156.066 110.082C153.34 108.09 150.875 106.883 148.672 106.465H142.219C140.332 106.465 138.285 106.516 136.082 106.621C133.879 106.727 131.887 106.938 130.102 107.25L130.734 144.387C132.832 141.766 135.137 139.824 137.656 138.566C140.176 137.305 142.641 136.414 145.051 135.891C147.781 135.367 150.559 135.156 153.391 135.262C160.734 135.891 166.398 137.148 170.387 139.039C174.477 140.926 177.414 143.707 179.199 147.379C180.039 149.266 180.719 152.148 181.242 156.031C181.875 159.809 182.082 163.898 181.875 168.305C181.664 172.711 180.98 177.066 179.828 181.367C178.676 185.562 176.84 188.973 174.32 191.594C171.805 194.113 169.336 196.211 166.926 197.887C164.512 199.461 162.098 200.773 159.688 201.824C157.273 202.766 154.754 203.449 152.133 203.867C149.512 204.289 146.73 204.602 143.793 204.812C139.074 205.125 134.562 204.602 130.262 203.238C125.961 201.875 122.184 200.039 118.93 197.73C115.68 195.422 113.055 192.957 111.062 190.336C109.07 187.609 107.969 185.141 107.758 182.941C107.547 181.262 107.445 179.582 107.445 177.902C107.445 176.434 107.496 174.914 107.602 173.34C107.813 171.766 108.18 170.402 108.703 169.25L149.457 172.082C145.473 173.34 142.48 174.703 140.488 176.172C138.496 177.535 137.078 178.848 136.238 180.105C135.191 181.574 134.773 183.043 134.98 184.512C135.715 188.289 137.027 191.383 138.914 193.797C140.805 196.105 142.953 197.051 145.367 196.629C146.625 196.418 148.043 195.582 149.617 194.113C151.293 192.539 152.867 190.598 154.336 188.289C155.91 185.98 157.273 183.41 158.426 180.578C159.688 177.641 160.473 174.703 160.789 171.766C161.102 168.828 161.312 165.734 161.418 162.484C161.629 159.23 161.523 156.242 161.102 153.516C160.684 150.785 159.949 148.531 158.898 146.746C157.852 144.859 156.328 143.914 154.336 143.914C152.656 144.125 150.77 144.809 148.672 145.961C146.887 147.012 144.738 148.582 142.219 150.68C139.809 152.781 137.078 155.82 134.039 159.809C131.938 159.285 130.156 158.758 128.688 158.234C127.324 157.605 126.168 157.082 125.227 156.66C124.07 156.242 123.18 155.77 122.551 155.246C121.922 154.824 121.082 154.301 120.031 153.672C119.191 153.148 118.145 152.516 116.887 151.781C115.625 150.945 114.105 149.945 112.32 148.793C112.742 144.703 113.004 141.242 113.109 138.406C113.215 135.574 113.32 133.266 113.422 131.484V126.293C113.32 124.824 113.266 122.672 113.266 119.84C113.266 117.426 113.266 114.121 113.266 109.926C113.266 105.625 113.371 100.172 113.582 93.5625Z" fill="white"/>
</g>
<defs>
<clipPath id="clip0_912_622">
<rect width="300" height="300" fill="white"/>
</clipPath>
</defs>
</svg>
