<svg width="300" height="299" viewBox="0 0 300 299" fill="none" xmlns="http://www.w3.org/2000/svg">
<path d="M300 0H0.292969V299H300V0Z" fill="#B384ED"/>
<path d="M292.684 149.5C292.684 70.9648 228.867 7.30078 150.145 7.30078C71.4258 7.30078 7.60938 70.9648 7.60938 149.5C7.60938 228.035 71.4258 291.699 150.145 291.699C228.867 291.699 292.684 228.035 292.684 149.5Z" stroke="white" stroke-width="14.6169"/>
<path d="M143.707 0H156.293V44.3828H143.707V0Z" fill="white"/>
<path d="M143.707 253.742H156.293V299H143.707V253.742Z" fill="white"/>
<path d="M299.707 143.367V155.633H256.977V143.367H299.707Z" fill="white"/>
<path d="M43.3164 143.367V155.633H0V143.367H43.3164Z" fill="white"/>
<path d="M251.512 39.3477L260.414 48.2266L240.129 68.4609L231.23 59.582L251.512 39.3477Z" fill="white"/>
<path d="M59.8711 230.539L68.7695 239.418L48.4883 259.652L39.5859 250.773L59.8711 230.539Z" fill="white"/>
<path d="M272.086 27.8984L264.75 55.2148L244.703 35.2188L272.086 27.8984Z" fill="white"/>
<path d="M27.9648 271.152L35.3008 243.832L55.3477 263.832L27.9648 271.152Z" fill="white"/>
<path d="M88.8672 210.395L81.5312 237.711L61.4844 217.711L88.8672 210.395Z" fill="white"/>
<path d="M211.184 88.6562L218.52 61.3398L238.566 81.3359L211.184 88.6562Z" fill="white"/>
<path fill-rule="evenodd" clip-rule="evenodd" d="M174.961 45.9062V30.9531C222.137 40.6602 259.309 77.6836 269.133 124.715H254.137C244.812 85.7656 214.035 55.1211 174.961 45.9062ZM271.688 150.055C271.688 149.887 271.688 149.719 271.688 149.551C271.688 149.383 271.688 149.215 271.688 149.047V150.055Z" fill="white"/>
<path fill-rule="evenodd" clip-rule="evenodd" d="M174.961 253.191V268.148C222.137 258.437 259.309 221.414 269.133 174.383H254.137C244.812 213.332 214.035 243.977 174.961 253.191ZM271.688 149.047C271.688 149.215 271.688 149.383 271.688 149.551C271.688 149.719 271.688 149.887 271.688 150.051V149.047Z" fill="white"/>
<path fill-rule="evenodd" clip-rule="evenodd" d="M122.855 45.9062V30.9531C75.6797 40.6602 38.5078 77.6836 28.6836 124.715H43.6797C53.0078 85.7656 83.7812 55.1211 122.855 45.9062Z" fill="white"/>
<path fill-rule="evenodd" clip-rule="evenodd" d="M122.855 253.191V268.148C75.6797 258.437 38.5078 221.414 28.6836 174.383H43.6797C53.0078 213.332 83.7812 243.977 122.855 253.191Z" fill="white"/>
<path d="M65.457 91.2109C67.2422 92.4648 69.0742 93.4063 70.9609 94.0352C72.8477 94.6602 74.5234 95.1328 75.9922 95.4453C77.7734 95.8633 79.5039 96.0703 81.1797 96.0703C83.2734 96.0703 85.1602 95.8125 86.8398 95.2891C88.6211 94.7656 90.5586 94.2422 92.6562 93.7188C94.75 93.1953 97.1602 92.7773 99.8867 92.4648C102.609 92.0469 106.016 91.9961 110.105 92.3086C114.191 92.6211 117.859 93.5625 121.109 95.1328C124.355 96.5938 127.082 98.4766 129.281 100.777C131.59 102.973 133.371 105.43 134.629 108.148C135.887 110.867 136.516 113.637 136.516 116.461C136.305 120.746 135.625 124.773 134.469 128.535C133.422 131.777 131.797 134.965 129.598 138.102C127.395 141.137 124.148 143.277 119.852 144.535C125.09 145.266 129.18 146.625 132.113 148.609C135.152 150.598 137.512 152.637 139.188 154.727C141.074 157.238 142.383 159.953 143.117 162.883C143.746 166.75 143.691 170.723 142.961 174.801C142.227 178.773 140.863 182.539 138.871 186.094C136.984 189.543 134.367 192.629 131.012 195.348C127.762 197.961 123.832 199.895 119.223 201.148C116.078 201.984 112.461 202.195 108.375 201.777C104.391 201.254 100.516 200.523 96.7422 199.582C92.9687 198.641 89.5625 197.699 86.5234 196.758C83.4844 195.816 81.3867 195.398 80.2344 195.504C79.293 195.609 78.1914 195.973 76.9336 196.602C75.7812 197.125 74.418 197.961 72.8477 199.109C71.3789 200.156 69.5977 201.672 67.5039 203.66C68.0273 198.953 68.3945 195.191 68.6016 192.367C68.918 189.543 69.1797 187.297 69.3906 185.625C69.5977 183.742 69.7031 182.328 69.7031 181.391V177.938C69.7031 176.684 69.6523 175.062 69.5469 173.078C69.4414 171.09 69.3359 168.582 69.2305 165.547C74.5781 172.031 79.6055 176.895 84.3242 180.133C89.0391 183.375 93.1797 185.727 96.7422 187.191C100.934 188.863 104.758 189.648 108.219 189.543C111.152 189.336 113.512 188.395 115.293 186.723C117.074 184.945 118.332 182.852 119.066 180.449C119.797 178.043 120.059 175.48 119.852 172.762C119.641 169.941 118.961 167.324 117.809 164.922C116.758 162.414 115.293 160.27 113.406 158.492C111.52 156.609 109.316 155.461 106.805 155.043C103.766 154.52 100.883 154.465 98.1562 154.883C95.7461 155.199 93.2305 155.93 90.6094 157.078C87.9922 158.125 85.7891 159.953 84.0078 162.57C83.8008 160.793 83.6406 159.277 83.5352 158.02C83.5352 156.766 83.4844 155.719 83.3789 154.883C83.2734 153.941 83.2227 153.262 83.2227 152.844C83.2227 152.324 83.1719 151.539 83.0664 150.492C82.9609 149.656 82.8555 148.559 82.75 147.199C82.75 145.734 82.6445 143.906 82.4375 141.711C84.3242 142.234 86.1055 142.652 87.7812 142.965C89.457 143.176 90.9258 143.332 92.1836 143.434C93.6484 143.539 95.0117 143.539 96.2695 143.434C97.8438 143.332 99.7305 142.754 101.93 141.711C104.234 140.559 106.383 139.043 108.375 137.164C110.367 135.281 111.937 133.031 113.09 130.418C114.348 127.805 114.77 124.93 114.348 121.793C113.406 115.414 111.258 110.867 107.902 108.148C104.656 105.324 101.301 104.02 97.8438 104.227C95.5352 104.543 92.8125 105.641 89.668 107.52C86.9414 109.09 83.6953 111.492 79.9219 114.734C76.2539 117.871 72.0625 122.316 67.3438 128.066C67.5547 125.242 67.6602 122.734 67.6602 120.539C67.6602 118.238 67.6602 116.355 67.6602 114.891C67.6602 113.113 67.6055 111.547 67.5039 110.188L67.0312 105.48C66.8203 103.914 66.6133 101.926 66.4023 99.5234C66.1914 97.1172 65.8789 94.3477 65.457 91.2109ZM153.176 95.2891C155.168 96.75 157.16 97.8516 159.152 98.582C161.246 99.2109 163.133 99.6289 164.812 99.8359C166.699 100.148 168.582 100.203 170.469 99.9922C172.25 99.7852 174.086 99.1562 175.973 98.1094C177.859 97.0664 180.059 95.9688 182.574 94.8164C185.09 93.668 188.023 92.6758 191.379 91.8359C194.836 90.8984 198.977 90.4258 203.797 90.4258C205.895 90.4258 208.094 90.8437 210.398 91.6797C212.809 92.5156 215.117 93.6172 217.316 94.9727C219.516 96.2305 221.508 97.6406 223.289 99.2109C225.176 100.777 226.59 102.344 227.535 103.914C228.582 105.48 229.316 108.043 229.734 111.598C230.156 115.051 230.313 118.812 230.207 122.891C230.102 126.969 229.734 130.992 229.105 134.965C228.582 138.941 227.797 142.18 226.75 144.691C225.492 146.887 223.082 149.707 219.516 153.16C216.477 156.086 211.918 159.852 205.84 164.449C199.762 169.051 191.586 174.539 181.316 180.918C187.395 180.812 192.48 180.656 196.566 180.449C200.758 180.133 204.164 179.82 206.785 179.508C209.824 179.09 212.234 178.672 214.016 178.254C215.586 177.625 217.266 176.734 219.047 175.586C220.512 174.539 222.086 173.18 223.762 171.508C225.543 169.836 227.273 167.641 228.949 164.922C229.266 170.566 229.578 175.012 229.895 178.254C230.102 180.133 230.258 181.754 230.363 183.113C230.469 184.367 230.574 185.832 230.68 187.504C230.785 188.969 230.836 190.641 230.836 192.523C230.941 194.406 231.098 196.391 231.309 198.484C226.066 197.125 221.301 196.078 217.004 195.348C212.707 194.512 209.035 193.934 205.996 193.621C202.434 193.203 199.238 192.996 196.41 192.996C193.473 193.098 190.227 193.359 186.66 193.777C183.52 194.195 179.746 194.824 175.344 195.66C171.047 196.391 166.172 197.488 160.723 198.953C160.305 197.805 159.938 196.652 159.625 195.504C159.309 194.25 159.047 193.047 158.836 191.895C158.523 190.641 158.262 189.387 158.051 188.133C157.84 186.879 157.633 185.676 157.422 184.523C157.211 183.48 157.055 182.383 156.949 181.23C156.848 180.082 156.742 178.984 156.637 177.938C165.02 172.605 171.832 167.797 177.074 163.512C182.312 159.117 186.453 155.406 189.492 152.375C192.949 148.82 195.57 145.578 197.352 142.652C199.133 139.098 200.602 135.176 201.754 130.891C202.906 126.602 203.273 122.629 202.855 118.969C202.539 115.309 201.281 112.332 199.082 110.031C196.879 107.625 193.371 106.578 188.547 106.895C185.406 107.102 182.418 108.199 179.59 110.188C176.863 112.172 174.348 114.578 172.043 117.402C169.738 120.223 167.691 123.258 165.91 126.496C164.129 129.633 162.609 132.613 161.352 135.438C160.199 138.262 159.258 140.613 158.523 142.496C157.895 144.375 157.578 145.371 157.578 145.473C157.473 145.684 157.316 144.898 157.109 143.121C157.004 141.344 156.848 139.148 156.637 136.535C156.531 133.816 156.375 130.992 156.164 128.066C155.953 125.137 155.746 122.68 155.535 120.695C155.43 119.125 155.273 117.086 155.062 114.578C154.75 110.5 154.121 104.07 153.176 95.2891Z" fill="white"/>
</svg>
