<svg width="52" height="38" viewBox="0 0 52 38" fill="none" xmlns="http://www.w3.org/2000/svg">
<path d="M25.9057 37.0377L8.16981 30.434L1 1H51L43.8302 31L25.9057 37.0377Z" fill="#61659A"/>
<path d="M25.9057 37.0377L8.16981 30.434L1 1H51L43.8302 31M25.9057 37.0377L43.8302 31M25.9057 37.0377V34.0189M43.8302 31L43.0755 29.6792M25.9057 34.0189L17.3208 31.8491M25.9057 34.0189L34.4906 31.8491M43.0755 29.6792L49.1132 4.20755H38.5472M43.0755 29.6792L34.4906 31.8491M17.3208 31.8491L9.11321 29.6792L2.88679 4.20755H38.5472M17.3208 31.8491L12.6981 4.20755M34.4906 31.8491L38.5472 4.20755" stroke="#61659A"/>
<path d="M43.75 31.2564L25.75 37V34.1282L34.3711 32.0641L42.9921 30L43.75 31.2564Z" fill="#A5A0C0"/>
<path d="M9.1132 29.6792L2.88678 4.20752H12.75H38.75H49.1132L43.0755 29.6792L34.4906 31.849L25.9056 34.0188L17.3207 31.849L9.1132 29.6792Z" fill="#514C73"/>
<path d="M17.3207 31.849L9.1132 29.6792L2.88678 4.20752H38.75M17.3207 31.849L25.9056 34.0188L34.4906 31.849M17.3207 31.849L12.75 4.20752M34.4906 31.849L43.0755 29.6792L49.1132 4.20752H38.75M34.4906 31.849L38.75 4.20752" stroke="#514C73"/>
<path d="M25.9057 34.0188L17.3208 31.849L12.75 4.20752H38.75L34.4906 31.849L25.9057 34.0188Z" fill="#BEBFC6" stroke="#BEBFC6"/>
<path d="M13.872 22.084C13.088 22.084 12.3833 21.9393 11.758 21.65C11.1327 21.3607 10.6333 20.936 10.26 20.376C9.896 19.8067 9.714 19.1207 9.714 18.318C9.714 17.758 9.812 17.1513 10.008 16.498C10.4373 15.098 11.086 14.09 11.954 13.474C12.822 12.8487 13.7507 12.536 14.74 12.536C15.272 12.536 15.7433 12.6153 16.154 12.774C16.5647 12.9327 16.9427 13.1613 17.288 13.46L17.666 13.166C17.918 12.97 18.128 12.8347 18.296 12.76C18.4733 12.6853 18.6693 12.648 18.884 12.648C19.1173 12.648 19.304 12.6993 19.444 12.802C19.584 12.9047 19.654 13.054 19.654 13.25C19.654 13.3527 19.6353 13.4553 19.598 13.558L18.814 15.742C18.73 15.994 18.6273 16.1713 18.506 16.274C18.394 16.3767 18.2213 16.428 17.988 16.428C17.7453 16.428 17.5447 16.344 17.386 16.176C17.2367 15.9987 17.064 15.7 16.868 15.28C16.644 14.8413 16.462 14.552 16.322 14.412C16.182 14.272 15.9767 14.202 15.706 14.202C15.3233 14.202 14.9547 14.44 14.6 14.916C14.2453 15.3827 13.9233 16.0873 13.634 17.03C13.3913 17.8233 13.27 18.486 13.27 19.018C13.27 19.4847 13.3587 19.8347 13.536 20.068C13.7133 20.292 13.9513 20.404 14.25 20.404C14.6887 20.404 15.048 20.306 15.328 20.11C15.6173 19.914 15.9113 19.648 16.21 19.312C16.3967 19.1067 16.546 18.9573 16.658 18.864C16.7793 18.7613 16.9053 18.71 17.036 18.71C17.204 18.71 17.3813 18.794 17.568 18.962C17.7547 19.13 17.8433 19.298 17.834 19.466C17.8433 19.6713 17.6753 19.9887 17.33 20.418C16.994 20.8473 16.5227 21.2347 15.916 21.58C15.3187 21.916 14.6373 22.084 13.872 22.084ZM25.2379 12.466C26.4139 12.466 27.3333 12.746 27.9959 13.306C28.6586 13.8567 28.9899 14.6547 28.9899 15.7C28.9899 16.1947 28.9153 16.7267 28.7659 17.296C28.4859 18.3413 28.0519 19.228 27.4639 19.956C26.8759 20.684 26.1759 21.2347 25.3639 21.608C24.5519 21.9813 23.6699 22.168 22.7179 22.168C21.5513 22.168 20.6366 21.8927 19.9739 21.342C19.3113 20.782 18.9799 19.9793 18.9799 18.934C18.9799 18.458 19.0593 17.912 19.2179 17.296C19.4886 16.26 19.9133 15.3827 20.4919 14.664C21.0799 13.936 21.7753 13.39 22.5779 13.026C23.3899 12.6527 24.2766 12.466 25.2379 12.466ZM24.9859 13.838C24.7059 13.838 24.4539 13.95 24.2299 14.174C24.0059 14.398 23.7819 14.7667 23.5579 15.28C23.3433 15.784 23.1099 16.4887 22.8579 17.394C22.4846 18.7007 22.2979 19.6013 22.2979 20.096C22.2979 20.3853 22.3493 20.5953 22.4519 20.726C22.5546 20.8567 22.7179 20.922 22.9419 20.922C23.2219 20.922 23.4739 20.81 23.6979 20.586C23.9219 20.3527 24.1413 19.984 24.3559 19.48C24.5706 18.976 24.8086 18.2807 25.0699 17.394C25.4339 16.106 25.6159 15.2007 25.6159 14.678C25.6159 14.3793 25.5646 14.1647 25.4619 14.034C25.3593 13.9033 25.2006 13.838 24.9859 13.838ZM43.163 12.676C43.359 12.676 43.5083 12.7087 43.611 12.774C43.723 12.83 43.779 12.914 43.779 13.026C43.779 13.0727 43.765 13.1333 43.737 13.208C43.709 13.292 43.667 13.3573 43.611 13.404C43.5643 13.4413 43.4896 13.4927 43.387 13.558C43.2376 13.642 43.1163 13.7353 43.023 13.838C42.939 13.9407 42.8643 14.0993 42.799 14.314L41.091 20.334C41.0536 20.4553 41.035 20.572 41.035 20.684C41.035 20.7867 41.049 20.8753 41.077 20.95C41.1143 21.0153 41.161 21.0947 41.217 21.188C41.2543 21.2347 41.287 21.286 41.315 21.342C41.343 21.3887 41.357 21.44 41.357 21.496C41.357 21.5147 41.3476 21.5613 41.329 21.636C41.2916 21.7573 41.203 21.846 41.063 21.902C40.9323 21.958 40.741 21.986 40.489 21.986H37.199C37.003 21.986 36.849 21.9533 36.737 21.888C36.6343 21.8227 36.583 21.734 36.583 21.622C36.583 21.566 36.597 21.5053 36.625 21.44C36.653 21.3747 36.6903 21.3187 36.737 21.272C36.793 21.216 36.8396 21.1787 36.877 21.16C36.9236 21.132 36.9563 21.1087 36.975 21.09C37.1243 21.006 37.2456 20.9127 37.339 20.81C37.4323 20.7073 37.5116 20.5487 37.577 20.334L38.641 16.554L35.015 21.048C34.7163 21.412 34.4736 21.664 34.287 21.804C34.1096 21.9347 33.9043 22 33.671 22C33.447 22 33.2696 21.93 33.139 21.79C33.0176 21.6407 32.9056 21.3933 32.803 21.048L31.487 16.722L30.451 20.348C30.4136 20.4693 30.395 20.586 30.395 20.698C30.395 20.81 30.409 20.9033 30.437 20.978C30.4743 21.0527 30.5256 21.132 30.591 21.216C30.675 21.3373 30.717 21.4353 30.717 21.51C30.717 21.5287 30.7076 21.5753 30.689 21.65C30.6516 21.7807 30.5676 21.874 30.437 21.93C30.3063 21.9767 30.1103 22 29.849 22H28.687C28.491 22 28.337 21.9673 28.225 21.902C28.1223 21.8367 28.071 21.748 28.071 21.636C28.071 21.58 28.085 21.5193 28.113 21.454C28.1503 21.3513 28.211 21.272 28.295 21.216C28.379 21.16 28.4303 21.1273 28.449 21.118C28.5983 21.0247 28.7196 20.9313 28.813 20.838C28.9063 20.7353 28.9856 20.572 29.051 20.348L30.759 14.3L30.535 13.558C30.4883 13.418 30.465 13.2827 30.465 13.152C30.465 12.984 30.5163 12.8627 30.619 12.788C30.731 12.7133 30.899 12.676 31.123 12.676H33.293C33.573 12.676 33.7783 12.7367 33.909 12.858C34.049 12.9793 34.161 13.1893 34.245 13.488L35.645 18.136L39.439 13.418C39.6816 13.1193 39.9196 12.9233 40.153 12.83C40.3863 12.7273 40.6943 12.676 41.077 12.676H43.163Z" fill="#F1F2F8"/>
</svg>
