<svg width="100" height="99" viewBox="0 0 100 99" fill="none" xmlns="http://www.w3.org/2000/svg">
<rect x="50" width="69.7992" height="69.7992" rx="10" transform="rotate(45 50 0)" fill="#B384ED"/>
<path d="M47.5986 27.8289C48.1987 25.9892 50.8013 25.9892 51.4014 27.8289L55.7774 41.2439C56.0458 42.0668 56.8132 42.6236 57.6788 42.6236H71.8273C73.7664 42.6236 74.5709 45.1064 73.0002 46.2436L61.5667 54.5217C60.8632 55.031 60.5689 55.9362 60.8382 56.7619L65.2074 70.156C65.808 71.9972 63.7026 73.5319 62.1336 72.3966L50.6724 64.1037C49.9728 63.5975 49.0272 63.5975 48.3276 64.1037L36.8664 72.3966C35.2974 73.5318 33.192 71.9972 33.7926 70.156L38.1618 56.7619C38.4311 55.9362 38.1368 55.031 37.4333 54.5217L25.9998 46.2436C24.4292 45.1064 25.2336 42.6236 27.1727 42.6236H41.3212C42.1868 42.6236 42.9542 42.0668 43.2226 41.2439L47.5986 27.8289Z" fill="white"/>
</svg>
