<svg width="300" height="300" viewBox="0 0 300 300" fill="none" xmlns="http://www.w3.org/2000/svg">
<path d="M300 0.5H0.292969V299.5H300V0.5Z" fill="#FF7BE2"/>
<path d="M267.219 150C267.219 85.4961 214.805 33.2031 150.145 33.2031C85.4883 33.2031 33.0742 85.4961 33.0742 150C33.0742 214.504 85.4883 266.797 150.145 266.797C214.805 266.797 267.219 214.504 267.219 150Z" stroke="white" stroke-width="14.6169"/>
<path d="M143.707 0.5H156.293V29.1172H143.707V0.5Z" fill="white"/>
<path d="M143.707 270.883H156.293V299.5H143.707V270.883Z" fill="white"/>
<path d="M300 143.578V156.133H240V143.578H300Z" fill="white"/>
<path d="M60 143.867V156.133H0V143.867H60Z" fill="white"/>
<path d="M260.414 251.273L251.512 260.152L231.23 239.918L240.129 231.039L260.414 251.273Z" fill="white"/>
<path d="M68.7695 60.082L59.8711 68.9609L39.5898 48.7266L48.4883 39.8477L68.7695 60.082Z" fill="white"/>
<path d="M251.512 39.8477L260.414 48.7266L240.129 68.9609L231.23 60.082L251.512 39.8477Z" fill="white"/>
<path d="M59.8711 231.039L68.7695 239.918L48.4883 260.152L39.5859 251.273L59.8711 231.039Z" fill="white"/>
<path fill-rule="evenodd" clip-rule="evenodd" d="M180.586 18.5312V3.58594C238.824 15.5742 284.715 61.2773 296.844 119.34H281.859C270.215 69.3594 230.727 30.0391 180.586 18.5312Z" fill="white"/>
<path fill-rule="evenodd" clip-rule="evenodd" d="M180.586 281.469V296.414C238.824 284.426 284.715 238.723 296.844 180.66H281.859C270.215 230.641 230.727 269.961 180.586 281.469Z" fill="white"/>
<path fill-rule="evenodd" clip-rule="evenodd" d="M116.262 18.5312V3.58594C58.0195 15.5742 12.1289 61.2773 0 119.34H14.9883C26.6289 69.3594 66.1211 30.0391 116.262 18.5312Z" fill="white"/>
<path fill-rule="evenodd" clip-rule="evenodd" d="M116.262 281.469V296.414C58.0195 284.426 12.1289 238.723 0 180.66H14.9883C26.6289 230.641 66.1211 269.961 116.262 281.469Z" fill="white"/>
<path fill-rule="evenodd" clip-rule="evenodd" d="M107.957 222.047L97.3477 232.629C129.895 253.992 172.375 254.027 204.957 232.734L194.344 222.148C167.855 238.09 134.414 238.055 107.957 222.047ZM220.953 219.688C220.855 219.789 220.754 219.891 220.652 219.992C220.551 220.09 220.453 220.191 220.352 220.293L220.953 219.688Z" fill="white"/>
<path fill-rule="evenodd" clip-rule="evenodd" d="M192.5 78.2466L203.109 67.6646C170.562 46.3013 128.082 46.2662 95.5039 67.5552L106.117 78.1451C132.602 62.2037 166.043 62.2388 192.5 78.2466ZM79.7305 80.3755C79.7578 80.3521 79.7812 80.3248 79.8047 80.3013C79.8281 80.2779 79.8555 80.2544 79.8789 80.2271L79.7305 80.3755Z" fill="white"/>
<path d="M80.0703 109.117C83.7383 107.969 86.7266 107.027 89.0312 106.297C91.3359 105.461 93.2227 104.781 94.6914 104.258C96.3672 103.629 97.625 103.055 98.4648 102.531L102.238 100.648C103.703 99.918 105.59 98.9766 107.895 97.8281C110.203 96.5703 113.187 95.0039 116.855 93.1211C116.02 97.0937 115.391 100.859 114.969 104.414C114.656 107.863 114.395 110.949 114.184 113.668C113.871 116.805 113.711 119.68 113.711 122.293C113.609 124.488 113.449 127.414 113.242 131.074C113.137 134.734 112.98 138.707 112.77 142.996C112.559 147.281 112.352 151.672 112.141 156.168C111.93 160.664 111.773 164.898 111.668 168.871C111.668 172.742 111.723 176.086 111.824 178.91C112.035 181.73 112.402 183.668 112.926 184.711C113.449 185.965 114.133 187.168 114.969 188.32C115.703 189.363 116.543 190.566 117.484 191.926C118.535 193.18 119.793 194.434 121.258 195.691C118.848 196.211 116.594 196.684 114.5 197.102C112.402 197.414 110.566 197.676 108.996 197.887C107.109 198.199 105.434 198.461 103.965 198.668C102.395 198.773 100.246 199.035 97.5195 199.453C95.2148 199.766 92.2812 200.188 88.7188 200.707C85.1523 201.125 80.7539 201.598 75.5117 202.121C78.2383 200.445 80.3867 198.828 81.957 197.258C83.6328 195.691 84.8906 194.332 85.7305 193.18C86.6719 191.82 87.25 190.516 87.4609 189.262C87.5625 188.422 87.7227 186.176 87.9297 182.516C88.2461 178.754 88.5078 174.359 88.7188 169.344C89.0312 164.219 89.293 158.781 89.5039 153.031C89.8164 147.176 90.0273 141.738 90.1328 136.723C90.2383 131.703 90.2891 127.414 90.2891 123.859C90.2891 120.305 90.1328 118.164 89.8164 117.43C89.3984 116.699 88.7695 115.863 87.9297 114.922C87.1992 114.086 86.2031 113.195 84.9453 112.254C83.793 111.316 82.168 110.27 80.0703 109.117ZM130.363 143.82C131.332 144.508 132.332 145.02 133.363 145.359C134.391 145.703 135.305 145.961 136.105 146.133C137.078 146.359 138.023 146.473 138.938 146.473C140.078 146.473 141.109 146.332 142.023 146.047C142.996 145.762 144.051 145.477 145.195 145.191C146.34 144.906 147.652 144.676 149.141 144.508C150.625 144.277 152.484 144.25 154.715 144.422C156.941 144.59 158.945 145.105 160.715 145.961C162.488 146.758 163.973 147.785 165.176 149.039C166.434 150.238 167.406 151.578 168.09 153.059C168.777 154.543 169.121 156.055 169.121 157.594C169.004 159.934 168.633 162.129 168.004 164.18C167.434 165.949 166.547 167.687 165.348 169.398C164.145 171.055 162.375 172.223 160.031 172.906C162.887 173.305 165.117 174.047 166.719 175.129C168.375 176.215 169.664 177.328 170.578 178.469C171.605 179.836 172.32 181.32 172.719 182.914C173.062 185.023 173.035 187.191 172.637 189.418C172.234 191.582 171.492 193.637 170.406 195.574C169.375 197.457 167.949 199.141 166.117 200.621C164.348 202.047 162.203 203.105 159.688 203.789C157.973 204.246 156 204.359 153.77 204.129C151.598 203.844 149.484 203.445 147.426 202.934C145.367 202.418 143.508 201.906 141.852 201.395C140.195 200.879 139.051 200.652 138.422 200.707C137.906 200.766 137.309 200.965 136.621 201.309C135.992 201.594 135.25 202.047 134.391 202.676C133.59 203.246 132.621 204.074 131.477 205.156C131.762 202.59 131.961 200.539 132.078 198.996C132.25 197.457 132.391 196.23 132.504 195.32C132.621 194.293 132.676 193.523 132.676 193.008V191.129C132.676 190.441 132.648 189.559 132.59 188.477C132.535 187.391 132.477 186.023 132.418 184.371C135.336 187.906 138.078 190.559 140.652 192.324C143.223 194.094 145.48 195.375 147.426 196.176C149.711 197.086 151.797 197.516 153.684 197.457C155.285 197.344 156.57 196.832 157.543 195.918C158.516 194.949 159.203 193.809 159.602 192.496C160 191.184 160.145 189.789 160.031 188.305C159.914 186.766 159.543 185.34 158.914 184.027C158.344 182.66 157.543 181.488 156.516 180.52C155.484 179.492 154.285 178.867 152.914 178.637C151.254 178.352 149.684 178.324 148.195 178.551C146.883 178.723 145.512 179.121 144.082 179.75C142.652 180.32 141.453 181.32 140.48 182.746C140.367 181.773 140.281 180.949 140.223 180.262C140.223 179.578 140.195 179.008 140.137 178.551C140.078 178.039 140.051 177.668 140.051 177.441C140.051 177.156 140.023 176.727 139.965 176.156C139.91 175.699 139.852 175.102 139.793 174.359C139.793 173.562 139.738 172.562 139.621 171.367C140.652 171.652 141.625 171.879 142.539 172.051C143.453 172.164 144.254 172.25 144.938 172.309C145.738 172.363 146.48 172.363 147.168 172.309C148.027 172.25 149.055 171.937 150.254 171.367C151.512 170.738 152.684 169.914 153.77 168.887C154.855 167.859 155.715 166.633 156.344 165.207C157.027 163.781 157.258 162.215 157.027 160.504C156.516 157.023 155.344 154.543 153.512 153.059C151.742 151.52 149.91 150.809 148.027 150.922C146.77 151.094 145.281 151.691 143.566 152.719C142.082 153.574 140.309 154.887 138.25 156.652C136.25 158.363 133.965 160.789 131.391 163.926C131.504 162.383 131.562 161.016 131.562 159.816C131.562 158.563 131.562 157.535 131.562 156.738C131.562 155.77 131.535 154.914 131.477 154.172L131.219 151.605C131.105 150.75 130.992 149.668 130.875 148.355C130.762 147.043 130.59 145.531 130.363 143.82ZM200.332 143.734C202.961 143.68 205.617 144.277 208.305 145.531C210.992 146.785 213.422 148.699 215.594 151.266C217.766 153.773 219.539 156.938 220.91 160.758C222.281 164.582 222.996 169.059 223.055 174.191C223.109 177.613 222.855 180.719 222.281 183.516C221.711 186.309 220.938 188.816 219.969 191.043C218.996 193.211 217.879 195.148 216.625 196.859C215.422 198.512 214.195 199.937 212.938 201.137C211.68 202.277 210.477 203.188 209.336 203.875C208.191 204.559 207.219 205.016 206.418 205.242C205.391 205.586 204.16 205.898 202.73 206.184C201.305 206.41 199.816 206.555 198.273 206.609C196.73 206.727 195.188 206.641 193.645 206.355C192.156 206.125 190.844 205.672 189.699 204.984C188.555 204.301 187.211 203.332 185.668 202.078C184.184 200.766 182.754 198.996 181.383 196.773C180.008 194.492 178.836 191.641 177.867 188.219C176.895 184.797 176.406 180.605 176.406 175.645C176.406 170.684 176.98 166.234 178.121 162.301C179.324 158.363 180.953 155.027 183.012 152.289C185.125 149.555 187.641 147.473 190.555 146.047C193.527 144.562 196.785 143.793 200.332 143.734ZM188.242 175.559C188.184 178.922 188.383 181.859 188.84 184.371C189.297 186.879 189.84 188.988 190.469 190.699C191.098 192.41 191.727 193.781 192.355 194.805C193.043 195.777 193.559 196.461 193.898 196.859C194.242 197.371 194.871 197.715 195.785 197.887C196.699 198.059 197.672 198.141 198.703 198.141C199.73 198.086 200.73 197.941 201.703 197.715C202.676 197.43 203.418 197.059 203.934 196.602C204.219 196.316 204.617 195.605 205.133 194.465C205.703 193.324 206.246 191.84 206.762 190.016C207.332 188.191 207.848 186.082 208.305 183.684C208.762 181.234 209.078 178.609 209.25 175.816C209.422 172.68 209.422 169.797 209.25 167.176C209.078 164.496 208.82 162.156 208.477 160.16C208.133 158.164 207.734 156.512 207.277 155.199C206.82 153.887 206.332 153.004 205.82 152.547C205.074 151.863 204.16 151.379 203.074 151.094C202.047 150.809 200.988 150.695 199.902 150.75C198.875 150.809 197.871 151.008 196.902 151.348C195.988 151.691 195.273 152.148 194.758 152.719C193.73 153.859 192.812 155.055 192.016 156.312C191.215 157.566 190.555 159.078 190.043 160.844C189.527 162.613 189.098 164.695 188.754 167.09C188.469 169.426 188.297 172.25 188.242 175.559Z" fill="white"/>
</svg>
