<svg width="100" height="100" viewBox="0 0 100 100" fill="none" xmlns="http://www.w3.org/2000/svg">
<rect width="100" height="100" fill="url(#paint0_radial_157_126)"/>
<rect width="100" height="100" fill="black" fill-opacity="0.15"/>
<path fill-rule="evenodd" clip-rule="evenodd" d="M50.6507 86.3012C62.9598 86.3012 72.9383 76.3227 72.9383 64.0137C72.9383 51.7046 62.9598 41.7261 50.6507 41.7261C38.3416 41.7261 28.3632 51.7046 28.3632 64.0137C28.3632 76.3227 38.3416 86.3012 50.6507 86.3012ZM49.6932 75.3572V77.7273H51.4403V75.3553C52.7343 75.2714 53.8601 75.0003 54.8175 74.5419C55.9964 73.9808 56.8913 73.2244 57.5021 72.2727C58.12 71.321 58.429 70.2557 58.429 69.0767C58.429 68.054 58.2195 67.1911 57.8004 66.4879C57.3814 65.7848 56.8487 65.2095 56.2024 64.7621C55.5632 64.3075 54.892 63.9489 54.1889 63.6861C53.4929 63.4233 52.8608 63.2173 52.2926 63.0682L51.4403 62.8387V55.263C52.4316 55.3584 53.291 55.6447 54.0185 56.1222C54.9276 56.7188 55.446 57.5568 55.5739 58.6364H58.1307C58.0952 57.5355 57.7543 56.5518 57.108 55.6854C56.4688 54.8189 55.6023 54.1371 54.5085 53.6399C53.5948 53.2187 52.5721 52.9734 51.4403 52.904V50.4545H49.6932V52.936C48.716 53.0348 47.8105 53.273 46.9766 53.6506C45.8544 54.1548 44.9595 54.8651 44.2919 55.7812C43.6314 56.6903 43.3011 57.7557 43.3011 58.9773C43.3011 60.4474 43.7983 61.6371 44.7926 62.5462C45.7869 63.4553 47.1364 64.1548 48.8409 64.6449L49.6932 64.8884V72.9541C49.1425 72.8971 48.6169 72.7836 48.1165 72.6136C47.3707 72.3509 46.7528 71.9531 46.2628 71.4205C45.7798 70.8807 45.5028 70.1989 45.4318 69.375H42.7045C42.7898 70.5682 43.1555 71.6158 43.8018 72.5178C44.4553 73.4197 45.3501 74.1229 46.4865 74.6271C47.4167 75.0374 48.4856 75.2807 49.6932 75.3572ZM51.4403 72.9515C52.0973 72.8822 52.7045 72.7341 53.2621 72.5071C54.0646 72.1733 54.7003 71.7116 55.169 71.1222C55.6378 70.5256 55.8722 69.8295 55.8722 69.0341C55.8722 68.3097 55.6697 67.7202 55.2649 67.2656C54.8601 66.8111 54.3274 66.4418 53.6669 66.1577C53.0064 65.8736 52.2926 65.625 51.5256 65.4119L51.4403 65.3876V72.9515ZM49.6932 62.3645V55.286C49.1243 55.3574 48.6058 55.4941 48.1378 55.696C47.4205 56.0085 46.8594 56.4382 46.4545 56.9851C46.0568 57.532 45.858 58.1534 45.858 58.8494C45.858 59.4318 45.9964 59.9325 46.2734 60.3516C46.5575 60.7635 46.9197 61.108 47.3601 61.3849C47.8004 61.6548 48.2621 61.8785 48.745 62.0561C49.0799 62.1743 49.3959 62.2771 49.6932 62.3645Z" fill="white"/>
<path fill-rule="evenodd" clip-rule="evenodd" d="M86.3108 39.7448C86.3108 47.0853 81.9948 53.4178 75.7621 56.343C74.9404 53.6497 73.6973 51.1402 72.1097 48.8913C72.2371 48.8523 72.3639 48.8104 72.4901 48.7656C73.4915 48.4034 74.3651 47.8707 75.1108 47.1676L74.0455 44.9517C73.6335 45.3068 73.1825 45.6264 72.6925 45.9105C72.2095 46.1946 71.6875 46.4183 71.1264 46.5817C70.8968 46.6494 70.661 46.7031 70.4191 46.7427C68.5304 44.5826 66.2932 42.7348 63.7954 41.2869H69.8267L70.8068 39.1562H62.9975C62.9764 38.8122 62.9659 38.4571 62.9659 38.0909C62.9659 37.7247 62.9764 37.3696 62.9975 37.0256H71.6591L72.6392 34.8949H63.2945C63.426 34.3243 63.597 33.7952 63.8075 33.3075C64.3686 32.0078 65.1321 31.0241 66.098 30.3565C67.0639 29.6889 68.1506 29.3551 69.358 29.3551C69.9688 29.3551 70.5511 29.4368 71.1051 29.6001C71.6591 29.7635 72.1882 29.9943 72.6925 30.2926C73.1967 30.5909 73.6761 30.946 74.1307 31.358L75.1534 29.142C74.3864 28.4176 73.5092 27.8601 72.522 27.4695C71.5419 27.0788 70.4872 26.8835 69.358 26.8835C67.6108 26.8835 66.0625 27.3381 64.7131 28.2472C63.3707 29.1562 62.3161 30.4489 61.549 32.125C61.1663 32.9691 60.88 33.8923 60.69 34.8949H58.5341L57.767 37.0256H60.4374C60.4185 37.3729 60.4091 37.728 60.4091 38.0909C60.4091 38.4538 60.4185 38.8089 60.4374 39.1562H59.1091C56.4551 38.2534 53.6101 37.7637 50.6507 37.7637C50.3541 37.7637 50.0586 37.7686 49.7644 37.7784C50.7455 28.5823 58.529 21.4194 67.9855 21.4194C78.1063 21.4194 86.3108 29.624 86.3108 39.7448Z" fill="white"/>
<path fill-rule="evenodd" clip-rule="evenodd" d="M50.282 27.6498C48.4034 30.6637 47.2837 34.1995 47.1901 37.99C39.5796 38.9923 32.9964 43.2549 28.8894 49.3291C20.411 47.7209 14 40.2718 14 31.3253C14 21.2045 22.2045 13 32.3253 13C41.1873 13 48.58 19.2904 50.282 27.6498ZM32.0318 30.5369L27.272 20.1818H24.3317L29.7896 31.1335H26.0363V33.0511H30.7453L30.809 33.179V35.3523H26.0363V37.2699H30.809V42H33.451V37.2699H38.2238V35.3523H33.451V33.179L33.5147 33.0511H38.2238V31.1335H34.4704L39.9283 20.1818H36.988L32.2282 30.5369H32.0318Z" fill="white"/>
<defs>
<radialGradient id="paint0_radial_157_126" cx="0" cy="0" r="1" gradientUnits="userSpaceOnUse" gradientTransform="translate(50 50) rotate(90) scale(50)">
<stop stop-color="#8E35FF"/>
<stop offset="0.0001" stop-color="#B455FF"/>
<stop offset="0.885" stop-color="#A70FEF"/>
<stop offset="1" stop-color="#A50DED"/>
</radialGradient>
</defs>
</svg>
