<svg width="100" height="100" viewBox="0 0 100 100" fill="none" xmlns="http://www.w3.org/2000/svg">
<rect width="100" height="100" fill="#D4D811"/>
<rect width="100" height="100" fill="black" fill-opacity="0.15"/>
<path d="M47.2491 32.0537C48.3747 29.9203 51.4302 29.9203 52.5558 32.0537L56.2067 38.9735C56.6408 39.7963 57.432 40.3711 58.3486 40.5297L66.058 41.8636C68.4348 42.2748 69.379 45.1808 67.6978 46.9105L62.2449 52.5212C61.5965 53.1882 61.2943 54.1183 61.4268 55.0391L62.5404 62.7833C62.8838 65.1709 60.4119 66.9669 58.2473 65.9025L51.2262 62.4502C50.3914 62.0397 49.4135 62.0397 48.5787 62.4502L41.5577 65.9025C39.393 66.9669 36.9211 65.1709 37.2645 62.7833L38.3782 55.0391C38.5106 54.1183 38.2084 53.1882 37.56 52.5212L32.1071 46.9105C30.4259 45.1808 31.3701 42.2748 33.7469 41.8636L41.4563 40.5297C42.3729 40.3711 43.1641 39.7963 43.5982 38.9735L47.2491 32.0537Z" fill="white"/>
<path fill-rule="evenodd" clip-rule="evenodd" d="M77.8293 49.9028C77.8293 64.8138 65.5966 76.9759 50.4146 76.9759C45.2209 76.9759 40.3723 75.5526 36.2406 73.0827L33.6013 76.1556C38.4628 79.2082 44.23 80.9759 50.4146 80.9759C67.7645 80.9759 81.8293 67.064 81.8293 49.9028C81.8293 32.7415 67.7645 18.8296 50.4146 18.8296C33.0648 18.8296 19 32.7415 19 49.9028C19 60.2126 24.0762 69.3497 31.8913 75.0021L34.5075 71.9561C27.5341 67.04 23 58.9808 23 49.9028C23 34.9918 35.2326 22.8296 50.4146 22.8296C65.5966 22.8296 77.8293 34.9918 77.8293 49.9028Z" fill="white"/>
<path fill-rule="evenodd" clip-rule="evenodd" d="M83.8049 49.561C83.8049 68.0621 68.6604 83.1219 49.9024 83.1219C31.1444 83.1219 16 68.0621 16 49.561C16 40.9371 19.2905 33.0609 24.7037 27.1091L21.6806 24.4877C15.6614 31.1369 12 39.9252 12 49.561C12 70.3053 28.9695 87.1219 49.9024 87.1219C70.8354 87.1219 87.8049 70.3053 87.8049 49.561C87.8049 28.8166 70.8354 12 49.9024 12C39.4342 12 29.9571 16.2056 23.0978 23.0049L26.1295 25.6337C32.243 19.6788 40.6314 16 49.9024 16C68.6604 16 83.8049 31.0598 83.8049 49.561Z" fill="white"/>
</svg>
