<svg width="100" height="99" viewBox="0 0 100 99" fill="none" xmlns="http://www.w3.org/2000/svg">
<rect x="49.7109" width="69.7992" height="69.7992" rx="10" transform="rotate(45 49.7109 0)" fill="white"/>
<path d="M31.7227 26.832C34.457 27.0599 36.8496 27.1966 38.9004 27.2422C40.9967 27.2878 42.7741 27.3105 44.2324 27.3105C45.9186 27.3105 47.377 27.265 48.6074 27.1738C49.8835 27.0371 51.5469 26.8548 53.5977 26.627C55.3294 26.3991 57.5625 26.1029 60.2969 25.7383C63.0312 25.3281 66.3581 24.804 70.2773 24.166C69.776 24.9408 69.3431 25.7611 68.9785 26.627C68.6595 27.4473 68.3861 28.1992 68.1582 28.8828C67.9303 29.7031 67.7253 30.5007 67.543 31.2754C67.4062 32.1413 67.2467 33.2122 67.0645 34.4883C66.8822 35.582 66.6543 36.972 66.3809 38.6582C66.153 40.2988 65.8568 42.2585 65.4922 44.5371C64.125 40.9824 62.735 38.248 61.3223 36.334C59.9551 34.4199 58.679 33.0072 57.4941 32.0957C56.127 31.0475 54.8281 30.4551 53.5977 30.3184C51.8203 30.3184 50.362 30.6602 49.2227 31.3438C48.0833 32.0273 47.1491 32.916 46.4199 34.0098C45.7363 35.0579 45.2122 36.2201 44.8477 37.4961C44.4831 38.7266 44.2324 39.9342 44.0957 41.1191C43.959 42.2585 43.8678 43.2839 43.8223 44.1953C43.7767 45.0612 43.7311 45.6536 43.6855 45.9727C45.2806 45.8815 46.625 45.7676 47.7188 45.6309C48.8125 45.4941 49.6784 45.3574 50.3164 45.2207C51.0911 45.0384 51.7064 44.8561 52.1621 44.6738C52.8457 44.3092 53.5293 43.8763 54.2129 43.375C54.8053 42.9193 55.4206 42.3724 56.0586 41.7344C56.7422 41.0964 57.3346 40.3216 57.8359 39.4102C57.5625 41.0508 57.3118 42.418 57.084 43.5117C56.9017 44.6055 56.7422 45.4714 56.6055 46.1094C56.4232 46.8841 56.3092 47.4766 56.2637 47.8867C56.1725 48.2969 56.0586 48.8665 55.9219 49.5957C55.7852 50.2337 55.6257 51.054 55.4434 52.0566C55.2611 53.0592 55.056 54.3125 54.8281 55.8164C54.2812 54.8594 53.7116 54.0846 53.1191 53.4922C52.5267 52.8542 51.9798 52.3529 51.4785 51.9883C50.8861 51.5781 50.3164 51.2591 49.7695 51.0312C49.1771 50.849 48.5391 50.6667 47.8555 50.4844C47.263 50.3477 46.5566 50.2109 45.7363 50.0742C44.9616 49.8919 44.1185 49.7324 43.207 49.5957C43.2982 52.0566 43.4349 54.1758 43.6172 55.9531C43.7995 57.6849 43.959 59.1432 44.0957 60.3281C44.278 61.6953 44.4603 62.8346 44.6426 63.7461C44.8704 64.6576 45.235 65.6374 45.7363 66.6855C46.1465 67.597 46.7161 68.6452 47.4453 69.8301C48.2201 70.9694 49.1999 72.1999 50.3848 73.5215C49.4733 73.2936 48.5163 73.1341 47.5137 73.043C46.5111 72.9518 45.6224 72.8835 44.8477 72.8379C43.8906 72.7923 42.9792 72.7923 42.1133 72.8379C41.2018 72.8835 40.1992 72.9746 39.1055 73.1113C38.194 73.2025 37.1458 73.3392 35.9609 73.5215C34.776 73.7038 33.5228 73.9089 32.2012 74.1367C32.9759 73.362 33.6139 72.5872 34.1152 71.8125C34.6165 71.0378 34.9811 70.3542 35.209 69.7617C35.4824 69.0781 35.6647 68.4173 35.7559 67.7793C35.8014 67.2324 35.8242 66.0475 35.8242 64.2246C35.8242 62.3561 35.8014 60.1914 35.7559 57.7305C35.7103 55.224 35.6419 52.5807 35.5508 49.8008C35.4596 47.0208 35.3685 44.4232 35.2773 42.0078C35.1862 39.5469 35.0723 37.4505 34.9355 35.7188C34.8444 33.987 34.7305 32.9388 34.5938 32.5742C34.4115 32.1185 34.2064 31.5944 33.9785 31.002C33.6139 30.0449 32.862 28.6549 31.7227 26.832Z" fill="#F84848"/>
</svg>
