<svg width="300" height="300" viewBox="0 0 300 300" fill="none" xmlns="http://www.w3.org/2000/svg">
<g clip-path="url(#clip0_912_320)">
<path d="M300 0H0V300H300V0Z" fill="#B384ED"/>
<path d="M292.676 150C292.676 71.2032 228.797 7.32422 150 7.32422C71.2032 7.32422 7.32422 71.2032 7.32422 150C7.32422 228.797 71.2032 292.676 150 292.676C228.797 292.676 292.676 228.797 292.676 150Z" stroke="white" stroke-width="14.6485"/>
<path fill-rule="evenodd" clip-rule="evenodd" d="M174.84 46.0586V31.0547C222.059 40.7969 259.27 77.9414 269.105 125.133H254.094C244.758 86.0508 213.953 55.3086 174.84 46.0586ZM271.66 150.555C271.66 150.387 271.66 150.219 271.66 150.051C271.66 149.879 271.66 149.711 271.66 149.543V150.555Z" fill="white"/>
<path fill-rule="evenodd" clip-rule="evenodd" d="M174.84 254.039V269.043C222.059 259.301 259.27 222.156 269.105 174.965H254.094C244.758 214.047 213.953 244.793 174.84 254.039ZM271.66 149.543C271.66 149.711 271.66 149.879 271.66 150.051C271.66 150.219 271.66 150.387 271.66 150.555V149.543Z" fill="white"/>
<path fill-rule="evenodd" clip-rule="evenodd" d="M122.684 46.0586V31.0547C75.4609 40.7969 38.2539 77.9414 28.418 125.133H43.4297C52.7656 86.0508 83.5703 55.3086 122.684 46.0586Z" fill="white"/>
<path fill-rule="evenodd" clip-rule="evenodd" d="M122.684 254.039V269.043C75.4609 259.301 38.2539 222.156 28.418 174.965H43.4297C52.7656 214.047 83.5703 244.793 122.684 254.039Z" fill="white"/>
<path d="M35.1562 135.645L38.3789 145.562H48.8086L40.3711 151.695L43.5938 161.613L35.1562 155.484L26.7188 161.613L29.9414 151.695L21.5039 145.562H31.9336L35.1562 135.645Z" fill="white"/>
<path d="M262.207 135.645L265.43 145.562H275.859L267.422 151.695L270.645 161.613L262.207 155.484L253.77 161.613L256.992 151.695L248.555 145.562H258.984L262.207 135.645Z" fill="white"/>
<path d="M150 250.195L153.223 260.113H163.652L155.215 266.246L158.438 276.164L150 270.035L141.562 276.164L144.785 266.246L136.348 260.113H146.777L150 250.195Z" fill="white"/>
<path d="M150 21.0938L153.223 31.0117H163.652L155.215 37.1445L158.438 47.0625L150 40.9336L141.562 47.0625L144.785 37.1445L136.348 31.0117H146.777L150 21.0938Z" fill="white"/>
<path d="M77.8047 108.98C81.4766 107.828 84.4687 106.883 86.7734 106.148C89.082 105.312 90.9727 104.629 92.4414 104.105C94.1172 103.473 95.375 102.898 96.2148 102.375L99.9922 100.484C101.461 99.75 103.352 98.8047 105.656 97.6523C107.965 96.3945 110.957 94.8203 114.625 92.9336C113.789 96.918 113.16 100.695 112.738 104.262C112.422 107.723 112.16 110.816 111.953 113.547C111.637 116.691 111.48 119.578 111.48 122.199C111.375 124.402 111.219 127.34 111.008 131.012C110.902 134.684 110.746 138.672 110.535 142.973C110.324 147.273 110.117 151.68 109.906 156.188C109.695 160.699 109.539 164.949 109.434 168.934C109.434 172.816 109.488 176.172 109.59 179.004C109.801 181.84 110.168 183.777 110.691 184.828C111.219 186.086 111.898 187.293 112.738 188.445C113.473 189.496 114.313 190.703 115.258 192.066C116.305 193.324 117.562 194.586 119.031 195.844C116.621 196.367 114.363 196.84 112.266 197.258C110.168 197.574 108.332 197.836 106.758 198.047C104.871 198.359 103.191 198.621 101.723 198.832C100.148 198.938 98 199.199 95.2734 199.621C92.9648 199.934 90.0273 200.355 86.4609 200.879C82.8945 201.297 78.4883 201.77 73.2422 202.293C75.9687 200.617 78.1211 198.988 79.6953 197.418C81.3711 195.844 82.6328 194.48 83.4688 193.324C84.4141 191.961 84.9922 190.648 85.2031 189.391C85.3047 188.551 85.4648 186.297 85.6719 182.625C85.9883 178.848 86.25 174.441 86.4609 169.406C86.7734 164.266 87.0391 158.812 87.2461 153.043C87.5625 147.168 87.7695 141.711 87.875 136.676C87.9805 131.641 88.0352 127.34 88.0352 123.773C88.0352 120.207 87.875 118.055 87.5625 117.32C87.1406 116.586 86.5117 115.75 85.6719 114.805C84.9375 113.965 83.9414 113.074 82.6836 112.129C81.5312 111.184 79.9023 110.137 77.8047 108.98ZM129.004 146.031C130.09 146.832 131.18 147.434 132.266 147.836C133.41 148.18 134.441 148.406 135.355 148.52C136.387 148.691 137.414 148.723 138.445 148.605C139.418 148.492 140.418 148.148 141.449 147.578C142.48 147.004 143.68 146.406 145.055 145.773C146.426 145.145 148.027 144.602 149.859 144.145C151.75 143.629 154.008 143.371 156.641 143.371C157.785 143.371 158.988 143.602 160.246 144.059C161.562 144.516 162.82 145.117 164.023 145.859C165.223 146.547 166.313 147.32 167.285 148.18C168.313 149.035 169.086 149.895 169.602 150.754C170.172 151.609 170.574 153.012 170.805 154.957C171.031 156.848 171.117 158.906 171.062 161.141C171.004 163.371 170.805 165.574 170.461 167.746C170.172 169.922 169.746 171.695 169.172 173.07C168.484 174.27 167.168 175.816 165.223 177.703C163.566 179.305 161.074 181.367 157.758 183.883C154.438 186.402 149.977 189.406 144.367 192.895C147.687 192.84 150.461 192.754 152.691 192.637C154.98 192.465 156.84 192.297 158.273 192.125C159.93 191.895 161.246 191.664 162.219 191.438C163.078 191.094 163.992 190.605 164.965 189.977C165.766 189.406 166.625 188.66 167.543 187.746C168.516 186.832 169.457 185.629 170.375 184.141C170.547 187.23 170.719 189.664 170.891 191.438C171.004 192.465 171.09 193.352 171.148 194.098C171.203 194.785 171.262 195.586 171.316 196.5C171.375 197.301 171.402 198.219 171.402 199.246C171.461 200.277 171.547 201.363 171.66 202.508C168.801 201.766 166.195 201.191 163.852 200.793C161.504 200.336 159.504 200.02 157.844 199.848C155.898 199.621 154.152 199.504 152.605 199.504C151.004 199.563 149.23 199.703 147.285 199.934C145.57 200.164 143.508 200.508 141.105 200.965C138.758 201.363 136.098 201.965 133.125 202.766C132.895 202.137 132.695 201.508 132.523 200.879C132.352 200.191 132.207 199.535 132.094 198.902C131.922 198.219 131.777 197.531 131.664 196.844C131.551 196.156 131.434 195.5 131.32 194.871C131.207 194.297 131.121 193.695 131.062 193.066C131.008 192.438 130.949 191.836 130.891 191.266C135.469 188.348 139.188 185.715 142.051 183.367C144.91 180.965 147.172 178.934 148.832 177.273C150.719 175.328 152.148 173.555 153.121 171.953C154.094 170.008 154.895 167.863 155.523 165.516C156.156 163.168 156.355 160.996 156.125 158.992C155.953 156.988 155.266 155.359 154.066 154.102C152.863 152.785 150.949 152.211 148.316 152.383C146.598 152.5 144.969 153.098 143.422 154.188C141.934 155.273 140.562 156.59 139.305 158.133C138.043 159.68 136.93 161.34 135.957 163.113C134.984 164.828 134.152 166.461 133.465 168.004C132.836 169.551 132.32 170.836 131.922 171.867C131.578 172.898 131.406 173.441 131.406 173.5C131.352 173.613 131.266 173.184 131.148 172.211C131.094 171.238 131.008 170.035 130.891 168.605C130.836 167.117 130.75 165.574 130.633 163.973C130.52 162.367 130.406 161.023 130.293 159.938C130.234 159.078 130.148 157.965 130.035 156.59C129.863 154.359 129.52 150.84 129.004 146.031ZM179.645 146.031C180.73 146.832 181.816 147.434 182.906 147.836C184.051 148.18 185.078 148.406 185.996 148.52C187.023 148.691 188.055 148.723 189.086 148.605C190.059 148.492 191.059 148.148 192.09 147.578C193.121 147.004 194.32 146.406 195.695 145.773C197.066 145.145 198.668 144.602 200.5 144.145C202.387 143.629 204.648 143.371 207.281 143.371C208.426 143.371 209.629 143.602 210.887 144.059C212.203 144.516 213.461 145.117 214.664 145.859C215.863 146.547 216.953 147.32 217.926 148.18C218.953 149.035 219.727 149.895 220.242 150.754C220.812 151.609 221.215 153.012 221.441 154.957C221.672 156.848 221.758 158.906 221.699 161.141C221.645 163.371 221.441 165.574 221.102 167.746C220.813 169.922 220.383 171.695 219.812 173.07C219.125 174.27 217.809 175.816 215.863 177.703C214.203 179.305 211.715 181.367 208.398 183.883C205.078 186.402 200.613 189.406 195.008 192.895C198.324 192.84 201.102 192.754 203.332 192.637C205.621 192.465 207.48 192.297 208.91 192.125C210.57 191.895 211.887 191.664 212.859 191.438C213.719 191.094 214.633 190.605 215.605 189.977C216.406 189.406 217.266 188.66 218.184 187.746C219.156 186.832 220.098 185.629 221.016 184.141C221.188 187.23 221.355 189.664 221.527 191.438C221.645 192.465 221.73 193.352 221.785 194.098C221.844 194.785 221.902 195.586 221.957 196.5C222.016 197.301 222.043 198.219 222.043 199.246C222.102 200.277 222.188 201.363 222.301 202.508C219.441 201.766 216.836 201.191 214.492 200.793C212.145 200.336 210.141 200.02 208.484 199.848C206.539 199.621 204.793 199.504 203.246 199.504C201.645 199.563 199.871 199.703 197.926 199.934C196.211 200.164 194.148 200.508 191.746 200.965C189.398 201.363 186.738 201.965 183.762 202.766C183.535 202.137 183.336 201.508 183.164 200.879C182.992 200.191 182.848 199.535 182.734 198.902C182.562 198.219 182.418 197.531 182.305 196.844C182.191 196.156 182.074 195.5 181.961 194.871C181.848 194.297 181.762 193.695 181.703 193.066C181.648 192.438 181.59 191.836 181.531 191.266C186.109 188.348 189.828 185.715 192.691 183.367C195.551 180.965 197.812 178.934 199.469 177.273C201.359 175.328 202.789 173.555 203.762 171.953C204.734 170.008 205.535 167.863 206.164 165.516C206.793 163.168 206.996 160.996 206.766 158.992C206.594 156.988 205.906 155.359 204.707 154.102C203.504 152.785 201.586 152.211 198.957 152.383C197.238 152.5 195.609 153.098 194.062 154.188C192.574 155.273 191.203 156.59 189.941 158.133C188.684 159.68 187.57 161.34 186.598 163.113C185.625 164.828 184.793 166.461 184.105 168.004C183.477 169.551 182.961 170.836 182.562 171.867C182.219 172.898 182.047 173.441 182.047 173.5C181.988 173.613 181.902 173.184 181.789 172.211C181.73 171.238 181.648 170.035 181.531 168.605C181.477 167.117 181.391 165.574 181.273 163.973C181.16 162.367 181.047 161.023 180.93 159.938C180.875 159.078 180.789 157.965 180.672 156.59C180.5 154.359 180.16 150.84 179.645 146.031Z" fill="white"/>
</g>
<defs>
<clipPath id="clip0_912_320">
<rect width="300" height="300" fill="white"/>
</clipPath>
</defs>
</svg>
